<svg width="48" height="48" viewBox="0 0 48 48" fill="none" xmlns="http://www.w3.org/2000/svg">
<path d="M24.9582 25.0834H9.62484C9.37067 25.0834 9.12692 25.1844 8.94719 25.3641C8.76747 25.5438 8.6665 25.7876 8.6665 26.0417V37.5417C8.6665 37.7959 8.76747 38.0397 8.94719 38.2194C9.12692 38.3991 9.37067 38.5001 9.62484 38.5001H24.9582C25.2123 38.5001 25.4561 38.3991 25.6358 38.2194C25.8155 38.0397 25.9165 37.7959 25.9165 37.5417V26.0417C25.9165 25.7876 25.8155 25.5438 25.6358 25.3641C25.4561 25.1844 25.2123 25.0834 24.9582 25.0834ZM23.9998 36.5834H10.5832V27.0001H23.9998V36.5834Z" fill="#40344E"/>
<path d="M46.9923 12.5857C46.9879 12.4878 46.9685 12.3912 46.9348 12.2992C46.9262 12.2762 46.9214 12.2522 46.9109 12.2302C46.9061 12.2187 46.9042 12.2072 46.8994 12.1966L43.066 4.52996C42.9863 4.37072 42.8639 4.23681 42.7124 4.14321C42.5609 4.04961 42.3864 4.00003 42.2083 4H5.79167C5.42846 4 5.09687 4.20508 4.93396 4.52996L1.10062 12.1966C1.09487 12.2081 1.09296 12.2215 1.08817 12.234C1.07954 12.2532 1.07475 12.2733 1.06708 12.2934C1.03051 12.3897 1.01011 12.4914 1.00671 12.5943C1.00575 12.6049 1 12.6135 1 12.625V14.5417C1 17.2106 2.57167 19.5145 4.83333 20.5935V43.2917C4.83333 43.5458 4.9343 43.7896 5.11402 43.9693C5.29375 44.149 5.5375 44.25 5.79167 44.25H42.2083C42.4625 44.25 42.7063 44.149 42.886 43.9693C43.0657 43.7896 43.1667 43.5458 43.1667 43.2917V20.5935C45.4283 19.5145 47 17.2106 47 14.5417V12.625C47 12.6106 46.9923 12.5991 46.9923 12.5857ZM44.4911 11.6667H37.2058L35.7683 5.91667H41.6161L44.4911 11.6667ZM35.5 18.0664C34.1986 19.9764 31.9245 21.25 29.75 21.25C28.8557 21.2471 27.971 21.0653 27.1481 20.7152C26.3252 20.3652 25.5806 19.8539 24.9583 19.2116V13.5833H35.5V18.0664ZM12.5 13.5833H23.0417V19.2116C22.4196 19.8543 21.6752 20.3657 20.8522 20.7158C20.0292 21.0659 19.1444 21.2476 18.25 21.25C16.0755 21.25 13.8024 19.9773 12.5 18.0683V13.5833ZM23.0417 5.91667V11.6667H12.7693L14.2058 5.91667H23.0417ZM33.7932 5.91667L35.2307 11.6667H24.9583V5.91667H33.7932ZM6.38392 5.91667H12.2307L10.7932 11.6667H3.50892L6.38392 5.91667ZM2.91667 14.5417V13.5833H10.5833V17.9629C9.55792 18.9155 8.68104 19.3333 7.70833 19.3333C5.06621 19.3333 2.91667 17.1838 2.91667 14.5417ZM29.75 42.3333V27H37.4167V42.3333H29.75ZM41.25 42.3333H39.3333V26.0417C39.3333 25.7875 39.2324 25.5437 39.0526 25.364C38.8729 25.1843 38.6292 25.0833 38.375 25.0833H28.7917C28.5375 25.0833 28.2937 25.1843 28.114 25.364C27.9343 25.5437 27.8333 25.7875 27.8333 26.0417V42.3333H6.75V21.1733C7.06433 21.2184 7.3825 21.25 7.70833 21.25C9.25317 21.25 10.4798 20.5495 11.396 19.802C13.0932 21.849 15.7238 23.1667 18.25 23.1667C20.373 23.1646 22.4205 22.379 24 20.9606C25.5797 22.3787 27.6271 23.1642 29.75 23.1667C32.2762 23.1667 34.9058 21.849 36.6021 19.8039C37.5422 20.5753 38.7449 21.25 40.2917 21.25C40.6175 21.25 40.9357 21.2184 41.25 21.1733V42.3333ZM45.0833 14.5417C45.0833 17.1838 42.9338 19.3333 40.2917 19.3333C39.3209 19.3333 38.445 18.9155 37.4167 17.9629V13.5833H45.0833V14.5417Z" fill="#40344E"/>
<path d="M34.5418 36.5833C35.0711 36.5833 35.5002 36.1542 35.5002 35.6249C35.5002 35.0956 35.0711 34.6666 34.5418 34.6666C34.0126 34.6666 33.5835 35.0956 33.5835 35.6249C33.5835 36.1542 34.0126 36.5833 34.5418 36.5833Z" fill="#40344E"/>
</svg>
