<?xml version="1.0" encoding="UTF-8" standalone="no"?>
<svg width="256px" height="318px" viewBox="0 0 256 318" version="1.1" xmlns="http://www.w3.org/2000/svg" xmlns:xlink="http://www.w3.org/1999/xlink">
    <!-- Generator: Sketch 43.2 (39069) - http://www.bohemiancoding.com/sketch -->
    <title>framed print</title>
    <desc>Created with Sketch.</desc>
    <defs></defs>
    <g id="Page-1" stroke="none" stroke-width="1" fill="none" fill-rule="evenodd">
        <g id="framed-print" transform="translate(128.500000, 158.500000) rotate(-6.000000) translate(-128.500000, -158.500000) translate(-13.000000, -8.000000)" fill-rule="nonzero" fill="#865cd0">
            <path d="M77.4,0.4 C78,0.6 78.5,0.9 79.1,0.9 C81,1.1 82.9,1.2 84.9,1.4 C86.5,1.5 88.1,1.6 89.8,1.8 C90.9,1.9 91.9,2.2 93,2.4 C94.4,2.6 95.8,2.7 97.2,2.9 C98.2,3 99.2,3.2 100.3,3.3 C101.8,3.5 103.4,3.6 104.9,3.7 C105.8,3.8 106.7,3.9 107.6,4.1 C108.6,4.3 109.6,4.3 110.5,4.7 C112.9,5.8 115.5,5.6 118,6.4 C120.4,7.2 123,7.3 125.6,7.8 C127.8,8.2 130,8.6 132.2,9 C132.8,9.1 133.5,9.1 134.1,9.2 C135.2,9.4 136.3,9.6 137.4,9.7 C138.8,9.9 140.1,10 141.5,10.2 C142.2,10.3 142.9,10.5 143.6,10.6 C145,10.9 146.3,11.3 147.7,11.5 C148.5,11.7 149.3,11.6 150.1,11.8 C151.5,12.1 152.9,12.6 154.3,12.9 C155.3,13.1 156.3,13.2 157.4,13.4 C159.3,13.7 161.2,13.9 163.1,14.2 C165.4,14.5 167.8,14.8 170.1,15.2 C171.6,15.4 173.1,15.9 174.6,16.2 C176.3,16.5 178,16.6 179.7,16.9 C181.2,17.1 182.7,17.4 184.3,17.7 C186.5,18 188.7,18.3 190.9,18.7 C192.1,18.9 193.2,19.4 194.4,19.7 C195.7,19.9 197,19.9 198.2,20.1 C201.6,20.6 205.1,21.1 208.5,21.7 C210.4,22.1 212.2,22.8 214,23.3 C215.6,23.7 217.3,24.1 218.9,24.4 C221.4,24.9 224,25.4 226.5,26 C228.5,26.4 230.5,26.8 232.4,27.3 C235,27.9 237.6,28.6 240.2,29.1 C244,29.9 247.8,30.5 251.5,31.3 C255,32 258.4,32.7 261.9,33.4 C263.9,33.8 265.9,34 267.8,34.4 C270.5,35 273.3,35.7 276,36.3 C277.1,36.6 278.2,36.9 279.3,37.3 C280.6,37.7 281.7,38.5 282.2,39.9 C282.4,40.6 282.3,41.6 282.1,42.3 C281.1,47.1 280,51.9 279,56.7 C278.5,59.2 278.1,61.8 277.6,64.3 C277.2,66.6 276.6,68.9 276.2,71.2 C275.5,74.5 274.9,77.9 274.3,81.2 C274.1,82.3 273.8,83.4 273.6,84.5 C273.1,87 272.6,89.5 272.2,91.9 C271.7,94.6 271.3,97.4 270.8,100.1 C270,104.2 269.1,108.3 268.3,112.4 C267.6,115.9 267.1,119.4 266.4,122.9 C266,125.3 265.4,127.7 265,130.1 C264.5,132.9 264,135.8 263.5,138.7 C263,141.2 262.5,143.6 262,146.1 C261.5,148.4 261.1,150.7 260.6,152.9 C260.2,154.7 259.6,156.4 259.2,158.2 C258.7,160.3 258.4,162.4 258,164.5 C257.4,167.7 256.7,170.8 256,174 C255.5,176.2 254.9,178.3 254.4,180.5 C253.9,182.6 253.6,184.8 253.2,187 C252.9,188.2 252.5,189.4 252.3,190.7 C252,192.6 251.8,194.4 251.4,196.3 C251.2,197.2 250.9,198 250.7,198.8 C250.5,199.5 250.6,200.2 250.4,200.9 C249.8,203.7 249,206.6 248.4,209.4 C247.9,212.2 247.6,215.1 247.1,218 C246.6,220.8 245.9,223.6 245.4,226.4 C245,228.3 244.8,230.3 244.4,232.2 C244.1,234 243.6,235.7 243.2,237.4 C242.7,239.8 242.3,242.2 241.8,244.6 C240.9,248.8 240,252.9 239.1,257.1 C238.7,259.2 238.4,261.4 237.9,263.5 C237.4,265.7 236.7,267.8 236.3,270 C235.9,271.8 235.7,273.6 235.4,275.4 C234.9,278.2 234.2,281 233.7,283.7 C233,287 232.4,290.3 231.8,293.5 C231.6,294.7 231.3,295.9 230.9,297 C230.7,297.5 230,297.8 229.9,298.3 C229.4,300.3 229,302.4 228.5,304.5 C228.1,306.3 227.8,308.1 227.4,309.8 C226.9,312 226.1,314.1 225.9,316.3 C225.8,318.1 224.8,318.6 223.6,319.6 C220.9,321.9 218.1,323.9 215.1,325.8 C213.2,327 211.2,327.9 209.3,329 C207.4,330 205.7,331.2 203.8,332.2 C202.9,332.6 201.8,333 200.9,332.6 C198.7,331.6 196.4,332.3 194.1,331.9 C193.3,331.8 192.5,331.7 191.7,331.6 C188.1,331 184.5,330.5 180.9,329.9 C178.5,329.5 176.1,329 173.7,328.6 C172,328.3 170.2,328.1 168.4,327.9 C166.9,327.7 165.4,327.5 164,327.2 C163.7,327.1 163.4,326.6 163.1,326.6 C162.2,326.4 161.4,326.4 160.5,326.3 C158.9,326.1 157.3,326.1 155.7,325.7 C153.4,325.1 151.1,324.9 148.8,324.5 C146.3,324.1 143.9,323.2 141.4,322.6 C140.6,322.4 139.7,322.4 138.8,322.3 C137.9,322.2 137,322.1 136.1,321.9 L135.9,321.9 C134.8,320.7 133.1,321.5 131.8,320.8 C130.1,319.8 128,320.5 126.2,319.7 C125.2,319.2 123.9,319.3 122.8,319 C122.4,318.9 122,318.6 121.7,318.4 C121.6,318.3 121.4,318.2 121.4,318.2 C120.5,319.2 119.7,318 118.8,318 C118.2,318 117.6,317.5 117,317.3 C116.8,318.1 116.1,317.6 115.8,317.5 C115.4,317.5 115,317 114.7,316.8 C114.7,317.3 114.4,317.5 113.6,317.1 C112.1,316.5 110.6,316 109,315.6 C107.9,315.3 106.7,315.3 105.6,315.1 C100.4,314 95.1,312.8 89.9,311.7 C88.2,311.3 86.4,311.1 84.7,310.9 C80.9,310.3 77,309.7 73.2,309.1 C71.2,308.8 69.1,308.5 67.1,308.2 C66.5,308.1 65.9,307.7 65.3,307.4 C65.2,307.4 65.1,307.4 65,307.5 C64.9,307.6 64.7,307.7 64.6,307.7 C62.6,307.3 60.5,307 58.5,306.5 C54.5,305.7 50.5,304.8 46.6,304 C42.8,303.3 39,302.7 35.2,301.9 C31.1,301 27,300.1 22.9,299.1 C19.7,298.3 16.6,297.5 13.4,296.7 C11.1,296.1 8.9,295.4 6.7,294.7 C6.1,294.5 5.6,294.2 5,294.8 C4.9,294.9 4.3,294.7 3.9,294.6 C3.4,294.4 3,294.1 2.5,293.8 C2.1,293.5 1.7,293.2 1.3,292.9 C0.9,292.6 0.6,292.4 0.2,292.1 L0.2,290.7 C0.5,288.2 0.9,285.6 1.1,283.1 C1.7,277.5 2.2,271.9 2.9,266.3 C3.3,262.7 3.9,259.2 4.5,255.7 C5.1,251.6 5.7,247.5 6.3,243.4 C6.9,239.9 7.5,236.4 8.1,233 C9,228 9.9,223 10.8,217.9 C11.6,213.3 12.4,208.7 13.2,204.1 C13.8,200.8 14.2,197.4 14.7,194.1 C15.1,192 15.6,189.9 16,187.9 C16.4,185.8 16.7,183.7 17.1,181.6 C17.6,178.9 18.3,176.2 18.8,173.4 C19.5,169.6 20.2,165.7 20.9,161.9 C21.4,159.2 21.9,156.4 22.5,153.7 C23.3,149.7 24,145.7 24.8,141.7 C25.3,139 25.9,136.4 26.4,133.8 C27.1,129.8 27.8,125.7 28.5,121.7 C28.9,119.5 29.4,117.4 29.8,115.2 C30,113.9 30.1,112.6 30.3,111.3 C30.8,109.1 31.4,106.8 31.8,104.6 C32.3,102 32.6,99.3 33,96.7 C33.5,93.7 34.2,90.7 34.8,87.7 C35.2,85.4 35.6,83.1 36.1,80.8 C36.6,78.2 37.1,75.5 37.7,72.9 C38.2,70.3 38.7,67.7 39.2,65.2 C39.8,62.3 40.6,59.5 41.2,56.6 C41.7,54.4 42.2,52.2 42.8,50 C43.3,48 43.7,45.9 44.2,43.8 C44.9,40.7 45.7,37.6 46.4,34.5 C46.8,32.7 47.1,30.8 47.5,29 C48.1,26.5 48.8,24 49.5,21.5 C50.1,19.6 50.7,17.6 51.3,15.7 C51.7,14.5 52.2,13.3 52.5,12.1 C52.8,10.8 53,9.5 53.3,8.2 C53.5,7.5 53.8,6.5 54.3,6.2 C55.4,5.7 56.7,5.6 57.9,5.3 C60.2,4.8 62.5,4.2 64.9,3.7 C67.2,3.2 69.4,2.6 71.7,2 C73.4,1.5 75,0.9 76.6,0.4 C77,0.4 77.2,0.4 77.4,0.4 Z M80.1,78.2 C80.1,78.3 80.1,78.3 80.2,78.4 L80.3,78.4 C80.2,78.3 80.1,78.3 80.1,78.2 C80.2,77.9 80.5,77.4 80.4,77.3 C79.5,76.3 80,75.3 80.1,74.2 C80.3,73 80.5,71.9 80.6,70.7 C80.9,68.9 81,67.1 81.4,65.3 C82.2,61.3 83,57.3 83.8,53.3 C83.8,53.1 83.5,52.6 83.2,52.5 C82.5,52.3 81.7,52.3 80.9,52.1 C79.9,51.8 79.5,52.1 79.5,53.1 C79.5,53.3 79.6,53.6 79.5,53.8 C79.1,55.1 79.5,56.6 78.7,57.9 C78.3,58.7 78.6,59.8 78.5,60.8 C78.3,62.8 78,64.8 77.7,66.8 C77.5,68.2 77.3,69.6 77,70.9 C76.7,72.5 76.4,74.1 76,75.7 C75.8,76.5 75.4,77.2 75.1,77.9 L75.1,78.2 C75.1,78.8 75.2,79.4 75.2,79.9 C75,81.2 74.6,82.4 74.4,83.7 C73.8,87.6 73.2,91.6 72.5,95.5 C71.8,99.3 70.9,103 70.1,106.7 C69.4,110.2 68.8,113.7 68.1,117.3 C67.6,119.8 67.3,122.3 66.8,124.7 C66.1,127.9 65.3,131.1 64.6,134.3 C64.2,136.3 63.9,138.3 63.8,140.3 C63.7,141.6 63.2,142.9 63,144.2 C62.5,147.9 61.7,151.6 61,155.3 C60.8,156.4 60.5,157.5 60.3,158.6 C59.9,160.9 59.6,163.3 59.1,165.6 C58.9,166.8 58.5,167.9 58.4,169.1 C58.1,171.1 57.9,173.2 57.6,175.2 C57.4,176.5 57,177.8 56.7,179 C56,182.3 55.4,185.7 54.7,189 C54.3,191 53.8,192.9 53.5,194.9 C52.8,199 52.1,203.1 51.3,207.3 C50.8,209.9 50.2,212.4 49.8,215 C49.2,218.7 48.6,222.5 48,226.2 C47.5,229.6 47,233 46.4,236.5 C45.9,239.4 45.4,242.3 44.9,245.2 C44.4,247.9 44,250.6 43.5,253.3 C43.1,255.2 42.6,257.2 42.2,259.1 C41.9,260.3 41.7,261.5 41.4,262.8 C41.2,263.6 41.6,263.9 42.5,263.9 C43.7,263.8 45,263.9 46,263.9 C45.7,263.1 45.2,262.3 45.3,261.6 C45.8,258.7 46.6,255.9 47.1,253 C47.6,250.5 47.9,247.9 48.3,245.3 C48.6,243.7 49,242.2 49.2,240.6 C49.7,237.5 50,234.4 50.6,231.3 C51,228.7 51.7,226.1 52.1,223.5 C52.7,220 53.2,216.5 53.8,212.9 C54.2,210.9 54.7,209 55.1,207 C55.7,203.5 56.2,200 56.8,196.5 C57.2,194.3 57.6,192.1 57.9,189.9 C58.4,186.4 58.9,182.9 59.4,179.5 C59.7,177.4 60.3,175.3 60.7,173.2 C61.5,168.7 62.4,164.3 63.2,159.8 C63.7,156.8 64.1,153.8 64.7,150.8 C65.2,148.4 65.9,146 66.6,143.6 L66.6,143.4 C65.6,143.3 66.3,142.9 66.5,142.6 C66.7,142.3 66.9,142 67,141.7 C67.1,140.6 67.1,139.5 67.3,138.4 C67.8,135.9 68.3,133.3 69,130.8 C69.5,129.3 69.4,127.6 70.7,126.4 C70.8,126.3 70.8,126 70.7,126 C69.3,125.1 70.9,124.8 71.1,124.2 C71.2,124 71.2,123.8 71.1,123.6 C71,123.3 70.7,123.1 70.8,122.8 C70.9,122.2 71.2,121.7 71.3,121.2 C71.6,119.7 71.8,118.3 72,116.8 C72.3,114.8 72.7,112.8 73.1,110.8 C73.5,108.8 74,106.8 74.5,104.7 C75.1,101.9 75.6,99.1 76.2,96.3 C76.6,94.5 77.5,92.7 77.4,90.8 C77.4,90.4 77.4,90 77.5,89.6 C77.8,87.6 78,85.7 78.3,83.7 C78.5,82.3 79.1,80.9 79.1,79.4 C79.1,79.2 79.4,78.8 79.3,78.4 C79.7,78.3 80,78.3 80.1,78.2 Z M195.1,324.4 C195.2,324.5 195.3,324.6 195.5,324.6 C195.4,324.4 195.4,324.3 195.3,324.1 C195.3,323.9 195.3,323.7 195.2,323.5 C194.1,321 192.9,318.4 191.7,315.9 C191.1,314.5 190.4,313.1 189.7,311.7 C188.6,309.4 187.4,307.1 186.3,304.7 C185.6,303.2 185,301.7 184.4,300.2 C183.9,299 183.5,297.7 182.9,296.5 C182.5,295.6 181.9,294.7 180.7,294.6 C180.3,294.6 179.8,294.8 179.3,294.8 C178.2,294.6 177.1,294 176.2,294.2 C175.2,294.4 174.5,293.7 173.6,293.7 C171.9,293.8 170.2,293.2 168.5,292.8 C168.2,292.7 167.9,292.5 167.6,292.5 C164.7,292.4 162,291.6 159.2,291.2 C157.2,290.9 155.2,290.5 153.2,290.3 C151.5,290.1 149.8,290.1 148.1,289.8 C144.7,289.2 141.4,288.5 138.1,287.8 C134.3,287.1 130.5,286.4 126.7,285.7 C123.3,285 119.8,284.2 116.4,283.4 C114,282.9 111.6,282.4 109.3,281.9 C107.2,281.5 105,281.3 102.9,280.9 C100.7,280.5 98.5,280 96.3,279.6 C93,279 89.7,278.6 86.5,278 C84.5,277.6 82.5,277 80.4,276.6 C77.6,276 74.9,275.5 72.1,274.9 C70.3,274.5 68.5,273.9 66.7,273.5 C64.6,273 62.5,272.7 60.4,272.3 C56.5,271.6 52.6,270.8 48.7,270.2 C46.1,269.8 43.5,269.8 41,269.4 C39.9,269.2 38.7,268.9 37.9,268.2 C37.1,267.6 36.8,267.8 36.2,268.3 C34.6,269.6 33,270.8 31.5,272.2 C30,273.5 28.7,275.1 27,276.2 C25.9,276.8 25.1,278 24.2,278.8 C21.7,281.1 19.2,283.4 16.7,285.7 C15.1,287.3 12.8,288.1 11.8,290.3 C13.5,290.6 15.2,290.9 16.9,291.3 C21,292.2 25.2,293.2 29.3,294.1 C32.1,294.7 34.9,295.4 37.7,296.1 C40,296.6 42.4,297.1 44.7,297.6 C46.9,298.1 49.1,298.7 51.3,299.2 C53.1,299.6 54.9,299.9 56.7,300.2 C59.8,300.7 62.9,301.3 66,301.8 C68.5,302.2 70.9,302.5 73.4,303 C76.9,303.6 80.5,304.4 84,305 C86.9,305.5 89.8,305.9 92.7,306.5 C95.4,307 98.1,307.8 100.7,308.4 C104.6,309.4 108.6,310.3 112.5,311.3 C114.7,311.8 116.8,312.3 119,312.7 C121.3,313.1 123.7,313.3 126,313.8 C129.8,314.6 133.6,315.6 137.4,316.4 C139.5,316.9 141.7,317.3 143.8,317.6 C145.1,317.8 146.4,317.8 147.7,318 C149.8,318.4 151.9,318.9 154.1,319.2 C156.4,319.6 158.8,319.8 161.1,320.2 C162.2,320.4 163.2,320.7 164.3,320.9 C165.4,321.1 166.5,321.1 167.6,321.2 C169.7,321.5 171.8,321.9 173.9,322.1 C177.8,322.6 181.6,323.1 185.5,323.5 C187.3,323.7 189.1,323.9 190.8,324.1 C192.3,324.2 193.7,324.3 195.1,324.4 Z M51,262.9 C50.9,263.7 51.2,264 52,264 C52.9,264 53.7,264.1 54.6,264.3 C57.1,264.7 59.7,265.2 62.2,265.7 C65.6,266.4 68.9,267 72.3,267.7 C75.1,268.3 77.8,269.1 80.6,269.7 C83.6,270.4 86.6,271 89.6,271.7 C90.5,271.9 91.4,272.2 92.3,272.4 C95.9,273 99.6,273.3 103.1,274.4 C103.9,274.7 104.8,274.9 105.7,275 C107.3,275.3 108.9,275.4 110.4,275.7 C114,276.4 117.5,277.1 121.1,277.8 C123,278.2 125,278.4 126.9,278.8 C130.9,279.6 134.9,280.3 138.8,281.1 C141.2,281.6 143.6,282.1 146,282.6 C148.8,283.1 151.6,283.5 154.3,284.1 C157.7,284.7 161.1,285.5 164.5,286.1 C167.1,286.6 169.7,287.1 172.2,287.7 C174.2,288.2 176.2,288.8 178.1,289.3 C179.3,289.7 179.7,289.4 180.1,288.3 C180.9,285.9 181.1,283.3 182.7,281.2 C182.8,281.1 182.8,280.9 182.9,280.8 C183.4,278 183.9,275.2 184.4,272.5 C185,269.5 185.7,266.6 186.4,263.6 C186.9,261.5 187.5,259.4 187.9,257.3 C188.7,253.6 189.4,249.8 190.2,246.1 C190.6,243.9 191.1,241.7 191.6,239.5 C192.1,236.9 192.7,234.2 193.2,231.6 C193.5,230.1 193.9,228.7 194.2,227.2 C194.9,223.8 195.5,220.4 196.1,217 C196.4,215.3 196.8,213.6 197.2,211.9 C198,207.9 198.9,203.9 199.7,199.9 C200.1,197.7 200.3,195.5 200.7,193.3 C201.5,188.7 202.3,184.2 203.1,179.6 C203.9,175.2 204.7,170.9 205.5,166.5 C206.1,163.3 206.6,160 207.3,156.8 C208.2,152.5 209.1,148.2 210,143.8 C210.8,140.1 211.5,136.4 212.1,132.7 C212.4,130.8 212.4,128.8 212.7,126.9 C213.4,123.3 214.3,119.8 215,116.3 C215.4,114 215.7,111.7 216,109.4 C216.3,107 216.5,104.7 217,102.3 C217.5,99.8 218.2,97.3 218.9,94.8 C220.2,89.6 221.5,84.5 222.7,79.3 C223.1,77.9 222.7,77.4 221.2,77.2 C218.4,76.7 215.5,76.2 212.7,75.7 C211,75.4 209.4,75.1 207.7,74.9 C204.8,74.5 201.8,74.2 198.9,73.7 C194.2,72.9 189.6,71.5 184.9,71.1 C182.3,70.9 179.7,70.3 177.2,69.9 C175.4,69.6 173.6,69.3 171.8,69 C169.6,68.6 167.5,68 165.3,67.7 C163.4,67.4 161.4,67.3 159.5,66.9 C157,66.5 154.4,65.9 151.9,65.4 C147.1,64.6 142.2,63.8 137.3,63 C133.7,62.4 130.1,61.8 126.5,61.1 C122,60.2 117.5,59.1 113,58.1 C110.9,57.6 108.8,57.2 106.7,56.8 C102.9,56.1 99.1,55.4 95.3,54.8 C92.8,54.4 90.2,54 87.7,53.7 C87.6,53.7 87.3,53.8 87.3,53.9 C87,55 86.7,56.2 86.6,57.4 C86.5,58.5 86,59.4 86,60.5 C86,62.1 85.3,63.7 85,65.3 C84.6,67.5 84.3,69.7 83.8,71.9 C83.7,72.5 83.4,73.6 83.1,73.6 C81.9,73.8 82.8,74.3 82.8,74.7 C82.8,75.2 83,75.6 82.9,76.1 C82.8,76.4 83.1,77.4 82.1,76.9 L82,77 C82,77.1 82.1,77.3 82.1,77.3 C82.8,77.2 82.6,77.6 82.4,78 C82.2,78.5 82,79.1 82,79.6 C81.7,82 81.5,84.4 81.2,86.8 C81,88.7 80.7,90.6 80.4,92.5 C80.1,94.3 79.8,96.2 79.6,98 C79.4,99.5 79.2,101 78.9,102.5 C78.4,105 77.8,107.5 77.2,110 C77.1,110.5 76.9,111 76.8,111.6 C76.4,113.7 76.1,115.9 75.8,118 C75.7,118.8 75.6,119.6 75.3,120.4 C74.6,122.2 74.8,124.1 74.2,125.9 C73.5,128 73.5,130.4 73.1,132.6 C72.9,133.9 72.5,135.2 72.3,136.5 C71.9,138.9 71.6,141.4 71.2,143.8 C70.9,145.8 70.4,147.9 70,149.9 C69.6,151.8 69.2,153.7 68.8,155.6 C68.5,157 68.1,158.4 67.8,159.8 C67.6,161.1 67.4,162.3 67.2,163.6 C67.1,164.4 66.7,165.1 66.6,165.9 C66.4,167.8 66.3,169.7 66,171.6 C65.6,174.1 65.1,176.7 64.6,179.2 C64.1,182 63.7,184.8 63.3,187.6 C63,189.3 62.8,190.9 62.4,192.6 C62.2,193.7 61.8,194.7 61.6,195.8 C61.5,196.5 61.4,197.2 61.4,197.9 C61.3,198.7 61.4,199.6 61.1,200.2 C60.7,201 60.8,201.8 60.3,202.6 C60.2,202.8 60.6,203.2 60.5,203.5 C60,206.5 59.5,209.4 58.9,212.4 C58.4,214.8 57.9,217.3 57.5,219.7 C57.1,222 57,224.3 56.6,226.7 C55.8,231.4 55,236.2 54.2,240.9 C53.9,242.7 53.7,244.5 53.4,246.3 C53.2,247.8 52.8,249.4 52.6,250.9 C52.2,253.7 51.8,256.4 51.4,259.2 C51.6,260.4 51.3,261.6 51,262.9 Z M14,238.7 L14,238.7 C13.8,239.9 13.9,241.1 13.7,242.3 C13.3,245.5 12.8,248.7 12.3,251.9 C11.8,255.2 11.4,258.4 10.9,261.7 C10.6,263.8 10.1,265.9 9.8,268 C9.5,270.2 9.3,272.4 9,274.6 C8.8,276.4 8.4,278.1 8.3,279.9 C8.2,282 7.9,284.1 7.1,286.1 C7,286.4 7,286.8 6.9,287.2 C7.3,287 7.7,286.9 8,286.6 C9.9,284.8 11.8,283 13.8,281.3 C16.5,279 19.2,276.8 22,274.6 C23.5,273.4 25.2,272.4 26.7,271.1 C28,270 29.3,268.9 31.1,268.5 C31.4,268.4 31.6,268.1 31.9,267.9 C32.1,267.7 32.3,267.4 32.6,267.2 C33.7,266.5 35.1,266 34.9,264.1 C34.7,262.3 34.7,260.4 35,258.7 C35.5,255.3 36.4,252 37.1,248.6 C37.9,244.8 38.5,240.9 39.2,237.1 C39.5,235.4 39.7,233.6 40.1,231.9 C40.4,230.2 40.9,228.6 41.3,226.9 C41.7,225.1 41.9,223.3 42.2,221.5 C42.5,219.9 42.9,218.4 43.2,216.9 C43.5,215.5 43.6,214.1 43.9,212.8 C44.3,210.7 44.8,208.7 45.2,206.6 C45.7,204.1 46,201.6 46.5,199.2 C47.1,196.3 47.7,193.5 48.3,190.6 C48.9,187.6 49.4,184.5 50,181.5 C50.5,179.1 51.1,176.8 51.6,174.4 C52.2,171.3 52.7,168.2 53.3,165.2 C53.5,164 53.8,162.8 54,161.6 C54.2,160.1 54.4,158.6 54.7,157.2 C55.2,154.7 55.9,152.3 56.3,149.8 C57,146 57.7,142.2 58.3,138.3 C58.8,135.3 59,132.2 59.5,129.2 C59.8,127.3 60.5,125.5 60.9,123.6 C61.7,119.7 62.3,115.8 63.1,112 C63.6,109.5 64,107 64.5,104.5 C65.3,100.8 66.1,97 66.8,93.3 C67.5,90 68.1,86.6 68.8,83.3 C69,82.3 69.4,81.3 69.6,80.3 C70.1,77.7 70.6,75.1 71.1,72.5 C71.7,69 72.4,65.6 73,62.1 C73.6,58.2 74.3,54.3 74.7,50.4 C74.9,48.8 76.1,47.3 74.5,45.4 C72.7,43.2 71.6,40.3 70.2,37.7 C69.3,36.1 68.3,34.5 67.5,32.8 C66.2,30.4 65.1,27.8 63.8,25.4 C62.1,22.4 60.2,19.5 58.5,16.6 C58.3,16.3 58.2,16.1 58,15.8 C58,16.1 57.9,16.3 57.9,16.6 C57.1,19.5 56.1,22.4 55.4,25.3 C54.5,29 53.6,32.6 52.8,36.3 C52,39.7 51.3,43.2 50.5,46.6 C49.9,49.2 49.3,51.8 48.7,54.3 C48.1,56.6 47.5,58.9 47,61.2 C46,65.7 45.1,70.1 44.2,74.6 C43.6,77.3 43,80 42.5,82.7 C41.9,85.8 41.3,89 40.7,92.1 C39.8,96.4 38.9,100.7 38.1,105 C37.5,107.8 36.9,110.7 36.6,113.6 C36.4,115.4 35.4,116.8 35.4,118.7 C35.4,120.8 34.9,122.9 34.6,125 C34.1,127.9 33.4,130.8 32.8,133.7 C32.4,135.6 32.1,137.5 31.7,139.4 C31.3,141.4 30.8,143.4 30.4,145.3 C30.2,146 30.1,146.8 29.9,147.5 C29.7,148.9 29.5,150.3 29.2,151.7 C29,152.7 28.5,153.6 28.4,154.6 C28.1,156.3 28,158 27.7,159.8 C27.3,162.3 26.7,164.9 26.2,167.4 C25.5,171.4 24.8,175.3 24,179.3 C23.8,180.6 23.3,181.9 23.2,183.2 C23.1,185.3 22.1,187.1 22.1,189.2 C22.1,190.5 21.5,191.7 21.3,193 C21,195 20.9,197.1 20.7,199.1 C20.3,202.3 19.8,205.6 19.3,208.8 C18.8,212.2 18.2,215.6 17.6,219.1 C17,222.8 16.2,226.5 15.6,230.1 C15.2,232.2 15,234.3 14.7,236.3 C14.3,237 14.2,237.9 14,238.7 Z M201.8,218.4 L202,218.4 C201.9,218.6 201.9,218.8 201.8,219.1 C201.2,221.7 200.6,224.3 200.1,226.9 C199.7,228.7 199.5,230.5 199.2,232.4 C198.6,235.4 198,238.5 197.4,241.5 C196.8,244.7 196.1,247.8 195.4,251 C194.9,253.6 194.3,256.1 193.7,258.7 C193.1,261.5 192.5,264.3 191.8,267 C191.2,269.4 190.5,271.7 190,274.1 C189.5,276.9 189.2,279.7 188.7,282.5 C188.2,285 187.6,287.5 187,290 C186.8,290.8 186.5,291.5 186.3,292.3 C186.2,292.7 186.1,293.1 186.2,293.4 C186.3,293.8 186.6,294.2 186.8,294.6 C187.2,295.5 187.5,296.4 187.9,297.2 C188.7,299 189.6,300.8 190.3,302.6 C191.4,305.1 192.3,307.7 193.4,310.2 C194.4,312.5 195.6,314.6 196.7,316.8 C197.1,317.7 197.4,318.6 197.8,319.4 C198.6,321.1 199.4,322.9 200.4,324.5 C200.8,325.1 200.8,326.4 202.1,325.9 C202.5,325.7 203,325.3 203.1,324.9 C203.6,323.3 203.9,321.7 204.2,320.1 C205.3,314.8 206.4,309.5 207.6,304.3 C208.5,300.2 209.7,296.1 210.6,292 C211.6,287.8 212.6,283.6 213.5,279.4 C214.4,275.5 215.2,271.6 216.1,267.8 C217.1,263.3 218.2,258.7 219.2,254.2 C219.9,250.8 220.5,247.4 221.1,244.1 C221.7,240.8 222.4,237.5 223,234.2 C223.3,232.4 223.6,230.6 224,228.8 C224.4,226.6 225,224.4 225.4,222.1 C226.1,218.6 226.7,215.1 227.3,211.6 C227.9,208.3 228.5,205.1 229,201.8 C229.4,199.4 229.8,197 230.2,194.7 C230.6,192.7 231.1,190.7 231.4,188.6 C231.7,187 231.8,185.3 232.1,183.7 C232.7,181 233.4,178.4 233.9,175.7 C234.7,171.5 235.4,167.3 236.2,163.2 C236.8,160.1 237.4,157 238,153.9 C238.9,149.8 239.8,145.6 240.6,141.5 C241.2,138.5 241.7,135.6 242.3,132.6 C243.5,127.2 244.7,121.9 245.9,116.5 C246.6,113.4 247.3,110.3 247.9,107.1 C248.7,103.2 249.3,99.3 250,95.4 C250.4,93.2 251,91 251.5,88.8 C251.9,86.7 252.3,84.6 252.7,82.5 C253,80.7 253.3,78.9 253.7,77.1 C254.3,73.7 255,70.3 255.7,66.8 C256.5,62.5 257.3,58.2 258.1,53.9 C258.2,53.2 258.1,52.8 257.3,53 C256.9,53.1 256.5,53.2 256.2,53.4 C254.7,54.4 253.3,55.5 251.9,56.6 C250.1,57.9 248.3,59 246.5,60.3 C245.2,61.2 244.1,62.4 242.9,63.4 C241.4,64.6 239.8,65.8 238.3,66.9 C236.9,67.9 235.4,68.9 234.1,70 C232.3,71.5 230.6,73.2 228.9,74.8 C228.6,75.1 228.3,75.7 228.2,76.2 C227.9,77.7 227.7,79.3 227.4,80.8 C227,82.6 226.3,84.4 225.9,86.3 C225.5,88 225.3,89.8 224.9,91.5 C224.3,94.5 223.6,97.5 223,100.5 C222.4,103.6 221.9,106.7 221.3,109.8 C220.8,112.4 220.4,115 219.9,117.5 C219.5,119.5 219.3,121.6 218.9,123.6 C218.5,125.8 217.8,128 217.4,130.2 C216.9,133 216.7,135.8 216.3,138.6 C215.8,141.4 215.2,144.3 214.6,147.1 C214.1,149.7 213.6,152.4 213.1,155.1 C212.7,157.1 212.3,159.2 211.9,161.2 C211.3,164.8 210.7,168.3 210.1,171.9 C209.6,174.7 209,177.6 208.5,180.4 C207.7,185 207,189.6 206.1,194.2 C205.4,198.2 204.5,202.1 203.7,206.1 C203.1,209 202.6,211.9 202,214.8 C202.5,216 202.1,217.2 201.8,218.4 Z M61.5,13.8 C61.4,13.9 61.4,14 61.3,14.1 C62.8,16.1 64.4,18.1 65.9,20.1 C66.9,21.4 68.2,22.5 69.1,23.9 C71.2,27.4 73.1,31 75.1,34.6 C76.9,37.9 78.7,41.2 80.5,44.5 C80.6,44.7 80.8,44.9 81,44.9 C83.5,45.3 86,45.6 88.5,45.9 C90.7,46.2 92.9,46.6 95.1,47 C97,47.3 99,47.4 100.9,47.7 C102.2,47.9 103.6,48.4 104.9,48.6 C106.6,48.9 108.3,49.1 110,49.4 C112,49.7 114,50.2 116,50.5 C116.8,50.6 117.6,50.7 118.4,50.9 C121.1,51.5 123.7,52.2 126.3,52.8 C128.4,53.3 130.6,53.7 132.7,54.2 C134.9,54.6 137.1,55 139.3,55.4 C142.9,56 146.5,56.6 150.1,57.3 C152.9,57.8 155.7,58.7 158.5,58.9 C162.7,59.2 166.7,60.2 170.8,60.9 C172.9,61.2 175.1,61.6 177.2,62 C178.6,62.2 180,62.5 181.4,62.8 C183.3,63.2 185.2,63.7 187.1,64 C190,64.5 193,64.9 195.9,65.5 C199.7,66.3 203.5,67.3 207.3,68.1 C208.6,68.4 210,68.6 211.3,68.9 C213.2,69.3 215,69.8 216.9,70.2 C219,70.8 221,71.4 223.1,72 C223.6,72.1 224.1,73.3 224.7,72.1 C224.7,72.1 224.9,72.1 225,72.2 C225.7,72.6 226.2,72.2 226.7,71.8 C229.6,69.5 232.6,67.2 235.6,64.9 C237.6,63.4 239.8,62.1 241.6,60.4 C243.8,58.2 246.4,56.6 248.9,54.9 C250.6,53.7 252.4,52.6 254.2,51.4 C254.4,51.3 254.5,51.1 254.6,51 C254.5,50.9 254.4,50.8 254.2,50.7 C253.1,50.4 252,50 250.9,49.8 C248.9,49.3 246.9,48.9 244.9,48.4 C242,47.7 239.1,46.6 236.2,46.3 C232.8,45.9 229.5,44.9 226.2,44.1 C223.6,43.5 221.1,42.8 218.5,42.4 C216.2,42 213.8,42 211.4,41.6 C208.9,41.2 206.5,40.5 204,40 C200.7,39.4 197.4,39 194.1,38.4 C191.5,38 188.8,37.5 186.2,36.9 C183.4,36.3 180.6,35.7 177.8,35.1 C173.7,34.3 169.6,33.6 165.5,32.9 C161.4,32.1 157.3,31.3 153.2,30.6 C151.2,30.2 149.2,29.8 147.2,29.5 C145.7,29.3 144.2,29.2 142.7,29 C140.4,28.6 138.2,28.1 135.9,27.7 C133.1,27.2 130.3,26.9 127.5,26.5 C124.9,26.1 122.4,25.7 119.8,25.3 C116.7,24.8 113.6,24.3 110.5,23.7 C108.9,23.4 107.4,22.6 105.7,22.2 C102.8,21.5 99.9,21 97,20.5 C95,20.1 93,19.8 91,19.5 C89.3,19.2 87.7,19 86,18.7 C81.6,17.8 77.2,16.8 72.8,16 C69.2,15.1 65.3,14.5 61.5,13.8 Z M211.5,321.4 C212.4,320.8 213.2,320.1 214.1,319.6 C215.8,318.4 217.6,317.3 219.4,316.2 C219.9,315.9 220.5,315.5 220.7,315 C221.2,313.7 221.4,312.4 221.8,311.1 C222.3,309.3 222.8,307.5 223.4,305.8 C223.9,304.3 224.7,302.8 225.1,301.3 C225.9,297.9 226.6,294.5 227.3,291.1 C227.7,289.1 228.1,287.2 228.5,285.2 C229.2,282 229.8,278.7 230.5,275.5 C231.1,272.8 231.7,270 232.3,267.3 C232.8,265.2 233.3,263.2 233.8,261.1 C234.7,257.3 235.5,253.6 236.4,249.8 C237,247.3 237.6,244.8 238.1,242.3 C238.7,239.3 239,236.3 239.6,233.3 C240.5,228.7 241.7,224.2 242.6,219.6 C243.3,215.9 243.8,212.2 244.4,208.5 C244.9,205.7 245.6,202.9 246.3,200.1 C246.6,198.7 247,197.2 247.3,195.8 C247.9,192.9 248.4,189.9 248.9,187 C249.4,184.7 249.9,182.5 250.4,180.2 C250.7,178.8 250.9,177.3 251.2,175.9 C251.7,173.6 252.2,171.3 252.7,169 C253.2,166.8 253.6,164.7 254.1,162.5 C254.5,160.7 255.1,159 255.5,157.3 C255.9,155.6 256.2,153.8 256.5,152.1 C256.6,151.5 256.5,150.9 256.7,150.4 C256.9,149.4 257.3,148.5 257.5,147.5 C257.7,146.4 257.8,145.3 258,144.2 C258.5,141.5 258.9,138.9 259.4,136.3 C259.8,134.4 260.3,132.5 260.6,130.6 C261.5,125.4 262.3,120.1 263.2,114.9 C263.7,111.7 264.4,108.5 265,105.4 C265.3,104 265.5,102.6 265.8,101.2 C266.2,99.2 266.8,97.3 267.2,95.4 C267.8,92.1 268.2,88.9 268.7,85.6 C269.1,83.5 269.7,81.4 270.1,79.3 C270.3,78 270.3,76.6 270.6,75.3 C271.4,71.6 272.3,68 273.1,64.4 C273.7,61.8 274.3,59.2 274.6,56.6 C274.9,54 276,51.6 276.7,49 C276.9,48.4 276.9,47.8 277,47.2 C276.5,47.3 275.9,47.5 275.4,47.7 C272.2,48.9 269,50.1 265.8,51.3 C265.6,51.4 265.4,51.6 265.4,51.7 C265.2,52.6 265.1,53.5 264.9,54.4 C264.5,57.5 264.1,60.7 263.6,63.8 C263,67.3 262.4,70.8 261.8,74.2 C261.1,78.2 260.4,82.2 259.6,86.2 C258.4,92.3 257.1,98.5 255.7,104.6 C254.8,108.8 253.8,113.1 252.9,117.3 C252.3,120.2 251.8,123.1 251.2,126 C250.2,130.4 249.3,134.9 248.1,139.2 C247.5,141.5 247.8,144.1 245.9,146 L245.9,146.2 C246.9,146.6 245.3,147.4 246.1,147.8 C245.6,150.2 245.2,152.7 244.7,155.1 C244,159 243.3,162.9 242.5,166.7 C241.8,170.5 241,174.4 240.2,178.2 C239.2,183 238.2,187.7 237.3,192.5 C236.5,196.7 235.9,201 235.1,205.2 C234.7,207.6 234.2,210 233.8,212.4 C233.2,216.2 232.8,220.1 232.1,223.9 C231.4,228.1 230.4,232.2 229.6,236.4 C228.9,240 228.2,243.5 227.6,247.1 C227.1,249.8 226.7,252.6 226.1,255.3 C225.3,259.5 224.4,263.7 223.5,267.9 C222.7,271.6 222,275.4 221.2,279.1 C220.4,283.1 219.6,287 218.8,291 C218.1,294.6 217.5,298.2 216.6,301.8 C215.9,304.9 214.7,307.8 213.9,310.8 C213,314.1 212.3,317.7 211.5,321.4 Z M70.6,8.4 C74.5,9 78.3,9.6 82.2,10.3 C84.4,10.7 86.5,11.4 88.6,11.8 C89.9,12.1 91.3,12.2 92.6,12.4 C95,12.9 97.4,13.6 99.9,14 C103.4,14.6 106.9,15.2 110.3,15.7 C113.7,16.3 117.1,16.8 120.5,17.4 C121.8,17.6 123.1,17.9 124.4,18.2 C126.5,18.6 128.6,19.1 130.7,19.5 C133.9,20.1 137.2,20.6 140.4,21.2 C142.9,21.7 145.3,22.3 147.8,22.8 C149.5,23.2 151.2,23.6 152.8,23.8 C154.2,24 155.6,24 157,24.2 C159.5,24.6 161.9,25 164.4,25.4 C166.1,25.7 167.8,26.2 169.5,26.5 C172.7,27.1 176,27.6 179.2,28.2 C181.7,28.7 184.3,29.2 186.8,29.7 C188.9,30.1 191,30.4 193,30.8 C194.4,31.1 195.8,31.7 197.2,31.9 C199.7,32.4 202.2,32.7 204.8,33.1 C207,33.5 209.2,34 211.4,34.4 C215.3,35.1 219.3,35.7 223.2,36.5 C226.5,37.2 229.8,38 233,38.8 C236.8,39.7 240.6,40.6 244.4,41.5 C249.2,42.6 254.1,43.6 258.9,44.9 C260.9,45.5 262.7,45 264.5,44.4 C267.2,43.4 269.9,42.5 272.6,41.5 C273.4,41.2 274.1,41 275.1,40.7 C274.6,40.5 274.3,40.3 274,40.2 C271.1,39.7 268.2,39.3 265.4,38.7 C263.1,38.2 260.8,37.7 258.5,37.1 C255.7,36.3 252.9,35.4 250.2,34.6 C247.8,33.9 245.3,33.1 242.8,32.6 C239.5,32 236.2,31.6 232.8,31.1 C231.9,31 230.9,30.9 230,30.7 C228.1,30.3 226.2,29.8 224.2,29.4 C222.8,29.1 221.3,29.1 219.9,28.8 C218,28.4 216.2,27.9 214.3,27.5 C210.7,26.7 207.1,26.1 203.5,25.3 C202.2,25 200.9,24.7 199.5,24.4 C198.2,24.1 196.9,23.9 195.6,23.7 C194,23.4 192.3,23.2 190.7,23 C190.2,22.9 189.6,23.2 189.3,23 C187.8,22 186.1,22.5 184.5,22 C182.4,21.3 180.1,21.4 177.9,21 C176.3,20.7 174.7,20.2 173.1,19.9 C170.6,19.4 168.1,19.1 165.6,18.7 C163.9,18.4 162.2,17.8 160.5,17.8 C158.9,17.9 157.4,17.4 155.8,17.2 C154,17 152.1,16.7 150.3,16.4 C149.1,16.2 148,15.9 146.8,15.6 C145.5,15.3 144.2,15 142.9,14.8 C142.7,14.8 142.6,14.7 142.4,14.6 C140.2,14.2 137.9,13.9 135.7,13.5 C134.3,13.3 133,12.9 131.6,12.7 C129.1,12.3 126.7,12.1 124.2,11.8 C123.3,11.7 122.4,11.3 121.5,11.2 C119.5,10.9 117.4,10.7 115.4,10.4 C113.9,10.2 112.4,9.8 110.9,9.5 C110.5,9.4 110.1,9.3 109.6,9.2 C108.4,8.9 107.3,8.6 106.1,8.3 C105.1,8.1 104.1,8 103.1,7.8 C102.5,7.7 101.9,7.5 101.3,7.4 C99.7,7.2 98,7 96.4,6.8 C95.4,6.7 94.3,6.4 93.3,6.3 C92,6.1 90.6,6.1 89.3,5.9 C87.6,5.6 85.9,5.2 84.2,4.9 C83.7,4.8 83.1,4.7 82.6,4.8 C79.7,5.1 76.9,5.5 74,5.8 C71.1,6.2 68.2,6.5 65.2,6.9 L65.2,7.2 L71.6,7.2 L71.6,7.4 C71.5,8.2 71,8.3 70.6,8.4 Z M117.4,283.5 C117.5,283.4 117.5,283.3 117.6,283.3 C117.5,283.3 117.5,283.2 117.4,283.2 C117.3,283.2 117.2,283.3 117.1,283.3 C117.2,283.4 117.3,283.4 117.4,283.5 Z" id="Shape"></path>
            <path d="M90.5,248.5 C90.3,248.9 90,249.3 89.8,249.7 C89.6,249.5 89.4,249.4 89.1,249.2 C87.4,248.2 86.8,246.4 86.1,244.7 C85,242.4 84.2,239.9 83.2,237.5 C82.4,235.7 81.5,234.1 80.8,232.3 C80,230.6 79.2,228.9 78.6,227.1 C78.4,226.6 78.6,225.7 79.3,225.2 C79.3,225.2 79.5,225.3 79.6,225.4 C80.5,226.9 81.5,228.5 82.3,230.1 C83,231.4 83.6,232.8 84.2,234.1 C85,235.7 85.8,237.3 86.5,238.9 C87,240 87.5,241.2 88,242.3 C88.7,243.8 89.4,245.2 90,246.7 C90.3,247.3 90.4,247.9 90.5,248.5 Z" id="Shape"></path>
            <path d="M179.3,88 C178.4,87.7 177.4,87.4 176.4,87.1 C176.2,87 176.2,86.6 176,86.3 C175.9,86 175.8,85.7 175.5,85.5 C172.9,83.3 171.9,80.1 169.8,77.6 C169.4,77.1 169.4,76.1 169.2,75.4 C169.1,75.2 169,75 168.9,74.7 C169.2,74.7 169.5,74.7 169.9,74.6 C170,74.6 170.1,74.5 170.1,74.5 C170.7,73.1 171.4,74.2 171.8,74.6 C172.8,75.6 173.7,76.7 174.6,77.8 C175.6,79 176.8,80.2 177.7,81.6 C178.8,83.2 179.8,84.9 180.9,86.6 C181.2,86.9 180.2,88 179.3,88 Z" id="Shape"></path>
            <path d="M86.1,219.3 C86.8,219.8 87.4,220.1 87.8,220.6 C88.5,221.6 89.1,222.6 89.7,223.7 C90.7,225.5 91.7,227.4 92.5,229.2 C93.1,230.6 93.6,232 94,233.4 C94.1,233.7 93.9,234.1 93.9,234.5 C93.6,234.4 93.3,234.3 93,234.1 C90.9,233.1 89.7,231.3 88.8,229.2 C87.8,226.7 86.7,224.3 85.8,221.8 C85.5,221.1 85,220.2 85.9,219.5 C86,219.6 86.1,219.4 86.1,219.3 Z" id="Shape"></path>
            <path d="M169.9,89.4 C168.3,89.2 167.5,88.6 166.9,87.2 C166,85 165.1,82.8 164.2,80.6 C163.8,79.7 164.1,78.8 165,78.3 C165.2,78.2 165.5,78.3 165.6,78.4 C166.9,79.9 168.3,81.3 169.5,82.8 C170.1,83.6 170.3,84.7 170.7,85.7 C170.7,85.8 170.7,86 170.8,86 C171.9,86.5 171.8,87.5 171.6,88.3 C171.4,88.9 170.5,89.1 169.9,89.4 Z" id="Shape"></path>
            <path d="M197.4,109.2 C197.1,109.2 196.7,109.1 196.5,109.2 C195,109.8 194.4,108.8 193.8,107.7 C193.2,106.5 192.6,105.2 192,104 C191.8,103.6 191.3,103.2 191.2,102.8 C191.1,102.5 191.1,102 191.3,101.8 C191.4,101.6 191.9,101.8 192.3,101.8 C194.8,102 195,104.4 196.3,105.9 C196.8,106.4 197.2,107 197.4,107.6 C197.6,108.1 197.4,108.6 197.4,109.2 L197.4,109.2 Z" id="Shape"></path>
            <path d="M197.4,109.2 L197.6,109.2 L197.6,109.4 C197.5,109.3 197.5,109.2 197.4,109.2 L197.4,109.2 Z" id="Shape"></path>
            <path d="M132.1,294.9 C133.3,294.9 135.5,296.7 136,297.7 C136.7,299 137.2,300.4 138,301.8 C139.3,303.8 140.1,306.1 141.1,308.3 C141.2,308.4 141.4,308.5 141.5,308.6 C141.6,308.7 141.6,308.9 141.5,309.1 C141.5,309.2 141.4,309.3 141.3,309.3 C140.4,309.3 138.3,307.8 137.9,306.9 C137.7,306.5 137.2,306.2 136.9,305.9 C135.5,304 133.7,302.5 132.9,300.2 C132.4,298.8 131.8,297.5 131.5,296.2 C131.4,295.7 131.9,295.2 132.1,294.9 Z" id="Shape"></path>
            <path d="M156.1,298.6 C156.9,299.1 157.6,299.4 158.3,299.8 C159.7,300.6 160.8,301.8 161.5,303.3 C161.9,304.1 162.7,304.8 163.3,305.5 C163.7,306 164.1,306.6 163.7,307 C163.3,307.4 162.5,307.5 162,307.2 C160.8,306.5 159.7,305.7 158.6,304.8 C157,303.6 156.1,301.9 155.5,300.1 C155.3,299.8 155.8,299.2 156.1,298.6 Z" id="Shape"></path>
            <path d="M153.3,309.3 C152.9,309.5 152.2,309.9 152.1,309.8 C150.9,308.9 149,308.9 148.3,307.3 C147.6,305.6 147,303.7 146.5,301.9 C146.4,301.7 146.9,301.2 147.2,301 C147.4,300.9 147.8,301.1 148.1,301.3 C149.9,302 150.5,303.7 151.4,305.2 C152,306.1 152.5,307 153.1,307.9 C153.2,308.2 153.2,308.6 153.3,309.3 Z" id="Shape"></path>
        </g>
    </g>
</svg>