<?xml version="1.0" encoding="UTF-8" standalone="no"?>
<svg width="227px" height="309px" viewBox="0 0 227 309" version="1.1" xmlns="http://www.w3.org/2000/svg" xmlns:xlink="http://www.w3.org/1999/xlink">
    <!-- Generator: Sketch 43.2 (39069) - http://www.bohemiancoding.com/sketch -->
    <title>metal print</title>
    <desc>Created with Sketch.</desc>
    <defs></defs>
    <g id="Page-1" stroke="none" stroke-width="1" fill="none" fill-rule="evenodd">
        <g id="metal-print" transform="translate(114.000000, 154.500000) rotate(-8.000000) translate(-114.000000, -154.500000) translate(-17.000000, -10.000000)" fill-rule="nonzero" fill="#865cd0">
            <path d="M250.9,35.9 C252.2,36.2 253.7,36.3 254.9,37 C256.4,37.9 258.1,38.2 259.7,38.9 C260.8,39.4 260.7,40.2 261.2,40.8 C261.7,41.5 261.6,42.8 261.8,43.8 C261.8,43.9 261.7,44.1 261.6,44.3 C261.5,44.5 261.6,44.4 261.6,44.7 C261.7,45.2 261.6,45.7 261.5,46.2 C261.1,47.4 260.6,48.6 260.3,49.9 C260.2,50.4 260.5,51 260.5,51.6 C260.5,51.9 260.2,52.1 260.1,52.4 C260,52.5 259.9,52.6 260,52.6 C261.2,53.8 259.4,54.7 259.7,55.9 C260,57 259.2,58.4 258.9,59.6 C258.4,61.5 257.9,63.4 257.5,65.3 C256.8,68.6 256.2,71.8 255.5,75.1 C255,77.7 254.3,80.2 253.8,82.7 C253.3,85.2 253,87.8 252.6,90.4 C252.2,92.8 251.9,95.3 251.5,97.7 C250.9,101.8 250.3,105.8 249.7,109.9 C249.4,111.5 248.9,113.1 248.6,114.7 C248,118.3 247.5,121.8 246.8,125.4 C246.2,128.5 245.4,131.6 244.8,134.7 C244.4,137 244.1,139.3 243.7,141.6 C243.3,143.6 242.8,145.6 242.4,147.7 C242,149.9 241.7,152.2 241.3,154.4 C240.7,157.5 239.9,160.5 239.3,163.6 C238.9,165.5 238.4,167.3 238,169.2 C237.4,171.8 236.8,174.3 236.3,176.9 C235.7,179.8 235.2,182.8 234.7,185.7 C233.8,191.2 233,196.7 232,202.2 C231.2,206.9 230.2,211.6 229.2,216.3 C228.3,220.4 227.4,224.6 226.5,228.7 C226,230.9 225.4,233.1 224.9,235.3 C224.4,237.8 224,240.4 223.5,242.9 C222.9,246.3 222.2,249.6 221.6,252.9 C220.7,257.9 219.8,262.9 218.8,267.8 C218,271.7 217,275.5 216.2,279.4 C215.4,282.9 214.7,286.4 214,289.9 C213.1,294.7 212.4,299.5 211.6,304.3 C211,307.7 210.6,311.1 209.9,314.4 C209.6,316.1 208.8,317.7 208.2,319.3 C208.1,319.6 207.6,319.7 207.2,319.9 C205.9,320.6 204.5,321.2 203.2,321.9 C201.7,322.7 200.3,323.5 198.8,324.2 C195.7,325.6 192.7,326.9 189.6,328.3 L188.6,328.3 C187.2,327.9 185.8,327.3 184.4,327 C181.8,326.5 179.1,326.1 176.4,325.6 C171.8,324.8 167.3,323.9 162.7,323 C160.5,322.6 158.4,322 156.2,321.6 C152.3,320.8 148.4,320.1 144.5,319.3 C142.4,318.9 140.4,318.4 138.3,318 C135.1,317.4 131.9,316.8 128.7,316.2 C126.2,315.7 123.7,315.1 121.2,314.6 C118.7,314.1 116.2,313.5 113.7,312.9 C110.9,312.2 108.2,311.4 105.5,310.7 C100.5,309.4 95.5,308.2 90.5,307 C86.4,306 82.2,304.9 78.1,303.8 C75,303 71.9,302.4 68.9,301.6 C66.4,301 63.9,300.3 61.3,299.7 C58,298.9 54.8,298.1 51.5,297.2 C48.4,296.3 45.4,295.3 42.3,294.4 C40,293.7 37.6,293.2 35.3,292.5 C33.6,292 31.9,291.3 30.2,290.9 C28,290.3 25.7,289.9 23.5,289.4 C20.8,288.7 18.2,288 15.5,287.3 C11.8,286.4 8.2,285.5 4.5,284.6 C2.8,284.2 1.2,283.6 0.1,282 L0.1,281 C1.4,280.8 1.1,279.6 1.2,278.9 C1.5,276.9 1.5,274.8 1.7,272.8 C2.1,269.5 2.6,266.2 3,262.9 C3.2,261.2 3.5,259.5 3.7,257.8 C3.9,256.2 4.1,254.5 4.4,252.9 C4.6,251.5 5,250.1 5.2,248.7 C5.5,246.8 5.8,244.8 6.1,242.9 C6.3,241.7 6.6,240.5 6.9,239.3 C7.3,237 7.7,234.7 8.1,232.4 C8.3,231.1 8.5,229.8 8.7,228.6 C9.1,226 9.5,223.4 9.9,220.8 C10.5,217.5 11.1,214.3 11.8,211 C12.2,208.8 12.8,206.6 13.3,204.4 C13.8,201.9 14.3,199.4 14.7,196.9 C15.3,193.5 16,190.2 16.6,186.8 C17.1,184.1 17.4,181.4 17.8,178.7 C18.2,176 18.8,173.2 19.2,170.5 C19.7,167.4 20,164.2 20.5,161.1 C20.9,158.5 21.6,155.9 22.1,153.3 C22.6,150.7 22.9,148.1 23.4,145.6 C23.8,143.5 24.2,141.5 24.6,139.4 C25.1,136.8 25.6,134.3 26,131.7 C26.5,129 27.1,126.2 27.5,123.5 C28,120.2 28.4,117 29,113.7 C29.3,112 29.7,110.4 30,108.8 C30.3,107.4 30.4,105.9 30.6,104.5 C30.9,102.4 31.3,100.2 31.6,98.1 C32,95.5 32.4,92.8 32.8,90.2 C33.2,87.7 33.6,85.3 33.9,82.8 C34.2,80.6 34.4,78.3 34.7,76.1 C35,74.3 35.5,72.5 35.8,70.7 C36.1,68.5 36.2,66.4 36.5,64.2 C36.7,62.9 37.1,61.6 37.3,60.2 C37.9,57 38.5,53.9 39,50.7 C39.4,48.3 39.8,45.9 40.2,43.4 C40.6,41 41.2,38.7 41.6,36.4 C42.1,33.8 42.5,31.2 43.1,28.6 C43.4,27.1 43.9,25.7 44.3,24.2 C45.1,21.4 45.8,18.7 46.6,16 C47.1,14.3 47.8,12.7 48.2,11 C48.4,10.4 48.2,9.6 48,9 C47.6,7.9 48.2,7.2 48.9,6.6 C49.9,5.8 50.8,5.1 52.2,4.9 C53.8,4.7 55.4,3.7 57,3.3 C60.8,2.5 64.5,1.8 68.3,1.2 C70.1,0.9 71.9,0.6 73.8,1.1 C74.8,1.4 75.9,1.3 76.9,1.5 C78.1,1.7 79.3,2.1 80.6,2.3 C81.3,2.4 81.9,2.3 82.6,2.4 C86.5,2.9 90.4,3.3 94.2,3.9 C97.6,4.4 101,5 104.4,5.6 C106.5,6 108.6,6.5 110.7,6.8 C112.2,7 113.8,7.1 115.3,7.3 C116,7.4 116.7,7.7 117.5,7.8 C118.3,7.9 119.2,7.8 120,8 C121.8,8.2 123.6,8.5 125.4,8.8 C126.1,8.9 126.7,9.3 127.3,9.5 C128.4,9.7 129.5,9.8 130.7,10 C132.6,10.2 134.5,10.5 136.4,10.7 C138.1,10.9 139.8,11 141.5,11.3 C143.2,11.6 144.9,12 146.7,12.4 C147.4,12.5 148.1,12.5 148.8,12.6 C149,12.6 149.3,12.7 149.4,12.8 C150.4,13.5 151.7,12.9 152.8,13.7 C153.3,14.1 154.2,14 154.9,14.1 C154.8,14.1 154.8,14.2 154.7,14.2 L154.9,14.2 L154.9,14 C156.4,14.3 157.9,14.6 159.5,14.8 C161.2,15.1 162.9,15.3 164.6,15.6 C165.5,15.7 166.3,16 167.2,16.1 C169.4,16.5 171.6,16.9 173.8,17.3 C175.8,17.7 177.7,18.2 179.7,18.6 C181.8,19 183.9,19.4 185.9,19.8 C187.7,20.2 189.5,20.5 191.3,20.9 C192.4,21.2 193.7,21.3 194.6,21.9 C196.3,23 198.2,22.6 200,23 C201.4,23.4 202.8,23.8 204.2,24.1 C205.4,24.4 206.7,24.6 207.9,24.9 C210.3,25.5 212.7,26 215.1,26.6 C215.3,26.7 215.6,26.7 215.8,26.8 C216.6,27.3 217.4,27.4 218.3,27.1 C218.7,27 219.3,27.4 219.8,27.5 C220.5,27.7 221.3,28 222,28.2 C222.9,28.4 224,28.3 224.8,28.7 C225.9,29.3 227,29.2 228.1,29.5 C228.7,29.6 229.2,30.1 229.8,30.4 C230,30.5 230.3,30.7 230.4,30.6 C231.9,30.1 233.1,31.1 234.5,31.3 C235.8,31.5 237.1,32.1 238.4,32.4 C239,32.6 239.7,32.5 240.2,32.7 C241.7,33.3 243.5,33.1 244.8,34.2 C245.3,34.6 246.2,34.4 246.8,34.7 C248,35.1 249.1,35.6 250.3,36 C250.8,36.1 250.9,36 250.9,35.9 L250.9,35.9 Z M55.6,10.7 C55,10.5 54.9,11 54.7,11.7 L53.2,18.9 C52.6,21.8 51.9,24.6 51.3,27.5 C50.4,31.7 49.6,35.9 48.8,40 C48.1,43.7 47.5,47.5 46.8,51.2 C45.7,56.8 44.6,62.5 43.4,68.1 C43.3,68.6 43.3,69.2 43.2,69.7 C43.1,71 43.1,72.3 42.9,73.6 C42.4,76.9 41.8,80.1 41.3,83.4 C40.7,86.9 40.2,90.4 39.6,93.9 C39.1,96.9 38.5,99.8 38,102.8 C37.4,106.4 36.8,109.9 36.2,113.5 C35.5,117.7 35,121.9 34.2,126 C33.4,130.6 32.3,135.1 31.4,139.7 C30.8,142.7 30.3,145.7 29.8,148.8 C29.1,152.7 28.4,156.6 27.7,160.5 C27.2,163.2 26.7,165.9 26.2,168.6 C25.8,171.2 25.4,173.8 25.1,176.4 C24.7,179.5 24.3,182.6 23.8,185.6 C23.4,188.3 22.8,191 22.3,193.7 C21.6,197.5 21,201.4 20.2,205.2 C19.6,208.3 18.8,211.5 18.2,214.6 C17.4,218.7 16.6,222.8 15.9,226.9 C15.5,229.3 15.2,231.7 14.8,234.1 C14.1,238.1 13.3,242.1 12.6,246.1 C12,249.4 11.2,252.7 10.6,256 C10.1,258.8 9.8,261.6 9.3,264.4 C8.6,268.4 7.9,272.4 7.1,276.4 C6.8,277.9 6.8,278.2 8.4,278.5 C9.7,278.8 10.9,279 12.2,279.2 C16.4,280.1 20.6,281.2 24.8,281.9 C30.2,282.7 35.3,284.6 40.5,286 C44.7,287.1 48.9,288.5 53.1,289.6 C57,290.7 61,291.6 65,292.7 C67.6,293.4 70.1,294.2 72.7,294.8 C75.9,295.6 79.2,296.3 82.4,297.1 C85.3,297.8 88.2,298.5 91,299.2 C93.8,299.9 96.5,300.7 99.3,301.4 C102.5,302.2 105.8,302.9 109,303.7 C110.6,304.1 112.1,304.6 113.7,304.9 C117.1,305.6 120.3,306.8 123.8,307.4 C125.6,307.7 127.3,308.3 129,308.7 C130.5,309 132,309.4 133.5,309.6 C135.4,309.8 137.1,310.6 139,310.7 C140.1,310.7 141.2,311.1 142.4,311.3 C146,312 149.5,312.7 153.1,313.4 C156.4,314.1 159.7,314.7 163,315.4 C166.5,316.1 169.9,316.9 173.4,317.6 C178.4,318.5 183.5,319.4 188.6,320.3 C190,320.6 190.3,320.4 190.6,319 C191.1,316.2 191.7,313.5 192.2,310.7 C192.6,308.7 193.1,306.6 193.5,304.6 C194.1,301.5 194.6,298.3 195.3,295.2 C196,292.1 196.8,289 197.6,285.9 C197.9,284.8 198,283.6 198.3,282.5 C198.8,280.2 199.5,278 200,275.7 C200.7,272.5 201.3,269.3 201.9,266.1 C202.4,263.5 202.9,260.8 203.4,258.2 C203.8,256.2 204.1,254.1 204.5,252.1 C205.3,248.6 206.2,245.2 206.9,241.7 C207.8,237.4 208.7,233.1 209.6,228.8 C210.2,225.9 211,223 211.7,220.1 C212.4,217.1 213,214.1 213.6,211.2 C214.1,209.1 214.5,207 215,204.9 C215.4,203 215.9,201.1 216.4,199.2 C217.2,195.5 217.9,191.8 218.7,188.1 C219.1,186 219.7,184 220.1,181.9 C220.4,180.2 220.6,178.4 221,176.7 C221.6,173.4 222.4,170 223,166.7 C223.4,164.6 223.8,162.4 224.2,160.3 C224.9,157.1 225.6,153.8 226.3,150.6 C226.8,148.2 227.1,145.8 227.5,143.4 C228,140.7 228.5,138 229,135.3 C229.2,134.1 229.4,133 229.6,131.8 C230.1,129.6 230.6,127.4 231,125.2 C231.5,122.3 232,119.4 232.5,116.6 C232.9,114.4 233.4,112.3 233.7,110.1 C234.1,107.7 234.3,105.3 234.7,102.9 C235.1,100.6 235.6,98.3 236,96 C236.5,93 237.1,90 237.6,86.9 C238.1,84.1 238.6,81.2 239,78.4 C239.2,77.1 239.3,75.7 239.6,74.5 C239.9,73.2 240.4,71.9 240.7,70.6 C241.1,68.4 241.4,66.2 241.8,64 C242.1,62.5 242.4,60.9 242.8,59.4 C243.5,56.4 244.2,53.3 244.9,50.3 C245.2,49 245.1,48.8 243.9,48.5 C241.9,48 239.8,47.4 237.8,46.9 C235.6,46.3 233.4,45.5 231.1,45 C228.2,44.3 225.3,44 222.4,43.3 C217.5,42.1 212.6,40.7 207.7,39.4 C203.4,38.3 199.1,37.1 194.8,36 C191.4,35.1 188,34.4 184.6,33.5 C180.7,32.5 176.8,31.4 172.9,30.5 C170.2,29.8 167.5,29.3 164.8,28.7 C161.3,27.8 157.7,27.7 154.3,26.3 C152.9,26.9 151.7,26.1 150.4,26 C148.1,25.7 145.9,25.5 143.7,25 C141.2,24.5 138.7,23.7 136.1,23.2 C133.1,22.6 130.1,22.3 127.2,21.9 C122,21.1 116.8,20.4 111.5,19.6 C108.2,19.1 104.8,18.5 101.5,17.9 C98.8,17.4 96.2,16.9 93.5,16.5 C90.7,16.1 87.9,15.7 85.1,15.3 C81.5,14.7 77.9,14 74.3,13.4 C71.1,12.9 67.9,12.6 64.6,12.2 C61.9,11.5 58.9,11.2 55.6,10.7 Z M198.2,316.7 C198.8,316.3 199.3,315.7 200,315.6 C201.4,315.4 202.1,314.6 202.3,313.3 C202.4,312.7 202.4,312.1 202.6,311.6 C203,310 203.6,308.5 204,307 C204.9,302.7 205.7,298.4 206.6,294.2 C207.1,291.6 207.8,289.1 208.4,286.6 C209.2,282.9 210.1,279.3 210.9,275.6 C211.4,273.6 211.9,271.6 212.3,269.5 C212.9,266.2 213.4,262.8 214,259.5 C214.7,255.9 215.6,252.3 216.3,248.7 C217,245.5 217.5,242.2 218.1,239 C218.6,236.5 219.3,233.9 219.8,231.4 C220.2,229.7 220.3,228 220.7,226.3 C221.4,223.3 222.3,220.3 222.9,217.2 C223.8,212.8 224.5,208.4 225.4,204 C226,200.8 226.7,197.6 227.3,194.3 C227.6,192.8 227.6,191.3 227.8,189.8 C228.1,188.1 228.6,186.5 228.9,184.8 C229.6,181 230.3,177.2 231,173.4 C231.5,170.8 232.2,168.3 232.8,165.8 C233.3,163.7 233.7,161.6 234.2,159.4 C234.6,157.5 235,155.6 235.4,153.8 C236,150.9 236.5,148 237,145.2 C237.5,142.7 238.1,140.2 238.5,137.6 C239.1,134.2 239.6,130.8 240.2,127.5 C241,123.5 241.9,119.5 242.7,115.5 C243.2,113.2 243.5,110.9 243.8,108.6 C244.1,106.6 244.3,104.5 244.6,102.5 C244.9,100.4 245.4,98.3 245.8,96.2 C246.4,92.7 246.9,89.1 247.4,85.6 C248,81.1 249.3,76.8 250.5,72.4 C251,70.4 251.3,68.4 251.8,66.4 C252.3,64.1 252.9,61.8 253.5,59.5 C254.1,56.9 254.8,54.4 255.3,51.8 C255.7,49.9 256,48.1 256.3,46.2 C256.3,46 255.9,45.6 255.9,45.6 C254.8,46.1 253.7,46.7 252.6,47.2 L252.6,47.3 C252.3,48.8 252.1,50.2 251.8,51.7 C251.5,53.4 251.2,55.2 250.6,56.9 C250.3,57.8 250.2,58.6 250,59.5 C249.4,63.3 248.8,67 248.1,70.7 C247.5,73.7 246.9,76.7 246.3,79.7 C246,81.2 245.8,82.8 245.5,84.3 C245.1,86.9 244.7,89.5 244.2,92.1 C243.5,95.7 242.8,99.4 242.1,103 C241.3,107.5 240.5,112.1 239.7,116.6 C239,120.4 238.1,124.2 237.3,127.9 C236.8,130.2 236.3,132.6 235.9,135 C235.5,137.4 235.2,139.8 234.8,142.1 C234.3,145 233.6,147.8 233.1,150.7 C232.2,155.3 231.3,160 230.3,164.6 C229.4,168.9 228.5,173.2 227.6,177.5 C226.7,182 225.9,186.5 225,191 C224.6,192.9 224.2,194.9 223.8,196.8 C223.2,199.7 222.8,202.7 222.1,205.6 C221.4,209 220.4,212.4 219.7,215.8 C219,218.9 218.6,222 218,225 C217.3,228.3 216.6,231.5 215.8,234.7 C214.4,240.8 213.1,246.9 211.8,253 C211.1,256.2 210.5,259.5 209.9,262.8 C208.8,268.3 207.9,273.8 206.7,279.3 C205.9,283.3 204.8,287.3 203.9,291.2 C202.7,296.8 201.6,302.5 200.4,308.1 C199.6,311 198.9,313.8 198.2,316.7 Z M65.1,6 L65.1,6.2 C65.5,6.3 65.9,6.3 66.2,6.4 C67.7,6.6 69.2,6.5 70.7,7 C72.6,7.6 74.5,7.7 76.4,7.7 C77.5,7.7 78.6,7.9 79.7,8.1 C81.8,8.5 84,9 86.1,9.3 C90.7,10.1 95.4,10.6 100,11.6 C102.1,12 104.2,12.4 106.3,12.7 C107,12.8 107.5,13.1 108.3,13.1 C110.2,13.1 112.1,13.6 113.9,13.9 C115.7,14.2 117.6,14.4 119.4,14.7 C122.1,15.3 125.1,14.8 127.6,16.4 C129.4,16 131.1,16.9 132.8,17.2 C133.1,17.2 133.5,17 133.8,17.1 C135.8,17.5 137.8,17.9 139.9,18.3 C140.7,18.4 141.6,18.3 142.4,18.5 C143.5,18.8 144.5,19.4 145.7,19.2 L145.9,19.2 C148.2,19.6 150.4,20.1 152.7,20.5 C153.7,20.7 154.6,21 155.6,21.2 C156.5,21.3 157.4,21.2 158.3,21.4 C160.5,21.8 162.7,22.4 165,22.9 C165.7,23 166.3,23.3 167,23.4 C167.8,23.5 168.7,23.7 169.6,23.7 C170.9,23.6 172,24.4 173.2,24.6 C176,24.9 178.7,25.8 181.4,26.4 C184.4,27.1 187.3,27.9 190.3,28.6 C193.7,29.4 197.1,30.1 200.4,31 C202.6,31.6 204.8,32.3 207,32.9 C208.8,33.4 210.6,33.7 212.3,34.1 C213.1,34.3 213.9,34.7 214.7,34.9 C216.4,35.3 218,35.6 219.7,36 C222.2,36.6 224.6,37.3 227,37.9 C228.8,38.3 230.6,38.6 232.3,39 C233.6,39.3 234.8,39.8 236.1,40.1 C237.8,40.5 239.4,40.8 241.1,41.2 C242.6,41.6 244.1,42.1 245.7,42.6 C245.5,42.6 245.4,42.7 245.2,42.7 C245.3,42.8 245.3,42.9 245.4,42.9 C245.8,43 246.2,42.9 246.5,43 C247.5,43.4 248.3,44 249.5,43.3 C250.2,42.8 251.1,42.6 251.9,42.3 C251.4,42.1 250.7,41.9 250.1,41.6 C249.4,41.3 248.9,40.7 248.2,40.5 C245.4,39.7 242.6,39 239.7,38.3 C238.8,38.1 237.8,38 236.9,37.7 C235.2,37.1 233.5,36.3 231.8,35.7 C229.7,35.1 227.5,34.7 225.4,34.2 C224.7,34 224.1,33.7 223.4,33.5 C222.8,33.4 222,33.5 221.4,33.3 C219,32.6 216.6,31.5 214.1,31.1 C213.1,30.9 212.1,30.6 211.1,30.3 C208.4,29.6 205.6,29 202.9,28.3 C201.3,27.9 199.7,27.3 198,26.9 C196.7,26.6 195.3,26.6 194,26.4 C192,26 190,25.5 188.1,25 C186.8,24.7 185.5,24.2 184.1,23.8 C183.6,23.7 183.2,23.4 182.7,23.3 C181.3,23 179.9,22.8 178.4,22.6 C177.3,22.4 176.2,22.3 175.1,22.1 C174.6,22 174.1,22 173.6,21.9 C171.8,21.4 170,20.9 168.1,20.5 C167.4,20.3 166.6,20.5 165.8,20.3 C164,20 162.2,19.6 160.4,19.2 C159.3,19 158.2,18.3 157.1,18.4 C153.9,18.5 151,17.5 148,16.9 C146.1,16.5 144.1,16.2 142.2,15.9 C141.6,15.8 141,15.7 140.4,15.6 C139.2,15.4 137.9,15.4 136.8,15 C135.8,14.6 134.8,14.3 133.7,14.2 C132.7,14.1 131.7,14.1 130.6,14 C129.9,13.9 129.3,13.7 128.6,13.6 C127.2,13.5 125.8,13.6 124.4,13.4 C122.9,13.2 121.5,12.8 120,12.5 C119.4,12.4 118.9,12.1 118.3,12.1 C117.2,12 116,12.4 115.1,12 C113.2,11.2 111,12.1 109.1,11 C108.4,10.6 107.3,10.7 106.5,10.6 C104.1,10.2 101.6,9.8 99.2,9.4 C97.2,9.1 95.2,8.9 93.2,8.6 C92.4,8.5 91.6,8.3 90.8,8.1 C89.4,7.8 88,7.5 86.5,7.2 C84.9,7 83.3,7 81.8,6.7 C80,6.4 78.3,6 76.5,5.7 C74.9,5.4 73.4,5.2 71.8,5 C70.6,4.9 69.3,4.8 68.1,5 C67.2,5.1 66.1,5.6 65.1,6 Z" id="Shape"></path>
            <path d="M251,35.9 C250.9,35.8 250.9,35.8 250.8,35.7 L250.9,35.7 C250.9,35.8 250.9,35.9 251,35.9 C250.9,35.9 251,35.9 251,35.9 Z" id="Shape"></path>
            <path d="M162.3,279.9 C162.6,281 163,282 163.1,283.1 C163.3,284.9 164.2,286.5 164.1,288.2 C164,289.7 164.9,290.9 165.1,292.3 C165.2,293 165.2,293.7 165.3,294.6 C165.1,294 163.9,294.9 164.4,293.7 C164.4,293.6 164.2,293.4 164.1,293.4 C164,293.4 163.8,293.5 163.8,293.6 C163.6,293.9 163.3,294.1 163.1,293.8 C162.6,293 162.1,292.2 161.8,291.4 C160.6,288.8 159.5,286.1 158.4,283.5 C157.5,281.4 156.7,279.2 155.9,277 C155,274.7 154.1,272.5 153.3,270.2 C152.7,268.5 152.2,266.7 151.6,265 C150.9,263 150,261 149.3,258.9 C148.7,257.2 148.3,255.4 147.7,253.6 C147.3,252.4 146.7,251.2 146.3,250 C145.3,247.3 144.3,244.6 143.3,241.8 C142.2,238.8 141.2,235.8 140.1,232.8 C139.3,230.5 138.4,228.1 137.7,225.8 C137,223.6 136.4,221.4 135.7,219.3 C134.8,216.7 133.8,214.2 132.9,211.6 C132.3,209.8 131.8,207.9 131.2,206.1 C130.4,203.7 129.6,201.2 128.8,198.8 C128.3,197.3 127.5,195.8 127,194.3 C126.3,192.1 125.8,189.8 125.1,187.5 C124.4,185.4 123.7,183.3 123,181.2 C122.3,179.1 121.8,177.1 121.1,175 C120.5,173.3 119.8,171.7 119.2,170 C118.7,168.5 118.3,166.9 117.8,165.4 C116.8,162.3 115.8,159.3 114.8,156.2 C114.2,154.2 113.6,152.2 113,150.2 C112.4,148.2 111.5,146.3 110.9,144.3 C110.1,141.7 109.4,139 108.6,136.4 C108,134.4 107.2,132.5 106.5,130.5 C106.1,129.2 105.8,127.9 105.4,126.7 C105,125.4 104.5,124.2 104.1,122.9 C103.2,120.4 102.4,118 101.5,115.5 C100.9,113.6 100.3,111.7 99.6,109.8 C98.5,106.4 97.4,103.1 96.3,99.7 C95.7,97.9 95,96 94.4,94.2 C94,93.1 93.7,92 93.3,90.9 C92.8,89.6 92.3,88.4 91.9,87.1 C91.5,86 91.2,84.8 90.8,83.6 C90.3,82.1 89.8,80.7 89.3,79.2 C88.5,76.6 87.6,73.9 86.8,71.3 C85.9,68.5 85.1,65.8 84.3,63 C83.9,61.4 83.6,59.8 83.2,58.2 C82.6,56.1 82,54 81.4,51.9 C81.1,50.9 81.1,49.9 80.9,48.9 C80.9,48.7 80.8,48.4 80.7,48.2 C79.6,47.2 79.2,44.6 79.9,43.2 C80.3,42.3 80.8,42.4 81.2,43.1 C81.7,43.8 82.1,44.6 82.4,45.5 C82.8,46.4 83,47.3 83.4,48.2 C84.1,49.6 84.9,50.9 85.6,52.3 C86.4,54.2 87.1,56.1 87.8,58 C88.6,59.9 89.4,61.8 90.2,63.7 C90.8,65.3 91.4,66.8 92,68.4 C92.7,70.4 93.3,72.4 94.1,74.3 C94.6,75.6 95.3,76.8 95.9,78.1 C96.3,78.9 96.5,79.7 96.8,80.5 C97.8,83.1 98.8,85.6 99.8,88.2 C100.9,91.1 102,93.9 103.1,96.8 C104.7,101.1 106.2,105.5 107.8,109.8 C108.3,111.1 108.9,112.3 109.3,113.6 C109.9,115.3 110.2,117 110.8,118.7 C111.3,120.1 112,121.5 112.4,122.9 C113.2,125.3 113.8,127.7 114.5,130.1 C115,131.7 115.9,133.3 116.4,134.9 C117.1,136.8 117.6,138.8 118.2,140.8 C118.7,142.5 119.3,144.1 119.8,145.8 C120.3,147.4 120.8,148.9 121.3,150.5 C121.6,151.6 122,152.6 122.4,153.7 C123,155.6 123.5,157.5 124.1,159.4 C124.5,160.6 124.9,161.7 125.2,162.9 C126.3,166.4 127.3,169.8 128.4,173.3 C129.2,175.9 130.2,178.4 131.1,180.9 C131.9,183.1 132.6,185.3 133.3,187.5 C133.9,189.3 134.4,191.2 134.9,193 C135.2,193.8 135.5,194.6 135.8,195.5 C136.6,197.8 137.4,200.1 138.2,202.4 C139.1,205 140,207.7 140.9,210.3 C141.4,211.9 141.9,213.6 142.5,215.2 C143.5,218.1 144.5,221 145.5,224 C146.6,227.2 147.6,230.4 148.7,233.6 C149.3,235.4 150,237.1 150.6,238.9 C152,243.4 153.5,247.9 154.9,252.4 C156.1,256.4 157.4,260.3 158.5,264.3 C159.5,267.9 160.4,271.6 161.3,275.3 C161.6,276.7 161.9,278 162.2,279.4 L162.2,279.4 C162.1,279.4 162,279.4 161.9,279.5 C162,279.6 162.1,279.6 162.1,279.7 C162.2,279.8 162.2,279.8 162.3,279.9 Z M161.9,290.4 C161.9,290.4 161.8,290.4 161.9,290.4 C161.8,290.4 161.8,290.4 161.7,290.5 C161.7,290.5 161.7,290.5 161.8,290.6 C161.8,290.5 161.9,290.5 161.9,290.4 Z" id="Shape"></path>
            <path d="M166.4,61.2 C166.4,61 166.4,60.7 166.5,60.5 C166.5,60.4 166.7,60.3 166.8,60.1 C166.9,60.2 167.2,60.4 167.2,60.5 C167.3,62.5 168.8,64 169.2,65.9 C169.3,66.4 169.5,66.8 169.4,67.3 C169.1,68.7 170.9,69.3 170.5,70.8 C170.3,71.4 170.9,72.3 171.3,73 C172,74.2 172.5,75.3 172.3,76.7 C172.3,76.7 172.5,76.8 172.6,76.8 L172.6,76.8 L173.1,77.6 C173.1,77.8 173.1,77.9 173.2,78.1 C174.3,81.5 175.5,84.9 176.6,88.3 C177.3,90.4 177.9,92.6 178.6,94.7 C179.2,96.6 180,98.5 180.6,100.4 C181.1,102 181.4,103.6 181.9,105.2 C182.6,107.4 183.4,109.6 184.2,111.8 C185,114.2 185.8,116.7 186.6,119.1 C187.2,121.1 187.9,123.2 188.5,125.2 C189.7,129.1 190.9,132.9 192,136.8 C192.7,139.2 193.4,141.6 194.1,144 C194.6,145.9 195.2,147.9 195.6,149.8 C196.3,152.9 197.1,156 197.7,159.2 C198,160.7 198.6,162.3 198.5,163.7 C198.4,165.4 199.3,166.8 199.2,168.6 C199,168.3 198.8,167.9 198.7,167.9 C197.5,168 197.2,166.9 196.5,166.3 C194.6,164.4 193.8,162 192.9,159.6 C191.5,155.9 190,152.3 188.6,148.5 C187.6,145.6 186.7,142.7 185.8,139.8 C185.2,137.9 184.3,136.1 183.7,134.2 C182.7,131.3 181.9,128.4 181,125.6 C179.6,121.1 178.2,116.6 176.8,112.1 C176,109.6 175.2,107.2 174.4,104.7 C173.9,102.8 173.5,100.9 173,98.9 C172,95.3 170.9,91.8 170,88.2 C168.9,84.2 167.9,80.2 166.8,76.1 C166.3,74.2 165.5,72.4 165.3,70.5 C165.1,69 165.7,67.5 165.9,66 C165.9,65.7 166,65.4 166.1,65.1 C166.2,64.8 166.4,64.4 166.5,64.1 C166.6,64.2 166.3,64 166.3,63.8 L166.3,61 C166.1,61.2 166.3,61.2 166.4,61.2 C166.5,61.2 166.5,61.3 166.6,61.3 L166.6,61.1 C166.6,61.2 166.5,61.2 166.4,61.2 Z" id="Shape"></path>
            <path d="M91.1,152.5 C92,154.8 93,157.1 93.9,159.5 C95,162.3 96,165.1 96.9,167.9 C98,171.3 99,174.8 100.2,178.3 C100.8,180 101.6,181.7 102.2,183.4 C103,185.6 103.6,187.8 104.4,190 C105.1,192.2 105.8,194.4 106.6,196.6 C107.4,199 108.3,201.4 109.1,203.9 C109.8,206.1 110.5,208.4 111.2,210.6 C111.9,212.9 112.8,215.1 113.5,217.4 C114.7,221.5 115.9,225.5 117,229.6 C117.6,231.6 118.1,233.6 118.5,235.6 C118.6,236.1 118.3,236.7 118.5,237 C119.1,238.1 118.5,239.2 118.9,240.3 C119.3,241.4 119.5,242.5 119.8,243.6 C119.9,243.9 119.8,244.2 119.8,244.5 C119.6,244.4 119.3,244.1 119.1,244.1 C118.7,244.2 118.2,244.4 117.8,244.6 L118.1,244.9 C118.1,244.7 118,244.5 118,244.2 C117.8,244.2 117.5,244.2 117.5,244.3 C117,244.9 116.9,244.5 116.7,244.1 C115.6,241.8 114.4,239.6 113.4,237.3 C112.2,234.6 111.1,231.9 110.1,229.1 C109.3,226.8 108.7,224.5 108,222.2 C107.5,220.8 106.9,219.4 106.4,217.9 C106.1,217 105.9,216 105.6,215.1 C105,213 104.3,210.9 103.6,208.8 C102.9,206.5 102.1,204.1 101.3,201.8 C100.1,198.1 98.9,194.3 97.8,190.5 C97.1,188.1 96.3,185.7 95.6,183.3 C94.9,181 94.3,178.6 93.6,176.3 C93,174.3 92.2,172.4 91.7,170.4 C91,167.7 90.4,164.9 89.8,162.2 C89.4,160.4 88.9,158.5 88.4,156.7 C87.7,153.8 86.8,150.9 86.3,147.9 C86,146.1 84.9,144.4 85.5,142.5 C85.7,142 85.5,142 86.1,141.5 C86.4,141.2 86.5,140.8 86.7,140.4 C87.1,141.2 87.6,142 87.9,142.9 C88.4,144.2 88.8,145.5 89.3,146.8 C89.6,147.7 89.8,148.7 90.1,149.7 C90.4,150.8 90.8,151.7 91.1,152.5 L91.1,152.5 Z" id="Shape"></path>
            <path d="M68.3,175.6 C68.6,175.5 68.9,175.5 69.2,175.4 C69.2,175.6 69.3,175.9 69.3,176.1 C69.3,176.5 69.2,176.9 69.8,176.4 C70.3,177 70.9,177.4 71.2,178.1 C72.6,181.8 74,185.6 75.2,189.3 C76.1,191.8 76.7,194.4 77.5,197 C78,198.6 78.5,200.3 79,201.9 C79.6,204.1 80.1,206.3 80.7,208.5 C81.5,211.6 82.6,214.6 83.3,217.7 C83.7,219.9 83.6,222.1 83.7,224.4 C83.7,224.8 83.6,225.3 83.5,225.7 C83.5,225.8 83.4,225.8 83.4,225.9 C82.4,225.2 82,226.6 81.2,226.5 C81,226.5 80.7,226.3 80.6,226.2 C79.1,224.5 78.1,222.5 77.2,220.4 C76.8,219.4 76.8,218.1 76.5,217 C76.3,215.9 75.9,214.9 75.6,213.8 C74.9,211 74.2,208.3 73.4,205.5 C73,204 72.4,202.6 72,201.1 C71.4,198.9 71,196.6 70.5,194.4 C69.6,190.7 68.6,187.1 67.7,183.5 C67.5,182.9 67.5,182.2 67.2,181.6 C66.4,180 67.2,178.6 67.6,177.2 C67.7,176.7 68.1,176.2 68.3,175.6 L68.3,175.6 Z" id="Shape"></path>
            <path d="M162.2,49 C162.8,49.9 163.4,50.7 163.8,51.6 C164.3,52.8 164.8,54.1 165.2,55.5 C165.5,56.5 165.5,57.5 165.6,58.5 C165.6,58.7 165.2,58.9 165.1,59.1 C164.9,59.8 164.6,60.5 164.6,61.2 C164.5,62.2 164.5,63.3 164.5,64.4 C164.5,64.4 164,64.5 164,64.4 C163.7,64 163.4,63.6 163.3,63.2 C162.8,60.8 162.2,58.3 161.9,55.9 C161.8,54.8 162,53.5 162.4,52.4 C162.8,51.4 162.8,50.6 162.4,49.7 C162.1,49.4 162.2,49.2 162.2,49 Z" id="Shape"></path>
            <path d="M161,51.7 C160.8,51.3 160.4,51 160.4,50.6 C160.3,49.8 159.9,48.9 160.7,48.1 C161,47.8 160.7,47 160.8,46.4 C160.9,46 161.1,45.6 161.3,45.2 C162.1,46.3 161.7,47.3 161.4,48.4 C161,49.5 161.1,50.6 161,51.7 L161,51.7 Z" id="Shape"></path>
            <path d="M161,51.7 L161,52 L161.1,52 C161.1,51.9 161,51.8 161,51.7 L161,51.7 Z" id="Shape"></path>
            <path d="M68.3,175.6 L67.8,175.6 L67.8,175.4 C68,175.5 68.2,175.5 68.3,175.6 L68.3,175.6 Z" id="Shape"></path>
            <path d="M162.1,279.5 C162.2,279.6 162.2,279.7 162.3,279.8 C162.2,279.8 162.2,279.7 162.2,279.7 C162.2,279.7 162.2,279.6 162.1,279.5 L162.1,279.5 Z" id="Shape"></path>
            <path d="M91.1,152.5 L91.1,152.3 L91.1,152.3 L91.2,152.4 C91.2,152.5 91.1,152.5 91.1,152.5 L91.1,152.5 Z" id="Shape"></path>
            <path d="M91.1,152.3 C91,152.3 91,152.2 90.9,152.2 L91,152.1 C91.1,152.2 91.1,152.3 91.1,152.3 L91.1,152.3 Z" id="Shape"></path>
            <path d="M172.4,76.9 C172.5,76.9 172.5,77 172.6,77 C172.6,76.9 172.5,76.9 172.4,76.9 C172.4,76.8 172.4,76.9 172.4,76.9 Z" id="Shape"></path>
        </g>
    </g>
</svg>