<svg xmlns="http://www.w3.org/2000/svg" width="11.116" height="19.656" viewBox="0 0 11.116 19.656">
  <path id="Icon_material-attach-money" data-name="Icon material-attach-money" d="M15.464,13.127c-2.479-.644-3.276-1.31-3.276-2.348,0-1.19,1.1-2.02,2.948-2.02,1.944,0,2.664.928,2.73,2.293H20.28a4.353,4.353,0,0,0-3.505-4.16V4.5H13.5V6.859C11.38,7.317,9.677,8.693,9.677,10.8c0,2.522,2.086,3.778,5.132,4.51,2.73.655,3.276,1.616,3.276,2.632,0,.753-.535,1.955-2.948,1.955A3.892,3.892,0,0,1,11.882,17.6H9.48C9.611,20,11.4,21.338,13.5,21.786v2.37h3.276V21.808C18.9,21.4,20.6,20.17,20.6,17.931,20.6,14.83,17.943,13.771,15.464,13.127Z" transform="translate(-9.48 -4.5)"/>
</svg>
