<svg xmlns="http://www.w3.org/2000/svg" width="70.6" height="44.928" viewBox="0 0 70.6 44.928">
  <path id="Icon_material-people" data-name="Icon material-people" d="M49.636,26.754a9.627,9.627,0,1,0-9.627-9.627A9.587,9.587,0,0,0,49.636,26.754Zm-25.673,0a9.627,9.627,0,1,0-9.627-9.627A9.587,9.587,0,0,0,23.964,26.754Zm0,6.418C16.486,33.173,1.5,36.927,1.5,44.4v8.023H46.427V44.4C46.427,36.927,31.441,33.173,23.964,33.173Zm25.673,0c-.931,0-1.99.064-3.113.16,3.723,2.7,6.322,6.322,6.322,11.071v8.023H72.1V44.4C72.1,36.927,57.113,33.173,49.636,33.173Z" transform="translate(-1.5 -7.5)" fill="#ffc235"/>
</svg>
