<svg xmlns="http://www.w3.org/2000/svg" width="32.867" height="72.074" viewBox="0 0 32.867 72.074">
  <g id="Group_358" data-name="Group 358" transform="translate(0 0)">
    <path id="Path_121" data-name="Path 121" d="M880.031,514.561l-1.741,8.156-1.761,8.243a1.691,1.691,0,0,0,.37,1.474l3.355,3.686,11.784,12.948a1.159,1.159,0,0,0,1.752.022l15.137-15.911a1.671,1.671,0,0,0,.4-1.447l-.385-2.077-2.032-10.965-1.56-8.411L903.3,499.192l-.916-4.932a5.086,5.086,0,0,0,1.586-3.767v-8.317c0-2.63-1.829-4.771-4.078-4.771H886.913c-2.246,0-4.074,2.141-4.074,4.771v8.317a5.091,5.091,0,0,0,1.538,3.726l-1.655,7.746ZM892.943,545.9l-9-9.887,3.917-.741,18.544-3.525Zm13.179-17.17L881.563,533.4l-2.337-2.567,1.364-6.382,24.042-3.752Zm-2.042-11.009-4.388.684-18.427,2.877,1.072-5.022,20.743-3.938Zm-18.652-35.55a1.63,1.63,0,0,1,1.485-1.738h12.975a1.63,1.63,0,0,1,1.487,1.738v8.317a1.669,1.669,0,0,1-1.268,1.712H886.7a1.668,1.668,0,0,1-1.27-1.712Zm15.04,16.053-3.269.512-11.5,1.8,1.132-5.3h13.082ZM885.023,503.7l16-2.5,1.511,8.156-19.508,3.706Z" transform="translate(-876.49 -477.404)" fill="#fff"/>
  </g>
</svg>
