<svg xmlns="http://www.w3.org/2000/svg" width="52.533" height="47.622" viewBox="0 0 52.533 47.622">
  <g id="Group_381" data-name="Group 381" transform="translate(0.001)">
    <path id="Path_189" data-name="Path 189" d="M399.235,1001.948H360.9a7.108,7.108,0,0,0-7.1,7.1v24.564a7.107,7.107,0,0,0,7.1,7.1h24.931l12.855,8.626a1.369,1.369,0,0,0,2.134-1.136v-8.171c2.5-1.057,5.514-3.349,5.514-6.417v-24.564A7.108,7.108,0,0,0,399.235,1001.948Zm4.359,31.664c0,1.607-2.4,3.48-4.553,4.158a1.372,1.372,0,0,0-.961,1.307v6.552l-11.065-7.427a1.363,1.363,0,0,0-.764-.234H360.9a4.363,4.363,0,0,1-4.359-4.357v-24.564a4.365,4.365,0,0,1,4.359-4.36h38.334a4.364,4.364,0,0,1,4.359,4.36Z" transform="translate(-353.803 -1001.948)" fill="#fff"/>
    <path id="Path_190" data-name="Path 190" d="M392.97,1007.15H360.639a2.577,2.577,0,0,0,0,5.154H392.97a2.577,2.577,0,1,0,0-5.154Zm0,3.509H360.639a.932.932,0,1,1,0-1.863H392.97a.932.932,0,1,1,0,1.863Z" transform="translate(-350.581 -998.015)" fill="#fff"/>
    <path id="Path_191" data-name="Path 191" d="M392.97,1011.454H360.639a2.576,2.576,0,0,0,0,5.152H392.97a2.576,2.576,0,1,0,0-5.152Zm0,3.509H360.639a.932.932,0,1,1,0-1.863H392.97a.932.932,0,1,1,0,1.863Z" transform="translate(-350.581 -994.761)" fill="#fff"/>
    <path id="Path_192" data-name="Path 192" d="M392.97,1015.61H360.639a2.576,2.576,0,0,0,0,5.153H392.97a2.576,2.576,0,1,0,0-5.153Zm0,3.507H360.639a.932.932,0,1,1,0-1.863H392.97a.932.932,0,1,1,0,1.863Z" transform="translate(-350.581 -991.618)" fill="#fff"/>
  </g>
</svg>
