<svg xmlns="http://www.w3.org/2000/svg" width="70.655" height="57.211" viewBox="0 0 70.655 57.211">
  <g id="Group_388" data-name="Group 388" transform="translate(0)">
    <path id="Path_195" data-name="Path 195" d="M906.853,224.252H868.817a1.2,1.2,0,0,0-1.123,1.229v46.39a1.2,1.2,0,0,0,1.123,1.229h28.095v7.066c0,.851.982,1.635,1.687,1.06l2.375-1.936,1.749-1.424c.149-.12.367-.257.554-.384a2.089,2.089,0,0,1,.3.237,21.71,21.71,0,0,0,1.685,1.384q1.292,1.06,2.588,2.122a.833.833,0,0,0,1.261-.114,1.151,1.151,0,0,0,.426-.946V273.1h27.689a.992.992,0,0,0,.757-.327l.04-.042.018-.022a1.19,1.19,0,0,0,.305-.837v-46.39a1.2,1.2,0,0,0-1.12-1.229H906.853Zm-9.942,46.39H869.937V226.708h26.974ZM907.3,277.72q-1.744-1.428-3.488-2.859a1,1,0,0,0-1.131,0l-3.524,2.87V226.708H907.3Zm2.243-51.012h26.566v43.934H909.54Z" transform="translate(-867.694 -224.252)" fill="#fff"/>
    <path id="Path_196" data-name="Path 196" d="M871.712,232.04h15.846c.962,0,.964-1.637,0-1.637H871.712C870.751,230.4,870.749,232.04,871.712,232.04Z" transform="translate(-864.371 -218.052)" fill="#fff"/>
    <path id="Path_197" data-name="Path 197" d="M871.712,235.468h15.846c.962,0,.964-1.637,0-1.637H871.712C870.751,233.831,870.749,235.468,871.712,235.468Z" transform="translate(-864.371 -214.596)" fill="#fff"/>
    <path id="Path_198" data-name="Path 198" d="M871.712,238.9h15.846c.962,0,.964-1.639,0-1.639H871.712C870.751,237.258,870.749,238.9,871.712,238.9Z" transform="translate(-864.371 -211.141)" fill="#fff"/>
    <path id="Path_199" data-name="Path 199" d="M871.712,242.325h15.846c.962,0,.964-1.639,0-1.639H871.712C870.751,240.686,870.749,242.325,871.712,242.325Z" transform="translate(-864.371 -207.686)" fill="#fff"/>
    <path id="Path_200" data-name="Path 200" d="M907.586,230.4H891.739c-.962,0-.964,1.637,0,1.637h15.848C908.548,232.04,908.55,230.4,907.586,230.4Z" transform="translate(-844.184 -218.052)" fill="#fff"/>
    <path id="Path_201" data-name="Path 201" d="M907.586,233.831H891.739c-.962,0-.964,1.637,0,1.637h15.848C908.548,235.468,908.55,233.831,907.586,233.831Z" transform="translate(-844.184 -214.596)" fill="#fff"/>
    <path id="Path_202" data-name="Path 202" d="M907.586,237.258H891.739c-.962,0-.964,1.639,0,1.639h15.848C908.548,238.9,908.55,237.258,907.586,237.258Z" transform="translate(-844.184 -211.141)" fill="#fff"/>
    <path id="Path_203" data-name="Path 203" d="M907.586,240.686H891.739c-.962,0-.964,1.639,0,1.639h15.848C908.548,242.325,908.55,240.686,907.586,240.686Z" transform="translate(-844.184 -207.686)" fill="#fff"/>
  </g>
</svg>
