<svg xmlns="http://www.w3.org/2000/svg" width="62.771" height="54.571" viewBox="0 0 62.771 54.571">
  <g id="Group_360" data-name="Group 360" transform="translate(0 0)">
    <path id="Path_122" data-name="Path 122" d="M963.823,922.873a1.3,1.3,0,0,0,1.5,0c1.25-.878,30.636-21.664,30.636-38.76,0-7.388-4.356-13.1-11.365-14.906a19.165,19.165,0,0,0-20.035,7.365,19.08,19.08,0,0,0-20.188-7.452c-6.9,1.844-11.182,7.587-11.182,14.992C933.187,901.209,962.572,922,963.823,922.873Zm-18.779-51.229a15.123,15.123,0,0,1,3.907-.5,16.571,16.571,0,0,1,14.49,8.512,1.306,1.306,0,0,0,2.275-.021,16.433,16.433,0,0,1,18.226-7.9c5.889,1.516,9.4,6.143,9.4,12.376,0,14.318-24.173,32.709-28.775,36.08-4.6-3.371-28.771-21.762-28.771-36.08C935.8,877.851,939.255,873.19,945.044,871.644Z" transform="translate(-933.187 -868.539)" fill="#fff"/>
    <path id="Path_123" data-name="Path 123" d="M950.781,898.165h6.778V892.1h5.817v-6.99h-5.817v-6.062h-6.778v6.062h-5.817v6.99h5.817Zm-4.077-7.806v-3.508h5.817v-6.06h3.3v6.06h5.819v3.508h-5.819v6.064h-3.3v-6.064Z" transform="translate(-922.785 -859.257)" fill="#fff"/>
  </g>
</svg>
