<svg xmlns="http://www.w3.org/2000/svg" width="76.439" height="50.717" viewBox="0 0 76.439 50.717">
  <g id="Group_392" data-name="Group 392" transform="translate(0 0)">
    <path id="Path_216" data-name="Path 216" d="M483.065,448.415a1.336,1.336,0,0,0,.943.392l21.25-.005a28.2,28.2,0,0,0-.442,4.574,1.326,1.326,0,0,0,1.324,1.342l29.288-.005a1.325,1.325,0,0,0,1.322-1.279,27.545,27.545,0,0,0-.339-4.627L557.8,448.8a1.323,1.323,0,0,0,1.322-1.279c.015-.452.287-11.182-6.437-17.342a1.323,1.323,0,0,0-1.7-.073c-.075.06-7.9,5.937-15.181.008a1.319,1.319,0,0,0-1.7.025,19.839,19.839,0,0,0-4.154,5.715,1.331,1.331,0,0,0-1.33.158c-.322.246-7.937,5.911-15.183.01a1.321,1.321,0,0,0-1.234-.231,17.639,17.639,0,0,0-4.016-5.612,1.323,1.323,0,0,0-1.7-.073c-.078.06-7.9,5.937-15.181.008a1.319,1.319,0,0,0-1.7.025c-.276.241-6.751,5.994-6.912,17.327A1.327,1.327,0,0,0,483.065,448.415ZM535.1,432.9c6.919,4.831,13.982,1.475,16.515-.048,3.933,4.222,4.69,10.6,4.831,13.306l-20.564.005a21.448,21.448,0,0,0-3.931-8.317A20.4,20.4,0,0,1,535.1,432.9Zm-22.369,5.911c6.919,4.828,13.982,1.473,16.513-.05,3.936,4.225,4.693,10.606,4.831,13.308l-26.561,0A22.268,22.268,0,0,1,512.732,438.809ZM490.6,432.9c6.922,4.831,13.984,1.475,16.518-.048a15.96,15.96,0,0,1,3.036,4.9,23.8,23.8,0,0,0-4.288,8.4l-20.481,0A22.287,22.287,0,0,1,490.6,432.9Z" transform="translate(-482.685 -404.001)" fill="#fff"/>
    <path id="Path_217" data-name="Path 217" d="M496.579,444.591h0a12.418,12.418,0,0,0,8.849-3.674,13.075,13.075,0,0,0,.917-1.028A12.531,12.531,0,0,0,518.709,450.5h.005a12.525,12.525,0,0,0,12.4-10.88,12.5,12.5,0,0,0,9.965,4.971h0a12.526,12.526,0,1,0-12.406-14.163,12.465,12.465,0,0,0-19.737-.269,12.516,12.516,0,1,0-12.361,14.432Zm37.517-19.5a9.871,9.871,0,1,1,6.987,16.855h0a9.872,9.872,0,0,1-6.985-16.855ZM511.727,431a9.872,9.872,0,1,1,6.987,16.857h-.005A9.872,9.872,0,0,1,511.727,431Zm-22.13-5.909a9.871,9.871,0,1,1,6.985,16.855h0a9.869,9.869,0,0,1-6.982-16.855Z" transform="translate(-480.612 -419.545)" fill="#fff"/>
  </g>
</svg>
