<svg xmlns="http://www.w3.org/2000/svg" width="55.575" height="47.623" viewBox="0 0 55.575 47.623">
  <g id="Group_389" data-name="Group 389" transform="translate(-0.001 0)">
    <path id="Path_204" data-name="Path 204" d="M485.385,788.225h52.123a1.727,1.727,0,0,0,1.726-1.728V749.753a1.727,1.727,0,0,0-1.726-1.726H523.525v-5.7A1.724,1.724,0,0,0,521.8,740.6H507.527a1.725,1.725,0,0,0-1.726,1.724v5.7h-6.267v-.664a1.725,1.725,0,0,0-1.726-1.726h-4.834a1.724,1.724,0,0,0-1.726,1.726v.664h-5.863a1.726,1.726,0,0,0-1.726,1.726V786.5A1.727,1.727,0,0,0,485.385,788.225Zm23.87-44.171h10.818v3.973H509.255Zm-22.144,7.427H535.78v33.292H487.111Z" transform="translate(-483.658 -740.602)" fill="#fff"/>
    <path id="Path_205" data-name="Path 205" d="M508.315,747.951a13.314,13.314,0,1,0,13.313,13.315A13.332,13.332,0,0,0,508.315,747.951Zm0,23.177a9.862,9.862,0,1,1,9.861-9.862A9.873,9.873,0,0,1,508.315,771.128Z" transform="translate(-472.857 -733.603)" fill="#fff"/>
    <path id="Path_206" data-name="Path 206" d="M505.283,751.135a7.1,7.1,0,1,0,7.1,7.1A7.107,7.107,0,0,0,505.283,751.135Zm0,10.746a3.647,3.647,0,1,1,3.645-3.647A3.651,3.651,0,0,1,505.283,761.881Z" transform="translate(-469.825 -730.571)" fill="#fff"/>
    <path id="Path_207" data-name="Path 207" d="M497.878,747.079h-9.666a1.727,1.727,0,0,0-1.728,1.726v5.832a1.727,1.727,0,0,0,1.728,1.728h9.666a1.727,1.727,0,0,0,1.728-1.728V748.8A1.727,1.727,0,0,0,497.878,747.079Zm-1.726,5.832h-6.214v-2.378h6.214Z" transform="translate(-480.968 -734.434)" fill="#fff"/>
  </g>
</svg>
