<svg xmlns="http://www.w3.org/2000/svg" width="52.447" height="66.538" viewBox="0 0 52.447 66.538">
  <g id="Group_382" data-name="Group 382" transform="translate(0 0)">
    <path id="Path_193" data-name="Path 193" d="M920.608,306.7a23.28,23.28,0,0,0-5.255-14.723,23.1,23.1,0,0,0-35.769,0A23.168,23.168,0,1,0,920.608,306.7Zm-2.388,0a20.754,20.754,0,0,1-.234,3.13,35.893,35.893,0,0,1-10.4,5.057,22.638,22.638,0,0,0,.516-3.067,30.517,30.517,0,0,0-1.977-13.389,30.185,30.185,0,0,0,8.366-3.625A20.883,20.883,0,0,1,918.219,306.7Zm-11.306,5a22.015,22.015,0,0,1-.641,3.539,29.953,29.953,0,0,1-17.472-1.12c-.15-.055-.291-.114-.438-.171a22.074,22.074,0,0,1-.34-2.243,29.81,29.81,0,0,1,2.251-13.657,31.208,31.208,0,0,0,8.743,1.289,28.335,28.335,0,0,0,5.9-.62A29.34,29.34,0,0,1,906.914,311.7Zm6.594-18.2c.093.112.179.228.269.341a28.964,28.964,0,0,1-8.084,3.462,50.762,50.762,0,0,0-6.437-11.329A20.671,20.671,0,0,1,913.508,293.5Zm-16.039-7.609c.068,0,.137,0,.207.006a51.068,51.068,0,0,1,6.8,11.689,28.738,28.738,0,0,1-13.753-.644,51.448,51.448,0,0,1,6.534-11.047C897.33,285.89,897.4,285.886,897.469,285.886Zm-1.786.083a51.1,51.1,0,0,0-6.139,10.6,34.065,34.065,0,0,1-7.654-3.612A20.653,20.653,0,0,1,895.683,285.969ZM876.718,306.7a20.888,20.888,0,0,1,4.4-12.811,35.335,35.335,0,0,0,7.973,3.8,31,31,0,0,0-2.259,14.134c.053.543.132,1.081.221,1.613a39.152,39.152,0,0,1-10.33-6.441C876.725,306.891,876.718,306.794,876.718,306.7Zm.093,1.942a40.136,40.136,0,0,0,10.528,6.2,24.423,24.423,0,0,0,7.6,12.51A20.816,20.816,0,0,1,876.811,308.639Zm20.658,18.87c-.185,0-.366-.009-.547-.015a24.1,24.1,0,0,1-8.225-12.148,32.332,32.332,0,0,0,10.691,1.859,30.757,30.757,0,0,0,6.5-.7,24.515,24.515,0,0,1-7.87,10.99C897.834,327.5,897.65,327.509,897.469,327.509Zm2.535-.161a24.773,24.773,0,0,0,7.233-11.168,35.848,35.848,0,0,0,10.422-4.692A20.819,20.819,0,0,1,900,327.347Z" transform="translate(-868.161 -280.618)" fill="#fafafa"/>
    <path id="Path_194" data-name="Path 194" d="M895.795,339.051h-6.878a4.977,4.977,0,0,0,0,9.955h22.7a4.977,4.977,0,0,0,0-9.955h-6.878V337.9a4.416,4.416,0,0,0-.4-1.827,42.959,42.959,0,0,0,8.149-2.011,1.492,1.492,0,1,0-.981-2.819,34.12,34.12,0,0,1-13.89,2.09c-12.8-1.045-23.642-13.262-23.68-26.682a26.374,26.374,0,0,1,.706-6.261,22.554,22.554,0,0,1,4.374-8.873,21.844,21.844,0,0,1,7.854-6.2,1.491,1.491,0,1,0-1.2-2.729,24.525,24.525,0,0,0-8.965,7.041,25.565,25.565,0,0,0-4.96,10.054,29.392,29.392,0,0,0-.789,6.973,29.911,29.911,0,0,0,4.1,14.765C879.418,329.1,887.3,335,896.143,336.176a4.445,4.445,0,0,0-.348,1.728Zm1.2,2.388a1.194,1.194,0,0,0,1.193-1.2V337.9a2.075,2.075,0,0,1,.661-1.515c.3.009.6.018.91.018.62,0,1.25-.026,1.883-.064a2.072,2.072,0,0,1,.716,1.561v2.341a1.194,1.194,0,0,0,1.2,1.2h8.071a2.59,2.59,0,1,1,0,5.18h-22.7a2.59,2.59,0,0,1,0-5.18Z" transform="translate(-870.96 -282.468)" fill="#fff"/>
  </g>
</svg>
