<?xml version="1.0" standalone="no"?>
<!DOCTYPE svg PUBLIC "-//W3C//DTD SVG 20010904//EN"
 "http://www.w3.org/TR/2001/REC-SVG-20010904/DTD/svg10.dtd">
<svg version="1.0" xmlns="http://www.w3.org/2000/svg"
 width="184.000000pt" height="183.000000pt" viewBox="0 0 184.000000 183.000000"
 preserveAspectRatio="xMidYMid meet">
<metadata>
Created by potrace 1.16, written by Peter Selinger 2001-2019
</metadata>
<g transform="translate(0.000000,183.000000) scale(0.100000,-0.100000)"
fill="#000000" stroke="none">
<path d="M810 1731 c-81 -26 -117 -48 -178 -105 -132 -123 -208 -303 -247
-579 -16 -116 -49 -267 -91 -412 -30 -102 -131 -321 -162 -348 -20 -18 -20
-17 -51 40 -18 32 -41 91 -51 132 -21 78 -37 111 -25 51 47 -240 230 -437 460
-495 48 -12 135 -15 455 -15 368 0 400 1 470 21 159 44 310 166 382 310 42 85
56 125 39 115 -6 -4 -11 -15 -11 -24 0 -19 -55 -129 -75 -150 -24 -26 -285 70
-285 105 -1 30 -29 353 -39 448 -6 50 -15 149 -21 220 -23 279 -50 392 -119
492 -72 105 -160 173 -225 173 -14 0 -40 9 -58 20 -40 24 -95 25 -168 1z m269
-295 c67 -49 78 -64 115 -154 18 -44 46 -97 62 -118 27 -34 29 -44 28 -116 0
-45 3 -73 7 -66 16 25 10 -15 -7 -47 -9 -16 -22 -56 -30 -88 -14 -59 -66 -171
-84 -182 -14 -9 -13 -158 2 -189 9 -21 8 -36 -5 -77 -19 -59 -21 -69 -8 -69
11 0 41 117 41 162 l1 33 14 -26 c20 -37 21 -126 2 -189 -9 -30 -20 -109 -24
-175 l-8 -120 -225 -2 -225 -3 -33 98 c-17 53 -32 114 -32 135 0 21 -5 68 -11
105 -9 56 -9 74 4 105 9 20 23 37 31 37 13 0 16 14 16 73 0 70 -2 76 -40 127
-47 63 -75 134 -84 210 -6 48 -3 63 23 118 27 56 33 62 61 62 23 0 30 4 30 20
0 26 16 26 23 0 8 -32 37 -36 59 -9 13 16 18 18 14 7 -3 -12 0 -18 9 -18 24 0
17 28 -10 46 -16 11 -40 15 -70 12 -48 -3 -55 5 -28 34 10 11 31 18 57 19 23
0 50 4 60 8 18 7 17 9 -7 28 l-27 21 55 75 c30 41 55 80 55 86 0 17 81 54 134
60 4 1 29 -14 55 -33z"/>
</g>
</svg>
