<svg xmlns="http://www.w3.org/2000/svg" viewBox="0 0 360.29 349.77"><defs><style>
.cls-1{opacity:1;}
.cls-2{fill:#ededf2;}
.cls-3{fill:#865cd0;}
.cls-4{fill:#212121;}
.cls-5{fill:#817790;}
.cls-6{fill:#e1dfe7;}
</style></defs><title>Asset 1sell-art-pricing</title><g id="Layer_2" data-name="Layer 2"><g id="Layer_4_Image" data-name="Layer 4 Image" class="cls-1"><path class="cls-2" d="M203.75.08c2.28.18,4.56.3,6.82.62,3.09.43,6.16,1,9.24,1.56,2.42.42,4.84,1,7.28,1.2,4,.37,7.51,2,11.11,3.45,5.21,2.11,10.44,4.18,15.56,6.49a51,51,0,0,1,6.58,4c8.79,5.72,17.58,11.43,26.32,17.22a49.24,49.24,0,0,1,8.41,6.84c3.37,3.53,6.79,7,10,10.66s6.42,7.3,9.38,11.15a108,108,0,0,1,6.34,9.49c2.74,4.47,5.41,9,8,13.57,1.72,3.1,3.18,6.34,4.76,9.51.68,1.37,1.33,2.76,2.08,4.09,2.34,4.2,3.64,8.76,5,13.33,1.65,5.56,3.25,11.12,4.55,16.77.78,3.41,1.35,6.88,2.17,10.28.92,3.79.45,7.62.53,11.43a31.32,31.32,0,0,1-.47,7.41c-.39,1.84,0,3.83-.1,5.75,0,1-.25,2.06-.38,3.1a4.88,4.88,0,0,0-.16,1.12c.38,3.46-.34,6.87-.68,10.27a44.87,44.87,0,0,1-1.72,9.79,16.53,16.53,0,0,0-1,3.84,10.49,10.49,0,0,0,2.68,8.19,3.86,3.86,0,0,1,1,4.12c-1,3.95-1.7,8-2.59,11.95a23.22,23.22,0,0,1-1.51,4.89,38.6,38.6,0,0,0-1.31,4.36c-.6,1.8-1.26,3.59-1.94,5.37-.12.32-.47.56-.82,1l-8.53-5.24c-4.63-2.85-9.24-5.72-13.88-8.54s-9.46-5.73-14.24-8.51c-3.54-2.06-7.15-4-10.76-6-5.71-3.09-11.5-6.05-17.17-9.23a33.79,33.79,0,0,1-7.27-5,9.81,9.81,0,0,0-7.15-3c-3.27-3.69-7.23-5.88-12.16-5.05-6.2,1.05-9.32,5.39-10.69,11.4-3.21-.21-6.32.45-9.46-.45a44,44,0,0,0-4.78-.7q-3.93-.65-7.83-1.41c-1.48-.28-2.94-.67-4.4-1-.32-.92-.61-1.72-.87-2.53A12.51,12.51,0,0,0,203.1,180a10.88,10.88,0,0,0-2.72-.77c-2-.41-3.88-.86-5.18-2.64s-3.12-2.48-5-3.3a2.25,2.25,0,0,0-.79-.34c-2.76,0-5.51-.33-8.18.87a11.2,11.2,0,0,0-5.72,5.41c-1.3,2.73-2.23,5.67-1.25,8.83a34.89,34.89,0,0,1,.75,4c-.57.31-1.14.88-1.72.89-2.67,0-5.26,1-8,.66a10.87,10.87,0,0,1-2.21-.48,14.73,14.73,0,0,1-6.11-4.45,3.89,3.89,0,0,1-.76-4c1.72-5.12-2-12.29-6.59-14.15-1.77-.71-3.43-1.65-5.41-1.72a4.79,4.79,0,0,1-1.6-.59c-.53-.24-1-.53-1.54-.78a12.21,12.21,0,0,1-5-4.28,13.46,13.46,0,0,0-3.28-3.2,8.89,8.89,0,0,1-2.25-2.51,2.06,2.06,0,0,1-.38-1.31c.19-3.56-.43-6.38-3-9a22.94,22.94,0,0,1,1.13-2.1c3.39-5,6.82-9.87,10.21-14.82a25.61,25.61,0,0,0,2.51-4.15,3.83,3.83,0,0,1,3.2-2.5,12.21,12.21,0,0,0,5.39-2.47,14.9,14.9,0,0,0,2-1.67c3.48-3.45,6.93-6.92,10.4-10.37A71.31,71.31,0,0,0,171,98.18a8.78,8.78,0,0,1,5.71-3.88,3.31,3.31,0,0,1,1.63.1,30.12,30.12,0,0,1,7.43,2.88A21.24,21.24,0,0,0,190,98.76c2.25.68,4.13-.09,6.07-.67a20.36,20.36,0,0,0,3.55-1.85,8.38,8.38,0,0,1,2-1,14.87,14.87,0,0,0,6.51-3.38,19.21,19.21,0,0,0,4.55-4.67,12.94,12.94,0,0,0,.83-13.09c-.86-1.8-2-3.29-4.21-3.26C209.72,68,209.72,68,207,65a4.2,4.2,0,0,1,0-.79,11.91,11.91,0,0,1,2.92-6c2.76-3.26,5.34-6.69,7.9-10.12a77.56,77.56,0,0,1,9-10,27,27,0,0,1,2.91-2.3,1.5,1.5,0,0,1,2.44.42,35.12,35.12,0,0,1,1.74,3.06c-.57.89-1.15,1.75-1.7,2.63a3.5,3.5,0,0,0,.73,4.84,2.11,2.11,0,0,0,2.63.38,7.59,7.59,0,0,0,2.08-1.49,13.44,13.44,0,0,0,2.93-5.18,4.11,4.11,0,0,0-.29-3.31c-1.09-2-2.17-4-3.33-6.12,1.67-.63,3.59-1.21,3.82-3.52a4.79,4.79,0,0,0-3-3.54,57.36,57.36,0,0,0-8.48-3.37,5.87,5.87,0,0,0-4.16.36,15.24,15.24,0,0,0-6.32,6Q215.1,32.49,211.21,38c-3.14,4.42-6.41,8.74-9.62,13.11q-2.79,3.8-5.57,7.62A56,56,0,0,0,183,61.53c-3.25,1.07-6.58,1.93-9.74,3.21a84.35,84.35,0,0,0-11.67,5.4c-3,1.79-5.92,3.83-9,5.61-2.63,1.56-5.27,3.07-7.76,4.85a66.56,66.56,0,0,0-8.42,6.84c-3.24,3.27-6.52,6.51-9.77,9.78a94.45,94.45,0,0,0-13.09,17.28c-1.7,2.76-3.42,5.51-5,8.32a81.77,81.77,0,0,0-3.88,7.35,72,72,0,0,0-3.25,8.53c-1.45,4.81-2.79,9.67-3.93,14.56a34.29,34.29,0,0,0-.67,7.09A30.89,30.89,0,0,0,106,181.84c.41.38.74.84,1.18,1.34l-4.86,5.88c3.4,6.71,6.82,13.25,11.36,18.95a14.88,14.88,0,0,0,6.4-2.34c2.81-1.8,5.79-3.32,8.67-5a8.89,8.89,0,0,0,1.93-1.65c1.47-1.59,2.49-1.72,4.13-.47a73,73,0,0,0,7.86,5.68,80.37,80.37,0,0,0,9.82,5.26c3.18,1.29,6.33,2.62,9.58,3.74a10.46,10.46,0,0,0,3.64.6c3.27-.06,6.53-.09,9.8,0a19.39,19.39,0,0,0,5.89-.91,39,39,0,0,0,12-5.36,8.37,8.37,0,0,1,1.47-.65c1.4.82,2.93,1.59,4.34,2.55a68,68,0,0,0,21.08,9.34,3.44,3.44,0,0,0,.55.15,62.13,62.13,0,0,0,7.68.56,55.12,55.12,0,0,0,14.85-2.39c.73-.23,1.42-.58,2.16-.75,1.59-.37,3.16-.61,4.61.6a3.52,3.52,0,0,0,2.09.81,7.76,7.76,0,0,1,3.75,1.32c3.44,1.85,6.85,3.78,10.26,5.69,4.67,2.61,9.32,5.24,14,7.85.25.14.51.25.77.39l17.33,9c5.09,2.64,10.22,5.22,15.26,8,4,2.18,8,4.45,11.79,7,2.12,1.43,2.28,2.12,1.32,4.55-.49,1.23-.81,2.53-1.23,3.79a9,9,0,0,1-.74,1.85c-1.41,2.26-2.86,4.49-4.31,6.73-.73,1.12-1.46,2.23-2.22,3.33-3,4.3-5.84,8.71-9,12.85a57.23,57.23,0,0,1-6.09,6.07c-.54.53-1.22.92-1.75,1.46-2.94,3-6.27,5.58-9.42,8.36q-5.91,5.19-12.28,9.79c-3.85,2.79-7.87,5.37-11.93,7.85-3.5,2.14-7.13,4.06-10.76,6a81.45,81.45,0,0,1-11.37,4.65c-3.42,1.19-6.8,2.48-10.25,3.57q-6.53,2-13.12,3.83c-3.39.92-6.82,1.67-10.25,2.43-3.69.84-7.36,1.78-11.13,2.29-2.8.39-5.56,1.14-8.36,1.58-2.16.34-4.35.44-6.52.68-1.61.17-3.2.41-4.81.56s-3.24-.23-4.82.48a5.29,5.29,0,0,1-2,.1c-5.56,0-11.14.13-16.7-.05a44.43,44.43,0,0,1-8.18-1c-1.67-.38-3.47.21-5.08-.68-4.11,0-8.1-1.08-12.07-1.89-6.87-1.39-13.76-2.83-20.25-5.74-4.68-2.1-9.58-3.72-14.27-5.82a113.11,113.11,0,0,1-11.2-5.81c-4.1-2.42-8.05-5.1-12-7.78-2.27-1.55-4.44-3.28-6.58-5-3.34-2.69-6.76-5.3-9.87-8.23s-6.29-5.63-8.75-9.1a9.66,9.66,0,0,0-1-1.07A132.94,132.94,0,0,1,39,286.09a170.74,170.74,0,0,1-9.95-15,101.82,101.82,0,0,1-5.77-11.19c-1.82-4.2-3.54-8.43-5.07-12.74-1.47-4.12-2.84-8.29-3.93-12.52a34,34,0,0,0-2.65-6.89,88,88,0,0,1-6.95-19.6c-.89-3.78-1.63-7.59-2.28-11.42-.38-2.24-.23-4.58-.69-6.8a41,41,0,0,1-.54-7.41c0-.74-.5-.95-1.13-1v-16.7c.63-.05,1.12-.26,1.13-1,0-1.54-.27-3.16.14-4.58.7-2.42.29-4.92,1-7.33A55,55,0,0,0,3,146.28c.47-2.79,1.06-5.57,1.63-8.35.7-3.43,1.35-6.87,2.17-10.27.9-3.78,2-7.52,2.94-11.28a104.22,104.22,0,0,1,7-19A119.76,119.76,0,0,1,27.5,79.21,105.86,105.86,0,0,1,39,65.05c2.52-2.47,5-4.95,7.72-7.26a134,134,0,0,1,11.14-8.9,49.22,49.22,0,0,0,4-3.25c3-2.6,5.87-5.48,9.12-7.79,4.34-3.08,9-5.79,13.51-8.54,4-2.42,8.11-4.63,12.13-7a134.35,134.35,0,0,1,17.22-8.41c3.69-1.52,7.46-2.9,11.06-4.61a88.74,88.74,0,0,1,12.54-4.75C161.35-.81,203,0,203.75.08Zm8,229.5a1.35,1.35,0,0,0-.89-1.89,9.71,9.71,0,0,0-5.62-.47,22.06,22.06,0,0,1-2.81.38c-.77.07-1.56-.07-2.3.06a51.41,51.41,0,0,1-9.9,1.11,1.81,1.81,0,0,0-.57,0c-3.13,1-6.43.35-9.62,1-2.49.53-5.12.38-7.66.71-3.57.47-7.11,1.08-10.66,1.66-2.9.47-5.79,1-8.68,1.51-3.35.62-6.69,1.29-10,2-2.69.53-5.38,1.09-8.07,1.61-3.26.64-6.53,1.19-9.77,1.9s-6.3,1.34-9.5,1.8c-3.74.53-7.41,1.58-11.15,2.09a31.57,31.57,0,0,0-7.71,1.86,11,11,0,0,0-4.32,2.74c-2.56,2.84-5.19,5.61-7.8,8.41-.06.07-.13.14-.19.22a120.45,120.45,0,0,1-8.1,9.25c-1.93,2-3.75,4.07-5.58,6.15a42.55,42.55,0,0,0-3.26,4c-1.72,2.51-3.34,5.1-4.91,7.71a2.7,2.7,0,0,0-.34,1.87c.7,2.76,1.44,5.52,2.33,8.21a7.32,7.32,0,0,0,3.49,4.37,34.35,34.35,0,0,1,5.22,3.48,38.38,38.38,0,0,0,7.25,4.56c4,2,8.11,3.82,12.24,5.57q11.72,4.95,23.49,9.73c3.08,1.26,6.22,2.38,9.35,3.52a6.76,6.76,0,0,0,1.69.24,40.32,40.32,0,0,0,9.11-.65c3.37-.48,6.73-1.09,10.09-1.65,2-.33,3.91-.73,5.87-1s4-.47,5.94-.71c.84-.1,1.69-.23,2.52-.39,3.26-.63,6.51-1.28,9.76-1.93,2.51-.5,5-1,7.51-1.53,4.16-1,8.29-2,12.45-3,3.69-.83,7.42-1.53,11.12-2.35,4.44-1,8.88-2,13.31-3.05,1.8-.42,3.59-.92,5.53-1.42-.29-.66-.52-1.17-.73-1.69a2.06,2.06,0,0,1,2-3.07,6.94,6.94,0,0,1,1.67.32c.82.21,1.62.46,2.53.73a7.19,7.19,0,0,0,0-4,85.68,85.68,0,0,0-5.12-12.41c-3-6.3-6.15-12.52-8.88-18.95-2.63-6.22-5.24-12.46-6.63-19.11a14.34,14.34,0,0,1-.33-3.39,4,4,0,0,1,2.61-3.78c.77-.32,1.59-.53,2.53-.83a6.39,6.39,0,0,0-.36-1.34c-.66-1.28-1.45-2.48-2.05-3.78a3.77,3.77,0,0,1,1.68-5.35A22.58,22.58,0,0,1,211.78,229.58Z"/></g><g id="Layer_11_Image" data-name="Layer 11 Image"><path class="cls-3" d="M263.52,42.68a17.73,17.73,0,0,0-4.18-6c-1.51-1.38-3-2.76-4.48-4.21a48.6,48.6,0,0,0-7.12-5.62c-2.84-1.94-5.59-4-8.88-5.23-1.82-.66-2.1-.75-3.37.65q-3.08,3.36-6,6.86c-2.29,2.71-4.51,5.49-6.78,8.23-1.81,2.2-3.62,4.4-5.46,6.57-.89,1.05-1.86,2-2.77,3.08q-2.66,3.06-5.29,6.15c-1.17,1.37-2.35,2.73-3.49,4.12-1.53,1.87-3,3.77-4.54,5.63-1.15,1.4-2.35,2.76-3.51,4.14-1.31,1.56-2.58,3.15-3.9,4.7a3,3,0,0,1-1,.74c-1.7.76-3.44,1.42-5.11,2.22-1.47.7-2.72,1.63-2.75,3.52a2,2,0,0,1-.53,1c-1.54,2-3.1,4-4.67,6a6.48,6.48,0,0,0-1.47,3.06,3.33,3.33,0,0,1-.8,1.5c-1.28,1.56-2.6,3.08-3.92,4.59-2.21,2.54-4.49,5-6.63,7.59-4.24,5.15-8.53,10.24-13.14,15.08-2.41,2.53-4.67,5.21-6.89,7.92a135.79,135.79,0,0,1-10.26,11.84,279.23,279.23,0,0,0-19.65,21.61,6.6,6.6,0,0,0-1.31,2.65c-.31,1.37-1,2.69-.67,4.19,0,.2-.23.5-.4.72l-5.3,6.95a21.82,21.82,0,0,1,1.33,2.3c1.92,1.44,3.81,2.79,5.59,4.25,3.66,3,7.29,6,10.87,9.16a102.87,102.87,0,0,0,8.77,6.54c1.17-1,3.55-4.18,5.1-5.94l7.53-8.51a2.27,2.27,0,0,1,1.83-1l4.65.19c.46-.57,1.14-1.38,1.77-2.22a4.6,4.6,0,0,0,.75-1.41c-7.39-1.66-12.58-8.36-12.93-16.1-.4-8.91,7.87-16.5,16.5-16.5.44,0,.86,0,1.29.07a14.69,14.69,0,0,1,2.73-.27,16.12,16.12,0,0,1,4.91.75,16.06,16.06,0,0,1,6.33-1.35,15.81,15.81,0,0,1,6.77,1.5c3.25-3.39,7-6.27,10.23-9.69a2.31,2.31,0,0,1,.32-.29c.09-.18.23-.42.44-.79.66-1.13,1.33-2.28,2-3.39a49.37,49.37,0,0,1,6.75-8.42c2.27-2.29,4.22-4.82,6.34-7.25s4.68-4.25,7.19-6.37l.68-.68c1.13-1.14,2.07-2.29,3.1-3.52.89-1.07,1.8-2.12,2.73-3.16a6.61,6.61,0,0,1,.39-.68,16.91,16.91,0,0,1,9-10.77,5.33,5.33,0,0,0-1.7-2.11,7.42,7.42,0,0,1-.73-.76c1.09-1.34,2.1-2.59,3.13-3.83,1.61-1.93,3.27-3.82,4.87-5.77,1.88-2.31,3.71-4.66,5.58-7s3.61-4.39,5.39-6.6c2.2-2.73,4.34-5.49,6.54-8.21,2.62-3.24,5.28-6.44,7.93-9.67A2.45,2.45,0,0,0,263.52,42.68Z"/><path class="cls-4" d="M128.38,196.73c-3.89,2.4-7.75,4.82-11.62,7.24a1.24,1.24,0,0,1-1.74-.17c-2.61-2.34-5.31-4.59-8-6.87-.94-.81-1.85-1.63-2.77-2.44,2.21-6.52,4.37-12.91,6.57-19.42a3,3,0,0,0-1.54-2.66,2,2,0,0,0-2.1.85,11.9,11.9,0,0,0-1.32,1.82c-1.53,2.43-2.05,5.24-3,7.89-1.44,4-3.06,8-4.46,12-1.49,4.35-2.9,8.73-4.19,13.14a23,23,0,0,0-1.32,7.94,3.37,3.37,0,0,0,1.78,2.84,6.07,6.07,0,0,0,1.43.42H97c1.25-.51,2.53-1,3.73-1.56,4-2,8-4,11.84-6.08,3.22-1.77,6.31-3.75,9.44-5.67s6-3.86,9.11-5.68a16.13,16.13,0,0,0,5.15-4.86.9.9,0,0,0,.12-.24c-.16-1.3-1.45-1.9-3.13-1.38C131.62,194.81,130,195.75,128.38,196.73Z"/></g><g id="Layer_10_Image" data-name="Layer 10 Image"><path class="cls-5" d="M59.33,283.2A78.14,78.14,0,0,1,66,272.4a211.36,211.36,0,0,1,14.24-17.88A72.82,72.82,0,0,1,87,248.18c1.3-1.18,2.72-2.22,4-3.45a8,8,0,0,1,4.54-1.86c4.18-.77,8.37-1.47,12.55-2.27,4.45-.86,8.88-1.88,13.34-2.7,3.52-.65,7.08-1.12,10.62-1.65q9.36-1.41,18.72-2.79c3-.44,6.06-.83,9.09-1.26,3.59-.5,7.19-1,10.79-1.51,2.94-.39,5.88-.8,8.83-1,4.92-.36,9.8-.9,14.67-1.67,3-.47,6.08-.7,9.13-1,2.53-.22,5.06-.41,7.59-.51a8,8,0,0,1,7.69,5c1.38,3.35,2.87,6.67,4.29,10s2.74,6.51,4.14,9.75c1.09,2.5,2.23,5,3.32,7.49,1.5,3.46,3,6.93,4.46,10.38,1,2.42,2.12,4.83,3.18,7.25,1.84,4.23,3.66,8.47,5.5,12.7,1.27,2.94,2.57,5.87,3.84,8.81a6.64,6.64,0,0,1-.47,5.87c-1.3,2.52-3.72,3.3-6.24,3.88-3.85.88-7.71,1.68-11.55,2.58-5,1.18-10,2.48-15.09,3.59-4.57,1-9.18,1.82-13.76,2.78-3.55.75-7.07,1.68-10.63,2.38-2.85.56-5.75.9-8.63,1.34l-12,1.86c-4.92.74-9.82,1.56-14.75,2.18-4,.52-8.09.75-12.14,1.19-3.42.38-6.82.89-10.23,1.31a52.53,52.53,0,0,1-5.57.56,7.35,7.35,0,0,1-3-.74q-9.61-4.51-19.18-9.15-6.15-3-12.22-6.19c-4.65-2.43-9.32-4.83-13.87-7.44s-8.9-5.16-13.07-8.14a12.32,12.32,0,0,1-4.9-7.6c-.15-.71-.38-1.4-.57-2.1Zm27.82,8.59,0-.2a10.8,10.8,0,0,0,2.28-.16,12.79,12.79,0,0,0,6.39-3.74,8.54,8.54,0,0,0,1-9.94c-2.42-4-6.34-4.8-10.53-4.2a16,16,0,0,0-4.85,1.87,8.63,8.63,0,0,0-3.87,3.47,7.79,7.79,0,0,0-1.07,5.55,7.94,7.94,0,0,0,5.08,6.19A34.54,34.54,0,0,0,87.15,291.79Z"/><path class="cls-6" d="M360.29,160.35c-1.45,7.14-2.82,14.16-4.3,21.15-1.29,6.07-2.62,12.14-4.07,18.17A126.16,126.16,0,0,1,346,218.13c-1.46,3.56-2.75,7.2-4.19,10.77-1.77,4.37-3.62,8.7-5.44,13-.68,1.62-1.38,3.23-2.09,4.9-5-2.47-10-4.55-14.55-7.64a73.94,73.94,0,0,0-7.43-4.3q-6.87-3.57-13.85-6.93c-5-2.42-10.15-4.69-15.21-7-3.3-1.53-6.59-3.06-9.86-4.65q-11-5.34-22.05-10.77a2.46,2.46,0,0,0-1.9-.08c-2.66.7-5.3,1.52-8,1.95a27.06,27.06,0,0,1-9,.09c-1.72-.3-3.49-.38-5.23-.6a45.81,45.81,0,0,1-11.38-3.1,46.64,46.64,0,0,1-11.36-6.58,32.34,32.34,0,0,1-6.37-6.74c-.14-.19-.28-.39-.44-.57a2.08,2.08,0,0,0-.38-.26c-.58,1.08-1.09,2.18-1.72,3.2a9.82,9.82,0,0,1-6.88,4.48,6.68,6.68,0,0,0-4.28,2.71,16.93,16.93,0,0,1-7.84,5.52,2.93,2.93,0,0,1-.83.18,31.89,31.89,0,0,1-15.3-2.81,28.74,28.74,0,0,1-9.78-7.09c-2.63-2.95-5.39-5.8-7.39-9.19,1.83-2.38,3.63-4.77,5.49-7.11a33.54,33.54,0,0,1,2.89-3.19,6.19,6.19,0,0,0,1.76-3.29c-1.18-.14-2.34-.39-3.5-.41a37.13,37.13,0,0,1-8.82-1.52A12.93,12.93,0,0,1,133,165a9.16,9.16,0,0,1,.09-9.31,20.6,20.6,0,0,1,10.06-9.39,60.62,60.62,0,0,1,11.11-3.62c2.54-.58,5.05-1.3,7.6-1.84,1.67-.36,3.37-.53,5.07-.75,2.35-.29,4.71-.56,7.06-.82.38-.05.77,0,1.15,0,1.43-.09,2.86-.27,4.28-.26a39.44,39.44,0,0,1,5,.36,1.37,1.37,0,0,0,1.29-.29c1.46-1.51,2.93-3,4.32-4.57,1.23-1.39,2.34-2.88,3.53-4.3q3.51-4.23,7-8.45c1.62-1.93,3.28-3.84,4.88-5.79s3.17-4,4.78-6c1.16-1.45,2.35-2.88,3.55-4.29q3.91-4.65,7.85-9.27c1.75-2.07,3.54-4.12,5.29-6.19,1-1.2,2-2.43,3.05-3.74,1.19.93,2.28,1.75,3.34,2.61,1.8,1.49,3.56,3,5.37,4.49,2.33,1.89,4.64,3.81,7,5.6,3.28,2.45,6.69,4.73,10,7.17q6,4.44,12,9c3.77,2.92,7.48,5.9,11.18,8.9,2.93,2.37,5.78,4.83,8.72,7.18.59.48,25.46,10.34,33.12,13.24q10.21,3.87,20.38,7.9c5.84,2.32,11.64,4.75,17.46,7.13Z"/><path class="cls-6" d="M195.15,70.29c-.41.52-.8,1-1.22,1.55l-6.59,7.72c-1.76,2.06-3.53,4.11-5.28,6.18-3.05,3.6-6.12,7.18-9.11,10.82-3.17,3.87-6.27,7.79-9.38,11.71-3.62,4.54-7.2,9.12-10.83,13.65-1.9,2.38-3.9,4.68-5.84,7-2.09,2.53-4.12,5.11-6.24,7.63-2,2.33-4,4.6-6,6.91-2.44,2.81-4.86,5.63-7.31,8.43-1.63,1.87-3.3,3.71-4.95,5.56q-3.44,3.84-6.85,7.69c-.39.43-.81.82-1.25,1.26-.82-.19-1.65-.36-2.47-.57-2.58-.67-4.11-2.57-5.64-4.58a8.56,8.56,0,0,1-1.91-6.4,31.37,31.37,0,0,1,.93-4.59,66,66,0,0,1,4.52-12.3,144.54,144.54,0,0,1,11-18.21c2-2.87,4.32-5.56,6.49-8.33,2.51-3.23,5-6.47,7.54-9.68a51.82,51.82,0,0,1,3.88-4.58c3-2.92,6-5.83,9.13-8.51a48.89,48.89,0,0,1,6.42-4.25c2.33-1.4,4.7-2.75,7.12-4S166.4,78,169,76.91c3.88-1.59,7.78-3.11,11.73-4.5a40.72,40.72,0,0,1,9.58-2c1.56-.15,3.13-.27,4.69-.41Z"/></g><g id="Layer_12_Image" data-name="Layer 12 Image"><path class="cls-4" d="M75.85,271.86c-3.2-3.94-6.21-8.05-9.63-11.79-4.5-4.91-9.32-9.53-14-14.29a10.25,10.25,0,0,1-1.8-2.22A3.06,3.06,0,0,1,52.52,239a3.4,3.4,0,0,1,3.3,1.33c1,1.11,1.94,2.24,3,3.27,9,8.65,17.24,17.87,24,28.38a14.5,14.5,0,0,1,1.11,2,2.19,2.19,0,0,1-.45,2.66c-1.13.95-1.88,2.38-3.41,2.84H78.91c-1.77-.48-3.53-1-5.31-1.43-8.42-2-16.84-4-25-6.91-1.85-.65-3.69-1.33-5.49-2.1a3.74,3.74,0,0,1-2.51-3.24A3.54,3.54,0,0,1,44.82,262a6.08,6.08,0,0,1,1.1.34c7.63,3.26,15.58,5.56,23.52,7.92,2.06.61,4.11,1.27,6.16,1.9l.37,0Z"/><path class="cls-4" d="M165,137.46a34,34,0,0,0,7.66-.52,25.11,25.11,0,0,1,4.68-.33c5-.12,9.94-.26,14.91-.27,4,0,7.94.13,11.9.28,3.47.13,6.94.32,10.4.59a3.16,3.16,0,0,1,2.95,1.62,2.76,2.76,0,0,1-2.17,4.08,24.31,24.31,0,0,1-3.4-.19c-.15,0-.29-.05-.43-.06-1.9-.1-3.8-.18-5.69-.3-2.56-.17-5.1-.44-7.66-.55-2.06-.09-4.15.16-6.19-.06-4.78-.51-9.57-.16-14.35-.21a56.51,56.51,0,0,0-6.07.53c-1,.1-2.07.27-3.1.28a30.41,30.41,0,0,0-9.57,2.06c-4.63,1.57-9.29,3.09-13.81,5a37.74,37.74,0,0,0-8.14,4.45,6.42,6.42,0,0,0-1.42,8.46,11.39,11.39,0,0,0,5.29,4.74c1.4.62,2.71,1.49,4.15,2a38.88,38.88,0,0,0,4.2,1c1.59.38,3.2.71,4.75,1.21a35.25,35.25,0,0,0,6.36,1.09q2.24.28,4.47.63c1,.14,1.94.44,2.91.5,2.38.15,4.77.32,7.14.27,2.18,0,4.35-.34,6.52-.52.38,0,.77,0,1.15,0,1.72-.09,3.43-.24,5.15-.26,2.74,0,5.68,1,6.83,4.34a29.47,29.47,0,0,0,5.36,9.32c2.56,3.12,5.3,6.07,7.9,9.14s6,4.72,9.56,6.26a31.55,31.55,0,0,0,6.19,2.16,31.87,31.87,0,0,0,10.58.49c4.38-.58,8.45-2.23,12.62-3.55,2-.65,4-1.18,6.2-.56a3.17,3.17,0,0,1,2.55,2.69,2.81,2.81,0,0,1-2.25,2.76c-4.21.77-8,2.73-12.09,3.93a33,33,0,0,1-12.57,1.55,34.92,34.92,0,0,1-14.8-4.67c-2-1.17-4-2.17-6-3.38a21.52,21.52,0,0,1-3-2.44,50.53,50.53,0,0,1-4.07-3.81c-1.8-2-3.46-4.13-5.16-6.22-1-1.2-1.93-2.43-2.87-3.67A25.56,25.56,0,0,1,189,179.6c-.25-.78-.56-1-1.27-.95-3.2.11-6.41.18-9.6.3-1.62.06-3.24.29-4.86.25s-3.09-.35-4.64-.5c-.57-.06-1.15,0-1.85,0a29.44,29.44,0,0,0,4.74,5,5.72,5.72,0,0,1,.65.55l9.5,9.2a2.46,2.46,0,0,1,.79,2.81,2.59,2.59,0,0,1-2.57,1.89,5.34,5.34,0,0,1-2.73-1,39.18,39.18,0,0,1-4.86-3.95c-2.81-2.74-5.57-5.54-8.2-8.46a22.84,22.84,0,0,1-4.57-6.88,1.32,1.32,0,0,0-.94-.61c-1.61-.15-3.23-.17-4.83-.33-1-.1-2-.36-3-.56a45.6,45.6,0,0,1-6.43-1.37c-2.66-1-5.16-2.35-7.8-3.59l-11.08,11.87a3.54,3.54,0,0,1-2.89,1.35,2.83,2.83,0,0,1-2.19-4.29,9.38,9.38,0,0,1,1.7-2.12c3.5-3.42,7-6.81,10.61-10.29-.4-.7-.85-1.61-1.42-2.43a12,12,0,0,1-1.7-4.69,13.12,13.12,0,0,1,.28-5,9.54,9.54,0,0,1,3.34-5.3,25.53,25.53,0,0,1,6.58-4.31c3.68-1.72,7.42-3.31,11.17-4.86a33,33,0,0,1,4.16-1.2,3.91,3.91,0,0,0,2.06-1.38Q170.22,123,183.39,107.4,197,91.28,210.56,75.16,222.9,60.55,235.31,46c4.31-5.08,8.67-10.13,13-15.2a4.92,4.92,0,0,1,3.27-2.12,2.56,2.56,0,0,1,2.55,1,2.18,2.18,0,0,1,.14,2.57A25,25,0,0,1,252,35.33q-11,13.1-22.12,26.15Q217.67,75.9,205.34,90.27q-9.78,11.43-19.57,22.84-9.44,11.06-18.83,22.15C166.36,135.94,165.76,136.62,165,137.46Z"/></g></g></svg>