<?xml version="1.0" encoding="UTF-8"?>
<svg width="73px" height="96px" viewBox="0 0 73 96" version="1.1" xmlns="http://www.w3.org/2000/svg" xmlns:xlink="http://www.w3.org/1999/xlink">
    <!-- Generator: Sketch 53 (72520) - https://sketchapp.com -->
    <title>ic_upload_new</title>
    <desc>Created with Sketch.</desc>
    <g id="Replicated-Listings-FINAL" stroke="none" stroke-width="1" fill="none" fill-rule="evenodd">
        <g id="Add-New-Work-1" transform="translate(-455.000000, -451.000000)" fill-rule="nonzero">
            <g id="ic_upload_new" transform="translate(454.000000, 451.000000)">
                <path d="M59.9801014,23.6712824 L59.0349168,24.7205286 C58.4379581,25.3639343 57.6718612,25.1857604 56.9157135,25.1956589 C54.4781322,25.1956589 52.0306017,25.2946444 49.5930204,25.3441372 C48.9090502,25.3174203 48.2240318,25.3405789 47.5434623,25.413427 C47.344476,25.413427 47.0957432,25.9380501 47.1056926,26.225108 C47.1056926,27.5119193 47.2748309,28.7987307 47.3146281,30.0954405 C47.4141212,33.4906427 47.4240705,36.8957435 47.5733102,40.2909457 C47.8319923,45.9529156 48.1702689,51.624784 48.4687482,57.2867538 C48.4687482,57.9301595 48.4687482,58.5735652 48.5184948,59.2664636 C48.6677344,62.0479558 48.8667207,64.8294479 48.9662138,67.6010416 C48.9662138,68.5908964 48.8070248,69.5807513 48.7771769,70.5706062 C48.7473289,71.5604611 47.9613333,71.8178233 47.1454898,71.847519 C46.7176694,71.847519 46.1505587,71.233809 46.0709642,72.2434609 C45.933242,72.2382855 45.79648,72.2183736 45.6630424,72.1840696 C43.444346,71.2833017 41.1560044,71.7386349 38.8875614,71.8673161 C37.6737455,71.9366059 36.4698788,72.065287 35.2560628,72.1939682 C34.9438914,72.2125895 34.6405267,72.304152 34.3705741,72.461229 C33.9687622,72.8378541 33.427745,73.0314802 32.8768612,72.9958179 C32.3259774,72.9601556 31.8147424,72.6984104 31.4653752,72.2731566 C31.3161355,72.1246783 31.0475041,72.1147798 30.6097344,71.956403 L30.6097344,71.2635046 C30.6097344,66.9972301 30.6097344,62.7210571 30.6097344,58.4547826 C30.5500386,54.7131312 30.3311537,50.9813783 30.2416099,47.2397269 C30.2416099,46.4181473 29.3063746,32.0058604 28.9879967,27.4426295 C28.9879967,26.9378035 28.9879967,26.0667312 28.8188584,26.0073399 C28.1330873,25.836385 27.4220155,25.7894456 26.7195537,25.8687602 C23.9337465,26.0766298 21.1479394,26.2449051 18.3720815,26.5913543 C17.412224,26.8328609 16.4839757,27.1849915 15.606173,27.6406005 C15.5328504,27.6685191 15.4556941,27.6852066 15.3773388,27.6900932 C15.3833557,27.3816153 15.3396894,27.0741685 15.2479978,26.7794267 C14.7809028,25.9125037 14.9884951,24.8385313 15.7454634,24.2058041 C17.4965421,22.4933551 19.3073168,20.850196 21.0782942,19.1476457 C24.0630876,16.2572694 27.0976275,13.3470961 30.1122689,10.4468214 C31.4156286,9.18970567 32.7189884,7.93258998 34.0422468,6.68537284 C34.9675328,5.82419911 35.8828694,4.96302537 36.8678512,4.18104002 C37.213006,3.96718509 37.643344,3.94112425 38.012022,4.11175018 C39.225838,5.1313007 40.3600595,6.32902509 41.6335713,7.37827125 C43.5637377,9.03132889 45.5436507,10.6249952 47.4937157,12.2582558 L51.3043019,15.4158928 C53.7617818,17.4549938 56.2789576,19.4742978 58.6667923,21.5628915 C59.1877572,22.1288394 59.6356268,22.7573131 60,23.4337173 L59.9801014,23.6712824 Z" id="Path" fill="#865cd0"></path>
                <path d="M73.3657732,50.0882474 C73.3657732,48.7125773 72.8808247,47.8614433 72.0494845,47.8416495 L71.356701,47.8416495 C70.9923391,47.6961821 70.59387,47.6583962 70.2086598,47.7327835 C70.0503093,47.7327835 69.8820619,47.7327835 69.7237113,47.7921649 L67.4672165,47.7921649 C64.6960825,47.7921649 61.9249485,47.7921649 59.1538144,47.7921649 C58.597325,47.7998868 58.0671814,48.0304761 57.6821064,48.4322935 C57.2970313,48.834111 57.0891998,49.3735827 57.1051546,49.9298969 C57.1051546,50.3356701 57.5406186,51.0086598 57.8474227,51.0482474 C59.1226855,51.2264924 60.4098176,51.3059042 61.6973196,51.2857732 C64.1220619,51.2857732 66.5468041,51.1769072 68.9715464,51.1076289 C69.4960825,51.1076289 69.8424742,51.1076289 69.8523711,51.8202062 C69.8523711,54.611134 70.0206186,57.4119588 70.0503093,60.2028866 C70.0503093,61.6973196 69.9513402,63.1719588 69.9018557,64.6861856 C69.8358763,67.3979381 69.7698969,70.1162887 69.7039175,72.8412371 C69.7039175,74.3356701 69.6247423,75.8103093 69.6247423,77.3146392 C69.6247423,78.8189691 69.7039175,80.4816495 69.7039175,82.0651546 C69.7039175,83.3418557 69.6148454,84.6185567 69.6049485,85.8952577 C69.6049485,87.9637113 69.6049485,90.0420619 69.6049485,92.0709278 C69.0408247,92.0709278 68.6152577,91.9818557 68.1204124,92.0016495 C66.883299,92.0016495 65.6461856,92.1995876 64.4090722,92.1797938 C59.6585567,92.1797938 54.8981443,92.051134 50.1476289,91.9719588 L36.7175258,91.6849485 L25.7319588,91.4474227 C23.9406186,91.4474227 22.1492784,91.4474227 20.3579381,91.4474227 L13.6874227,91.3385567 C11.3616495,91.3385567 9.02597938,91.2395876 6.69030928,91.2197938 C6.21525773,91.2197938 5.92824742,91.2197938 5.8985567,90.556701 C5.71051546,87.5084536 5.40371134,84.4701031 5.24536082,81.4317526 C5.08701031,78.3934021 5.06721649,75.4936082 4.96824742,72.4651546 C4.94845361,70.3868041 4.81979381,68.2886598 4.75051546,66.2202062 C4.6614433,63.7459794 4.56247423,61.2717526 4.5228866,58.7876289 C4.5228866,56.5410309 4.58226804,54.294433 4.5228866,52.0478351 C4.5228866,51.1472165 4.81979381,51.0581443 5.59175258,51.0581443 C8.83793814,51.0581443 12.0841237,51.0581443 15.3303093,51.0581443 C15.9813316,51.1286467 16.6204425,50.8460994 17.0064438,50.3171347 C17.3924451,49.78817 17.4665626,49.0933301 17.2008247,48.4948454 C17.1018557,48.1781443 16.6169072,47.9307216 16.2705155,47.7426804 C16.0824742,47.6437113 15.8053608,47.7426804 15.5678351,47.7426804 L6.06680412,47.7426804 C4.9385567,47.7426804 3.81030928,47.7426804 2.68206186,47.7426804 C2.21075133,47.6928514 1.74266756,47.862251 1.41240646,48.2021688 C1.08214537,48.5420867 0.926302782,49.0148569 0.989690722,49.4845361 C0.989690722,50.0585567 1.15793814,50.6226804 1.17773196,51.196701 C1.34597938,56.9171134 1.49443299,62.6474227 1.66268041,68.377732 C1.73195876,70.8123711 1.82103093,73.2470103 1.89030928,75.6915464 C1.97938144,78.6606186 2.01896907,81.6296907 2.13773196,84.6680412 C2.25649485,87.7063918 2.4742268,90.6061856 2.62268041,93.5752577 C2.62268041,94.2581443 2.89979381,94.5649485 3.61237113,94.5649485 C5.59175258,94.5649485 7.57113402,94.4857732 9.50103093,94.5649485 C11.4309278,94.6441237 13.5092784,94.7331959 15.5183505,94.7826804 C22.8915464,94.9509278 30.2647423,95.148866 37.6379381,95.2478351 C43.5265979,95.3171134 49.4251546,95.2478351 55.3237113,95.2478351 C56.6993814,95.2478351 58.0750515,95.465567 59.4408247,95.4556701 C61.3410309,95.4556701 63.2313402,95.3171134 65.1216495,95.2379381 C67.4573196,95.1389691 69.7830928,95.3369072 72.1187629,95.2379381 C72.9995876,95.2379381 73.2272165,94.9113402 73.1084536,94.1195876 C73.0292784,93.1298969 72.9402062,92.1402062 72.9501031,91.1505155 C72.9501031,86.2020619 73.0589691,81.3129897 73.0985567,76.3843299 C73.0985567,75.523299 72.9105155,74.662268 72.9303093,73.8012371 C73.0391753,70.3472165 73.276701,66.8734021 73.3261856,63.4589691 C73.4350515,59.0647423 73.3657732,54.5715464 73.3657732,50.0882474 Z" id="Path" fill="#fff"></path>
                <path d="M36,0 C39.0202113,0.566740815 40.6259551,2.59507636 43,4 C46.1413359,7.03951749 49.6121361,10.1516206 53,13 C54.5191295,14.3773196 55.9553227,15.5008584 57,17 C59.3662815,19.0206172 61.3909149,21.3472374 63,24 C64.0686696,24.3010954 64.1686286,25.2776743 64,26 C63.3656806,26.9450458 62.647584,26.9748742 62,27 C57.960009,27.2731589 54.0603455,27.5217294 50,28 C50.1906028,28.7446964 50.3202591,29.7389785 50,31 C50.4199947,37.0966663 50.459889,43.5197289 51,50 C50.689281,54.7252885 50.9186729,59.5077856 51,64 C51.1081706,66.4081035 51.0483293,68.5358673 51,71 C51.0483293,71.2701432 51.1380913,71.8766553 51,73 C49.8045978,73.5224899 48.1623221,73.908129 47,74 C45.9756522,73.7013622 45.4193723,73.7013622 45,74 C41.0947126,73.8155054 37.3247055,73.9149336 34,74 C31.2009373,73.9646477 28.8471762,74.0441903 26,74 C26.0986987,73.9784098 25.7157178,73.8295142 25,74 C25.153402,73.2764563 24.9988845,72.8967028 25,73 C24.9342147,69.1887792 24.8544262,65.8745055 25,63 C24.6981737,59.5773853 24.6483059,56.7039099 25,54 C24.4288874,51.7921562 24.1596012,49.803592 24,48 C24.0798127,46.8207456 24.3291518,45.8264634 24,45 C24.3391254,41.6107072 24.3391254,38.4389472 24,35 C24.2493633,33.1891375 24.1629257,31.1044593 24,29 C23.9197624,28.7223326 23.6710322,28.4928738 23,28 C19.20274,28.1182987 15.0337903,27.9194422 11,28 C10.2265326,27.5615007 9.17930838,27.2234448 9,27 C8.89179854,26.0302674 9.03961335,25.1928359 9,25 C11.4832016,22.0432349 13.4779144,19.6271293 16,17 C18.0158859,14.8247466 20.5092769,12.4782407 23,10 C24.5884645,8.3519699 26.2739968,6.58214771 28,5 C30.1736602,2.74421868 32.3678442,0.646283385 35,0 L36,0 Z M13,24 C13.8481562,24.4037281 14.5266811,24.5720686 15,25 C18.5978308,24.7007995 21.9804772,24.7899209 25,25 C26.0715835,24.8295304 26.3509761,25.027578 26,26 C26.9466305,31.5804959 27.2330705,37.437582 27,43 C27.0494577,49.1596777 27.4685466,55.0416913 28,61 C27.6581345,63.0923261 27.608243,65.2708496 28,67 C27.608243,69.9348705 27.708026,70.0338943 30,70 C32.6572668,69.9546753 35.4212581,69.816042 38,70 C40.6898048,69.7368229 43.4138829,69.7170182 46,70 C47.0958785,69.7764325 47.2854664,69.4694587 47,69 C47.0759219,63.5280308 46.8763557,58.4481099 47,53 C46.6967462,49.0804586 46.7765727,44.7828258 47,40 C46.7067245,36.8312148 46.6069414,33.1673343 47,30 C46.4942816,28.530921 46.4009094,27.5612827 46,27 C45.9084599,24.7602138 46.6169197,23.8987067 48,24 C50.4386117,23.878902 52.4342733,23.7303663 54,24 C55.9466377,23.5521235 57.4034707,23.4530997 59,23 C58.5509761,22.8787616 58.2316703,22.4826664 58,22 C54.7093275,19.343612 51.5861171,16.5214338 48,14 C44.5214751,10.3720559 40.5301518,7.03495391 37,4 C36.2177368,3.25203122 35.6876843,3.00970048 35,3 C34.5681225,2.99086925 34.0300992,3.21523476 34,4 C33.1642255,3.95251599 32.710482,4.3233437 32,5 C29.6138829,7.35183006 26.9796095,10.0056679 24,13 C22.3696312,14.5112507 14.8859002,22.1657903 13,24 Z" id="Shape" fill="#fff"></path>
            </g>
        </g>
    </g>
</svg>