<?xml version="1.0" encoding="utf-8"?>
<!-- Generator: Adobe Illustrator 22.0.1, SVG Export Plug-In . SVG Version: 6.00 Build 0)  -->
<svg version="1.1" id="Layer_1" xmlns="http://www.w3.org/2000/svg" xmlns:xlink="http://www.w3.org/1999/xlink" x="0px" y="0px"
	 viewBox="0 0 251.2 241.9" style="enable-background:new 0 0 251.2 241.9;" xml:space="preserve">
<style type="text/css">
	.st0{fill:#FFFFFF;}
	.st1{fill:#ededf2;}
	.st2{fill:#865cd0;}
	.st3{fill:#865cd0;}
	.st4{fill:#865cd0;}
	.st5{fill:#865cd0;}
	.st6{fill:#817790;}
	.st7{fill:#212121;}
	.st8{fill:#212121;}
</style>
<title>Asset 5how-rb-works</title>
<g id="Layer_2_1_">
	<g id="step_1">
		<path class="st0" d="M0.1,111.1c0-1.8-0.1-3.7,0-5.5c0.1-2.6,0.3-5.1,0.6-7.7s0.5-5.4,0.9-8.1c0.3-2.2,0.7-4.5,1.2-6.7
			c0.5-2.6,1-5.2,1.7-7.8c0.6-2.5,1.4-4.9,2.3-7.3c1.7-4.4,3.8-8.7,6.2-12.9c2.2-4.1,4.7-8,7.3-11.9c1.6-2.5,3.5-4.9,5.5-7.1
			c2.5-2.8,5.1-5.5,7.6-8.2c1-1,1.9-2.1,2.9-3.2c1.4-1.5,3.1-2.7,5-3.6c2.7-1.2,5.3-2.7,8-3.9c4-1.8,8.1-3.6,12.2-5.2
			c3.7-1.4,7.6-2.4,11.4-3.6c3.1-0.9,6.2-2,9.3-2.7c4.2-1,8.5-1.9,12.9-2.7c2.1-0.4,4.2-0.8,6.3-1.1c1.7-0.3,3.5-0.4,5.2-0.6
			c2.2-0.3,4.4-0.6,6.6-0.8c1.3-0.2,2.7-0.3,4-0.3c4.1-0.1,8.3-0.3,12.6-0.3c2.1,0,4.2,0.3,6.2,0.5c1.1,0.1,2.3,0.2,3.4,0.3
			c3.4,0.4,6.8,0.7,10.2,1.2s7.1,0.8,10.6,1.5s6.9,1.8,10.3,2.8c5.1,1.5,10,3.5,14.7,5.9c2.8,1.4,5.7,2.7,8.4,4.2s5.1,3.1,7.7,4.7
			c2.9,1.8,5.7,3.6,8.5,5.6s5.4,4.2,8.1,6.4c1.6,1.3,3.1,2.6,4.6,4.1c1.3,1.3,2.5,2.6,3.7,4c2.5,2.9,4.7,6,6.7,9.2
			c1.4,2.3,2.6,4.7,3.8,7.1c1.3,2.6,2.6,5.3,3.8,7.9c2.1,4.3,3.9,8.7,5.2,13.3c0.5,1.9,1.1,3.7,1.5,5.6c0.6,2.9,1.1,5.8,1.6,8.7
			c0.4,2.5,0.8,5.1,1.1,7.6c0.2,1.3,0.2,2.6,0.3,3.8c0.2,1.8,0.4,3.6,0.5,5.4c0,0.2,0,0.4,0,0.6c0.1,3.1,0.2,6.2,0.3,9.3
			c0.1,4.2,0.3,8.5,0.2,12.8c-0.1,2.6-0.4,5.2-0.8,7.8c-0.3,2.2-0.5,4.4-0.9,6.6c-0.6,2.8-1.2,5.5-2,8.3c-0.4,1.4-0.9,2.8-1.4,4.2
			c-0.6,1.8-1.4,3.5-2.1,5.3c-1.4,3.4-2.9,6.9-4.4,10.3c-1.2,2.7-2.5,5.3-3.7,8c-2.1,4.3-4.7,8.4-7.6,12.2c-1.8,2.3-3.8,4.5-5.9,6.6
			c-3,3.2-6.3,6.1-9.8,8.7c-3.1,2.4-6,5-9.1,7.3c-2.3,1.7-4.7,3.3-7.1,4.9c-2.5,1.7-5.1,3.4-7.7,5s-5.2,3.1-7.9,4.5
			c-3.9,2.1-8,3.9-12.2,5.3c-2.9,0.9-5.9,1.6-8.8,2.2c-2.4,0.6-4.9,1-7.4,1.4c-2.2,0.3-4.3,0.5-6.5,0.6c-4.1,0.2-8.1,0.2-12.2,0.3
			c-1.4,0-2.9-0.3-4.3-0.2c-3.3,0-6.7,0.3-10,0.2c-2.1-0.1-4.2-0.3-6.2-0.7c-3-0.5-6.1-0.9-9.1-1.6c-2.4-0.5-4.7-1.2-7-1.9
			c-2-0.6-4-1.2-6-1.9c-1.3-0.4-2.5-1.1-3.7-1.5c-3-1.1-6.1-2-9-3.1c-2.3-0.9-4.4-2-6.6-3c-0.8-0.4-1.6-0.8-2.4-1.2
			c-3-1.6-6-3-8.8-4.7c-3.3-2-6.5-4.1-9.7-6.3c-1.5-1-2.9-2.2-4.2-3.4c-2.2-2-4.4-4-6.4-6.1c-1.8-1.9-3.4-3.9-5-6
			c-2.9-3.9-5.8-7.7-8.7-11.7c-1.6-2.2-3-4.5-4.5-6.8c-1.1-1.7-2.3-3.4-3.4-5.1c-1.9-3.1-3.6-6.2-5.5-9.2c-1.7-2.6-2.5-5.6-3.6-8.5
			c-0.7-1.8-1.5-3.5-2.2-5.2c-1.1-2.4-2-4.9-2.7-7.5c-0.6-2.9-1.6-5.7-2.3-8.5c-0.6-2.5-1.1-5.1-1.4-7.7c-0.4-3.1-0.4-6.2-0.6-9.3
			c-0.2-3.2-0.3-6.5-0.4-9.7h0.1V111.1z"/>
		<path class="st0" d="M181.1,30c1.1-1.7,1.2-1.8,2.7-1.3c4,1.2,8.1,2.3,12.1,3.4c0.7,0.2,1.3,0.5,1.9,0.7c0.3,4.6,0.6,9.1,0.9,13.5
			c0.2,3.3,0.3,6.6,0.5,9.9s0.5,6.8,0.7,10.3c0.3,4.2,0.5,8.4,0.8,12.6c0.2,3.4,0.4,6.7,0.7,10.1s0.4,6.6,0.6,9.9
			c0.2,3.5,0.4,7,0.6,10.5c0.3,4.3,0.5,8.5,0.8,12.8c0.2,3.5,0.5,7,0.8,10.5c0.2,3.1,0.4,6.3,0.6,9.4l0.7,10.8
			c0.1,2.5,0.3,4.9,0.4,7.4l0.6,10.5c0.3,4.3,0.5,8.6,0.8,12.8c0.1,2.2,0.5,4.3,0.6,6.5c0.1,2.5,0.1,5.1,0.2,7.9
			c-1.2,0.1-2.3,0.3-3.4,0.3c-4.7,0.2-9.4,0.6-14.1,0.7c-8,0.2-16,0.1-24.1,0.2c-4.6,0.1-9.1,0.5-13.7,0.8
			c-4.8,0.3-9.6,0.4-14.4,0.8c-3,0.2-6,0.6-9,0.8c-1,0.1-2,0.2-3,0.3l-0.2,0.4c1.5,1.7,2.9,3.4,4.4,5c0.5,0.3,1.1,0.5,1.7,0.4
			c0.6,0,1.2-0.3,1.8-0.3c0.9-0.1,1.8,0.5,2.2,1.3c0.4,0.9,0.2,1.9-0.7,2.4c-1.6,1.1-3.4,2.1-5.2,2.9c-2.2,0.8-4.5,1.5-6.8,2
			c-1.3,0.4-2.7,0.1-3.8-0.8c-1.2-1.1-3.2-1.4-3.6-3.4c0-0.2-0.4-0.3-0.6-0.4c-1.7-0.9-2.1-1.7-1.4-3.5c0.6-1.5,1.2-2.9,1.8-4.4
			c0.1-0.2,0.1-0.3,0.2-0.7c-1,0-1.9,0-2.8,0.1c-3.4,0.4-6.8,0.9-10.2,1.1c-2.9,0.2-5.9,0.4-8.8,0.4c-0.8,0-1.7-0.2-2.4-0.6
			c-2.1-1-4.1-2.1-6.1-3.2c-2.6-1.4-5.3-2.8-7.9-4.1c-1-0.5-1.8-1.3-2.3-2.4c-1.9-3.6-2.2-7.4-2.5-11.2c-0.2-2.9-0.5-5.8-0.7-8.6
			c-0.3-4.5-0.6-9-0.9-13.5c-0.2-3.5-0.6-7-0.8-10.5c-0.2-2.6-0.3-5.2-0.5-7.8c-0.2-2.3-0.4-4.7-0.7-7c-0.3-2.9-0.6-5.8-0.9-8.6
			c-0.2-1.4-0.4-2.8-0.5-4.1c-0.5-5.9-1-11.8-1.4-17.7c-0.4-4.9-0.7-9.9-1.1-14.8c-0.3-4.3-0.4-8.7-0.8-13
			c-0.3-3.6-0.9-7.1-1.2-10.6c-0.4-4.3-0.8-8.5-0.7-12.8c0.1-4.2,0.4-8.4,1.1-12.6c0.9-4.9,5.6-8.1,10.5-7.3c0.2,0,0.4,0.1,0.5,0.1
			c3.4,0.8,6.7,0.4,10.1,0.4c0.5,0,1-0.1,1.4-0.3c2.2-1.3,4.6-1.1,6.9-0.9c3.4,0.2,6.9,0.1,10.3-0.3c4-0.4,7.9-0.6,11.9-0.9
			c3.7-0.3,7.3-0.7,11-0.9s7.4-0.4,11-0.5c4.9-0.2,9.9-0.3,14.8-0.5c4.1-0.2,8.3-0.4,12.4-0.6c1.2-0.1,2.4-0.5,3.6-0.7
			c2-0.4,4.1-0.7,6.1-1c0.6,0,1.2,0.1,1.8,0.3C178,28.8,179.5,29.4,181.1,30z"/>
		<path class="st1" d="M121.8,46.8c4.4-0.3,8.8-0.6,13.2-0.7c2,0,4-0.4,5.9,0.4c3.4,1.4,6.9,2.6,10.3,4c1.3,0.5,2.6,1.1,3.7,1.9
			c3.6,2.5,7.2,5.1,10.8,7.7c1.2,0.8,2.3,1.6,3.3,2.5c3.4,3.2,6.3,6.9,8.4,11.1c1.2,2.2,3.8,7.3,4.1,7.5c0.7,3.1,2.7,17.6,2.8,20.9
			c0,2.3-0.2,4.7-0.6,7c-0.7,5.9-2.1,11.7-4.2,17.3c-1.8,4.6-3.9,9.1-5.9,13.7c-0.8,1.8-1.7,3.5-2.7,5.1c-0.8,1.2-1.7,2.4-2.7,3.4
			c-2.5,2.6-5,5.1-7.7,7.4c-2.6,2.1-5.7,3.7-8.4,5.8c-4.2,3.2-8.9,5.6-14,7.2c-4.4,1.4-9,2-13.6,1.7c-3.7-0.2-7.5-0.7-11.2-1
			c-5.2-0.4-9.5-2.9-13.3-6.2c-4.1-3.6-7.7-7.8-10.8-12.3c-2.7-4.1-4.5-8.8-5.1-13.7c-0.2-1.7-0.3-3.5-0.2-5.2
			c0-1.3,0.7-1.9,1.6-1.8s4.9-1.4,6-2.9c0.4-0.6,0.8-1.1,1.1-1.7c1-1.8,1.8-3.7,3-5.4c2.3-3.5,4.7-6.9,7.1-10.4
			c0.5-0.6,0.5-1.4,0.1-2c-0.4-0.8-0.8-1.5-1.2-2.3c0.6-0.5,1.2-1.1,1.7-1.6c1.2-1.5,1-3.6-0.3-5s-14.6,2.3-15.2,2.3
			c-0.9-0.1-1.8,0-2.7,0c-0.2,2.4-2.3,3.6-3.5,5.6c0.2,1.1,0.5,2.3,0.8,3.6c0.2,0.7-0.2,1.5-0.9,1.8c-0.1,0-0.1,0-0.2,0
			c-0.7,0.1-1.4-0.1-1.9-0.6s-0.8-1.2-0.9-1.9c-0.8-3.4-1.8-6.8-1.7-10.4c0.1-4-0.1-8,0.8-11.9c0.5-2.4,0.8-4.8,1.3-7.2
			c1.2-6,2.3-12.1,6.5-16.9c1.8-2.3,3.9-4.3,6.1-6.2c4.6-3.6,9.9-5.2,15.3-6.8C109.3,49.8,121.2,46.8,121.8,46.8z"/>
		<path class="st0" d="M158.3,89.2c0.9,4,0.8,8.1-0.2,12.1c-1.4,5-3.1,9.9-6.4,14c-1,1.4-2.2,2.6-3.5,3.7c-2.1,1.7-4.4,3.2-6.6,4.8
			c-1.5,1-2.9,2.2-4.3,3.4c-0.6,0.6-1.1,1.4-1.3,2.3c-1.4,5.1-2.8,10.3-4.2,15.5c-0.2,0.7-0.6,1.3-1,1.9c-0.4,0.6-1.2,0.9-1.9,0.7
			c-6.4-1.5-12.9-3-19.4-4.5c-1.3-0.3-1.6-0.7-1.5-2.2c0.2-2.2,0.6-4.3,1-6.5c0.4-2.5,1-5,1.7-7.5c0.9-3.1,0.5-6.5-1.3-9.3
			c-1.3-2.3-2.8-4.6-4.1-6.9c-2.3-4-3.6-8.4-3.8-13c-0.1-1.6-0.1-3.3-0.2-4.9c-0.2-4,1.1-7.6,2.8-11.2c2.2-4.6,6.4-7,10.8-9
			c3.1-1.3,6.4-2.1,9.7-2.3c3.8-0.5,7.6-0.6,11.5-0.4c3,0.3,5.9,1.3,8.4,2.8c3,1.7,5.8,3.8,8.4,6.2
			C155.7,81.8,157.5,85.4,158.3,89.2z"/>
		<path class="st0" d="M90,114c0.4,3.3,1.2,6.3,1,9.9c-0.9-0.7-1.4-1.8-1.5-3c0-2,0.1-4,0.2-6C89.8,114.6,89.9,114.3,90,114z"/>
		<path class="st2 st2r" d="M133.9,97c1.5,3.8,0.7,7.3-0.9,10.8c-0.4,0.8-0.9,1.6-1.6,2.2c-0.9,1-2.3,1.3-3.5,0.9c-1.3-0.4-2.3-1.6-2.3-3
			c-0.1-1,0.1-1.9,0.3-2.9c0.7-2.7,1.9-5.3,3.6-7.6c0.2-0.3,0.4-0.7,0.6-1c-0.3-0.4-0.7-0.7-1.1-1c-3.2-2.5-6.1-1.8-7.8,2
			c-1.9,4.2-2.7,8.7-2.6,13.3c0.2,4.2,0.4,8.4,0.6,12.6c0.1,0.6,0.1,1.2,0,1.8c0,0.8-0.7,1.4-1.5,1.3c-0.1,0-0.1,0-0.2,0
			c-0.8,0-1.4-0.7-1.3-1.4l0,0c-0.1-2.4-0.3-4.7-0.3-7.1c-0.1-3.5-0.2-7-0.1-10.6c0.2-3.8,1.1-7.6,2.8-11.1c0.3-0.7,0.7-1.4,1.2-2
			c2.4-3.2,5.8-4,9.4-2.1c1.1,0.6,2.1,1.4,3.2,2.2c0.6-0.3,1.1-0.6,1.7-0.9c2.6-1.4,5.8-0.4,7.1,2.2c0.1,0.3,0.3,0.5,0.3,0.8
			c1,2.3,1.2,4.9,0.8,7.4c-1.4,6.5-3.8,12.6-8.1,17.8c-1.5,1.8-2.9,3.6-4.2,5.5c-0.5,0.7-1.1,1.2-2,0.8s-0.8-1.4-0.4-2
			c0.8-1.4,1.6-2.7,2.6-3.9c3.4-3.9,6-8.4,7.7-13.4c0.8-2.6,1.8-5.1,1.5-7.8c-0.1-1.2-0.4-2.4-0.9-3.5c-0.8-1.7-1.9-1.9-3.6-1
			c-0.2,0.1-0.4,0.2-0.6,0.4C134.1,96.7,134,96.9,133.9,97z M131.5,99.7c-2.6,3.4-3.6,6.9-2.4,8.6C131,105.8,131.9,102.7,131.5,99.7
			L131.5,99.7z"/>
		<path class="st2" d="M107.9,128.4c0.8,0.1,1.3,0.1,1.9,0.1c6.6,0.9,13.1,1.8,19.7,2.8c2.1,0.3,4.2,0.9,6.2,1.4
			c0.8,0.2,1.5,0.5,2.1,0.9c0.6,0.3,0.8,0.9,0.6,1.5c0,0.1-0.1,0.1-0.1,0.2c-0.4,0.4-1,0.6-1.5,0.6c-1.7-0.3-3.3-0.9-4.9-1.2
			c-5.9-0.9-11.9-1.7-17.8-2.6c-1.6-0.2-3.2-0.6-4.8-0.9c-0.4,0-0.8-0.2-1.2-0.4c-0.4-0.3-0.9-0.8-0.9-1.2S107.6,128.8,107.9,128.4z
			"/>
		<path class="st2" d="M134.2,141.4c-1.5-0.1-2.7-0.1-3.9-0.1c-7.4-0.6-14.7-1.6-22-2.9c-0.4-0.1-0.8-0.1-1.2-0.3
			c-0.8-0.2-1.3-0.7-1.2-1.6s0.9-1.2,1.7-1.2c0.4,0,0.7,0,1.1,0.1l23.4,3.4c0.7,0.1,1.4,0.2,2.1,0.5c0.5,0.2,0.8,0.6,0.9,1.1
			C135,140.7,134.4,141.1,134.2,141.4z"/>
		<path class="st3" d="M175.3,105.9c0.3,0.8-0.1,1.7-0.9,2c-0.2,0.1-0.3,0.1-0.5,0.1c-3,0-5.9-1.2-8.1-3.2c-0.5-0.5-0.9-1.2-0.2-1.8
			c0.5-0.3,1.1-0.4,1.6-0.3c2.3,0.7,4.5,1.4,6.8,2.2C174.5,105.2,174.9,105.5,175.3,105.9z"/>
		<path class="st3" d="M167.6,122.1c0.3,0.8-0.1,1.7-0.9,2c-0.4,0.1-0.8,0.1-1.1,0c-0.6-0.2-1.1-0.6-1.5-1c-1.2-1.3-2.3-2.7-3.4-4
			c-0.6-0.5-0.6-1.3-0.2-1.8c0.1-0.1,0.1-0.1,0.2-0.2c0.5-0.3,1.2-0.4,1.8-0.1c1.8,1.5,3.4,3.1,5,4.8
			C167.5,121.8,167.5,122,167.6,122.1z"/>
		<path class="st3" d="M172.9,87.2c-1.1,0.1-2.4,0.2-3.6,0.2c-0.4,0-0.9-0.1-1.2-0.3c-0.4-0.3-0.7-0.7-0.8-1.2
			c0.1-0.5,0.4-0.9,0.9-1.1c2-0.4,4.1-0.6,6.1-0.8c0.6,0.1,1.1,0.5,1.3,1c0.4,0.7-0.1,1.3-0.8,1.6C174.2,86.8,173.6,87,172.9,87.2z"
			/>
		<path class="st3" d="M100.4,73.3c-0.1,0.3-0.1,0.7-0.3,0.9c-0.3,0.2-0.7,0.3-1.1,0.3c-0.2,0-0.4-0.2-0.6-0.3
			c-1.8-1.8-3.8-3.3-6.1-4.6c-0.4-0.2-0.5-0.8-0.7-1.3c0.5-0.1,1-0.5,1.4-0.4c2.9,0.8,5.4,2.5,7.1,5C100.3,73,100.3,73.1,100.4,73.3
			z"/>
		<path class="st3" d="M85.9,80.3c0-0.9,0.7-1.7,1.7-1.7c0.2,0,0.3,0,0.5,0.1c2.2,0.4,4.4,0.9,6.5,1.5c0.5,0.2,0.8,0.6,0.9,1.1
			c0,0.8-0.6,1.1-1.4,1c-0.5-0.1-1.1-0.2-1.6-0.3C90.4,81.4,88.2,80.9,85.9,80.3z"/>
		<path class="st3" d="M83,92c0.3-1.7,0.7-2.2,2-2.1c2,0.2,4,0.4,5.9,0.7c0.4,0,1,0.6,0.9,0.8c-0.1,0.5-0.3,0.9-0.8,1.2
			c-0.4,0.2-0.9,0.3-1.4,0.2c-1.1-0.1-2.3-0.3-3.4-0.4S84.2,92.1,83,92z"/>
		<path class="st4" d="M188.4,24.7c0.2,2.2,0.4,4.3,0.6,6.3c0.5,4,1.1,8.1,1.5,12.1c0.7,8,1.3,16,1.9,24c0.6,7.7,1.1,15.4,1.7,23.1
			c0.5,7.5,1.1,15,1.6,22.6c0.4,6,0.9,11.9,1.3,17.8c0.5,6.8,1,13.6,1.4,20.4l1.3,17.8c0.4,5.7,1,11.4,1.2,17.1
			c0.1,3.2,0.8,4-3.6,4.3c-4.1,0.3-8.2,0.6-12.4,0.8c-8.3,0.4-16.5,0.9-24.8,1.3c-11.1,0.6-22.2,1.1-33.3,1.7
			c-10.8,0.6-21.6,1.1-32.4,1.6c-5.5,0.3-10.9,0.6-16.4,0.8c-1.3,0-2.5-0.2-3.7-0.7c-0.7-0.4-1.1-1.1-1.3-1.8
			c-0.4-2.8-0.8-5.7-1-8.5c-1.7-19.8-3.5-39.6-5.2-59.4c-1.2-13.4-2.2-26.8-3.4-40.2c-0.9-10.7-1.9-21.4-2.8-32.2
			c-0.4-5.3-0.9-10.5-1.3-15.8c-0.2-3,0.7-3.7,3.7-3.7c2.7,0,5.3-0.3,8-0.5l24-1.9l21.5-1.6l23.5-1.8l26.2-2l20.4-1.6
			C187.1,24.6,187.6,24.7,188.4,24.7z M185.7,29.2L64,38.3c4.4,51.5,8.8,102.7,13.2,154l119.8-5.9C193.2,134,189.4,81.7,185.7,29.2
			L185.7,29.2z"/>
		<path class="st5" d="M231.2,149c-0.5,0.2-1,0.4-1.4,0.7c-10.8,8.6-22.1,16.5-33.9,23.7c-6.5,4.1-12.8,8.5-18.7,13.3
			c-1.4,1.1-3,2.1-4.4,3.2c-2.4,1.8-4.5,3.9-7,5.5c-5,3.3-10.2,6.3-15.3,9.5c-3.8,2.4-7.4,4.8-11.2,7.1c-1.3,0.7-2.6,1.2-4,1.7
			c-0.4-1.7-0.7-1.8-2.7-1.4l-3.4-5.1c0.6-0.3,1.2-0.6,1.8-0.9c8.2-5.5,16.4-11,24.7-16.5l30.7-20.6l28.4-19.1
			c4.2-2.8,8.5-5.7,12.7-8.6c1,1.9,2.1,3.8,3.1,5.7c0.2,0.2,0.3,0.4,0.5,0.6L231.2,149z"/>
		<path class="st5" d="M123.5,195.3c1.4-1.3,3-2.5,4.5-3.6c6.2-4.1,12.5-8,18.7-12.1c4.4-2.9,8.5-6.2,12.8-9.1
			c8.3-5.6,16.6-11.1,24.9-16.6c9.9-6.4,19.8-12.8,29.7-19.2c1.8-1.1,3.5-2.5,5.7-2.8c0.8-0.3,1.7,0.1,2.1,0.9
			c1.2,1.9,2.4,3.8,3.6,5.7c-10.4,6.9-14.2,17.5-24.5,24.4c-9.2,6.1-19.3,15.8-28.5,22c-9.7,6.5-18.1,14.7-27.8,21.1
			c-3.5,2.3-14.2-4.3-17.7-2l-3.5-5.2C124.2,197.6,124.7,196.4,123.5,195.3z"/>
		<path class="st6" d="M25.5,180.8c-1.9-1.8-3.9-3.6-5.7-5.5c-0.3-0.5-0.2-1.1,0.1-1.6c0.8-1.3,1.8-2.6,2.8-3.8c2.8-3,5.8-5.9,8.5-9
			c5.3-6.1,10.4-12.4,15.8-18.4c8.1-8.8,16.5-17.3,24.7-26.1c3-3.2,5.9-6.5,8.8-9.8c0.4-0.5,1-0.9,1.4-1.3l2.5,0.2
			c0.4,0.5,0.8,1,1.3,1.5c1.6,1.5,3.1,3,4.7,4.5c2.9,4.5,3.7,6.6,2.8,7.5c-6.3,6.8-15.1,11.2-21.4,17.9c-7.4,8-14.4,19.3-21.8,27.2
			c-6.5,7-12.6,13.6-19.1,20.6C30.4,185.4,26.2,180.4,25.5,180.8z"/>
		<path class="st6" d="M99,120.2c-0.3,0.6-0.7,1.3-1.2,1.8c-6.3,7-12.8,14-19,21.1c-3,3.4-5.6,7.2-8.6,10.6
			c-5.2,5.7-10.6,11.2-15.9,16.9c-3,3.2-6,6.5-9.1,9.7c-1.9,2-3.9,3.8-5.9,5.7c-0.5,0.5-1.1,1-1.7,1.4c-2.2,1.6-2.6,1.6-4.8,0
			c-1.5-1.1-3-2.3-4.4-3.5c1-1.1,2-2.2,2.9-3.2l22-23.8c6.2-6.7,12.4-13.3,18.5-20c6.5-7,12.9-14,19.3-21c0.6-0.6,1.3-1.1,2-1.5
			l3.3,3c0.1,0.3,0.1,0.6,0.2,0.9C96.8,120.1,97,120.3,99,120.2z"/>
		<path class="st7" d="M127.1,204c3.5-2.3,7-4.6,10.5-6.9c9.7-6.5,19.4-12.9,29.1-19.4c9.2-6.2,18.5-12.3,27.7-18.5
			c10.4-6.9,20.8-13.8,31.1-20.6l1.8,3c-4.2,2.9-8.5,5.7-12.7,8.6l-28.4,19.1l-30.7,20.6c-8.2,5.5-16.4,11-24.7,16.5
			c-0.6,0.3-1.2,0.6-1.8,0.9L127.1,204z"/>
		<path class="st7" d="M93.2,114.4c-0.7,0.4-1.4,0.9-2,1.5c-6.5,7-12.9,14-19.3,21c-6.2,6.7-12.4,13.3-18.5,20l-22,23.8
			c-1,1.1-2,2.1-2.9,3.2l-3-3c0.7-0.4,1.4-0.9,2-1.5c6.5-7,12.9-14,19.4-21c7.4-8,14.8-15.9,22.3-23.9c6.3-6.8,12.6-13.6,18.9-20.4
			c0.8-0.9,1.7-1.7,2.6-2.6L93.2,114.4z"/>
		<path class="st8" d="M99,120.2c-1.9,0.1-2.2-0.1-2.3-1.9c0-0.3-0.1-0.6-0.2-0.9c0.3-0.4,0.5-0.8,0.7-1.2c0.7-1.8,1.3-3.6,1.9-5.3
			s1.3-3.4,1.8-4.8l-6.4-5.6c-2.7,1.5-6,2.1-8.6,4.3c-0.4,0.3-0.9,0.6-1.4,0.8l-2.5-0.2c-0.2-1.3,0.5-2.6,1.8-3
			c5.5-2.5,11-5.1,16.5-7.6c1.2-0.5,2.5-0.6,3.7-0.5c2,0.1,2.9,1.1,2.6,3.1c-0.4,2.7-1,5.4-1.8,8c-1.4,4.4-3.1,8.7-4.7,13
			C99.8,119,99.4,119.6,99,120.2z"/>
		<path class="st8" d="M132.5,212.3c-4.1,0.9-8.2,1.9-12.3,2.8V215c-0.6-1.5-1.3-2.9-2.2-4.2c-0.4-0.8-1-1.5-1.5-2.3
			c-0.1-0.3-0.2-0.5-0.4-0.7c2.4-3.1,4.8-6.2,7.4-9.1c0.6-1.1,1.1-2.3-0.2-3.4c-1.2-0.1-2.3,0.5-3,1.5c-4.2,5.4-8.4,10.9-12.6,16.3
			c-0.8,1.1-1.5,2.4-2,3.7c-0.8,1.8,0,3.2,1.9,3.5c1.4,0.3,2.8,0.3,4.2,0c6.9-1.5,13.8-3.1,20.7-4.6c1.2-0.2,2.1-0.9,2.6-2
			C134.8,212,134.6,211.8,132.5,212.3z"/>
	</g>
</g>
</svg>
