<svg width="48" height="48" viewBox="0 0 48 48" fill="none" xmlns="http://www.w3.org/2000/svg">
<path d="M7 31L17 41" stroke="#40344E" stroke-width="2" stroke-miterlimit="10" stroke-linecap="round" stroke-linejoin="round"/>
<path d="M12 36L34 14" stroke="#40344E" stroke-width="2" stroke-miterlimit="10" stroke-linecap="round" stroke-linejoin="round"/>
<path d="M29 9L39 19" stroke="#40344E" stroke-width="2" stroke-miterlimit="10" stroke-linecap="round" stroke-linejoin="round"/>
<path d="M17 41L3 45L7 31L34.121 3.879C34.3996 3.60037 34.7303 3.37935 35.0943 3.22855C35.4583 3.07776 35.8485 3.00014 36.2425 3.00014C36.6365 3.00014 37.0267 3.07776 37.3907 3.22855C37.7547 3.37935 38.0854 3.60037 38.364 3.879L44.121 9.636C44.3996 9.91458 44.6207 10.2453 44.7715 10.6093C44.9222 10.9733 44.9999 11.3635 44.9999 11.7575C44.9999 12.1515 44.9222 12.5417 44.7715 12.9057C44.6207 13.2697 44.3996 13.6004 44.121 13.879L17 41Z" stroke="#40344E" stroke-width="2" stroke-miterlimit="10" stroke-linecap="round" stroke-linejoin="round"/>
</svg>
