<svg xmlns="http://www.w3.org/2000/svg" viewBox="0 0 341.02 343.33"><defs><style>
.cls-1{opacity:1;}
.cls-2{fill:#ededf2;}
.cls-3{fill:#e1dfe7;}
.cls-4{fill:#865cd0;}
.cls-5{fill:#817790;}
.cls-6{fill:#212121;}
.cls-7{fill:#212121;}
</style></defs><title>Asset 4sell-art-support</title><g id="Layer_2" data-name="Layer 2"><g id="Layer_4_Image" data-name="Layer 4 Image" class="cls-1"><path class="cls-2" d="M339.89,152.25a19.58,19.58,0,0,0-.09-2.87c-.5-2.89-1-5.78-1.66-8.64-1-4.25-1.91-8.52-3.16-12.7a77.8,77.8,0,0,0-4.09-10.66c-2-4.24-3.39-8.76-5.71-12.78s-3.95-8.47-5.87-12.72a142,142,0,0,0-9.35-18A115.83,115.83,0,0,0,298.32,58a109.84,109.84,0,0,0-16.41-15.18c-4.37-3.2-8.81-6.33-13.28-9.4A130.56,130.56,0,0,0,250,22.2c-.51-.24-1-.61-1.47-.88-3.27-1.78-6.48-3.68-9.84-5.28-3.09-1.46-6.33-2.62-9.53-3.87-5.67-2.21-11.39-4.31-17-6.62a40.77,40.77,0,0,0-10.45-2.62c-2.07-.26-4.17-.34-6.23-.66-3.29-.51-6.58-.84-9.89-1.16-2.76-.28-5.5-.5-8.27-.52a6.58,6.58,0,0,1-.83-.19,22.62,22.62,0,0,0-2.82-.35c-5,0-10,0-15,0a5.09,5.09,0,0,0-2,.11c-1.39.63-2.82.4-4.25.46a6.05,6.05,0,0,0-1.71.06c-2.15.79-4.36.43-6.54.52a5.89,5.89,0,0,0-2,.14,9.38,9.38,0,0,1-3.39.45,21.65,21.65,0,0,0-2.52.4c-3.35.63-6.71,1.23-10.05,1.91-3.07.61-6.18,1.09-9.16,2a152.4,152.4,0,0,0-23.69,9.2,58.06,58.06,0,0,1-5.93,2.91c-4,1.42-7.53,3.73-11.19,5.76-4.48,2.49-8.7,5.47-12.93,8.4A61.54,61.54,0,0,0,54.77,39C49.07,44.68,43,50,37.93,56.3c-2,2.44-4,4.81-6.06,7.23-.79,1-1.6,1.89-2.31,2.9A86.45,86.45,0,0,0,24.47,74c-2,3.69-3.67,7.56-5.46,11.37a13.38,13.38,0,0,0-.79,2.14c-.71,2.56-1.49,5.1-2,7.7a51.55,51.55,0,0,1-2.45,8.17c-1,2.39-1.87,4.79-2.8,7.18a148,148,0,0,0-4.45,15,106.18,106.18,0,0,0-2.9,13c-.6,4.22-1.43,8.4-2,12.65-.45,3.68-1.14,7.32-1,11.05A9.87,9.87,0,0,1,.38,164,21.65,21.65,0,0,0,0,166.57c0,7.49,0,15,0,22.46a4.19,4.19,0,0,0,.11,1.71c.61,1.29.38,2.63.47,4,.19,2.65.41,5.31.62,8,0,.1,0,.19.06.29.35,2,.74,3.9,1,5.87.45,3,.59,6.07,1.29,9,1.24,5.16,2.24,10.37,3.77,15.47a207.25,207.25,0,0,0,7.07,20.2c1.83,4.4,3.91,8.7,5.62,13.14a59.61,59.61,0,0,0,6.22,11.57,92.72,92.72,0,0,0,10,11.74c5.61,13.94,27.25,23,27.9,23.59,1.3-2.2-2.48-3.8-1.22-5.77a48,48,0,0,1,3.92-5.6c1.55-1.78,2.25-4.28,4.54-5.45a5.94,5.94,0,0,1,.86.11,11.81,11.81,0,0,0,2.21.42C76.74,292.52,79,287.8,81,283c-.26.57,1.07-2.81,1.14-3,.59-1.6,1.15-3.21,1.66-4.83a95.72,95.72,0,0,0,2.36-9.29,121.3,121.3,0,0,0,2.68-18.28,107.49,107.49,0,0,1,2-15.09l-.33.42a8.34,8.34,0,0,1-2,1.59,27.31,27.31,0,0,1-3.32,1.7,7.3,7.3,0,0,1-6.1,0,24.37,24.37,0,0,1-4.71-2.7,8.51,8.51,0,0,1-3.57-6.85,11.73,11.73,0,0,1,1.9-6.77c2.3-3.64,4.29-7.44,6.22-11.28.43-.85,1-1.63,1.45-2.46a6.82,6.82,0,0,0,.36-1.24l-1.37-.42a9.18,9.18,0,0,1-6.18-5.11,7.18,7.18,0,0,1-.6-2.77c-.17-3.85.77-7.56,1.32-11.31.4-2.71,1-5.39,1.58-8.08.65-3.15,1.31-6.3,2-9.46.69-3.33,1.33-6.68,2.1-10,.82-3.51,1.75-7,2.67-10.47,1-3.76,2.12-7.49,3-11.27a42.6,42.6,0,0,1,5.38-12.89,17.63,17.63,0,0,1,9.64-7.29,19,19,0,0,1,7-1.23c2.68.15,5.38,0,8.06,0,5.8,0,11.26,1.48,16.65,3.45,1,.36,2,.69,3,1a38.81,38.81,0,0,1,1.46-7c2-6.06,5.4-10.7,9.72-15.29,1.89-2,3.79-4,5.63-6,.8-.9,1.6-1.81,2.39-2.72.18-.2,1.79-2.14.83-.9a23.31,23.31,0,0,1,5.58-5.28c-1.14-1.09-2.24-2.22-3.34-3.36-2.43-2.54-6.16-7.19-4.66-10.36,1-2.1,5.57-3.31,7.53-4.2a17.29,17.29,0,0,1-.36-2.8,15,15,0,0,1,3.68-10.32,17.22,17.22,0,0,1,14.82-9.18,15.86,15.86,0,0,1,7.25,1.73A9.31,9.31,0,0,1,189,42.6a12.45,12.45,0,0,1,7.06,2c3.87,2.36,7.78,4.72,10.6,8.51a30.08,30.08,0,0,1,4.07,7.53A28.12,28.12,0,0,1,212,72.19a7.27,7.27,0,0,1-.33,1.67c-.75,2.54-1.52,5.06-2.4,8,4.28-.18,8.43,0,12.21,2.14s6.48,5.27,8.93,8.89c.87-.16,1.71-.26,2.52-.48a18.69,18.69,0,0,1,6.22-.78,14.93,14.93,0,0,0,2.59,0,14.52,14.52,0,0,1,7,1.2,25.16,25.16,0,0,1,9.65,7c1.78,2.08,3.23,4.44,4.92,6.8h5.38a19.59,19.59,0,0,1,11.67,4,22.65,22.65,0,0,1,4,4c3.5,4.18,5.59,8.83,5.46,14.36a13,13,0,0,0,.13,2.57,62.23,62.23,0,0,1,1,8.47c.09,2,.35,4-.5,6,.23,3.84-.56,7.57-1.19,11.33-.32,2-.55,3.94-1,5.88-.53,2.6-1.23,5.17-1.86,7.74-1.43,5.8-4.16,11.05-6.51,16.46-1.14,2.62-2.68,5.06-4,7.59-.63,1.18-1.12,2.45-1.85,3.57-2.27,3.52-4.4,7.12-6.83,10.55A108.54,108.54,0,0,1,257,221.43a59.57,59.57,0,0,1-7.32,6.87c-2.68,2-5.08,4.32-7.67,6.42-4.14,3.36-8.45,6.49-12.87,9.47a106.32,106.32,0,0,1-10.27,6.23c-3.39,1.76-6.68,3.78-10.2,5.23a96.74,96.74,0,0,1-14.28,4.93c-3.78.89-7.55,1.83-11.35,2.67-1.65.37-2.28.83-2.64,2.48-.16.74-.2,1.51-.39,2.24-.62,2.39-1.3,4.76-1.94,7.15-1.82,6.78-3.58,13.58-5.48,20.33-1.62,5.77-3.41,11.48-5.13,17.21-2.15,7.19-4.32,14.38-6.44,21.58-.72,2.45-1.29,4.94-1.91,7.33.37.86,1.92.43,1.66,1.76h21.89c0-.63.26-1.12,1-1.13a71.66,71.66,0,0,0,13.79-1.9c5.09-1,10.21-2,15.22-3.55,5.74-1.73,11.49-3.4,17.12-5.44,5.1-1.85,10.14-3.84,15.11-6,3.42-1.52,6.66-3.31,9.91-5.1,4-2.21,7.77-4.81,11.59-7.32a135.16,135.16,0,0,0,12.7-9.69c2-1.67,3.69-3.64,5.74-5.17a32.74,32.74,0,0,0,5.85-5.47c2.6-3.19,5.73-5.87,8.2-9.17,2-2.67,4.34-5.07,6.4-7.68,1.83-2.31,3.54-4.72,5.2-7.15q4.51-6.6,8.89-13.29c1-1.52,1.85-3.12,2.7-4.72,2.24-4.22,4.59-8.38,6.61-12.71,2.22-4.74,4.12-9.63,6.13-14.46,1.43-3.44,2-7.13,2.76-10.73.64-2.86,1.22-5.74,1.65-8.64.36-2.44.5-4.92.67-7.38.05-.81.32-1.27,1.16-1.29V153.25C340.39,153.21,339.9,153,339.89,152.25Z"/><path class="cls-2" d="M155.67,156.74a19.16,19.16,0,0,1-15.79-.61c-7.15-3.78-8.89-11.6-7.21-18.68-.27-.11-.54-.22-.83-.31-3.27-1-6.51-2.15-9.77-3.21a28.12,28.12,0,0,0-8.39-1.41c-1.73,0-3.45,0-5.18,0a3.4,3.4,0,0,0-3.71,2.49c-.92,2.7-2,5.36-2.74,8.11-1.73,6.4-3.35,12.84-4.91,19.3-1,4-1.77,8.14-2.64,12.21q-1,4.86-2,9.74c-.28,1.39-.57,2.78-.81,4.17-.41,2.34-.81,4.67-1.15,7a16.6,16.6,0,0,0,0,2.35c1.14.4,1.88.37,2.5-.23,1.25-1.22,3-1.1,4.48-1.72,3.07.42,6.1,1,7.89,3.9a15,15,0,0,1,1.63,3.95,4.63,4.63,0,0,1,.13.93l1.27-1.56a3.66,3.66,0,0,1,.23-.29l.43-.59c2.16-2.94,4.34-5.87,6.66-8.68a47.39,47.39,0,0,1,15.16-12c6.69-3.4,14-2.57,19.28,2.06A118.87,118.87,0,0,1,164.81,168,31.25,31.25,0,0,1,155.67,156.74Z"/><path class="cls-2" d="M236.49,205a8.36,8.36,0,0,0,.84-1.31c-1.54,1.42-3.05,2.86-4.49,4.38-2.41,2.57-4.63,5.3-6.84,8l.25-.24C229.74,212.36,233.42,209,236.49,205Z"/></g><g id="Layer_11_Image" data-name="Layer 11 Image" class="cls-1"><path class="cls-3" d="M283.17,128.59a18.12,18.12,0,0,0-3.53-9.07,11.27,11.27,0,0,0-5.91-4.34,23.93,23.93,0,0,0-4.9-.77c-1.51-.08-3,.24-4.56.22a5.19,5.19,0,0,0-3.86,1.6c-1.08,1.09-2.07,2.28-3,3.27.11-2.12.26-4.39.33-6.66a10.82,10.82,0,0,0-2-6.6,21.41,21.41,0,0,0-6.57-6.1,11.41,11.41,0,0,0-9.56-1.34,14.49,14.49,0,0,0-9.14,7.32c-.29.53-.66,1-1,1.53a6.85,6.85,0,0,1-.25-2,10.35,10.35,0,0,0-1.36-5.19c-.41-.63-1-1.17-1.44-1.77a16.44,16.44,0,0,0-8.95-6.3,10.29,10.29,0,0,0-6.33-.06,14.67,14.67,0,0,0-6.34,5,15.32,15.32,0,0,0-2.17,3.81,3.53,3.53,0,0,0-.1,2.41c4.92,2.92,7.52,8.65,8.13,14.32,2.33,21.84-12.43,41.58-30.06,52.71-16.77,10.58-35.1,8.44-53.83,8.15a66.84,66.84,0,0,0-6.71,9,19.33,19.33,0,0,0-2.86,6.5c-.11.58-.41.76-1,.83A3.21,3.21,0,0,0,113.5,197a6,6,0,0,1-1.48,2.41,5.67,5.67,0,0,0-2.18,3.4c-.3,0-.54,0-.77,0a3.93,3.93,0,0,0-.48,0,60,60,0,0,1-3.47,5.77c-4.07,6-10.53,8.94-17.17,7.78-.22.64-.44,1.29-.67,1.92-1.28,3.49-2.59,7-3.85,10.46a31.35,31.35,0,0,0-1.29,4.06c-.35,1.57-.32,3.23-.74,4.77q-1.92,7.16-4.07,14.24-2.74,9-5.67,18c-2,6-4,11.9-6,17.86q-3.3,9.8-6.58,19.61c-.34,1-.76,2-1.14,3v.29c4.81,2.31,9.62,4.66,14.45,6.92,4,1.86,7.94,3.72,12,5.4a58.09,58.09,0,0,0,6.65,2c4,1.13,8.07,2.13,12,3.35,5.67,1.74,11.44,3,17.18,4.47,5.29,1.32,10.55,2.74,15.79,4.22,3.29.93,6.64,1.49,10,2.12a3,3,0,0,1,.6.28h.86a2.7,2.7,0,0,1,0-.28c2.38-7.34,4.83-14.65,7.14-22,1.86-5.94,3.51-11.94,5.31-17.9,2.43-8.06,4.87-16.11,7.4-24.14,2-6.27,4.09-12.49,6.08-18.75a2.53,2.53,0,0,1,1.93-1.85c3.65-1.05,7.33-2,10.92-3.24,5-1.74,10-3.65,15-5.56,2.53-1,5-2,7.49-3.18a65.44,65.44,0,0,0,7.88-4.11,129.5,129.5,0,0,0,14.77-11c3.16-2.77,6.36-5.49,9.45-8.33,1.75-1.62,3.28-3.48,5-5.2,1.91-1.95,3.89-3.84,5.79-5.81a32.54,32.54,0,0,0,3.28-3.78c2.12-3,4.23-6.12,6.11-9.32,2.59-4.4,5.08-8.87,7.41-13.41,2.05-4,3.84-8.12,5.73-12.19a109.58,109.58,0,0,0,6.18-16.44c.6-2.15,1.23-4.3,1.63-6.49.51-2.79.8-5.63,1.19-8.45A36.87,36.87,0,0,0,283.17,128.59Z"/></g><g id="Layer_13_Image" data-name="Layer 13 Image"><path class="cls-4" d="M184.21,167.44c-5-2.19-10.16-4.2-15.19-6.42a47.83,47.83,0,0,1-11.59-6.83c-2.21-1.84-4.71-3.35-6.76-5.33a72.19,72.19,0,0,1-6.51-7.45,6.34,6.34,0,0,1-1.52-5.08,19.21,19.21,0,0,1-4.83-1.93,43.22,43.22,0,0,0-5.88-2.49c-1.84-.76-3.67-1.55-5.51-2.32-.45-.17-.9-.32-1.34-.5a74.77,74.77,0,0,0-12.58-4.41c-2.75-.61-5.53-1.12-8.35-.5a11.07,11.07,0,0,0-5.86,3.19,18.3,18.3,0,0,0-4.05,7.2c-1.54,4.8-3.17,9.56-3.85,14.61-.64,4.79-1.67,9.53-2.5,14.3-.16.93-.17,1.87-.25,2.81.12-.14.25-.28.37-.43-.92,2.36-7.86,17-8.53,18.34-2.59,5-5.14,10.06-7.73,15.08a23.12,23.12,0,0,0-2.43,6.27,4,4,0,0,1-.46,1v2.31a17.63,17.63,0,0,0,1.71,1.42c3.88,2.51,7.74,5.07,11.71,7.43,3.61,2.16,7.36,4.08,11,6.13a1.13,1.13,0,0,0,1.76-.42q1.86-2.68,3.83-5.29c1.91-2.53,3.84-5.05,5.82-7.53,1.47-1.85,3-3.64,4.56-5.45,1.19-1.42,2.46-2.78,3.56-4.26,2.41-3.22,4.65-6.57,7.14-9.73,1.83-2.33,3.93-4.45,6-6.62a4.05,4.05,0,0,1,3.76-1.33c4.1.66,8.22,1.23,12.32,1.93,3.25.55,6.47,1.32,9.72,1.84,3.45.55,6.92.95,10.38,1.36,2.14.26,4.29.46,6.44.62a36.73,36.73,0,0,0,10.56-.86c6.32-1.37,11.88-4,15.58-9.66a34.61,34.61,0,0,0,4.13-7.21A44.2,44.2,0,0,1,184.21,167.44Z"/><path class="cls-5" d="M142.64,136.33a19.21,19.21,0,0,1-4.83-1.93,43.22,43.22,0,0,0-5.88-2.49c-1.84-.76-3.67-1.55-5.51-2.32.2-.68.41-1.35.61-2,.76-2.57,1.51-5.15,2.3-7.71a19.62,19.62,0,0,1,1-2.62c2.29-4.72,4.55-9.46,6.93-14.14,3.74-7.39,9.14-13.46,15.32-18.87,1.3-1.14,2.65-2.22,4-3.28a2.64,2.64,0,0,1,2.39-.69,1.75,1.75,0,0,1,1.43,2A3.71,3.71,0,0,0,161.4,85a11.36,11.36,0,0,1,1.35,2.67,6.6,6.6,0,0,0,3.7,4.17c2.74,1.14,5.45,2.46,8.43,2.77,4.84.49,9.36-.25,13.06-3.83a21,21,0,0,0,4-4.87c1.22-2.21,3.31-2.59,5.31-1A81.38,81.38,0,0,1,212,99.85c2,2.78,4.42,5.31,6.1,8.35,3.2,5.8,6.13,11.71,7.59,18.24a35.11,35.11,0,0,1,.57,10.13c-.37,5.77-2.25,11-4.65,16.18-3.93,8.44-10.7,13.28-19.56,15.47-.51.13-1,.2-1.55.3a3.89,3.89,0,0,0-2.39-1.64c-1.47-.39-2.94-.77-4.38-1.26q-5.8-2-11.59-4.05a12.49,12.49,0,0,1-2.86-1.28,30.3,30.3,0,0,0-7.89-3.61c1.07-1.35.52-2.52-.49-3.59,1.33-1,1.61-1.41,1.67-2.66a3.8,3.8,0,0,0,0-1.43,4.81,4.81,0,0,1,.33-3.13,22.31,22.31,0,0,1,.86-2.54c.93-2.17,1.84-4.36,3.73-5.93-.12.7.32,1,.86,1.31,1.74,1,3.41,2.11,5.17,3.09,4.81,2.68,9.84,4.56,15.47,4.58,4.3,0,7.23-2.51,8.69-6.07a20.23,20.23,0,0,0,1.48-8.11c0-1.48-.11-3-.27-4.43a34.63,34.63,0,0,0-.83-5.49c-.83-2.88-1.91-5.68-2.95-8.49a4.36,4.36,0,0,0-1.17-1.6,2,2,0,0,0-2.49-.32c-1.12.62-1.51,1.55-1.06,3.07.67,2.33,1.5,4.63,2.11,7a36.76,36.76,0,0,1,.92,10.09,16.54,16.54,0,0,1-1.17,5.86,3.31,3.31,0,0,1-3.63,2.41,13.89,13.89,0,0,1-3.53-.45c-2.64-.82-5.23-1.78-7.83-2.73-2.11-.77-4.19-1.6-6.28-2.42a1.21,1.21,0,0,0-1.71.47,5.62,5.62,0,0,1-1.39,1.14,3.85,3.85,0,0,0-2.11-2.64c-1.28-.69-2.48-1.53-3.73-2.28a2.13,2.13,0,0,0-2.89,2.89c.32.58.66,1.14,1,1.7.91,1.46.92,1.45-.06,2.81-.56-.45-1.08-.93-1.66-1.33-1.44-1-2.77-2.07-4.7-2.08a2.37,2.37,0,0,0-2,3.66c.23.38.48.75.78,1.21a9.47,9.47,0,0,1-2.15,0A2,2,0,0,0,158,141a2.28,2.28,0,0,0,0,2.67,9,9,0,0,0,1,1.35.81.81,0,0,1,.12,1.15c-.45.64-.87,1.3-1.31,1.95-.09,0-.21,0-.28-.07-4.06-3.13-7.88-6.49-10.6-10.93-1.1-1.79-2.19-2-4-.86A1.15,1.15,0,0,1,142.64,136.33Z"/><path class="cls-6" d="M87.64,166.29c1.53-1.71,3-3.53,4.62-5.1,6.92-6.53,14.71-11.45,24.34-12.86,4.44-.65,8.87-1.44,13.33-1.86a46.57,46.57,0,0,1,7.45.26c1.37.08,2.74.32,4.12.46s2.29,1,2.27,2.27a2,2,0,0,1-1.38,2,6,6,0,0,1-2,.31,41.2,41.2,0,0,1-4.44-.29,37.66,37.66,0,0,0-11.41.53c-3.2.53-6.41,1-9.58,1.7-5.45,1.16-10.13,3.9-14.63,7.07-5.52,3.9-9.58,9-13.09,14.7a11.08,11.08,0,0,1-.7,1.08c-1,1.32-1.86,1.53-3.52,1a2.71,2.71,0,0,1-.18-3.43c1.36-2.29,2.77-4.55,4.15-6.81Z"/><path class="cls-6" d="M171.36,156.68a30.3,30.3,0,0,1,7.89,3.61,12.49,12.49,0,0,0,2.86,1.28q5.79,2.07,11.59,4.05c1.44.49,2.91.87,4.38,1.26a3.89,3.89,0,0,1,2.39,1.64,2.45,2.45,0,0,1-1.63,2.69,44.2,44.2,0,0,1-14.63-3.77c-5-2.19-10.16-4.2-15.19-6.42a47.83,47.83,0,0,1-11.59-6.83c-2.21-1.84-4.71-3.35-6.76-5.33a72.19,72.19,0,0,1-6.51-7.45,6.34,6.34,0,0,1-1.52-5.08,1.15,1.15,0,0,0,.28-.09c1.79-1.16,2.88-.93,4,.86,2.72,4.44,6.54,7.8,10.6,10.93.07.06.19.05.28.07-.34,1.65.61,2.66,1.84,3.42,2.92,1.8,5.88,3.53,8.83,5.3A2.16,2.16,0,0,0,171.36,156.68Z"/><path class="cls-6" d="M177.82,136.29a5.62,5.62,0,0,0,1.39-1.14,1.21,1.21,0,0,1,1.71-.47c2.09.82,4.17,1.65,6.28,2.42,2.6,1,5.19,1.91,7.83,2.73a13.89,13.89,0,0,0,3.53.45,3.31,3.31,0,0,0,3.63-2.41,16.54,16.54,0,0,0,1.17-5.86,36.76,36.76,0,0,0-.92-10.09c-.61-2.35-1.44-4.65-2.11-7-.45-1.52-.06-2.45,1.06-3.07a2,2,0,0,1,2.49.32,4.36,4.36,0,0,1,1.17,1.6c1,2.81,2.12,5.61,2.95,8.49a34.63,34.63,0,0,1,.83,5.49c.16,1.47.24,3,.27,4.43a20.23,20.23,0,0,1-1.48,8.11c-1.46,3.56-4.39,6.09-8.69,6.07-5.63,0-10.66-1.9-15.47-4.58-1.76-1-3.43-2.09-5.17-3.09-.54-.31-1-.61-.86-1.31Z"/></g><g id="Layer_14_Image" data-name="Layer 14 Image"><path class="cls-7" d="M42.08,212.58s.11,0,.13-.05c1.35-2.69,2.95-3.43,5.95-2.71a27.17,27.17,0,0,1,7.58,3.34c3.28,2,6.58,3.94,9.87,5.9.28.16.58.31,1,.51a49.78,49.78,0,0,0,5.35-9.7l4.36,2.44A82.59,82.59,0,0,1,71,222.4c3.1,1.94,6.16,3.87,9.37,5.87,2.09-3,3.75-6.38,5.89-9.63l3.89,2.27c-1.44,3.19-3.23,6.11-4.81,9.25,1.82,2.33,1.34,4.78.09,7.21-.81,1.57-1.62,3.14-2.51,4.67a4,4,0,0,1-4.46,2.06c-4.24-.51-7.63-2.68-11-5-3.82-2.64-7.55-5.42-11.37-8.06-2.86-2-5.22-4.51-7.86-6.73a16.44,16.44,0,0,1-5.92-9.56c0-.06-.14-.1-.21-.15Z"/><path class="cls-7" d="M236.5,162.65a2,2,0,0,0,.26-.41c.65-2.82,2.33-5.2,3.37-7.85,1.92-4.92,3.91-9.81,5.87-14.72,1-2.46,2-4.92,2.95-7.38.22-.56.34-1.16.58-1.71A108.48,108.48,0,0,0,254.08,119c.43-1.36,1.54-2,2.57-1.66a2.34,2.34,0,0,1,1.21,3.1c-.8,2.45-1.6,4.91-2.32,7.38s-1.31,5-2.07,7.54a209.68,209.68,0,0,1-9.58,25.73c-.71,1.55-1,3.31-2.4,4.52-.19,1.37-1.05,2.64-.4,4.15,1,2.47.62,4.95-.18,7.41a54.28,54.28,0,0,1-7.07,13.7,68.09,68.09,0,0,1-10.57,11.54,71.85,71.85,0,0,1-12.89,9.08c-1.86,1.07-3.64,2.29-5.48,3.4s-3.6,2.15-5.43,3.18a1.78,1.78,0,0,1-2.34-.32,1.89,1.89,0,0,1-.06-2.39,9.36,9.36,0,0,1,1.94-1.66c5.62-3.81,11.44-7.35,16.85-11.44,8.29-6.25,15-13.9,19.28-23.53.54-1.21.86-2.52,1.37-3.75,1.16-2.84-1-7-3.39-8.28-.72-.39-1.43-.78-2.17-1.11a5.46,5.46,0,0,0-3.21-.37,18.78,18.78,0,0,0-8.11,3.41c-5,3.61-10.08,7.18-15.09,10.79-2.33,1.69-4.57,3.5-6.92,5.16a42.12,42.12,0,0,1-14.43,6.15c-6.24,1.52-12.57,2.5-18.86,3.73a58.36,58.36,0,0,0-16.65,5.67,49.06,49.06,0,0,0-15.17,12.38,30.41,30.41,0,0,0-3,4.72A102.83,102.83,0,0,0,122.65,233a7.94,7.94,0,0,1-.78,1.67,2.54,2.54,0,0,1-3.08,1.19,2.67,2.67,0,0,1-1.2-2.85,42.33,42.33,0,0,1,3.36-11.5c1.47-3.17,2.88-6.37,4.58-9.41a43.43,43.43,0,0,1,10.68-12.15A52,52,0,0,1,148.66,192a78.43,78.43,0,0,1,17.44-5.1A142.59,142.59,0,0,0,181,184c1.88-.54,3.81-.91,5.67-1.51a31,31,0,0,0,9.64-5.33c5-3.92,10.36-7.26,15.53-10.91,1.87-1.33,3.81-2.57,5.76-3.79a22.3,22.3,0,0,1,10.2-3.07,9.77,9.77,0,0,1,5.75,1.5C234.56,161.4,235.5,162,236.5,162.65Z"/><path class="cls-7" d="M203.34,66.89a30.09,30.09,0,0,1,2.72,1.34,4.53,4.53,0,0,1,2,4.71c-.41,3.7-2.65,5.94-6,7.12a25.69,25.69,0,0,1-3.69.75c-1,1.94-2,4-3.15,5.86A22.39,22.39,0,0,1,184,96.05a18.38,18.38,0,0,1-8.77.84c-.81-.11-1.63-.09-2.44-.22-5.78-.9-9.57-4.47-12.33-9.35a25.15,25.15,0,0,1-2.9-7.74,1.42,1.42,0,0,0-1.12-1.26,8.29,8.29,0,0,1-6.16-7.15,11.48,11.48,0,0,1,.15-4.26c.81-3.6,2.91-5.06,6.8-4.72.23-1.14.4-2.31.71-3.45.5-1.83,1-3.66,1.67-5.45a2.87,2.87,0,0,0-.23-2.68,13.13,13.13,0,0,1-1.47-3.56c-.86-3.86.75-6.84,3.66-9.21a16.88,16.88,0,0,1,7.62-3.18A30.92,30.92,0,0,1,178,34c4,.35,7.46,1.61,10.14,4.73a2.25,2.25,0,0,0,1.47.7,11.2,11.2,0,0,1,7.35,3.2c2.95,2.7,5.33,5.8,6.18,9.8a21,21,0,0,1,.37,4.55c0,2-.47,4-.23,6.12A32.34,32.34,0,0,1,203.34,66.89Zm-38.57-9.76a46.1,46.1,0,0,0-2.54,7.24c-.52,2.57-1.82,3.38-4.42,2.92-.52-.09-1.05-.1-1.57-.16s-.84.21-1.05.74c-1.41,3.74,1,6.83,4.33,6.74a2.55,2.55,0,0,1,2.65,1.79,14.27,14.27,0,0,1,.58,2.06,25.53,25.53,0,0,0,4.57,10A9.08,9.08,0,0,0,173,91.84a39.88,39.88,0,0,0,6.29.36,9.52,9.52,0,0,0,2-.19c3.71-.73,6.42-3.07,8.92-5.68a23.12,23.12,0,0,0,4.44-6.82,4.18,4.18,0,0,1,3-2.29c1.68-.54,3.38-1,5-1.7,1.18-.48,1.92-2.92,1.16-3.81-.92-1.06-2-2.11-3.59-2-1,.08-1.91.24-3.07.39-.07-3.82-1.09-7.59-.92-11.63-.66.34-1.08.57-1.51.76a15.22,15.22,0,0,1-8.8,1.34,23,23,0,0,1-7.27-2.53,2.28,2.28,0,0,0-1.89-.19,14.29,14.29,0,0,1-7.5.62C167.75,58.15,166.32,57.62,164.77,57.13Z"/><path class="cls-4" d="M125.13,49c.77-1.63,1.43-3.17,2.2-4.64A14,14,0,0,1,132,39a6.89,6.89,0,0,1,5.36-1.38,6.48,6.48,0,0,1,4.68,5.2c.52,2.74,0,5.41-.24,8.11a44.27,44.27,0,0,1-4.13,14,51.51,51.51,0,0,1-2.79,4.82c-.51.86-1.1,1.67-1.63,2.53-1.38,2.27-2.82,2.62-5.38,2.1a25.44,25.44,0,0,1-7-3.1,30,30,0,0,1-7-5c-3.74-3.71-6.88-7.89-8-13.16a12.6,12.6,0,0,1,1.05-8.65,6.74,6.74,0,0,1,6.83-3.41c4.84.63,8.17,3.42,10.92,7.15C124.82,48.47,124.93,48.68,125.13,49Z"/><path class="cls-7" d="M174.21,157.59a8.43,8.43,0,0,1,1.12.88,1.58,1.58,0,0,1,.45,1.82,1.85,1.85,0,0,1-1.68,1.33,8,8,0,0,1-4.07-1.19c-2.43-1.31-4.85-2.67-7.19-4.13a47.13,47.13,0,0,1-3.76-2.86c-.6-.46-1.21-.93-1.79-1.42a4,4,0,0,1,.4-6.77c-.4-.42-.78-.82-1.15-1.23-1.93-2.15-1.37-4.29,1.35-5.17.5-.16,1-.26,1.52-.39a11.42,11.42,0,0,1-.41-1.75,3.7,3.7,0,0,1,3.68-4.19,36.62,36.62,0,0,1,3.72.21,1.09,1.09,0,0,0,.07-.32,3.8,3.8,0,0,1,3.6-4.51,7.72,7.72,0,0,1,4.64,1.17,23.59,23.59,0,0,1,5,4.52,9.77,9.77,0,0,0,1.24,1.17,2.35,2.35,0,0,1,.54,3.62c-1.16,1.69-2.29,3.41-3.44,5.12a21.32,21.32,0,0,0-3.51,10.77C174.46,155.41,174.31,156.54,174.21,157.59Zm-.83-17.32c-1.29.59-2.35.1-3.43-.65-1.37-1-2.8-1.81-4.25-2.63a3.07,3.07,0,0,0-2.6-.33,26.45,26.45,0,0,0,3.22,3.42,8.65,8.65,0,0,1,1.55,1.47,1.74,1.74,0,0,1-.07,2.25,1.8,1.8,0,0,1-2.29.55c-.47-.21-.89-.53-1.35-.78a5,5,0,0,0-3.39-.82,7.14,7.14,0,0,0,1.7,1.29c.84.43,1.73.77,2.6,1.13a2.1,2.1,0,0,1,1.43,1.64c.22,1.53-1,2.4-2.75,2.09-1.14-.19-2.32-.23-3.67-.36,2.3,3.21,5.51,4.69,8.65,6.38.12-.78.26-1.48.34-2.19a24.67,24.67,0,0,1,3.15-10.17c.43-.73.81-1.49,1.22-2.23l.2-.13-.13-.14Zm3.22-3.92c-1.8-1.69-3.18-3.75-5.85-4.4a9.39,9.39,0,0,0,2,3.71c.76,1.05,1.64,2,1.59,3.54Z"/><path class="cls-7" d="M155.35,109.64c-.41,2.15-.76,4.32-1.25,6.45a140.38,140.38,0,0,1-4.6,15.57,33.91,33.91,0,0,1-2,4.29,4.36,4.36,0,0,1-1.31,1.46,1.9,1.9,0,0,1-2.4-.14A2,2,0,0,1,143,135c.32-.94.72-1.86,1.09-2.79a169.11,169.11,0,0,0,6.23-19.4c.36-1.33.59-2.69.93-4a2.16,2.16,0,0,1,1.55-1.87,2.06,2.06,0,0,1,2.4,1.72,5.67,5.67,0,0,1,0,1Z"/><path class="cls-7" d="M224.33,123.73c-.62-1.62-1.18-3.16-1.78-4.68a2.92,2.92,0,0,1-.2-2.55c1.54-3.26,3-6.57,4.49-9.84a1.83,1.83,0,0,1,2.32-1.16,2,2,0,0,1,1.13,2.48c-.56,1.71-1.22,3.39-1.86,5.08C227.08,116.6,225.71,120.14,224.33,123.73Z"/><path class="cls-7" d="M177.57,85.89c-3.72-.29-7-1.38-9.15-4.62a5.69,5.69,0,0,1-1.13-3.34,2.06,2.06,0,0,1,1.45-2.07,2.12,2.12,0,0,1,2.27.86,3.27,3.27,0,0,1,.42.75c1.26,3,4.75,4.12,7.55,3.7a10.54,10.54,0,0,0,2.84-.89,5.85,5.85,0,0,0,1.6-1.39,2,2,0,0,1,2.38-.81,1.9,1.9,0,0,1,1.11,2.36,5.57,5.57,0,0,1-1.11,2.11,9.63,9.63,0,0,1-5.71,3C179.25,85.74,178.38,85.79,177.57,85.89Z"/><path class="cls-7" d="M181,69.21c-.12,1.28-.2,2.57-.37,3.84a2.62,2.62,0,0,1-2.66,2.47A2.59,2.59,0,0,1,175.46,73a4.18,4.18,0,0,1,0-1c.17-1.42.31-2.84.57-4.24a3,3,0,0,1,1.48-2.32,2.23,2.23,0,0,1,3.37,1.61,12.74,12.74,0,0,1,0,2.14Z"/><path class="cls-7" d="M172.55,66.34a2.57,2.57,0,0,1-2.44,2.5,2.7,2.7,0,0,1-2.44-2.71,2.44,2.44,0,1,1,4.88.21Z"/><path class="cls-7" d="M190.74,69.8a2.27,2.27,0,0,1-2.37,2.32,2.45,2.45,0,0,1,0-4.88A2.41,2.41,0,0,1,190.74,69.8Z"/></g></g></svg>