<?xml version="1.0" encoding="utf-8"?>
<!-- Generator: Adobe Illustrator 22.0.1, SVG Export Plug-In . SVG Version: 6.00 Build 0)  -->
<svg version="1.1" id="Layer_1" xmlns="http://www.w3.org/2000/svg" xmlns:xlink="http://www.w3.org/1999/xlink" x="0px" y="0px"
	 viewBox="0 0 253.4 237.1" style="enable-background:new 0 0 253.4 237.1;" xml:space="preserve">
<style type="text/css">
	.st0{fill:#FFFFFF;}
	.st1{fill:#F0EFF4;}
	.st2{fill:#ededf2;}
	.st3{fill:#865cd0;}
	.st4{fill:#ededf2;}
	.st5{fill:#212121;}
	.st6{fill:#212121;}
	.st7{fill:#817790;}
	.st8{fill:#865cd0;}
	.st9{fill:#212121;}
</style>
<title>Asset 2a-how-rb-works</title>
<g id="Layer_2_1_">
	<g id="Layer_31_Image">
		<path class="st0" d="M244.9,124.3c-0.1-1.9-0.2-3.8-0.3-5.8c-0.1-2.2-0.2-4.3-0.3-6.5l-0.1-2.2c-0.1-1.2-0.1-2.3-0.3-3.4
			c-0.7-6.8-1.4-13.7-2.7-20.5c-1.1-5.2-2.6-10.4-4.6-15.3c-1.8-4.8-4.3-9.3-6.4-14c-3.1-6.7-7.3-12.9-12.4-18.2
			c-2.6-2.7-5.6-5-8.4-7.5c-6-5.2-12.8-9.3-19.7-13.3c-4.6-2.7-9.4-4.8-14.3-7.1c-6.3-3-13-5.1-19.9-6.3c-5.6-1-11.3-1.7-17-2.3
			c-5.1-0.7-10.2-1.1-15.3-1.2c-5.4,0-10.8,0.7-16.1,1.2c-4.7,0.4-9.4,1-14.1,1.9C86.1,5.2,79.3,7,72.4,8.7
			c-2.3,0.5-4.5,1.2-6.7,2.2c-9,4.3-16.2,11.1-23.5,17.7c-6.2,5.6-11.1,12.3-16,19c-6.4,8.5-11.7,17.8-15.7,27.6
			c-2.6,5.9-4.8,12-6.7,18.2c-2.3,7.5-3.4,15.4-3.2,23.3c0.1,2.6,0.6,5.2,0.6,7.8c0,5.6,1.7,11,3,16.3c1.4,5.3,3.3,10.4,5.7,15.3
			c0.9,1.9,1.1,4.1,2.1,5.9c3.5,6.2,7.1,12.4,11,18.3c4.4,6.5,9.2,12.7,14,18.9c4.1,5.5,9.3,9.9,14.8,13.9c2.4,1.7,4.9,3.3,7.5,4.7
			c2.8,1.7,5.6,3.2,8.6,4.6c5.7,2.5,11.5,4.8,17.2,7c3.9,1.7,8,3.1,12.1,4.2c4.5,1,9.1,1.8,13.7,2.3c4.3,0.5,8.7,0.7,13.1,1
			c1.2,0.1,2.3-0.3,3.5-0.3c2.5,0.1,5,0.3,7.5,0.4c2.7-0.1,5.3-0.2,7.9-0.5c4.7-0.6,9.4-1.2,14.1-2.1c8.5-1.8,16.7-5.1,24.1-9.7
			c6.1-3.6,12-7.6,17.8-11.9c4.7-3.5,9.1-7.4,13.6-11.2c0.6-0.6,9.8-13.8,14.2-19.3c0.5-0.7,1.3-1.2,2.2-1.2
			c3.1-6.2,5.7-12.6,8.6-19c2.3-5.4,4-11,4.9-16.7C243.9,138.5,245.3,131.5,244.9,124.3z"/>
		<path class="st0" d="M244.4,114c-0.6-0.1-1.3-0.2-1.9-0.2c-4.9-0.4-9.8-1-14.7-1.4c-5.5-0.4-11-0.4-16.5-0.8c-7-0.6-14-1.5-21.1-2
			c-4.8-0.4-9.6-0.3-14.4-0.6c-1.9-0.2-3.8,0.5-5.1,1.8c-3.2,2.9-6.5,5.5-9.7,8.4c-3,2.7-5.9,5.5-8.9,8.2c-0.9,0.8-1.9,1.5-2.9,2.2
			c-0.2,0.2-0.6,0.3-0.6,0.5c-0.8,2.4-2.9,2.1-4.8,2.4c-4,0.5-8,1-12.1,1.5c-0.7,0-1.4-0.1-2.1-0.3c-1.2-0.2-2.4-0.4-3.6-0.4
			c-0.9,0.2-1.9-0.3-2.1-1.3c0-0.1,0-0.2,0-0.2c-0.4-1.6-1.2-2-2.5-1.1c-3.3,2.1-6.5,4.2-9.7,6.4c-2.2,1.5-3.3,3.9-4.1,6.4
			c-0.4,1.2-0.6,2.4-0.9,3.6c-0.5,2.1-0.8,4-3.1,5.3s-2.9,4.1-3.7,6.6c-0.2,0.7-0.6,1.4-1.2,1.9c-2.1,1.8-3.7,4.2-4.5,6.9
			c-0.7,2.4-0.1,3.4,2.4,3.5c2.1,0.2,4.2,0.3,6.2,0.1c1.3-0.1,2.9-0.2,3.5-1.9c0-0.2,0.4-0.3,0.6-0.3c0.3,0,0.6,0,0.9,0.2
			c2.8,1.5,4.4,0,6.1-2c2.2-2.8,5-5,8.3-6.4c3.1-1.2,6.3-0.9,9.5-0.7c0.9,0.1,1.9,0,2.8-0.3c8.6-3.6,18.2,14.1,18.2,15
			c-0.1,4.2-0.1,8.4-0.2,12.7c-0.2,0.9,0.4,1.7,1.3,1.9c0.1,0,0.2,0,0.3,0c8.4,0.9,16.7,1.8,25,2.6l35.9,3.7
			c0.6,0.1,1.2,0.2,1.8,0.4c3.1-4.7,6.3-9.2,9.9-13.5c0.4-0.5,1-0.9,1.6-1.1c1.4-1.8,3-3.4,4.8-4.9c1.2,0.3,1.4-2.8,1.7-3.8
			c0.8-2.9,2.5-5.6,1.7-8.9c0-0.9,0.3-1.8,0.8-2.5c3.7-7.4,5.4-15.4,6.6-23.4c0.6-4,1-8,1.5-12C245.1,121.8,244.7,117.9,244.4,114z"
			/>
	</g>
	<g id="Layer_30_Image">
		<path class="st0" d="M150,98.1v1c-0.7,0.5-1.4,0.8-2.2,1c-3.9,0.2-7.8,0.3-11.7,0.3c-1.1,0-1.4,0.5-1.2,1.5
			c0.2,1.2,0.4,2.3,0.4,3.5c0.2,2,0.3,3.9,0.2,5.9c-0.2,1.8-15.1,2.2-18.8,2.3c-8.6,0.3-17.3,0.8-25.9,1.2
			c-11.6,0.5-23.1,1-34.6,1.6c-11.9,0.6-23.8,1.3-35.7,2.1c-6.2,0.4-12.3,0.9-18.5,1.4c-1,0.1-1.6-0.2-1.7-1.2
			C0.1,118,0,117.3,0,116.5c0.2-3.1,0.4-6.2,0.7-9.3c0-1.5,0.2-3,0.4-4.4c2-6.8,4-13.7,6.2-20.4c1.1-3.5,9.3-11.2,10.9-14.9
			c-2.5-13,4.9-10.4,7.4-15.5c0.6-1.3,1.3-2.6,3.2-2.2c0.2,0,0.6-0.2,0.9-0.3c1.8-0.8,3.6-1.6,5.5-2.2c5.3-1.3,10.7-2.5,16-3.6
			c3.8-0.8,7.7-1.4,11.6-1.8c1.3-0.2,1.6-0.5,1.5-1.7c-0.6-8.6-1.1-17.1-1.6-25.7c-0.1-1.2,0.5-2.4,1.6-3c3-1.9,6.3-3.2,9.8-3.9
			c8.6-1.9,17.2-3.9,25.8-5.4c8.1-1.4,16.3-2.4,24.5-2.1c3.8,0.2,7.6,0.4,11.4,0.7c2.2,0.2,4.3,0.5,6.5,1c0.6,0.1,1.4,0.8,1.5,1.3
			c0.3,3.3,0.4,6.6,0.6,9.9c0.7,8.8,1.5,17.5,2.1,26.3c0.5,6.9,0.7,13.8,1.1,20.8c0.6,11,1.3,22,2,32.9
			C149.6,94.7,149.9,96.4,150,98.1z"/>
	</g>
	<g id="Layer_29_Image">
		<path class="st1" d="M125.7,93.8c0.2,2.4,0.2,4.9,0.1,7.4c0,0.3-0.8,0.8-1.2,0.8c-2,0.1-50.7,2.5-50.9,2.2
			c-1-1.7-14.5-0.6-19.7-0.2s-10.2,0.7-15.4,1c-4.3,0.2-8.5,0.5-12.8,0.6c-1.9,0.1-3.8-0.2-5.8-0.3c-0.5,0-1.2,0.1-1.5,0.4
			c-1.3,1.9-3,1.3-4.6,0.8c-1.2-0.4-2.7,0.2-3.6-1.2s-1.8-2.5-1.7-4.2c0-2.8-0.4-5.5-0.6-8.3c0-0.2,0-0.3-0.1-0.5
			c-1.9-2.5-1-5.2-0.9-8c0.1-2.4-0.1-4.8-0.1-7.2c0-0.6-0.1-1.2-0.1-1.8c0-5.5,0.1-11.1,0-16.6c-0.1-4.4-0.4-8.8-0.6-13.1
			C6.1,44.5,6.4,44,7.7,44c3.8-0.1,7.6-0.3,11.4-0.6c4-0.3,8-0.8,11.9-1.2c1.9-0.2,3.7-0.3,5.6-0.4c3.4-0.1,6.9-0.1,10.3-0.4
			c5-0.3,10-0.9,15-1.2c3-0.2,5.9-0.1,8.9,0c1.6,0,2.8,0.9,6,0.9c2,0,3.9-0.4,5.9-0.5s4.2,0,6.3-0.2c4.4-0.3,8.8-0.8,13.1-1.2
			c2.2-0.2,4.3-0.7,6.5-0.7c4.3,0,8.7,0.2,13,0.3c1.1,0,1.4,0.4,1.5,1.5c0.1,2.9,0.3,5.8,0.6,8.6c0.4,4.2,1.1,8.4,1.6,12.6
			c0.2,1.8,0.3,3.6,0.4,5.4c0.1,2.3,0,4.6,0,6.9c0,1.5-0.1,3.1-0.2,4.6c-0.3,1.7-0.9,3.3-1.2,4.9c-0.1,0.9-0.1,1.7,0,2.6
			C124.1,89.5,125.6,92,125.7,93.8z M112,69.3h0.3c0-0.9,0-1.8,0-2.7c0.1-1.4,0.2-2.8-2-2c-0.7,0.1-1.4,0.1-2.1,0
			c-4.3,0.1-8.7,0.1-13,0.4s-8.5,0.8-12.7,1.3c-0.3,0-0.8,0.6-0.8,1s0.2,1,0.2,1.6c0.3,7.3,0.7,14.5,1,21.8c0.1,3.1,0.2,6.2,0.4,9.3
			c0,0.4,0.5,1,0.8,1c3.4-0.1,6.8-0.3,10.2-0.6c6.2-0.4,12.5-0.9,18.7-1.3c1.2-0.1,1.6-0.6,1.5-1.6c-0.2-2.6-0.4-5.1-0.7-7.7
			C113.2,83,112.6,76.2,112,69.3z M44.8,93.7v-0.2c1.9,0,3.9,0.1,5.8,0c6.8-0.2,13.5-0.4,20.3-0.6c1.2,0,2-0.5,2-1.9
			c-0.1-8.5,0-17-0.2-25.4c-0.1-3.8-0.8-7.7-1.1-11.5c-0.1-1.1-0.5-1.6-1.7-1.6c-1.8,0-3.5-0.2-5.3-0.2c-9.3,0.3-18.6,0.6-27.9,1.1
			c-6.3,0.3-12.5,1.1-18.8,1.6c-1.4,0.1-2,0.9-2,2.2c-0.1,3-0.3,6-0.3,9c0.1,8.1,0.3,16.1,0.6,24.2c0.1,3.1,1.5,4.2,4.7,4.1
			C28.9,94.1,36.8,93.9,44.8,93.7z"/>
		<path class="st2" d="M130,90c-4.4,2.2-5.9-0.5-6-4.1c-0.1-0.9-0.1-1.7,0-2.6c0.3-1.7,0.9-3.3,1.2-4.9c0.2-1.5,0.3-3.1,0.2-4.6
			c0-2.3,0.1-4.6,0-6.9c0-1.8-0.2-3.6-0.4-5.4c-0.5-4.2-1.1-8.4-1.6-12.6c-0.3-2.9-0.5-5.8-0.6-8.6c0-1.1-0.4-1.5-1.5-1.5
			c-4.3-0.1-8.7-0.3-13-0.3c-2.2,0-4.3,0.5-6.5,0.7c-4.4,0.4-8.8,0.8-13.1,1.2c-2.1,0.2-4.2,0-6.3,0.2S78.6,41,76.6,41
			c-3.2,0-4.6-2.7-3.3-5.6c0.2-1,0.4-2,0.3-3c0-0.5-0.1-1.1-0.1-1.6c-0.1-1-0.1-1.9-0.2-2.9c0-0.4-0.1-0.9-0.1-1.3
			C73.1,25.7,73,24.9,73,24c0-0.6-0.1-1.3-0.1-1.9s-0.1-1.1-0.2-1.6c-0.1-1.2-0.1-2.3-0.2-3.5l-0.2-1.9c0.1-3.2,0.1-3.3,3.2-3.5
			c5.8-0.4,11.6-0.8,17.4-1.2c6-0.3,12-0.5,18-0.9c1.5-0.1,3-0.9,4.5-1.2c1-0.1,1.9-0.2,2.9-0.2c3.7-0.3,7.3-0.7,11-1.1
			c0.7-0.1,1.5-0.2,1.4,0.9c0,0.1,0.5,0.4,0.7,0.4c0.9,0,1.8,0,2.7-0.1C136,8,137,9,137,11s0.3,4,0.4,6c0.2,3.6,0.4,7.3,0.6,10.9
			c0.1,1.3,0.3,2.6,0.5,4c0.1,0.4,0.1,0.8,0.1,1.3c-0.9,6.4-1.1,12.9-0.6,19.4c0.2,3.5,0.3,7,0.7,10.4c0.3,2.6,1.3,5,1.8,7.6
			c0.6,3.6,1,7.2,1.4,10.8c0.1,1.4,0,2.8-0.4,4.1c-0.5,1.7-1.2,3.4-3.6,3.3c-0.5,0.1-0.9,0.2-1.4,0.4l-2.9,0.6l-1.3,0.1h-1L130,90z
			 M97.7,18.7c0.3,4.2,0.7,7.9,1,11.6c0.1,1.1,0.5,1.5,1.6,1.4c2.5-0.2,5-0.5,7.5-0.6c1.3,0,1.7-0.5,1.6-1.7
			c-0.2-3.8-0.3-7.7-0.3-11.5c0-1.3-0.5-1.7-1.7-1.6c-2.5,0.2-5,0.5-7.5,0.5C98,16.7,97.3,17.3,97.7,18.7z M80.7,27.7
			c0,1.4,0,2.5,0,3.7c-0.1,1.3,0.5,1.7,1.7,1.6c2.3-0.2,4.7-0.5,7-0.6c2.2-0.1,2.3-0.1,2.1-2.3c-0.2-3.9-0.5-7.7-0.7-11.5
			c-0.1-1-0.5-1.3-1.4-1.3c-2.3,0.2-4.7,0.3-7,0.5s-2.2,0.2-2.1,2.5C80.4,22.8,80.6,25.4,80.7,27.7L80.7,27.7z M118.4,23L118.4,23
			c0,2.1,0,4.2,0,6.3c0,0.8,0.2,1.2,1.1,1.1c3-0.2,6.1-0.4,9.1-0.6c0.8,0,1.1-0.4,1-1.2c-0.3-4.1-0.5-8.2-0.7-12.4
			c0-1-0.2-1.5-1.3-1.4c-2.8,0.3-5.6,0.4-8.3,0.7c-0.4,0-0.9,0.8-0.9,1.2C118.3,18.9,118.4,20.9,118.4,23z"/>
		<path class="st3" d="M53.1,25.7c-1.4,2.7-2.9,5.4-4.3,8.1c-0.4,0.7-0.8,1.2-1.6,0.4c-2.5-2.8-5.1-5.4-7.3-8.4
			c-0.8-1.4-1.2-2.9-1.1-4.5c0.1-2.6,2.4-3.7,4.7-2.7c1.4,0.7,2.6,1.9,3.2,3.4c-0.4,0,1.6-3.4,1.6-3.4c1-0.7,2.2-0.9,3.4-0.5
			c1.1,0.5,1.9,1.4,2,2.6C53.8,22.4,53.6,24.1,53.1,25.7z"/>
		<path class="st1" d="M73.3,27.8c0.1,1,0.2,2,0.2,2.9C72.5,29.8,72.8,28.8,73.3,27.8z"/>
		<path class="st1" d="M133.6,89.7l2.9-0.6C135.8,90.1,134.5,90.3,133.6,89.7z"/>
		<path class="st1" d="M72.9,23.9c0.1,0.9,0.1,1.7,0.2,2.6C73.1,25.6,73,24.8,72.9,23.9z"/>
		<path class="st1" d="M72.3,14.9l0.2,1.9L72.3,14.9z"/>
		<path class="st1" d="M72.6,20.4c0.1,0.5,0.1,1.1,0.2,1.6C72.8,21.5,72.7,20.9,72.6,20.4z"/>
		<path class="st1" d="M131.3,89.8h1l-0.5,0.5L131.3,89.8z"/>
		<path class="st4" d="M115.7,90.1c0.2,2.7-1.3,5.7-1.2,8.4c0.1,1.1-0.3,1.6-1.5,1.7c-6.2,0.4-12.5,0.9-18.7,1.3
			c-3.4,0.3-6.8,0.4-10.2,0.6c-0.3,0-0.8-0.7-0.8-1.1c-0.2-3.3-0.2-6.6-0.4-9.8c-0.3-7.7-0.6-15.3-1-23c0-0.6-0.3-1.1-0.2-1.7
			s0.5-1.1,0.8-1.1c4.2-0.5,8.5-1.1,12.7-1.4s8.7-0.3,13-0.4c0.7,0.1,1.4,0.1,2.1,0c2.2-0.8,3.7,0.7,3.6,2.2
			C113.9,66.8,115,82.8,115.7,90.1z"/>
		<path class="st5" d="M21,94.3c-3.1,0.1-4.6-1-4.7-4.1c-0.3-8-0.5-16.1-0.6-24.2c0-3,0.2-6,0.3-9c0-1.3,0.6-2.1,2-2.2
			c6.3-0.5,12.5-1.2,18.8-1.6c9.3-0.5,18.6-0.8,27.9-1.1c1.8-0.1,3.5,0.2,5.3,0.2c1.2,0,1.6,0.5,1.7,1.6c0.4,3.8,1,7.7,1.1,11.5
			c0.2,8.5,0.1,17,0.2,25.4c0,1.5-0.8,1.9-2,1.9C64.2,92.9,28.9,94.1,21,94.3z M43,90.3c9.3-0.3,17.1-0.6,24.8-0.8
			c1.4,0,1.8-0.4,1.7-1.8c-0.3-10-0.5-20-0.7-30c-0.1-2.3,0-2.3-2.4-2.2c-10.6,0.5-21.3,0.9-31.9,1.4c-4.6,0.2-9.2,0.5-13.8,0.9
			c-1,0.1-1.9,0.1-1.9,1.6c0.2,10,0.5,20,0.6,30c0,1.4,0.6,1.6,1.9,1.6C29.1,90.7,36.8,90.5,43,90.3z"/>
	</g>
	<g id="Layer_28_Image">
		<path class="st6" d="M31.4,108c-7.2,0.2-14.4,0.4-21.6,0.7c-1.4,0.1-1.8-0.3-1.9-1.8c-0.3-7.7-0.8-15.4-1.2-23.2
			C6.2,73.5,5.8,63.3,5.3,53.1c-0.1-2.7-0.1-5.3-0.2-8C5,44,5.7,43.1,6.7,43c1.4-0.3,2.7-0.5,4.1-0.6c18.4-1,36.8-2.1,55.2-3.1
			c1.8-0.1,3.7-0.1,5.5,0c0.9,0,1.2-0.3,1.1-1.2c-0.5-6.1-1-12.2-1.5-18.3c-0.2-2.7-0.2-5.5-0.3-8.2c0-1.3,0.4-2.3,1.8-2.5
			c3.4-0.7,6.8-1.2,10.3-1.6c12-0.7,24-1.1,36-1.6c2.9-0.1,5.8-0.4,8.7-0.5c2.9-0.1,5.6,0,8.4,0.2c1.8,0.1,2.6,1.2,2.8,3.4
			c0.5,9.2,1.1,18.3,1.6,27.5c0.8,15.3,1.6,30.5,2.4,45.7c0.1,1.9,0.2,3.8,0.2,5.6c0.1,2.6-1.2,3.9-3.7,4c-3.5,0.1-7,0.3-10.5,0.4
			c-1.3,0-1.6,0.6-1.5,1.8c0.2,2.1,0.2,4.2,0.2,6.3c0,1.7-0.6,2.3-2.3,2.4c-12.8,0.8-25.5,1.8-38.3,2.6c-5.8,0.4-11.6,0.5-17.4,0.8
			c-12.7,0.7-25.4,1.3-38.2,2L31.4,108z M9.7,46.1c-1.1,0-1.5,0.5-1.3,1.6c0.3,2.2,0.5,4.4,0.6,6.6c0.5,10.1,1,20.3,1.4,30.4
			c0.2,6.5,0.3,13,0.3,19.5c0,1,0.4,1.2,1.3,1.1c3-0.2,5.9-0.4,8.9-0.5c12.5-0.5,24.9-0.9,37.4-1.5c6.9-0.3,13.8-0.7,20.8-1.1
			c0.9,0,1.6-0.1,1.5-1.3c-0.3-7.8-0.7-15.6-0.9-23.4c-0.1-4,0.1-7.9,0.2-11.9c-0.1-1,0.7-1.9,1.7-1.9h0.1c0.7-0.1,1.5-0.4,2.2-0.4
			c9.2-0.6,18.3-1.1,27.5-1.6c3-0.2,3.6,0.5,3.8,3.4c0.7,11.2,1.4,22.3,2.1,33.4c0,0.9,0.3,1.2,1.3,1.2c1.4-0.1,2.8-0.2,4.2-0.2
			c1,0,1.3-0.4,1.3-1.4c0-0.6,0-1.2,0-1.8c-1-17.8-2-35.6-3-53.4c-0.1-2.3-0.3-2.3-2.6-2.2c-6.5,0.4-13,0.9-19.5,1.2
			c-11,0.4-22,0.5-33,1C50.8,43.8,13.4,46.1,9.7,46.1z M137.3,50.1c-0.8-14-1.5-26.9-2.2-39.7c-0.1-1-0.3-1.6-1.5-1.5s-2.6,0-3.9,0
			c-14.7,0.7-29.3,1.5-43.9,2.3c-3.3,0.2-6.6,0.6-10,0.9c-1,0.1-1.5,0.5-1.4,1.6c0.3,2.4,0.4,4.8,0.6,7.2c0.5,5.8,0.9,11.6,1.5,17.5
			c0,0.3,0.8,0.8,1.1,0.7c7.8-0.2,15.6-0.5,23.4-0.8c6.7-0.3,13.4-0.6,20.1-0.8c1.2-0.1,2.2,0.7,2.4,1.9l0,0
			c0.8,5.2,1.8,10.4,2.2,15.6c0.7,10.9,1,21.8,1.4,32.7c0,0.8,0,1.4,1.2,1.3c3.2-0.2,6.4-0.4,9.6-0.4c1.3,0,1.7-0.3,1.6-1.7
			C138.8,74.2,138,61.5,137.3,50.1z M113.9,92.8c-0.6-8.8-1.2-17.7-1.8-26.6c-0.1-1-0.3-1.4-1.4-1.3c-3.4,0.3-6.9,0.5-10.3,0.6
			c-1.4,0-1.8,0.3-1.7,1.8c0.5,5.5,0.8,11,1.2,16.6c0.4,5.3,0.8,10.6,1.2,15.9c0,0.7,0.2,1.2,1.1,1.1c3.5-0.3,7.1-0.5,10.6-0.7
			c0.9,0,1.2-0.4,1.2-1.3C113.9,97,113.9,95,113.9,92.8z M96.8,89.9c-0.5-8.4-0.9-15.6-1.2-22.7c0-1-0.3-1.4-1.4-1.3
			c-3.2,0.3-6.4,0.6-9.6,0.7c-1.4,0.1-1.9,0.7-1.8,2c0.2,3.4,0.3,6.8,0.4,10.1c0.3,7.2,0.6,14.4,0.8,21.6c0,1.3,0.4,1.8,1.8,1.7
			c3.5-0.3,6.9-0.6,10.4-0.7c1.2-0.1,1.4-0.5,1.3-1.6C97.2,96,97,92.3,96.8,89.9z"/>
	</g>
	<g id="New_group">
		<g id="Layer_26_Image">
			<path class="st7" d="M117.1,140.7c0-0.1,0-0.2,0-0.3c-2.4-6.2-1.2-12.2,0.8-18.2c0.3-1,0.8-1.9,1.2-2.8c1.7-4,4.8-7.2,8.7-9.1
				c2.7-1.3,5.6-2,8.5-2.1c2.5-0.1,4.9-0.2,7.4,0c8.3,0.3,14.4,4.4,18.3,11.7c1.6,3.1,1.4,6.3,1.1,9.6c0,0.7-0.2,1.4-0.2,2.1
				c-0.1,1.3-0.2,2.6-1.8,3c-0.4,0.1-0.7,0.6-1,1c-1.4,1.5-2.7,2.9-4,4.4c-0.4,0.5-0.6,1.1-0.6,1.7c0,2.9,0,5.8,0.2,8.7
				c0.2,3.8-0.3,7.6-0.6,11.4c-0.2,0.8,0,1.6,0.5,2.3c0.5,0.8,0.4,1.9-0.2,2.6c-0.3,0.5-0.6,1-0.9,1.5l-1.6,1.4
				c-1.2,1.3-2.8,2.2-4.5,2.6c-2.7,0.4-5.4,0.7-8.1,0.8c-3.5-0.1-6.9-1.1-9.9-2.9c-3.3-1.8-6.2-4.1-7.9-7.5
				c-2.2-4.2-2.9-8.7-1.2-13.3c0.3-0.6,0.2-1.4-0.2-1.9C119.5,145.3,118.1,143.1,117.1,140.7z"/>
			<path class="st8" d="M249.1,153.3c-0.9-0.1-3.2-0.2-3.6-0.3c-0.6-0.1-4.7-0.5-5.5-0.6c-0.4,0-2.6-0.2-3.2-0.3
				c-0.3,0-1.8-0.2-2.3-0.2l-13.2-1.2c-0.4-0.1-2.8-0.3-3.6-0.3c-0.4-0.1-4.5-0.5-5.2-0.5l-4.8-0.4l-3.9-0.4l-1-0.1l-1.6-0.1
				l-1.3-0.2l-1.9-0.1l-1.6-1.1l0,0c-0.1-0.6-0.6-0.6-1-0.5l-0.9-0.5c-0.6-0.9-0.9-2.1-0.8-3.2c0-0.6-0.2-1.1-0.5-1.6
				c-1.7-2.6-3.6-5.1-5.3-7.6c-1.2-1.8-2.3-3.6-3.4-5.4c-0.2-0.3-0.4-0.6-0.7-0.8c-0.8-0.5-1.7-1-2.5-1.4c-0.2-0.3-0.3-0.6-0.5-0.8
				c-1.3-0.8-2.3-2.1-2.8-3.6c-0.1-0.4-0.7-0.7-1.2-1s-0.8-0.2-1.1-0.4c-0.3-0.2-0.5-0.6-0.6-1c0-0.2,0.6-0.6,0.9-0.6
				c1.2,0,2.4,0,3.5,0.1c5.1,0.4,10.3,0.8,15.4,1.3c7.2,0.6,14.4,1.2,21.6,1.8c4.7,0.4,9.4,0.7,14.1,1.1c4,0.3,8,0.7,12,1
				c0.4,0,0.8,0.2,1.3,0.2c1.1,0.2,2.1,1,2.4,2.1c2.6,6.7,4.6,13.6,6.1,20.7c0.2,1.3,0.5,2.6,0.7,4c0.3,1.5-0.6,2.4-2.2,2.3
				C250.7,153.5,249.3,153.3,249.1,153.3z"/>
			<path class="st4" d="M117.1,140.7c1,2.4,2.4,4.5,4.1,6.5c0.5,0.5,0.6,1.3,0.2,1.9c-1.8,4.6-1,9.1,1.2,13.3
				c1.8,3.4,4.6,5.7,7.9,7.5c3,1.8,6.4,2.8,9.9,2.9c2.7-0.1,5.4-0.3,8.1-0.8c1.7-0.4,3.3-1.3,4.5-2.6l1.5-1.4c0.2,0.5,0.3,1,0.4,1.5
				c0.1,2.1,0.3,4.3,0.3,6.4c0,0.7,0.4,1.4,1.1,1.6c1.6,0.4,1.2,1.5,1.1,2.7c-0.5,0-0.9,0.1-1.4,0.1c-1.7,0-3.4,0-5.2,0
				c-3.2-0.1-6.4-0.2-9.6-0.3s-6.2-0.4-9.2-0.6c-4.9-0.5-9.8-0.6-14.7-0.6c-4.6,0-9.2-0.2-13.8-0.3c-1.3,0-2.7-0.1-4-0.3
				c-0.4-0.1-0.8-0.4-1-0.8c-1-3.1-0.3-6.5,1.7-9.1c0.8-1,1.8-1.7,2.7-2.6c0.5-0.4,0.8-0.9,1-1.5c0.2-2.3,1.6-4.3,3.7-5.2
				c0.8-0.4,1.3-1.2,1.2-2.1c-0.2-2.8,0.1-5.6,0.9-8.2c1.3-3.5,3.8-5.7,6.8-7.6C116.6,140.7,116.9,140.7,117.1,140.7z"/>
			<path class="st4" d="M174.2,156.5c2.1,0.1,4.3,0.2,6.4,0.4c1.6,0.2,2.9,0.8,2.7,2.9s-0.4,4.3-0.6,6.5c-0.1,1.2-0.3,2.4-0.3,3.7
				c-0.2,3.6-0.4,7.2-0.7,10.9c-0.1,1-0.2,2-0.3,3c-0.2,1.3-1.4,2-3,1.4c-2.9-1-6-1.5-9.1-1.5c-1.4-0.1-1.9-0.7-1.7-2
				c0.4-2.3,0.8-4.6,1.1-6.9c0-0.4-0.2-0.8-0.5-1c-0.8-0.4-1.3-1.4-1-2.3c0.2-1.7,0.4-3.5,0.6-5.2c0.3-2.5,0.6-5,1-7.4
				c0.3-1.7,1.1-2.2,2.8-2.2h2.6V156.5z"/>
			<path class="st4" d="M166.3,129.8l2.1-2.7C168.7,128.2,168.1,129,166.3,129.8z"/>
			<path class="st4" d="M246.6,153.1l-1-0.1l-1.9-0.2l-1.3-0.1l-2.3-0.2l-1.3-0.1l-1.9-0.2l-1-0.1l-1.3-0.1l-2.6-0.2l-1.9-0.2l0,0
				l-1.3-0.1l-2.2-0.2l-1.6-0.1l-1.9-0.2l-1.6-0.1l-1.3-0.2l-2.2-0.1l-1.3-0.2l-1.9-0.1l-1.9-0.2l-1.6-0.1l-2.3-0.2l-1-0.1
				c-0.6,0-1.3-0.1-1.9-0.2c-0.6,0-2.6-0.2-2.9-0.3l-1.6-0.1l-1.3-0.2c-0.6-0.1-5-0.1-5.7-0.2c-0.5-0.4-0.6,4-0.8,7
				c-0.2,2.8-0.3,5.5-0.7,8.3c-0.6,4-0.9,8-0.9,12c0.1,0.8,0.1,1.6,0,2.4c-0.6,2,0,3.8,0.3,5.7c0.1,0.4,0.1,0.8,0,1.1
				c0.4,0.7,0.5,1.5,0.5,2.3l0.6,0.1c3,0.4,6,0.8,9,1.1c1.4,0.2,2.8,0.2,4.1,0.4c2.1,0.2,4.1,0.4,6.2,0.6c1.2,0.1,2.4,0,3.6,0
				c0.5,0,0.9,0.1,1.4,0.2c1.3,0.6,2.8,0.8,4.2,0.7h0.2c2.2,0.1,4.4,0.2,6.6,0.4c1.3,0.1,2.6,0.4,3.9,0.5c2.7,0.2,5.4,0.3,8.2,0.4
				c0.4-0.1,0.8-0.4,1-0.8c0.2-0.9,0.3-1.8,0.4-2.7c0.2-1.2,0.4-2.4,0.6-3.6c0.5-2.7,1.1-5.4,1.6-8.1c0.4-1.9,0.6-3.8,0.9-5.7
				c0.5-2.9,1-5.8,1.3-8.7c0.2-2.2,0.3-4.4,1.1-6C247.2,155,246.9,154.1,246.6,153.1z M236.1,164c-0.4,2.1-0.6,4.3-0.8,6.5
				c-0.1,0.8-0.3,1.7-0.5,2.5c-0.4,1.2-1.7,1.9-3,1.5l0,0c-3.1-0.6-23.2-2.3-24.5-2.5c-3.1-0.4-3.9-1.6-3.6-3.8
				c0.1-0.7,0.2-1.5,0.2-2.2c0-0.6,0-1.2,0-1.8c-0.1-0.7-0.2-1.5-0.3-2.2c-0.2-1.7-1-3.9,0.8-4.2c0.7-0.1,2.8,0,3.5,0
				c0,0.1,2.6,0,2.6,0c3.5,0.1,5.1,0.3,8.6,0.5c1.7,0.1,3.7,0.4,5.4,0.6c0.7,0.1,2.1,0.4,2.8,0.4c1.4,0.2,2.4-0.2,3.8-0.1
				c0.5,0,2.6,0.5,3,0.4c0.7,0,0.1,0.7,1.1,1.5C236,161.9,236.3,163,236.1,164z"/>
		</g>
		<g id="Layer_25_Image">
			<path class="st6" d="M246.4,152.5l2.4,0.3c0.1,0.3,0.1,0.7,0.1,1c-1,9.6-2.7,19.1-4.5,28.6c-0.5,2.7-0.8,5.4-1.2,8.1
				c-0.3,2-0.6,2.2-2.6,2.1c-6.9-0.5-13.8-1-20.7-1.6c-9.4-0.8-18.8-1.5-28.1-2.4l-30.4-2.6c-1.1-0.1-2.2-0.2-3.4-0.3
				c-1.4,0-2.6-1-2.8-2.4c-0.4-1.7-0.6-3.4-0.7-5.1c0-10.8,0.1-21.5,0.1-32.2c0-0.3,0-0.5,0-1c-1.2,0.9-2.2,2-3.1,3.2
				c-0.3,0.3-0.5,0.8-0.8,1c-0.5,0.2-1.1,0.3-1.6,0.1c-0.6-0.2-0.9-0.9-0.6-1.5c0-0.1,0-0.1,0.1-0.2c0.2-0.5,0.5-0.9,0.9-1.4
				c6.1-7.1,12.1-14.4,18.8-21c2.1-2.1,4.2-4.3,6.3-6.5c1.2-1.2,1.4-1.2,2.8,0c3.4,2.9,6,6.6,8.6,10.2c3,4.1,5.7,8.5,8.5,12.7
				c1.5,2.3,3.1,4.5,4.7,6.8c0.4,0.6,0.7,1.2,1,1.8s0,1.4-0.6,1.7c-0.6,0.4-1.3,0.3-1.8-0.2c-0.4-0.4-0.8-0.8-1.4-1.6
				c-0.1,0.9-0.2,1.5-0.2,2.1c-0.7,10-1.3,20-1.9,30.1c-0.1,1.1,0,2.1,0,3.3c1.4,0.1,2.7,0.3,3.9,0.4l38.4,3.4c1,0.1,2,0.2,3.1,0.3
				c0.8,0.1,1-0.2,1.2-0.9c1.4-8.4,2.9-16.7,4.3-25.1c0.6-3.3,0.9-6.7,1.3-10.1C246.1,153.5,246.3,153.1,246.4,152.5z M165.2,183.4
				c0.1-1.6,0.2-3,0.4-4.3c0.7-7.2,1.3-14.3,2.1-21.5c0.2-2.4,1-3.1,3.5-3.4c0.3-0.1,0.7-0.1,1-0.1c3.3,0.2,6.6,0.3,10,0.6
				c2,0.2,2.5,0.9,2.7,2.9c0,0.3,0,0.6,0,1c0.1,7.5-0.5,15-1.1,22.5c-0.1,1.2-0.2,2.4-0.3,3.8l7.6,0.7c0-0.6,0-1,0-1.3
				c0.2-4.3,0.4-8.7,0.7-13c0.5-7.3,1-14.7,1.6-22c0.3-1.9-0.2-3.9-1.5-5.4c-0.5-0.6-0.9-1.3-1.3-2c-4.6-7.1-9-14.3-14.8-20.6
				c-1.2,1.3-2.4,2.6-3.6,3.8c-4.6,5-9.2,10-13.9,15c-0.7,0.7-1,1.7-1,2.6c0,5.4-0.1,10.8-0.1,16.3c0,6.1,0.1,12.2,0.2,18.4
				c0,1.4,0.3,2.9,0.4,4.3c0,0.6,0.5,1.1,1.1,1.1l0,0L165.2,183.4z M180.9,184.8c0.5-9.2,1.3-18.1,1.1-27.1
				c-3.8-0.5-7.5-0.6-11.3-0.5c-1.1,8.9-2,17.6-2.3,26.5L180.9,184.8z"/>
			<path class="st6" d="M202.5,157.1c2-0.2,4.1-0.3,6.1-0.3c6.2,0.3,12.3,0.8,18.5,1.2c2.5,0.2,4.9,0.5,7.4,0.8c0.3,0,0.6,0.1,1,0.1
				c2.2,0.4,2.5,0.8,2.6,3.1c0.1,4-0.4,8-1.4,11.8c-0.6,2.4-0.6,2.7-3.5,2.6c-4.7-0.3-9.4-0.7-14.1-1.1c-4.5-0.4-9-0.7-13.5-1.2
				c-3.9-0.4-4.1-0.4-3.9-4.2s0.4-7.6,0.7-11.4C202.3,158.1,202.4,157.7,202.5,157.1z M235.5,161.6c-10.2-1.1-20.2-2.2-30.3-2.2
				c-0.9,4.1-0.7,8-0.9,11.9c10,0.7,19.7,2.1,29.5,2.6C234.9,169.9,235.5,165.8,235.5,161.6L235.5,161.6z"/>
			<path class="st6" d="M138.9,162.3c0.1-1.6,0.3-3.2,0.4-4.8c0.1-1.4,0.5-1.9,1.3-1.9s1.3,0.7,1.1,2.1c-0.5,5.7-0.6,11.4-0.3,17.1
				c0.1,2.4,0.3,4.7,0.4,7.1c0,0.2,0.1,0.4,0.1,0.6c0,1.1-0.5,1.7-1.3,1.8s-1.4-0.5-1.4-1.6c-0.2-2.9-0.3-5.7-0.3-8.5
				c-0.1-2.2-0.1-4.4-0.1-6.6c0-0.6-0.2-1.2-0.7-1.7c-2-2.1-4.2-4.2-5.3-7c-0.4-0.8-0.7-1.7-0.9-2.6c-0.2-1,0.2-1.9,0.9-2
				c1-0.1,1.2,0.6,1.5,1.3c0.8,2.6,2.3,5,4.3,6.8L138.9,162.3z"/>
			<path class="st6" d="M209.1,76.5c-0.3,1.4-0.7,3.3-1.1,5.2c-1,5-1.9,9.9-2.8,14.9c0,0.4,0,0.9,0,1.3c0.1,0.7-0.4,1.3-1.1,1.3
				c0,0,0,0-0.1,0c-0.7,0.2-1.5-0.2-1.7-0.9c-0.2-0.6-0.2-1.3-0.1-1.9c1.2-6.3,2.5-12.6,3.8-18.9c0.1-0.6,0.3-1.3,0.4-1.9
				c0.3-1.2,0.7-1.6,1.5-1.5S209.1,74.9,209.1,76.5z"/>
			<path class="st6" d="M181.3,83.1v-0.5c0-1.3,0.4-1.8,1.3-1.9s1.3,0.5,1.5,1.7c0.2,1.6,0.4,3.2,0.8,4.8c0.9,3.9,1.9,7.8,2.9,11.7
				c0.3,1.2,0.1,1.9-0.7,2.2c-0.8,0.3-1.7-0.1-2-0.9c0-0.1-0.1-0.2-0.1-0.3c-0.4-1.3-0.8-2.5-1.1-3.8c-0.8-3.5-1.6-7.1-2.3-10.7
				C181.3,84.6,181.3,83.9,181.3,83.1L181.3,83.1z"/>
			<path class="st6" d="M230.4,88.9c-0.1,0.3-0.2,0.7-0.3,1c-1.8,4.2-3.7,8.5-5.6,12.7c-0.2,0.5-0.5,0.9-0.9,1.3
				c-0.4,0.3-1,0.3-1.4,0.2c-0.4-0.3-0.7-0.8-0.7-1.3s0.2-1.1,0.4-1.5c1.9-4.4,3.9-8.7,5.8-13.1c0.3-0.7,0.7-1.2,1.5-1.1
				S230.4,87.8,230.4,88.9z"/>
			<path class="st6" d="M178.6,168.5c0.7-0.1,1.4,0.4,1.5,1.1c0,0.1,0,0.2,0,0.3c0.1,0.9-0.6,1.6-1.5,1.7l0,0
				c-0.9,0-1.6-0.6-1.6-1.5V170C176.9,169.2,177.6,168.5,178.6,168.5C178.5,168.5,178.5,168.5,178.6,168.5z"/>
		</g>
		<g id="Layer_24_Image">
			<path class="st9" d="M145.6,202.9c-1.8-0.4-3.6-0.7-5.3-1.1c-0.5-0.1-0.9-0.3-1.4-0.5c-0.7-0.3-1.1-1-0.9-1.7
				c0.2-0.8,0.9-1.3,1.7-1.1c0.2,0,0.3,0,0.5,0.1l9,1.5c0.3,0,0.6,0.1,1,0.2c2.2,0.5,2.8,1.4,2.3,3.6c-0.8,3.3-1.7,6.5-2.6,9.8
				c-0.3,1.1-1,1.6-1.8,1.5c-0.9-0.2-1.5-1.1-1.3-2v-0.1c0.3-1.7,0.8-3.4,1.3-5.1c0.2-0.7,0.3-1.4,0.3-2.1l-1.8,1
				c-6.7,4-14,6.7-21.6,8.1c-15.7,2.9-32-0.1-45.5-8.6c-14.1-8.6-24-20.8-30.4-35.9c-4-9.4-6.2-19.4-6.5-29.6
				c-0.1-6.8,0.6-13.6,2-20.3c0.2-1,0.8-1.5,1.5-1.3c0.7,0.1,1.3,0.7,1.2,1.5c0,0.8-0.1,1.6-0.2,2.4c-0.5,2.4-0.8,4.9-1,7.3
				c-0.1,4.4-0.1,8.8,0.2,13.2c0.7,10.7,3.6,21.1,8.5,30.7c7,13.6,16.9,24.4,30.7,31.4c10.4,5.3,22.1,7.6,33.7,6.5
				c8.8-0.8,17.3-3.5,25-7.9c0.6-0.3,1.1-0.7,1.7-1.1L145.6,202.9z"/>
		</g>
	</g>
</g>
</svg>
