<svg xmlns="http://www.w3.org/2000/svg" viewBox="0 0 361.15 382.29"><defs><style>
.cls-1{opacity:1;}
.cls-2{fill:#ededf2;}
.cls-3{fill:#865cd0;}
.cls-4{fill:#817790;}
.cls-5{fill:#212121;}
.cls-6{fill:#212121;}
</style></defs><title>Asset 2sell-art-protection</title><g id="Layer_2" data-name="Layer 2"><g id="Layer_4_Image" data-name="Layer 4 Image" class="cls-1"><path class="cls-2" d="M81.82,354.77c.09-1.79-.17-3.45.35-5.19a6.07,6.07,0,0,0-.56-3.3,5.07,5.07,0,0,1-.12-2.76,14.61,14.61,0,0,0,.21-4.84,5.55,5.55,0,0,0-3.55-4.2,23.21,23.21,0,0,0-3.56-.91c-.47-.75-.11-1.44,0-2.19a8.53,8.53,0,0,0-.71-6.38,7.14,7.14,0,0,0-6.22-3.86,14.53,14.53,0,0,0-7.87,2.18c-1.66.93-3.27,1.95-4.89,3-.94.6-1.85,1.26-2.74,1.87-3.07-2.85-9.35-13.44-10.7-18A28.88,28.88,0,0,1,48,306.82c7.09-2.51,14.21-4.92,21.33-7.35,3.34-1.13,6.71-2.15,10-3.33a2.49,2.49,0,0,1,3.09.67,7,7,0,0,0,.61.61c3.29,3.33,7,6.25,10.42,9.38s7.33,5.47,11.08,8.08c1.11.76,1.63.68,2.47-.27a5.53,5.53,0,0,0,.65-.93,25.24,25.24,0,0,1,9.47-9,22.14,22.14,0,0,1,10.87-3.11c.48,0,1,0,1.44,0,5.47-.4,10.34,1.45,15,4a31.82,31.82,0,0,1,3.87,2.91,33.81,33.81,0,0,0,11.63,6c2.38.67,4.71,1.49,7.1,2.13,2.1.56,4.25,1,6.38,1.4a2.2,2.2,0,0,0,1.08,0c.73-.22,1.43-.52,2.15-.78,2.94-1.08,5.87-2.19,8.83-3.22,1.59-.56,2.16-.29,3.2,1,.89,1.12,1.87,2.16,2.77,3.27a3.35,3.35,0,0,0,3.06,1.2c1.62-.07,3.32.28,4.88-.08,3.25-.73,6.7.05,9.84-1.43a3.27,3.27,0,0,1,1.4-.22c5.37.11,10.52-1.32,15.76-2.18,3.67-.61,7.18-1.77,10.8-2.53a7.41,7.41,0,0,0,3.92-2.28,36.48,36.48,0,0,1,2.87-2.83,4.92,4.92,0,0,1,1.55-.58c.7,1.45.35,2.81.37,4.11.07,4.32,3.09,7.23,7.33,6.83a6.69,6.69,0,0,0,5.06-2.95c4-6,7.77-12.27,9.72-19.36a19.78,19.78,0,0,0,1-5.88c-.06-1.82,0-3.65,0-5.47,0-.94-.25-1.88-.36-2.82-.08-.66-.18-1.32-.2-2,0-1.25-.05-2.5,0-3.75a44.22,44.22,0,0,0-2-13.48,55.12,55.12,0,0,0-3.79-10.17,66.88,66.88,0,0,0-6.51-10.07c-.35-.46-.68-.92-1-1.39a92.64,92.64,0,0,0-5.77-8.15,54.65,54.65,0,0,0-9.42-8.81,77.94,77.94,0,0,0-12-7.14,46.14,46.14,0,0,0-12.14-4.05c-1.51-.24-3.06-.24-4.51-.55-2.76-.6-5.58-.11-8.26-.61-3.34-.63-6.67-.27-10.1-.56-1.25-1.63-1.15-3.73-1.59-5.62-.78-3.32-1.3-6.7-1.9-10.05-.51-2.89-1.34-5.72-1.67-8.65-.24-2.16-.81-4.28-1.26-6.41-.7-3.34-1.43-6.67-2.12-10s-1.31-6.5-2-9.75-1.39-6.48-2-9.73a10.27,10.27,0,0,1,0-2,3.43,3.43,0,0,1,.84-.42c6.18-.88,12.41-.64,18.62-.62a27.89,27.89,0,0,1,3.38.43,9.74,9.74,0,0,0,1.43.12c4.52-.12,8.84,1.05,13.19,2a40.11,40.11,0,0,0,4.18.83c4.48.53,8.18-1.36,11.57-4,3.7-2.85,7.26-5.87,11-8.62a77.58,77.58,0,0,1,8-5c3.58-2,7.28-3.82,10.89-5.79,2.76-1.5,5.41-3.23,8.22-4.64a44.09,44.09,0,0,1,15.43-4.81c2.25-.22,4.44-.93,6.68-1.35,1.86-.35,3.74-.6,5.61-.89l6.17-1c.28,0,.56-.14.84-.17,2.47-.2,5,0,7.37-.69,2.91-.79,5.88-.15,8.79-.94,1.88-.52,4-.08,6-.12,1.71,0,3.44.21,5.11-.48a8.19,8.19,0,0,1,2-.1,2.34,2.34,0,0,1,2.7,1.6c1.21,2.8,2.57,5.54,3.76,8.35,2.69,6.32,4.86,12.82,7,19.33,1.08,3.25,2.45,6.4,3.55,9.65A110,110,0,0,1,356.61,167c.67,3.64,1.25,7.28,1.73,11,.39,3,.91,6,1.18,9,.15,1.69.26,3.41.53,5.09.71,4.57.08,9.2.65,13.72.52,4.13.28,8.21.44,12.31a15.32,15.32,0,0,1-.4,4,23.31,23.31,0,0,0-.16,5.16,51.28,51.28,0,0,1-1,8.47c-.26,1.59-.5,3.19-.71,4.78a114.71,114.71,0,0,1-3.54,16.1c-1,3.58-2.11,7.12-3.39,10.6-1.37,3.75-2.86,7.47-4.52,11.11a155.54,155.54,0,0,1-10.85,19.51c-2.36,3.69-4.6,7.47-7.05,11.1a84.08,84.08,0,0,1-5.77,7.44c-5.53,6.53-11.91,12.22-17.87,18.31a76.32,76.32,0,0,1-10.79,8.92q-4.08,2.88-8.27,5.6c-1.92,1.24-3.9,2.41-5.91,3.49q-6.16,3.33-12.64,6a3.44,3.44,0,0,1-.51.25c-4.14,1-7.74,3.18-11.43,5.16-4.64,2.48-9.62,4.17-14.47,6.14a102.19,102.19,0,0,1-14.93,4.8c-6.18,1.46-12.36,2.91-18.57,4.24-1.94.42-4,.15-5.92.73-2.61.82-5.37,0-7.91,1a4.5,4.5,0,0,1-1.43.07c-2.09.06-4.2-.21-6.26.51a8.26,8.26,0,0,1-2.29.07c-2.09.08-4.2-.28-6.25.5a5.83,5.83,0,0,1-2,.07c-3.07,0-6.14,0-9.21,0a22.43,22.43,0,0,1-5.4-.44c-1.63-.4-3.44-.09-5.16-.13-1.24,0-2.49.18-3.68-.42a2.81,2.81,0,0,0-1.42-.14,25.48,25.48,0,0,1-9-1.22c-8.45-2.25-16.91-4.47-25.14-7.44-5.37-1.95-10.71-4-16-6.16a52.24,52.24,0,0,1-6.54-3.53c-3.53-2.09-7-4.25-10.51-6.39C83.49,355.91,82.79,355.41,81.82,354.77Z"/><path class="cls-2" d="M31.79,293.58a46,46,0,0,1-2.14-4.17c-2.08-5.32-4-10.69-6.1-16-2.84-7.18-5.32-14.48-7.64-21.83-1.59-5.08-3.39-10.09-4.51-15.31-.41-1.94-.72-3.9-1-5.87-.41-2.61-.58-5.26-1.07-7.88-.43-2.33-.21-4.78-.73-7.08-.77-3.38,0-6.87-1-10.2a7.07,7.07,0,0,1-.07-2c0-2.69,0-5.37,0-8.06a45.62,45.62,0,0,1,1-7.9,13.36,13.36,0,0,0,.17-2c0-1.34,0-2.68,0-4.08a23.84,23.84,0,0,1,6.94-3.95,72,72,0,0,1,13.63-4.07A58.25,58.25,0,0,1,36.78,172c2.17-.16,4.3-.68,6.45-1l.28,0c3-.21,5.89-.39,8.83-.62.85-.06,1.69-.23,2.54-.34a8.88,8.88,0,0,1,1.69-.21c3.13.19,6.28-.39,9.43.46a6.76,6.76,0,0,0,3.61-.57,15.55,15.55,0,0,1,7.38-.33,47.09,47.09,0,0,0,5.4.42c1.81.07,3.64-.24,5.39.53a2.38,2.38,0,0,0,.85.05c3.44-.05,6.79.73,10.19,1.06,4.85.46,9.45,2,14.23,2.73a42.57,42.57,0,0,0,10,.81,6.72,6.72,0,0,0,1.39-.28c.91-.27,1.79-.66,2.72-.87a10.44,10.44,0,0,0,5.33-3,42,42,0,0,1,5.89-4.49c3.76-2.6,7.46-5.31,11.4-7.61,5.11-3,10.43-5.6,15.75-8.41a11.08,11.08,0,0,1,1,3.37c.64,3.83,1.5,7.61,2.16,11.44s1.2,7.87,1.86,11.79c.35,2.15.82,4.28,1.28,6.42.8,3.79,1.68,7.57,2.2,11.43.34,2.62,1.11,5.18,1.57,7.79.33,1.87.45,3.77.68,5.66.18,1.41.38,2.81.57,4.22a3,3,0,0,1-1.69,3.25c-3.58,2.18-7.07,4.5-10.52,6.9-3.19,2.22-6.36,4.48-9.38,7a86.38,86.38,0,0,0-8.28,7.94,45.73,45.73,0,0,0-7.59,10.68c-1,2.06-2.08,4.1-3.06,6.18a3.3,3.3,0,0,1-2.1,1.79c-5.71,1.82-11.45,3.54-17.12,5.48s-11.49,4.07-17.16,6.29c-4.34,1.7-8.59,3.66-12.86,5.54-5,2.18-10,4.19-14.89,6.64-4.38,2.2-9.11,3.2-13.68,4.73-6.86,2.31-13.73,4.57-20.6,6.85Z"/><path class="cls-2" d="M283.14,98.91c4.91-11.59,24.74-20.47,40.43-7.28-1.78.29-3.36.63-4.95.77s-3.55-.22-5.14.26-3.41.21-5.09.6-3.52.65-5.29,1-3.34.65-5,1-3.34.68-5,1.07-3.3.87-4.94,1.3Z"/></g><g id="Layer_10_Image" data-name="Layer 10 Image"><path class="cls-3" d="M0,157.89c.18-1.17.36-2.33.55-3.49.57-3.44,1.16-6.88,1.73-10.32.49-2.93,1-5.87,1.47-8.79,1.37-7.83,2.91-15.62,5.77-23.07C11.3,107.6,13.1,103,15,98.45c1.4-3.3,2.92-6.56,4.6-9.72s3.58-6.33,5.52-9.39c2.5-3.94,5.05-7.85,7.73-11.66,1.95-2.78,4.09-5.43,6.24-8.07,1.5-1.84,3.09-3.62,4.74-5.32C49.34,48.65,54.78,43,60.41,37.5a98.17,98.17,0,0,1,11.23-9.39c2.49-1.8,4.81-3.82,7.26-5.69a23.6,23.6,0,0,1,3.13-2A150,150,0,0,1,117.78,7c7.49-1.74,15-3.22,22.59-4.58,4.28-.77,8.63-1.07,12.95-1.55A171.37,171.37,0,0,1,178,.13c4.54.15,9.06.66,13.59,1,3.29.27,6.58.54,9.86.93,3.51.42,7,.88,10.5,1.48a183.28,183.28,0,0,1,28.13,7.27,247.15,247.15,0,0,1,26.31,11,146.83,146.83,0,0,1,27.58,17,189.5,189.5,0,0,1,19.42,18c8,8.3,14.64,17.6,20.8,27.28a52.59,52.59,0,0,1,3.88,7.63,29.93,29.93,0,0,1,1.3,5,1.29,1.29,0,0,1-.72,1.6,7.54,7.54,0,0,1-3.78,1c-3.12-.06-6.24-.09-9.36,0-4,.16-8,.48-12,.76-2.67.18-5.35.36-8,.64-3.33.36-6.69.62-10,1.26-6,1.17-11.89,2.47-17.78,3.94a52.8,52.8,0,0,0-14.29,6.28,31.16,31.16,0,0,1-3.48,1.94,55.56,55.56,0,0,0-11.58,7.58C245.74,124,243,126,240.28,128c-1.74,1.32-3.46,2.65-5.18,4a8.78,8.78,0,0,1-5.49,2c-1.39,0-2.79.07-4.17,0-2.13-.13-4.25-.37-6.37-.55-1.42-.11-2.85-.15-4.27-.31-2.2-.24-4.39-.58-6.59-.82-1.42-.16-2.84-.25-4.27-.32-2.52-.12-5-.2-7.57-.29-3.2-.1-6.4-.25-9.59-.27a65.52,65.52,0,0,0-7,.3c-3.7.38-7.39.93-11.09,1.42-.51.07-1,.21-1.52.32-1.34.27-2.68.49-4,.83-3.27.84-6.53,1.74-9.79,2.62a46.46,46.46,0,0,0-11.91,4.69c-3.37,2-6.71,4-10.08,6a37,37,0,0,0-8.64,6.65c-.17.17-.38.3-.54.46-.91.9-1.76,1.85-2.71,2.7a21.26,21.26,0,0,1-2.89,2.21,5.16,5.16,0,0,1-1.92.45,4.84,4.84,0,0,1-1.69.1c-2.25-.48-4.47-1.06-6.72-1.55-4.78-1-9.55-2.08-14.35-3-2.78-.53-5.63-.65-8.39-1.24a49.86,49.86,0,0,0-9.86-1c-6.45-.07-12.92-.43-19.37.21-2.26.22-4.54.32-6.8.6a70.43,70.43,0,0,0-7.81,1.2c-4.33,1-8.64,2.26-12.9,3.56a75.07,75.07,0,0,0-18.66,8.66,6.29,6.29,0,0,1-4,.95,3.08,3.08,0,0,1-2.89-2.1,14.31,14.31,0,0,1-.93-4.65,4.76,4.76,0,0,0-.28-1Z"/><path class="cls-4" d="M88.42,359.2c-1.32-.89-2.61-1.81-4-2.67-5.28-3.38-10.64-6.64-15.83-10.15a77.91,77.91,0,0,1-7.73-6.22c-2.5-2.22-4.91-4.55-7.24-7a80,80,0,0,1-10.23-13.37l-9-14.45c1-.43,1.94-.85,2.85-1.18l16.1-5.83c4.48-1.61,9-3.19,13.43-4.85,1.93-.71,3.79-1.64,5.7-2.39,2.67-1.05,5.38-2,8-3.06,2.89-1.12,5.75-2.34,8.65-3.44,3.16-1.2,6.35-2.34,9.54-3.46,5.29-1.85,10.63-3.6,15.9-5.51,4.78-1.72,9.49-3.62,14.24-5.41,2.91-1.1,5.81-2.24,8.77-3.17a9.47,9.47,0,0,0,5.56-4,6.34,6.34,0,0,0,.5-1.16,42.31,42.31,0,0,1,5.54-10,77.24,77.24,0,0,1,9.28-10.44c1.59-1.48,3.3-2.84,5-4.16,1.91-1.45,3.9-2.81,5.87-4.17,1.2-.83,2.44-1.58,3.66-2.37,1-.5,2-1,3.05-1.49,2.87-1.25,5.75-2.47,8.63-3.7,1.64-.57,3.26-1.16,4.91-1.71a15.09,15.09,0,0,1,6.32-1.05c2,.18,4.11-.41,6.18-.65a8.35,8.35,0,0,1,1,0c2.21,0,4.42,0,6.63,0a34.74,34.74,0,0,1,14.8,3.29c1.75.82,3.5,1.65,5.3,2.36a26.63,26.63,0,0,1,11.23,9,98,98,0,0,1,8.73,13,70.6,70.6,0,0,1,6.71,17.79,69.67,69.67,0,0,1,1.64,8.55,41.76,41.76,0,0,1,.22,8.3,81.22,81.22,0,0,1-2.17,11.31,27,27,0,0,1-1,2.82l.73.5c-1.93.23-2.77,1.54-3.25,3.24a3.16,3.16,0,0,1-.66,1.09c-1.44,1.78-3,3.5-4.35,5.32a55,55,0,0,1-14.72,13c-3,1.88-6.55,2.47-10,3.17-2.18.45-4.43.58-6.63.95a2.21,2.21,0,0,0-1.94,1.3,1.45,1.45,0,0,1-1.37,1c-.52.07-1,.28-1.52.4a5.34,5.34,0,0,1-4.17-.18c-1.81-1.06-3.41-.13-5.07.35-1.23.05-2.46.12-3.68.15-1.49,0-3,.07-4.46.05a40,40,0,0,1-18.93-4.82,2,2,0,0,0-1.86,0q-6.66,2.67-13.31,5.31c-5.23,2.07-10.48,4.08-15.71,6.15-5.4,2.13-10.82,4.21-16.16,6.48-6.66,2.84-13.22,5.91-19.86,8.78-6.48,2.79-13,5.45-19.52,8.17-.07,0-.1.15-.16.22Z"/><path class="cls-5" d="M184.78,225.55c-2.88,1.23-5.76,2.45-8.63,3.7-1,.45-2,1-3.05,1.49-1-4.15-1.95-8.29-2.88-12.44-3.89-17.43-7.85-34.84-11.62-52.29-1.63-7.57-2.87-15.24-4.26-22.87-.37-2.07-.65-4.16-1-6.24,3.26-.88,6.52-1.78,9.79-2.62,1.32-.34,2.66-.56,4-.83C173.67,164,178.84,194.86,184.78,225.55Z"/><path class="cls-6" d="M279.52,219.43a3.29,3.29,0,0,1-2.68-1.27,2.42,2.42,0,0,1,1.18-3.69c5.75-1.83,10.68-5.31,16.09-7.84,2.77-1.29,5.45-2.77,8.5-3.36a8.56,8.56,0,0,1,1.13-.17,2.68,2.68,0,0,1,2.84,1.74,2.73,2.73,0,0,1-1,3.07,5.09,5.09,0,0,1-1.35.79c-6.28,2.24-12.07,5.53-18,8.42a18.52,18.52,0,0,1-6,2.22C279.93,219.36,279.69,219.41,279.52,219.43Z"/><path class="cls-6" d="M272.64,174.47a13.66,13.66,0,0,1-.95,1.83A112,112,0,0,1,261.94,188c-1.79,1.93-3.52,3.92-5.29,5.87a6.06,6.06,0,0,1-1.07.95,2.61,2.61,0,0,1-3.41-.16,2.39,2.39,0,0,1-.12-3.38c1.18-1.62,2.41-3.22,3.69-4.76q5.52-6.62,11.11-13.18a6.84,6.84,0,0,1,1.8-1.6C270.46,170.72,272.67,172.08,272.64,174.47Z"/><path class="cls-6" d="M287.31,253.31a32,32,0,0,1-3.23-.43,2.9,2.9,0,0,1-2.44-2.81,2.18,2.18,0,0,1,2.22-2.33c4.51.22,8.81-1.14,13.22-1.61,3.81-.4,7.62-1,11.46-.42a4,4,0,0,1,1.09.3,2.25,2.25,0,0,1,1.45,2.26,2.12,2.12,0,0,1-1.56,2,13.05,13.05,0,0,1-2.65.59q-7.32,1-14.65,2C290.65,253.06,289.07,253.15,287.31,253.31Z"/></g><g id="Layer_7_Image" data-name="Layer 7 Image"><path class="cls-5" d="M264.08,306.54c-.72-3.73-4.48-7.18-8.06-7.5-1.93.23-2.77,1.54-3.25,3.24a3.16,3.16,0,0,1-.66,1.09c-1.44,1.78-3,3.5-4.35,5.32a55.11,55.11,0,0,1-14.68,13c-.74.32-1.49.62-2.26.9-1.72.62-3.47,1.18-5.21,1.77l-2.56.52c-1.33.27-2.68.43-4,.59a19.29,19.29,0,0,1-5.06-.81,6.57,6.57,0,0,1-1.87-.94c-1-.69-1.82-1.52-2.78-2.22a8.9,8.9,0,0,1-3.38-6.28c-.41-2.79,2.73-6.69,5.61-7.29A92.75,92.75,0,0,0,226,303.47c4.58-1.77,8.92-4.12,13.65-5.5a33,33,0,0,0,3.49-1.27,6.59,6.59,0,0,0,1.72-1,2.37,2.37,0,0,0,.64-2.86,2.16,2.16,0,0,0-2.44-1.07,4,4,0,0,0-.71.12c-3.25,1.09-6.56,2-9.74,3.31a141.08,141.08,0,0,1-16.19,5.66A52.71,52.71,0,0,1,201,303a3.53,3.53,0,0,1-1.85-.59c-3.4-2.45-5.31-7.84-4.12-11.81a4.29,4.29,0,0,1,2.4-3.14c1.82-.72,3.57-1.64,5.41-2.3q4.72-1.71,9.53-3.2c2.26-.71,4.65-1.07,6.85-1.94,6.68-2.65,13.3-5.47,19.93-8.25a7.13,7.13,0,0,0,1.92-1.25,2.38,2.38,0,0,0,.57-3,2.26,2.26,0,0,0-3-.85c-5.38,2.08-10.77,4.13-16.13,6.27-4.43,1.76-8.81,3.67-13.24,5.44a36.62,36.62,0,0,1-15.44,2.69c-5.24-.26-7-2-8.44-6.29a4.24,4.24,0,0,1,.66-3.95,17.87,17.87,0,0,1,4.22-4.28,2,2,0,0,1,2.09-.37,10.68,10.68,0,0,0,7.45-.21,15.36,15.36,0,0,0,7.77-6.55,2.65,2.65,0,0,1,1.61-1.24,44.53,44.53,0,0,0,4.55-1.7c2.88-1.25,5.72-2.6,8.59-3.88,2.7-1.21,5.43-2.35,8.11-3.59a11.55,11.55,0,0,0,2.55-1.58,2,2,0,0,0,.71-2.18,1.91,1.91,0,0,0-1.6-1.48,3.87,3.87,0,0,0-1.78.34c-4.79,1.86-9.57,3.78-14.37,5.63-2.08.8-4.2,1.47-6.39,2.24-.08-.4-.13-.62-.17-.84-.46-2.49-.73-5-1.4-7.45a49.66,49.66,0,0,0-6.27-13A20.22,20.22,0,0,0,196,225a7.67,7.67,0,0,0-5.18-1.09c-1.34.11-2.14,1-1.84,2a2.72,2.72,0,0,0,1.28,1.72,15.62,15.62,0,0,1,6.86,6.76c1.52,3.08,3.07,6.17,4.31,9.37a17,17,0,0,1,.19,11.95,7.21,7.21,0,0,1-3.66,4.2,6.25,6.25,0,0,1-7-.45,16.12,16.12,0,0,1-3.83-3.5c-1.35-1.85-2.88-3.59-4.26-5.43-1.18-1.58-2.21-3.28-3.41-4.84a3.14,3.14,0,0,0-5.55,2.29,8.91,8.91,0,0,0,1,2.65c1.53,3.05,3.1,6.08,3.18,9.58.05,2.4.08,4.8-.07,7.19a27.42,27.42,0,0,1-3.91,13.21c-1.67,2.64-3.46,5.19-5.17,7.79a10,10,0,0,0-1.13,2.15,2.66,2.66,0,0,0,.87,3,2.49,2.49,0,0,0,2.94.4A10.83,10.83,0,0,0,174,292.1a35.47,35.47,0,0,0,6-7.72c.24-.41.49-.81.79-1.33.18.45.31.76.42,1.07,1.44,4,2.72,8.05,4.35,12,1.78,4.27,3.59,8.53,5.56,12.73,3.33,7.1,6.52,14.23,11.39,20.48a5.85,5.85,0,0,0,1.53,1.53,60.51,60.51,0,0,0,4.56,4.5,21.31,21.31,0,0,0,13,5.72c1.64.13,3.3-.17,4.95-.18a26.21,26.21,0,0,0,9.13-1.7,53.91,53.91,0,0,0,23.5-17.34,22.88,22.88,0,0,0,5-12.16A10.87,10.87,0,0,0,264.08,306.54Z"/><path class="cls-5" d="M107.77,150.44a3.33,3.33,0,0,1-3.52-2.3,28.59,28.59,0,0,1-1.41-5.1c-.77-5-1.48-10-2.06-15.08a187.16,187.16,0,0,1-.85-24.15,181.82,181.82,0,0,1,1.37-19.5c.64-5.23,1.18-10.48,1.87-15.7a139.54,139.54,0,0,1,4-19.1c1.87-6.62,3.71-13.25,5.73-19.82a48.33,48.33,0,0,1,5.49-12,9,9,0,0,0,.51-1,2.46,2.46,0,0,1,3-1.55,2.89,2.89,0,0,1,1.91,3.18,6.86,6.86,0,0,1-.61,1.75,86.23,86.23,0,0,0-6.75,19.74c-1.47,6.19-3,12.37-4.18,18.62-1,5-1.59,10-2.2,15.06-.65,5.27-1.16,10.57-1.63,15.87-.31,3.58-.61,7.18-.62,10.77,0,7.1,0,14.2.3,21.29.17,4.64.8,9.26,1.2,13.9.33,3.77.65,7.54.92,11.32a3.39,3.39,0,0,1-1,3A6.43,6.43,0,0,1,107.77,150.44Z"/><path class="cls-5" d="M224.76,120.87a3.33,3.33,0,0,1-2,3,3,3,0,0,1-3.54-.8,8.54,8.54,0,0,1-1.47-2.74c-2.81-8.24-5.29-16.59-8.4-24.71A226.49,226.49,0,0,0,191,57.78a197.48,197.48,0,0,0-17.14-23.07c-3.48-4.16-6.95-8.33-10.69-12.24-2.95-3.07-6.29-5.77-9.49-8.58a25.26,25.26,0,0,0-2.51-1.65,7.33,7.33,0,0,1-1.26-.93A2,2,0,0,1,149.53,9a1.8,1.8,0,0,1,1.81-1.17,5.8,5.8,0,0,1,1.92.46,31.46,31.46,0,0,1,7,4.69c6.48,5.11,12,11.2,17.35,17.4,6,6.88,11.65,14,16.93,21.45a139.94,139.94,0,0,1,10.56,18.42c5.07,10,9.82,20.23,13.3,31,1.89,5.82,3.87,11.61,5.79,17.42C224.44,119.38,224.58,120.13,224.76,120.87Z"/></g></g></svg>