<?xml version="1.0" encoding="utf-8"?>
<!-- Generator: Adobe Illustrator 22.0.1, SVG Export Plug-In . SVG Version: 6.00 Build 0)  -->
<svg version="1.1" id="Layer_1" xmlns="http://www.w3.org/2000/svg" xmlns:xlink="http://www.w3.org/1999/xlink" x="0px" y="0px"
	 viewBox="0 0 240.6 250.1" style="enable-background:new 0 0 240.6 250.1;" xml:space="preserve">
<style type="text/css">
	.st0{fill:#FFFFFF;}
	.st1{fill:#ededf2;}
	.st2{fill:#865cd0;}
	.st3{fill:#212121;}
	.st4{fill:#865cd0;}
	.st5{fill:#EBEAEC;}
	.st6{fill:#212121;}
	.st7{fill:#212121;}
	.st8{fill:#865cd0;}
</style>
<title>Asset 4how-rb-works</title>
<g id="Layer_2_1_">
	<g id="step_4">
		<path class="st0" d="M115.8,9.7c4,0,8.1,0,12.1,0c3,0,6,0,9,0.3c3.9,0.3,7.7,1.1,11.4,2.5c2.2,0.9,4.6,1.2,6.9,1.9
			c2.5,0.8,5,1.6,7.4,2.5c3.3,1.2,6.6,2.5,9.8,3.8c2.1,0.9,4.2,2,6.3,3.1c2.2,1.2,4.4,2.5,6.5,3.9c1.8,1.1,3.6,2.4,5.3,3.6
			c1.8,1.2,3.8,2.7,5.7,4.1c1.1,0.8,2.3,1.7,3.4,2.7c1.4,1.3,2.8,2.6,4.2,3.9c0.9,0.8,1.8,1.5,2.6,2.4c3.2,3.6,6.7,7,9.5,10.9
			c2,2.7,4.1,5.3,6,8.2s3.3,5.5,4.9,8.2c2.6,4.7,4.7,9.7,6.4,14.8c2.2,6.5,4,13.2,5.3,19.9c0.6,2.8,0.8,5.7,1.2,8.6
			c0.5,3.7,0.8,7.5,0.9,11.2c0.1,2.8-0.1,5.6-0.1,8.3c-0.1,2.3-0.4,4.5-0.7,6.8c-0.3,2.5-0.6,5.1-0.9,7.6c-0.2,1.9-0.5,3.8-0.8,5.6
			c-0.2,1.6-0.5,3.3-0.6,4.9c-0.5,3.4-1.2,6.7-2.3,10c-1.3,4.7-3,9.2-5,13.7c-2.3,5.1-4.7,10.2-7,15.3c-1.8,3.7-4.1,7.2-6.9,10.3
			c-1.5,1.9-3.2,3.7-4.9,5.4c-3.3,3.3-6.9,6.3-10.8,8.9c-3.8,2.5-7.6,5.1-11.4,7.6c-1.4,0.9-2.8,1.7-4.2,2.5
			c-2.8,1.5-5.6,3.1-8.5,4.4c-3.5,1.6-7.1,3-10.7,4.4c-1.3,0.5-2.6,1-3.9,1.4c-3.8,1.2-7.8,2.2-11.7,2.9c-3.5,0.7-7,1.2-10.5,1.7
			c-0.4,0-0.8,0-1.1,0c-1.8,0.1-3.6,0.2-5.4,0.3c-0.9,0-1.8-0.1-2.7-0.2c-0.5,0-1.1-0.1-1.6-0.1c-3.4,0-6.9-0.3-10.2-0.8
			c-2.1-0.3-4.2-0.4-6.4-0.6c-1.3-0.1-2.5-0.4-3.8-0.6c-2.8-0.5-5.6-0.8-8.4-1.5c-4.1-1-8.1-2.2-12.2-3.5c-0.8-0.4-1.8-0.2-2.3,0.5
			c-2.3,2.8-5.2,3.3-8.6,2.8c-1-0.1-2,0-3,0.2c-1.8,0.4-3.6,0.1-5.2-0.8c-3.7-2.2-7.5-4.4-11.1-6.8c-2.7-1.7-5.2-3.6-7.6-5.8
			c-2.1-2-3.8-4.2-5.8-6.2c-0.5-0.6-1-1.1-1.6-1.6c-3.6-2.6-6.9-5.5-10.1-8.6c-1.2-1.2-2.7-2.3-3.8-3.6c-2.9-3.1-5.7-6.3-8.3-9.6
			c-1.5-2-3.2-3.8-4.6-5.9c-1.8-2.6-3.4-5.4-5-8.1c-0.6-1-1.2-2.1-1.7-3.2c-0.7-1.4-1.3-2.9-1.8-4.5c-1-3.3-1.8-6.7-2.7-10
			c-0.5-2-0.8-4.1-1.5-6.1c-0.5-1.7-0.9-3.5-1.2-5.2c-0.3-1.9-0.5-3.9-0.7-5.8c-0.2-2.4-0.4-4.7-0.6-7.1c-0.1-1.9-0.2-3.9-0.3-5.9
			C0.1,136.4,0,133.1,0,130c0-1.9,0.3-3.8,0.5-5.7c0.1-1.2,0.2-2.4,0.3-3.6c0.4-5,1.2-9.9,2.2-14.7c0.7-3.3,1.2-6.6,1.8-9.9
			c0.8-5,2.3-9.8,4.4-14.5c1.1-2.3,2.3-4.5,3.4-6.8c1.4-2.8,2.7-5.6,4.2-8.3c2.3-4.6,5.1-9.1,8.2-13.2c2.3-3,4.4-6.2,6.6-9.3
			c2.4-3.2,5-6.3,7.6-9.5c2.9-3.4,6.2-6.3,10-8.7c3.3-2.2,6.7-4.4,10.2-6.2c2.5-1.2,5.1-2.2,7.9-3c2.6-0.8,5.3-1.4,8-2
			c5.7-1.3,11.4-2.6,17.1-3.8c2.6-0.5,5.2-0.8,7.8-0.9c5.2-0.2,10.4-0.3,15.6-0.5L115.8,9.7z"/>
		<path class="st0" d="M170.1,84.9c0.4,0.4,0.8,0.8,1.1,1.2c3.6,3.5,7.2,6.9,10.7,10.4c3,3.1,5.8,6.3,8.7,9.5
			c1.9,2.1,3.8,4.2,5.7,6.3c4,4.2,7.6,8.7,11,13.4c3.2,4.7,6.5,9.4,9.4,14.3c1.7,3.1,3.2,6.3,4.4,9.6c1.4,3.7,2.5,7.5,3.1,11.4
			c0.7,3.4,0.9,6.9,0.6,10.4c-0.2,1.8-0.7,3.7-1.5,5.4c-1.8,4.5-4.7,8.6-8.3,11.9c-4.2,3.8-8.7,7.2-13.4,10.2
			c-4.8,2.9-9.5,5.9-14.1,9c-1.8,1.1-3.4,2.5-5.1,3.7c-1.2,0.9-2.4,1.7-3.7,2.5c-1.2,0.8-1.3,0.9-1.1,2.4c0.2,1.1,0.3,2.2,0.3,3.3
			c0.1,2.3,0.2,4.6,0.3,6.9c0.1,2,2.2,7.2,1.6,9.1c-0.1,0.4-6.7,4.2-7.3,4.3c-2.7,0.1-5.2-1.2-6.6-3.5c-1-1.9-2.2-3.7-2.5-5.9
			c-0.3-1.7-0.6-3.5-0.7-5.2c-0.3-2.9-0.4-5.9-0.6-8.8c0-0.9-0.5-1.8-1.2-2.3c-3.4-2.4-4.5-5.7-3.7-9.8c0.2-0.8,0-1.7-0.6-2.4
			c-1.7-2-2.1-4.7-1-7.1c0.4-1.2,1.2-2.2,2.1-3c0.5-0.4,0.8-1.1,0.7-1.8c-0.2-1.8-0.4-3.6-0.5-5.4c-0.2-2-0.4-4.1-0.6-6.1
			c-0.2-2.3-0.5-4.5-0.8-6.8c-0.1-1.1-0.2-2.2-0.3-3.3c-0.3-3.1-0.6-6.3-0.9-9.4s-0.8-6.1-1.1-9.2c-0.3-2.6-0.8-5.3-0.8-7.9
			c-0.1-5.2,4.6-7.8,9-6.6c3.6,1,5.1,3.6,5.7,7c0.6,3.8,1.2,7.5,1.7,11.3c0.4,2.7,0.6,5.4,0.9,8.1s0.7,5.3,1.1,7.9
			c0.2,1.8,0.4,3.7,0.6,5.5s0.5,4,0.8,5.9c0.2,1.4,0.3,2.9,0.5,4.5c0.9-0.4,1.6-0.7,2.3-1.1c3.2-1.9,6.4-3.9,9.5-5.9
			c1.6-1.1,3.2-2.3,4.7-3.5c0.3-0.3,0.6-0.7,0.7-1.2c0.4-1.4,1.2-2.6,2.2-3.6c0.5-0.4,0.8-1,0.7-1.6c-0.1-0.7,0-1.4,0-2
			c0-1.5-0.6-2.9-1.7-3.9c-2.4-2.5-4.5-5.3-6.3-8.3c-3.6-5.3-12.6-20.7-11.3-23.1c1-2,3-3.3,5.2-3.3c2,0,4.1-0.3,5.8,0.9
			c1.2,0.9,6.4-1.6,6.3-1.8c-0.3-0.5-0.6-0.9-0.9-1.3c-3-3.3-6-6.7-8.9-10.1c-1-1.1-2.1-2.3-3.1-3.4c-2.3-2.5-4.6-5.1-7-7.6
			c-2.1-2.1-4.4-4-6.5-6.1c-1.4-1.3-2.7-2.7-4.1-4c-0.8-0.8-1.6-1.5-2.5-2.2c-0.6-0.5-1.4-0.6-2.1-0.3c-3.1,1.4-6.3,2.2-9.6,2.5
			c-2.2,0.3-4.4-0.7-5.6-2.5c-0.8-1.4-1.8-1.7-3.2-1.2c-0.3,0.1-0.7,0.1-1,0.1c-0.2,0-0.5,0.2-0.6,0.3c-0.5,1.2-0.9,2.5-1.3,3.7
			c-0.4,1-0.3,2.1,0.3,3c0.6,0.9,0.4,2.2-0.5,2.8c0,0,0,0-0.1,0c-1.6,1-4.2,9.7-6,9.7c-3.6,0-7.2,0.1-10.8,0
			c-1.4-0.1-2.7-0.3-4.1-0.7c-1.3-0.2-2.6-0.5-3.9-0.8c-0.4,0-0.8-0.2-1.2-0.4c-1.1-0.6-2.3-0.9-3.6-0.8c-2.2,0-4.4,0.1-6.6,0
			c-1,0-2.1,0.3-2.9,1c-1.1,1-2.5,1.7-4,2.1c-1.6,0.3-3.3-0.3-4.3-1.5c-0.8-1.5-0.7-3.3,0.2-4.8c1.1-1.8,2.8-2.1,4.7-2.2
			c1.4-0.1,2.9,0.3,4.4-0.5c-0.8-0.9-1.4-1.7-2.2-2.4c-0.3-0.2-0.7-0.3-1.1-0.2c-1.8,0.1-3.5-0.6-4.7-2c-0.8-0.8-1.6-1.7-2.2-2.6
			c-0.4-0.7-0.7-1.4-0.9-2.2c-0.1,0.1-0.4,0.1-0.5,0.3c-1.4,2-3.8,3.2-6.3,3.1c-1.1,0-2.3-0.2-3.4-0.2c-0.4,0-0.8,0.2-1.1,0.4
			c-0.7,0.6-1.2,1.3-2,1.9c-1.2,0.9-2.4,1.7-3.7,2.4c-0.8,0.4-1.6,0.9-2.2,1.5c-1.7,1.8-3.4,3.6-5.1,5.4c-1.4,1.4-2.8,2.8-4.1,4.2
			c-5.2,5.3-10.4,10.5-15.5,15.8c-0.5,0.5-0.9,1.1-1.4,1.6c-1.2,1.2-2.5,2.4-3.9,3.8c0.3,0.8,1.2,1.4,1.9,2.1c0.7,0.7,1.7,1,2.6,0.9
			c3-0.2,5.8,1.8,6.6,4.7c0.3,1,0.9,1.9,1.8,2.4c2.5,1.6,4.2,3.7,4.5,6.8c0.1,2.3-0.6,4.5-2.1,6.2c-2.3,3.1-4.7,6.2-7,9.4
			c-1.4,2-2.6,4.1-3.7,6c0.8,1.6,1.5,3,2.3,4.4c0.2,0.4,0.6,0.8,1,1c4.4,2.4,8.4,5.4,11.8,9.1c1,1.1,2.2,2,3.6,2.6
			c3.2,1.2,5.3,4.2,5.4,7.6c0,1.4,0.8,2.7,2,3.3c2.8,1.5,4.5,4.4,4.5,7.5c0.1,2.9-1.2,5.6-3.5,7.3c-1,0.7-1.9,1.5-2.8,2.4
			c-1.7,1.6-4.1,2.1-6.3,1.5c-2.6-0.7-4.8-2.4-6.2-4.6c-1.6-2.3-2.9-4.8-4.4-7.2c-0.5-0.7-1-1.3-1.7-1.9c-1.1-1-2.2-1.8-3.3-2.7
			c-0.2-0.2-0.5-0.4-0.8-0.6c-1.6-0.5-3.3-1-4.9-1.5c-0.4-0.1-0.8-0.2-1.2-0.4c-1.4-0.5-2.9-1.1-4.2-1.7c-1.2-0.7-2.3-1.4-3.3-2.3
			c-1-0.8-1.9-1.7-2.9-2.6c-1.5-1.4-2.4-3.4-2.7-5.4c-0.2-1.2-0.5-2.4-0.6-3.6c-0.1-1-0.1-2-0.1-3c0-0.5,0-1,0-1.5
			c0-0.2-0.1-0.5-0.1-0.7c-0.1-2.8-0.2-5.5-0.3-8.3c0-0.9-0.2-1.7-0.2-2.6c0-1,0-2.1,0.2-3.1c0.8-3.8,1.6-7.5,2.6-11.2
			c0.8-2.8,1.9-5.6,3-8.3c0.3-0.7,0-1.5-0.6-2c-1.6-1.6-2.9-3.5-3.7-5.6c-1.2-2.8-1.9-5.7-0.6-8.6c0.8-1.6,1.8-3.1,2.9-4.6
			c2.2-2.9,4.4-5.8,6.6-8.6c1.5-1.9,3.2-3.6,4.7-5.4c4.5-5.3,9.4-10.1,14.4-14.9c2.3-2.3,4.9-4.2,7.4-6.3c0.6-0.5,1.1-1,1.5-1.4
			c-1.7-2.5-3.3-4.7-4.8-7.1c-1.7-2.8-2.9-5.9-3.5-9.2c-0.9-5.7,0.4-11.5,3.6-16.2c1.4-2.4,3.1-4.6,5.1-6.5c2-1.7,4-3.3,6-5
			c1.1-0.9,2.1-1.8,3.2-2.7c-0.3-0.4-0.5-0.7-0.8-1c-2.9-2.9-5.6-6-8.1-9.3c-0.1-0.1-0.3-0.3-0.4-0.4c-2.4-2.5-8.3-6.4-8.3-6.4
			c1.5-1.9,8.2-5.4,8.2-5.4c-2.8-5.6,1.8-10,2.7-9.4c3.1,2,12.7,5.2,15.3,7.8s6.9,8.2,9.3,10.9c1.8,2,3.5,4.2,5.2,6.3
			c0.8,1,1.6-0.6,2.9-1c1.7-0.5,2.7,0.4,4.4,0.1c2.5-0.5,5-1.4,7.6-1.1c0.8,0,1.5-0.1,2.2-0.3c-0.8-2-1.6-3.8-2.3-5.6
			c-1.3-3.2-2.4-6.5-3.8-9.7c-1-2.2-2.1-4.4-3.3-6.5l6.3-0.6c0,0-0.4-9.6,3.6-7.7c1.1,0.5-0.9-2,0-1.3c0.6,0.4,1.3,0.6,2,0.7
			c1.7,0,1.9,0.9,2.9,2c1.6,1.7,3,3.6,4.7,5.2c4.8,4.6,8.7,9.9,11.7,15.8c0.4,0.7,1.1,1.2,1.9,1.2c4.4,0.8,8.8,1.9,13.1,3.3
			c3.8,1.4,7.4,3,11,4.8c3.7,1.8,7.1,4.1,10.1,6.9c2.3,2.2,4.7,4.3,6.8,6.6c1.4,1.5,2.7,3.2,3.8,5c2.5,4.1,4.1,8.5,3.6,13.4
			c-0.3,4.3-2,8.3-4.8,11.6c-1.9,2.1-3.9,4.1-5.8,6.1C171.4,83.7,170.8,84.2,170.1,84.9z M128.1,102c-0.9-0.3-1.8-0.1-2.6,0.3
			c-1.3,1-2.5,2-3.8,2.9h5.7L128.1,102z"/>
		<path class="st1" d="M152.3,85.1h1.7c0.1,0.6,0.2,0.9,0.9,0.7c1.1-0.3,2.3-0.1,3.3,0.4c1.8,0.9,3.5,1.8,5.2,2.8
			c4.5,2.8,8.8,6,12.7,9.5c3.9,3.4,7.6,7.1,11.4,10.8c2.1,2,4.1,4.2,6.1,6.3c1.4,1.5,2.8,2.9,4.1,4.4c0.9,1,1.8,2,2.7,3
			c2.4,2.8,4.7,5.6,7,8.5c0.3,0.4,0.6,0.8,0.8,1.3l-4.2,3.8l-8.8,8c-1.2,1.1-11.5,10.3-13.8,12.6c-1,1-2.1,1.9-3.3,2.9
			c-2.7-2.7-5.4-5.2-7.9-7.9s-4.7-5.6-7.4-8.2c-0.1,0.4-0.1,0.8,0,1.2c0.5,2.6,1.1,5.1,1.6,7.7c0.9,4.7,1.5,9.4,1.8,14.2
			c0.1,1.4,0.2,2.9,0.3,4.3c0.2,2,0.4,4,0.5,6c0.1,2.1-0.1,7.4,0.1,9.6c0.1,1.9-5.8,7.9-5.5,11.4c0.2,2,0.5,4.1,0.5,6.1
			c0,1.9,0.5,3.7,1.5,5.3c1.7,2.6,3.3,5.2,6.7,6.1c2,0.5,3.9-2.1,4,0.5c0.1,2.1,0.5,8.1,0.2,10.3c-1.4-0.4-2.6-0.2-3.2,1.4
			c0,0.1-0.3,0.1-0.5,0.2c-0.8-0.1-1.6-0.2-2.4-0.2c-3.6,0-7.1,0-10.6,0c-0.8,0-1.5,0.1-2.3,0.2c-6.5,1.5-13.2,2.3-19.9,2.4
			c-7.7,0.2-15.3,0.2-23,0.2c-7.2,0-14.5-0.1-21.7-0.2c-3.9-0.1-7.8-0.5-11.8-0.6c-4.4-0.2-8.8-0.4-13.2-0.5c-0.6,0-1.2,0.2-1.8,0.4
			c-0.1-0.6,0-1.4-0.3-1.8c-0.6-0.8-1.5-1.5-2.4-1.9c-0.9-0.4,0.5-54.8,0.7-57.8v-0.1c0.2-3,0.4-6,0.6-9c0.1-2.1,0.2-4.1,0.3-6.1
			c0-0.4,0-0.7,0-1.4c-0.5,0.5-0.9,0.8-1.2,1.1c-1.7,1.8-3.3,3.7-5,5.5c-1.2,1.3-1.7,1.2-2.8,0c-0.3-0.3-0.5-0.6-0.7-0.9
			c-1.6-2-3.2-4.1-5-5.9c-1.6-1.7-3.5-3.1-5.2-4.7c-2.4-2.3-4.8-4.6-7.2-6.9c-0.3-0.3-0.5-0.6-0.8-0.8c-2.3-1.7-4.5-3.5-6.8-5.2
			c-0.8-0.6-0.9-0.9-0.3-1.7c2.1-2.8,4.2-5.5,6.4-8.2c1.7-2.1,3.6-4,5.2-6.1c2.9-3.7,6-7.2,9.3-10.5c2.5-2.6,5.2-5,7.9-7.3
			C59.6,97,63.2,94.3,67,92c3-1.7,6-3.5,9.5-4.2c3.1-0.5,6.2-0.5,9.3,0c0.6,0.1,1.2,0.4,1.5,0.9c0.2,0.3,0,1,0,1.6
			c1.7,0.3,2.1,0.9,1.6,2.6c-0.2,0.6-0.4,1.2-0.6,1.8C88,95.8,88.2,97,88.9,98c1.6,2.2,3.6,4.1,5.8,5.7c4.1,3.2,9.2,4.9,14.4,4.8
			c3.2,0,6.4-0.3,9.6-0.6c1.2,0,2.3-0.6,2.9-1.7c0.8-1.3,1.7-2.5,2.8-3.6c2.6-2.7,4.5-6.1,5.4-9.8c0.2-1.2,1.2-2.1,2.4-2.2
			c1.6-0.2,3.3-0.4,4.9-0.8c2.4-0.5,4.7-1.2,7.1-1.7c2.3-0.4,4.6-1,6.8-1.9C151.5,86,152.2,86,152.3,85.1z"/>
		<path class="st2" d="M170.8,228.3c-0.2,2.2,0.8,4.2,1,6.4c0.2,1.8,0.5,3.5,0.8,5.4c-2.2,0.8-4.4,1.6-6.6,2.3
			c-9.6,3.2-19.4,5.5-29.4,7c-4.8,0.7-28.8,1.7-49.9-0.6c-7.3-1.4-23.5-7.7-23.6-8.4c-0.5-3.9,0.6-6.6,0.9-10.5
			c0.6-0.2,1.2-0.3,1.8-0.4c4.4,0.1,8.8,0.3,13.2,0.5c3.9,0.2,7.8,0.6,11.8,0.6c7.2,0.2,14.5,0.2,21.7,0.2c7.7,0,15.3,0,23-0.2
			c6.7-0.1,13.4-0.9,19.9-2.4c0.7-0.2,1.5-0.2,2.3-0.2c3.5,0,7.1,0,10.6,0C169.1,228,169.9,228.2,170.8,228.3z"/>
		<path class="st0" d="M109.8,125.4c4.8,0.4,9.7,0.7,14.2,2.7c1.2,0.5,2.3,1.2,3.3,2c3.7,3.1,7,6.6,8.3,11.4
			c0.5,2.2,0.7,4.4,0.4,6.6c-0.5,5.2-3.2,9.4-6.2,13.3c-2.1,3-5,5.3-8.4,6.5c-1.8,0.6-3.7,1.4-5.4,2.2c-1.1,0.5-2.2,1.1-3.3,1.8
			c-0.3,0.2-0.5,0.6-0.7,0.9c-2.1,3.9-4.2,7.8-6.3,11.7c-0.8,1.4-1.6,1.6-2.9,1c-4.4-2.2-8.9-4.3-13.3-6.5c-1.3-0.6-1.5-1-1-2.4
			c0.6-1.6,1.2-3.1,1.9-4.6c1-2.1,2-4.2,3-6.3c0.8-1.6,1-3.4,0.5-5.2c-0.5-1.9-1.1-3.7-1.7-5.4c-1.1-2.7-1.6-5.7-1.5-8.7
			c0.3-4.2,0.6-8.5,2.8-12.3c1.9-3.3,4.3-6,8.1-7.2C104.2,125.9,107,125.4,109.8,125.4z"/>
		<path class="st3" d="M116,147.7c0.5,3.2-0.7,5.8-2.6,8.1c-0.5,0.6-1,1-1.6,1.4c-0.9,0.6-2,0.6-2.9,0.1c-1-0.5-1.5-1.6-1.2-2.7
			c0.1-0.7,0.4-1.5,0.7-2.1c1-2,2.4-3.7,4.1-5.2c0.2-0.2,0.4-0.4,0.6-0.7c-0.2-0.3-0.4-0.7-0.6-1c-2.1-2.5-4.4-2.4-6.3,0.2
			c-2.2,2.9-3.6,6.2-4.3,9.8c-0.6,3.2-1.2,6.5-1.8,9.8c-0.1,0.5-0.2,0.9-0.3,1.4c-0.2,0.6-0.8,0.9-1.4,0.8c0,0-0.1,0-0.1,0
			c-0.6-0.2-0.9-0.7-0.8-1.3c0,0,0,0,0,0c0.3-1.9,0.6-3.7,1-5.5c0.6-2.7,1.1-5.4,1.8-8.1c0.8-2.9,2.2-5.6,4.1-8
			c0.4-0.5,0.8-0.9,1.3-1.3c2.1-2,5.5-2,7.6,0.1c0.7,0.7,1.5,1.4,2.1,2.2c0.5-0.1,1-0.3,1.5-0.4c2.2-0.6,4.5,0.7,5.1,2.9
			c0.1,0.2,0.1,0.5,0.1,0.7c0.3,2,0.1,4-0.7,5.8c-2.1,4.8-5.3,9-9.3,12.2c-1.4,1.1-2.8,2.3-4.2,3.5c-0.5,0.4-1.1,0.7-1.7,0.2
			s-0.4-1.2,0.1-1.6c0.8-0.9,1.7-1.8,2.7-2.6c3.3-2.4,6.1-5.4,8.2-8.9c1.1-1.8,2.3-3.6,2.5-5.8c0.1-0.9,0.1-1.9-0.1-2.8
			c-0.3-1.5-1.1-1.8-2.6-1.4l-0.5,0.2C116.3,147.5,116.2,147.6,116,147.7z M113.7,149.3c-2.6,2.2-4,4.6-3.4,6.3
			C112.3,154.1,113.5,151.8,113.7,149.3L113.7,149.3z"/>
		<path class="st3" d="M90.6,167.3c0.6,0.2,1,0.3,1.4,0.4c4.9,1.9,9.8,3.7,14.6,5.6c1.5,0.6,3.1,1.3,4.5,2.1c0.5,0.3,1,0.7,1.5,1.1
			c0.4,0.3,0.4,0.9,0.1,1.3c0,0.1-0.1,0.1-0.1,0.1c-0.4,0.2-0.8,0.3-1.3,0.2c-1.2-0.5-2.4-1.3-3.6-1.8c-4.4-1.7-8.8-3.4-13.2-5.1
			c-1.2-0.5-2.4-1-3.6-1.6c-0.3-0.1-0.6-0.3-0.9-0.5c-0.2-0.3-0.5-0.8-0.4-1.1S90.3,167.6,90.6,167.3z"/>
		<path class="st3" d="M108.5,181.9c-1.1-0.3-2-0.5-3-0.8c-5.6-1.7-11-3.8-16.3-6.1c-0.3-0.1-0.6-0.2-0.9-0.4
			c-0.6-0.3-0.9-0.8-0.7-1.4s0.9-0.8,1.5-0.7c0.3,0.1,0.6,0.2,0.8,0.3l17.4,6.7c0.5,0.2,1.1,0.4,1.5,0.8c0.3,0.2,0.5,0.6,0.5,1
			C109.2,181.5,108.7,181.7,108.5,181.9z"/>
		<path class="st4" d="M144.9,163.4c-2.3-0.6-4.4-2-5.8-4c-0.4-0.5-0.4-1.1,0.1-1.6c0.5-0.5,1-0.3,1.4,0c1.6,1,3.3,1.9,4.9,3
			c0.4,0.3,0.8,0.8,0.9,1.4c0.1,0.3-0.5,0.7-0.8,1C145.4,163.3,145.1,163.3,144.9,163.4z"/>
		<path class="st4" d="M137.6,173c0.1,0.7-0.5,1.4-1.2,1.4c-0.3,0-0.6,0-0.8-0.2c-0.4-0.2-0.8-0.6-1-1c-0.7-1.3-1.4-2.6-2.1-3.9
			c-0.3-0.5-0.2-1.2,0.3-1.6c0.4-0.4,1.1-0.4,1.5,0.1c0,0,0,0,0.1,0.1c1.1,1.5,2.1,3.1,3.2,4.7C137.7,172.7,137.6,172.9,137.6,173z"
			/>
		<path class="st4" d="M147.8,147.2c-0.9-0.2-1.9-0.3-2.8-0.5c-0.4-0.1-0.8-0.3-1.1-0.6c-0.3-0.3-0.4-0.7-0.3-1.1
			c0.2-0.4,0.5-0.6,0.9-0.7c0.4-0.1,0.8-0.1,1.1,0c1.1,0.1,2.1,0.2,3.1,0.3s1.6,0.5,1.6,1.2s-0.6,1.3-1.7,1.3L147.8,147.2
			L147.8,147.2z"/>
		<path class="st4" d="M94.6,123.7c0,0.5-0.4,0.9-0.9,0.9c-0.1,0-0.2,0-0.3,0c-0.3-0.1-0.5-0.3-0.7-0.5c-1.1-1.7-2.4-3.2-3.9-4.6
			c-0.3-0.3-0.7-0.8-0.3-1.2c0.4-0.2,0.9-0.3,1.3-0.1c2.1,1.1,3.7,2.9,4.6,5.1C94.5,123.4,94.6,123.5,94.6,123.7z"/>
		<path class="st4" d="M82.1,126.5c0.7-1.1,1.1-1.4,2.1-1c1.6,0.7,3.2,1.5,4.8,2.3c0.5,0.3,0.8,0.7,0.5,1.3
			c-0.2,0.5-0.8,0.7-1.3,0.5c-0.6-0.2-1.1-0.5-1.7-0.8l-3.4-1.7C82.7,126.9,82.3,126.7,82.1,126.5z"/>
		<path class="st4" d="M77.7,135c0.7-1.5,1.1-1.7,2.3-1.4c1.4,0.5,2.9,1,4.3,1.5c0.3,0.1,0.7,0.7,0.6,0.9s-0.6,0.6-0.9,0.9
			c-0.2,0.1-0.4,0.1-0.6,0L77.7,135z"/>
		<path class="st5" d="M113.8,149.3c-0.2,2.5-1.5,4.8-3.4,6.3C109.8,153.9,111.2,151.5,113.8,149.3z"/>
		<path class="st6" d="M113.1,0c2.5,0.7,4.7,2,6.5,3.8c3.8,3.7,7.1,7.8,9.8,12.4c2.4,3.7,4.3,7.8,5.6,12c6.7,0.5,12.8,3,19,5.2
			c0.5,0.2,0.9,0.3,1.3,0.6c5.6,3.4,11.1,6.8,15.6,11.7c2.6,3,4.5,6.5,5.5,10.3c2.5,9.3-1.4,19.2-9.5,24.4c-3.6,2.2-7.5,4-11.4,5.5
			c-3.9,1.6-8.1,2.6-12.3,3c-2.8,0.3-5.6,1-8.5,1.6c0,2.5-1.3,4.2-2.5,6c-3.2,5.1-7.8,9.1-13.2,11.6c-3.3,1.5-6.8,1.4-10.3,1.1
			c-1.8-0.2-3.5-0.6-5.2-0.9c-4.1-0.8-7.9-2.7-10.9-5.5c-3.1-2.6-5.1-6.4-5.4-10.5c0.1-0.8-0.5-1.6-1.3-1.7
			c-0.4-0.1-0.7-0.2-1.1-0.3c-4.4-0.7-8.7-1.8-12.9-3.5c-0.7-0.3-1.4-0.6-2.1-0.9c-6.6-3.2-10.3-8.6-11.4-15.8
			c-0.8-5.5,0.2-11,2.7-15.9c0.7-1.3,1.5-2.4,2.5-3.5c2.5-2.7,5.1-5.4,7.8-7.9c1.6-1.5,3.4-2.8,5.2-4.2c-0.2-0.3-0.5-0.7-0.9-1.1
			c-2.9-3-5.8-5.9-8.6-8.9c-2-2-3.8-4-5.5-6.2c-1.2-1.7-2.2-3.5-3-5.5c-0.8-2-0.7-4.3,0.2-6.3c0.6-1.9,2.4-3.1,4.4-2.8
			c2.8,0.2,5.6,1,8.1,2.3c3.8,1.8,7.4,4.1,10.6,6.9c4.7,4,8.9,8.7,12.4,13.8c0.2,0.3,0.4,0.5,0.6,0.8c6.9-1.2,13.7-3.4,21.2-2.1
			c-0.4-0.7-0.5-1.1-0.8-1.6c-1.5-2.7-3-5.5-4.5-8.2c-1.7-3-3-6.3-4-9.6c-0.6-1.9-0.8-4-0.5-6c0.3-2,1.2-3.5,3.3-4.1
			C109.4,0,112.9,0,113.1,0z M80.5,39.8c-0.3,1.3-1.6,1.8-2.8,2.4c-2,1.1-3.9,2.5-5.4,4.2c-1.8,1.8-3.7,3.7-5.4,5.6
			c-1.2,1.2-2.2,2.5-3.1,4c-2.1,4-3,8.6-2.4,13.1c0.9,6.4,4,11.4,10.1,14c2.8,1.2,5.7,2.2,8.7,2.9c3.6,0.7,7.2,1.2,10.8,1.5
			c4.2,0.5,8.5,1,12.8,1.1c6.5,0.2,13.1,0.1,19.6,0c3-0.1,6-0.5,9-1c3.4-0.5,6.7-1.3,10-1.9c2-0.4,4.1-0.5,6.1-1
			c5.7-1.5,11.2-3.8,16.2-6.8c1.3-0.8,2.4-1.7,3.4-2.8c6.9-7,6.9-16.3,1.8-23.8c-2.6-3.7-5.8-6.9-9.5-9.5c-2.6-1.8-5.1-3.9-8-5.1
			c-5.9-2.4-12-4.8-18.5-5c-1.1,0-2-0.7-2.1-1.8c-0.9-3.5-2.4-6.9-4.2-10c-2.5-4.8-5.8-9.1-9.5-13c-1.2-1.1-2.5-2.1-3.8-3
			c-1-0.7-2.1-1-3.3-0.9c-1.2,0.1-1.5,0.3-1.7,1.5c-0.2,1.6-0.1,3.3,0.5,4.8c0.9,3.1,2.2,6.2,3.8,9c2,3.7,4.1,7.5,6.1,11.2
			c1,1.8,0.3,3.2-1.8,3.2c-1.4,0-2.9-0.2-4.3-0.2c-2.1-0.1-4.2-0.1-6.3,0.1c-4.9,0.6-9.8,1.5-14.9,2.3c-0.3-0.5-0.7-1.1-1.1-1.7
			c-2.5-3.5-4.8-7.1-7.5-10.3c-2.5-2.9-5.4-5.4-8.6-7.4c-3.4-2.4-7.3-4.1-11.4-4.9c-1.8-0.3-2.3,0.1-2.8,1.8c-0.4,1.7-0.1,3.5,0.8,5
			c1.3,2.3,2.8,4.4,4.6,6.2c0.4,0.5,0.8,1,1.2,1.5c0.6,0.8,1.1,1.7,1.8,2.4C72.8,31.6,77.5,34.7,80.5,39.8z M90.1,91.8
			c0.4,3.1,1.8,5.9,4.1,8.1c2.6,2.6,6,4.3,9.6,5c1.5,0.3,3,0.7,4.5,0.8c3.4,0.4,6.8,0.6,10-1.2c2.7-1.4,5.1-3.2,7.2-5.4
			c0.6-0.6,1.1-1.3,1.8-2c-2.9-1.1-5.5-2.1-8.2-3c-1.9-0.7-3.9-1.3-5.9-1.9c-0.5-0.2-0.9-0.2-1.4-0.3c-6.3-0.1-12.7-0.2-19-0.2
			L90.1,91.8z"/>
		<path class="st6" d="M222.1,171c-0.5,1.5-1,2.9-1.7,4.3c-2.2,4.1-5.1,7.8-8.6,10.9c-6.1,5.8-13,10.7-20.4,14.7
			c-3.6,1.9-7.1,4.1-10.7,6.2c1,2.7,0.1,4.9-1.6,6.7c-2,2.1-4.9,3.1-7.7,2.6c-4.4-0.5-7.1-3.2-8.7-7.1c-1.8-4.5-2.7-9.4-2.6-14.3
			c0-2,0.8-3.9,2.4-5.2c2.5-2.1,5.1-3.9,7.9-5.5c3.8-2.2,7.5-4.5,11.2-6.8c2.6-1.6,4.9-3.6,6.7-6c0.9-1.3,1.7-2.8,2.4-4.2
			c0.5-1.2,0.5-2.5,0-3.7c-0.6-2-1.6-3.8-2.8-5.5c-1-1.4-2-2.9-3-4.3l2.4-2.5c2.6,3.6,5.4,6.9,6.8,11.2c0.7,2.2,0.6,4.6-0.3,6.8
			c-1.1,2.6-2.8,5-4.8,6.9c-3.7,3.5-8,6.1-12.3,8.7c-1.6,1-3.3,1.8-4.9,2.8s-2.9,1.9-4.3,2.9c-0.9,0.6-1.7,1.2-2.6,1.7
			c-1,0.7-1.5,1.8-1.4,3c0,1.5,0.2,3.1,0.3,4.6c0.3,2.8,1,5.5,2.1,8.1c1.1,2.9,3,4.9,6.3,5.4c2.7,0.4,5.3-1.4,6-4l-1,0.6
			c-0.6,0.5-1.5,0.4-2-0.1c-0.6-0.5-0.8-1.3-0.3-2c0.3-0.6,0.8-1.1,1.3-1.5c3.1-2,6.2-4.1,9.3-6c2.1-1.3,4.2-2.4,6.4-3.6
			c7.4-4.2,14.2-9.4,20.1-15.5c2.3-2.4,4.3-5.1,5.8-8c1.2-2.3,1.6-5,1-7.5c-0.9-5.1-2.8-10-5.6-14.3c-2.9-4.9-6.1-9.7-9.5-14.2
			c-0.1-0.1,1.7-1.9,1.9-1.7c4.9,6,9.3,12.5,13.2,19.2c1.9,3.3,2.6,7.1,3.4,10.8C222.2,167.3,222.2,169.1,222.1,171z"/>
		<path class="st6" d="M51.6,156l1.8,2c-0.3,0.4-0.6,0.8-0.9,1.2c-2.1,2.9-4.3,5.8-6.4,8.7c-1.2,1.5-2,3.5-2,5.4
			c0,1.9,0.8,3.6,2.2,4.8c2.3,1.9,4.7,3.8,7.1,5.6c2.1,1.6,4.3,3,6.5,4.5c0.2,0.2,0.5,0.3,0.9,0.5c0-0.5,0.1-0.9,0.1-1.3
			c0.1-11.2,0.2-22.5,0.3-33.7c0.1-5.6,0.6-11.2,1.3-16.8c0.1-1.1,0.3-2.3,0.4-3.4c0-0.3,0.1-0.6,0.2-0.8c0.2-0.7,0.7-1.2,1.5-1.1
			c0.7,0.1,1.1,0.8,1,1.5c0,0,0,0,0,0.1c-0.2,2.8-0.5,5.6-0.7,8.3c-0.3,4-0.7,8-0.7,11.9c-0.1,7.5,0,15-0.1,22.5
			c-0.1,15.1-0.3,30.2-0.5,45.4c0,2.2,0,4.4,0,6.8c0.8,0,1.6,0,2.4,0c5.5,0.3,10.9,0.7,16.4,1s11.1,0.5,16.7,0.6
			c14.8,0.3,29.7-0.1,44.5-0.6c6.9-0.2,13.7-1,20.4-2.2c2.9-0.5,5.9-0.9,8.8-1.3c0.8-0.2,1.6,0.1,2.1,0.7c0.5,0.7,0.4,1.7-0.3,2.3
			c-0.1,0.1-0.2,0.1-0.3,0.2c-0.5,0.2-1,0.4-1.5,0.4c-5,0.7-9.9,1.6-14.9,2.1c-5.2,0.6-10.4,1.1-15.6,1.2
			c-13.9,0.3-27.7,0.5-41.6,0.6c-6.6,0-13.1-0.4-19.7-0.7c-5.9-0.3-11.9-0.8-17.8-1.2c-0.9-0.1-1.8-0.2-2.8-0.4v-9.3l-3.6-0.3
			c-0.2,0-0.5-0.1-0.7-0.1c-5.2-1.6-6.8-4.4-5-9.6c0.1-0.2,0.2-0.4,0.3-0.7c-2.8-1.6-5.5-3.2-8.2-4.8c-3.5-2-7.2-3.8-10.7-6
			c-7.8-4.9-12.7-11.6-13.6-21c-0.8-7.3,0.2-14.6,2.8-21.5c2.4-6.6,5.7-12.8,9.9-18.4c0.1-0.2,0.3-0.4,0.4-0.6
			c0.4-0.5,1.1-0.6,1.6-0.2c0,0,0,0,0.1,0c0.5,0.5,0.5,0.9,0.1,1.5c-3.9,6.3-7.1,13-9.5,20.1c-2.6,7.3-3,15.1-1.3,22.6
			c0.9,3.7,2.8,7.2,5.6,9.9c1.5,1.7,3.3,3.1,5.3,4.1c1.9,0.9,3.6,2.2,5.4,3.2c4.9,2.7,9.8,5.4,14.8,8.1c1.7,0.9,2.1,1.9,1,3.6
			c-0.7,1-1,2.1-1.1,3.2c-0.1,0.7,0.3,1.4,0.9,1.9c1.4,1,3.2,1.5,4.9,1.3c0.7,0,1-0.4,1-1.1c0.1-7.7,0.2-15.5,0.3-23.2
			c0-0.7-0.4-1.4-1-1.7c-5-3.6-10.4-6.6-15-10.7c-0.5-0.5-1.1-0.9-1.6-1.5c-2.8-2.9-3.4-7.2-1.6-10.8c0.7-1.3,1.5-2.5,2.4-3.7
			c1.8-2.4,3.6-4.7,5.5-7C50.3,157.4,50.9,156.8,51.6,156z"/>
		<path class="st6" d="M162.6,138.7c0.2-0.9,0.4-1.8,0.6-2.7c0.3-1.5,0.7-3,1-4.5c0.1-0.3,0.1-0.7,0.3-0.9s0.8-0.7,1.2-0.6
			c0.5,0.2,0.8,0.5,1,1c0.1,0.5,0.1,1,0,1.6c-0.9,4.7-1.8,9.4-2.8,14.1c-0.1,0.4-0.2,0.7-0.3,1.1c-0.2,0.6-0.8,1.1-1.4,0.9
			c-0.7-0.1-0.9-0.6-0.9-1.3c-0.2-1.6-0.4-3.2-0.8-4.8c-0.7-2.8-1.5-5.5-2.2-8.3c-0.3-1.2-0.4-2.4-0.5-3.7c-0.1-0.6,0-1.2,0.7-1.4
			c0.7-0.2,1.4,0.2,1.6,0.9c0.2,0.5,0.3,0.9,0.4,1.4l1.7,7.2L162.6,138.7z"/>
		<path class="st7" d="M139,49.8l-6.6-0.4c0,1,0,1.9,0,2.8c0.2,3.5-1.1,6.9-3.4,9.5c-1.1,1.3-2.6,2.2-4.3,2.3
			c-2.8,0.3-5.7,0.5-8.6,0.3c-3.5-0.3-6.6-2.5-8.1-5.7c-1.3-2.5-2.1-5.2-2.2-8c-0.1-1-0.1-2-0.1-3c0-0.5,0.3-1,0.9-1.2
			c1.8-0.9,3.7-1.4,5.6-1.6c3.4-0.3,6.8-0.6,10.2-0.7c3.1-0.1,6.2,0.7,9,2.2c0.4,0.2,0.8,0.2,1.2,0.2c2.1,0.2,4.2,0.3,6.3,0.4
			c0.6,0.1,1.1,0,1.6-0.4c0.6-0.5,1.4-0.8,2.2-1c3.1-0.9,6.4-1.2,9.7-1c3.2,0.2,6.5,0.7,9.6,1.6c1.4,0.4,1.6,0.7,1.8,2.2
			c0.4,4-0.9,7.7-2.5,11.2c-2.5,5.4-8.8,7.7-14.2,5.3c-0.6-0.3-1.3-0.7-1.8-1.1c-3.9-2.7-5.8-6.7-6.1-11.5
			C139,51.5,139,50.7,139,49.8z"/>
		<path class="st6" d="M138,73.4c-3.8-0.2-7.5-1.1-11-2.5c-1-0.4-1.4-1.1-1.1-1.9s1-1,2.1-0.7c2.5,0.7,5,1.4,7.5,1.9
			c2.4,0.5,4.9,0.1,7.1-1c0.2-0.1,0.5-0.2,0.8-0.3c0.6-0.3,1.4-0.1,1.8,0.5c0.4,0.5,0.2,1.3-0.3,1.7c0,0-0.1,0.1-0.1,0.1
			c-0.9,0.6-2,1.2-3.1,1.5C140.5,73,139.2,73.2,138,73.4z"/>
		<path class="st8" d="M133.8,57.7c0.2-1.2,0.3-2.4,0.5-3.6c0.1-0.7,0.6-1.2,1.2-1.2c0.7-0.1,1.4,0.3,1.6,0.9
			c0.3,0.6,0.4,1.3,0.5,1.9c0.1,2.1,0.1,4.3,0.1,6.4c0,0.3,0,0.6-0.1,0.8c-0.2,0.7-0.8,1.3-1.6,1.3c-0.8-0.1-1.5-0.8-1.5-1.6
			C134.2,61,134,59.3,133.8,57.7z"/>
	</g>
</g>
</svg>
