<?xml version="1.0" encoding="UTF-8" standalone="no"?>
<svg width="216px" height="250px" viewBox="0 0 216 250" version="1.1" xmlns="http://www.w3.org/2000/svg" xmlns:xlink="http://www.w3.org/1999/xlink">
    <!-- Generator: Sketch 43.2 (39069) - http://www.bohemiancoding.com/sketch -->
    <title>photoprint</title>
    <desc>Created with Sketch.</desc>
    <defs></defs>
    <g id="Page-1" stroke="none" stroke-width="1" fill="none" fill-rule="evenodd">
        <g id="photoprint" transform="translate(109.000000, 123.000000) rotate(-5.000000) translate(-109.000000, -123.000000) translate(-2.000000, -6.000000)" fill-rule="nonzero" fill="#865cd0">
            <path d="M221.7,78.1 C221.5,77.7 220.9,77.3 220.4,77.1 C218.9,76.6 217.2,76.3 215.7,75.9 C214.1,75.4 212.6,74.7 211,74.3 C206.2,73 201.5,71.9 196.7,70.6 C193.4,69.7 190.1,68.5 186.8,67.5 C184,66.6 181.2,65.8 178.5,64.9 C177.2,64.5 175.8,64 174.5,63.7 C170.7,62.9 166.9,62.2 163.2,61.4 C159,60.5 154.9,59.6 150.7,58.7 C150.5,58.7 150.2,58.2 150.2,58 C150.7,55.3 151.3,52.7 151.8,50.1 C152,49.1 152.2,48.1 152.3,47.1 L152.3,46.9 C153.1,41.2 153.6,35.4 154.1,29.6 C154.1,27.8 154.2,26 154,24.2 C154,23.5 154.3,22.5 153.2,22.2 C152.2,21.9 151.2,21.6 150.2,21.2 C149.4,21 148.6,20.7 147.7,20.5 C144.7,19.9 141.7,19.3 138.8,18.7 C134.5,17.8 130.3,16.8 126,15.9 C121.6,15 117.2,14.1 112.8,13.3 C108.6,12.5 104.4,11.6 100.2,10.9 C97.5,10.4 94.7,10.1 91.9,9.6 C89.1,9.2 86.3,8.7 83.4,8.3 C81,8 78.6,7.8 76.2,7.4 C72.8,6.9 69.5,6.2 66.1,5.6 C63.1,5 60.1,4.4 57,3.7 C54.2,3.1 51.4,2.4 48.6,1.7 C46.9,1.3 45.1,0.8 43.4,0.3 L43.2,0.3 C42.8,2.2 42.4,4.1 42,6 C41.4,8.8 40.8,11.6 40.3,14.4 C39.9,16.3 39.7,18.2 39.3,20.1 C39,21.8 38.5,23.4 38.2,25 C37.8,26.8 37.5,28.6 37,30.4 C36.6,32 36.1,33.5 35.8,35.1 C35.2,37.8 34.6,40.5 33.9,43.2 C33.5,45 32.9,46.7 32.4,48.5 C32,50.2 31.7,52 31.1,53.7 C30.2,56.5 29.2,59.2 28.3,62 C27.9,63.2 27.6,64.5 27.2,65.8 C26.4,68.2 25.6,70.6 24.8,73 C23.8,76.2 22.8,79.3 21.8,82.5 C20.9,85.2 20,87.8 19.1,90.5 C17.5,94.9 15.9,99.3 14.3,103.6 C14.1,104 14,104.5 13.8,104.9 C10.7,117.4 6.1,129.7 0.8,141.5 C1.5,141.9 2.3,142.2 3,142.6 C4.1,143.1 5.2,143.5 6.2,144 C7.6,144.7 9,145.5 10.4,146.1 C11.6,146.6 12.9,146.9 14.1,147.4 C15.9,148 17.6,148.7 19.4,149.3 C21.8,150.2 24.3,151.1 26.7,152 C28.4,152.7 30,153.5 31.7,154.2 C34.3,155.3 37,156.4 39.7,157.3 C41.3,157.8 40.5,158.4 40.2,159.2 C40,159.6 39.9,160 39.6,160.3 C37.6,162.8 36.8,165.9 35.4,168.7 C34.4,170.6 33.6,172.7 32.8,174.7 C32.2,176.2 31.6,177.7 30.8,179.1 C30.1,180.5 29.2,181.9 28.4,183.3 C27.8,184.3 27.1,185.4 26.5,186.4 C25.9,187.5 25.4,188.6 24.8,189.7 C23.6,191.7 22.3,193.7 21.2,195.8 C20.4,197.2 19.9,198.7 19.3,200.2 C18.8,201.3 18.9,202.5 19.7,203.4 C20.2,204 21.1,204.3 20.8,205.4 C20.8,205.6 21.2,206 21.5,206.1 C23.4,207.3 25.2,208.4 27.1,209.5 C29.2,210.7 31.5,211.8 33.6,213 C35.2,214 36.8,215.1 38.4,216.1 C41.7,218.2 45,220.2 48.4,222.2 C50.5,223.5 52.6,224.7 54.7,226 C56.7,227.2 58.8,228.3 60.9,229.4 C63.7,230.8 66.5,232.1 69.3,233.5 C70.8,234.2 72.2,234.9 73.7,235.7 C76.5,237 79.4,238.4 82.2,239.7 C84.5,240.8 86.8,242 89.1,243.1 C92.6,244.8 96,246.4 99.5,248 C102.9,249.6 106.4,250.9 109.8,252.6 C112.5,253.9 115,255.3 117.6,256.8 C118.2,257.1 118.5,257.1 118.7,256.6 C119.6,255 121.3,254.3 122.2,252.6 C123.3,250.5 125.4,249 126.9,247 C130.3,242.5 133.7,238 137,233.5 C138.4,231.6 139.6,229.5 140.9,227.5 C141.1,227.2 141.6,226.8 142,226.8 C142.6,226.8 143.2,227.1 143.8,227.3 C147.7,228.3 151.6,229.4 155.5,230.4 C157.7,230.9 159.9,231.4 162.1,231.8 C163,232 164.1,231.9 165,232.3 C166.9,233.1 166.9,233.1 168.1,231.4 C168.4,230.9 168.7,230.4 169.1,229.9 C169.4,229.6 169.8,229.4 170.1,229.1 C170.7,228.7 171.5,228.3 172,227.8 C172.6,227.1 172.9,226.3 173.3,225.5 C174.5,223.2 175.7,221 176.9,218.7 C177.1,218.3 177.5,217.9 177.7,217.4 C179.3,214.2 180.8,211.1 182.4,207.9 C183.1,206.4 183.9,204.9 184.7,203.4 C185.4,202.2 186.1,201 186.7,199.7 C187.5,198 188.2,196.3 189,194.6 C189.9,192.5 191,190.4 191.8,188.3 C193.7,183.3 195.5,178.2 197.3,173.1 C198.4,170 199.4,167 200.6,163.9 C201.5,161.5 202.7,159.3 203.5,156.9 C204.9,152.9 206.1,148.7 207.5,144.7 C208.9,140.7 210.7,136.8 212.2,132.7 C213.1,130.2 213.7,127.6 214.4,125.1 C215.4,121.4 216.3,117.6 217.2,113.9 C217.4,113.2 217.6,112.5 217.8,111.8 C219.1,102.2 220.4,92.6 221.5,83 C221.6,81.8 221.7,80.6 221.8,79.4 C221.9,78.8 221.8,78.4 221.7,78.1 Z M33.3,146.6 C29.8,145.3 26.2,144.1 22.6,142.9 C21,142.3 19.5,141.6 18,141 C15.7,140.2 13.3,139.4 10.9,138.7 C10.4,138.5 10.3,138.4 10.5,138 C12.6,133.2 14.7,128.5 16.6,123.7 C18.3,119.5 19.9,115.2 21.5,110.9 C22.9,107.3 24.3,103.6 25.7,100 C26.7,97.2 27.6,94.4 28.5,91.6 C30.3,86 32,80.3 33.8,74.7 C34.8,71.6 36,68.5 37,65.4 C37.7,63.4 38.2,61.4 38.7,59.4 C39.5,56.3 40.4,53.3 41.1,50.2 C41.8,47.5 42.3,44.9 42.9,42.2 C43.7,39 44.5,35.9 45.2,32.7 C45.6,31 45.9,29.2 46.3,27.4 C46.8,24.3 47.4,21.2 47.8,18.2 C48.2,15.1 48.3,11.9 48.5,8.8 C49.4,9.1 50.3,9.3 51.2,9.6 C52.4,10 53.6,10.4 54.9,10.7 C57.8,11.3 60.8,11.9 63.8,12.5 C65.5,12.9 67.2,13.3 68.9,13.7 C72.4,14.4 75.9,15 79.5,15.6 C82.9,16.2 86.2,16.7 89.6,17.2 C92.1,17.6 94.6,17.8 97.1,18.3 C99,18.6 100.9,19.1 102.8,19.5 C104,19.8 105.3,19.9 106.5,20.2 C108.7,20.6 110.9,21 113.1,21.5 C116.2,22.1 119.3,22.7 122.4,23.4 C125.1,24 127.9,24.7 130.6,25.3 C131.7,25.6 132.9,25.7 134,25.9 C135.8,26.3 137.6,26.7 139.4,27.1 C141.7,27.6 144,28 146.4,28.4 C148.1,28.7 148.5,29.4 147.9,31.2 C147.5,32.7 147.3,34.2 147,35.7 C146.7,37.2 146.4,38.6 146.1,40.1 C145.8,41.7 145.7,43.3 145.4,44.8 C145.1,46.3 144.5,47.7 144.2,49.2 C143.8,51.1 143.5,53.1 143.1,55.1 C142.8,56.3 142.4,57.5 142,58.7 C141.7,59.9 141.4,61.1 141.1,62.3 C140.8,63.5 140.4,64.8 140.1,66 C138.9,71.4 137.7,76.8 136.5,82.2 C136.1,84.2 135.5,86.3 135.1,88.3 C134.6,90.8 134.3,93.3 133.7,95.7 C132.8,99.6 131.6,103.4 130.6,107.2 C130,109.3 129.4,111.5 128.8,113.6 C128.2,115.4 127.6,117.2 127,119 C126.3,121.1 125.7,123.3 125,125.4 C124.5,126.9 124,128.5 123.5,130 C123.1,131.3 122.8,132.6 122.3,133.8 C122,134.8 121.5,135.8 121.1,136.8 C119.9,139.4 118.7,142.1 117.6,144.7 C117.1,145.9 116.7,147.3 116.1,148.5 C115.4,149.9 114.6,151.2 113.8,152.5 C112.8,154.5 111.8,156.4 110.8,158.4 C109.5,161.1 108.2,163.8 106.9,166.6 C105.7,169.3 104.6,172 103.5,174.7 C103.3,175.3 103,175.5 102.4,175.2 C98,173.2 93.4,171.8 88.8,170.3 C85.4,169.2 82.2,167.7 78.9,166.4 C76.6,165.5 74.2,164.6 71.8,163.7 C70.5,163.2 69.2,162.5 67.9,161.9 C63.7,160 59.6,158 55.4,156.1 C52.2,154.7 49,153.3 45.8,151.9 C41.9,150 37.6,148.2 33.3,146.6 Z M143,207.3 C141.5,210.2 140.1,213.1 138.6,215.9 C136.9,219.2 135.3,222.5 133.4,225.6 C131.3,229 128.9,232.2 126.6,235.5 C124.6,238.4 122.6,241.2 120.5,244.1 C119.3,245.8 118.1,247.4 116.9,249.1 C116.6,249.5 116.4,249.8 115.9,249.3 C115.7,249.1 115.4,249.2 115.1,249.1 C114.9,249 114.7,248.8 114.5,248.7 L114.4,248.6 C114.3,248.7 114.1,248.8 114,248.8 C113,248.1 112,247.4 110.9,246.8 C109.6,246 108.2,245.3 106.8,244.6 C105.5,243.9 104.1,243.3 102.8,242.6 L96.8,239.6 C93.8,238.1 90.8,236.5 87.7,235 C86.3,234.3 84.8,233.9 83.4,233.2 C81.8,232.5 80.4,231.6 78.8,230.8 C76.3,229.6 73.7,228.4 71.2,227.2 C68.4,225.8 65.6,224.3 62.8,223 C58.2,220.8 54.1,217.8 49.8,215.2 C48.2,214.3 46.5,213.5 44.9,212.6 C43.4,211.7 42,210.7 40.6,209.8 C38.2,208.3 35.7,206.7 33.3,205.2 C31.4,204.1 29.4,203 27.5,201.9 C27.4,201.8 27.3,201.5 27.4,201.4 C28.4,199.5 29.4,197.6 30.4,195.8 C33.2,190.7 36.1,185.6 38.7,180.4 C40.2,177.5 41.2,174.3 42.5,171.3 C44.1,167.7 45.8,164.2 47.5,160.7 C47.5,160.6 47.8,160.6 47.9,160.6 C48.4,160.8 49,161 49.5,161.3 L54.3,163.7 C58.1,165.4 62,167.1 65.8,168.9 C68.5,170.2 71.1,171.6 73.8,172.9 C75.5,173.7 77.3,174.4 79.1,175.1 C80.7,175.7 82.3,176.3 83.9,176.8 C85.3,177.3 86.8,177.6 88.2,178.1 C89.7,178.6 91.2,179.1 92.7,179.6 C94.8,180.2 97,180.6 99.1,181.3 C100.2,181.6 101.6,181.1 102.4,182.4 C102.4,182.5 102.8,182.4 102.9,182.4 C103.7,182.3 104.5,182.1 105.3,182.1 C107.1,182.2 107.5,180.8 108.2,179.8 C110.2,176.5 112.1,173.2 114,169.8 C116.2,165.8 118.2,161.6 120.3,157.6 C121.9,154.4 123.7,151.3 125.2,148.1 C126.6,145 127.8,141.8 128.9,138.6 C130.8,133.3 132.6,128 134.3,122.7 C135.1,120.1 135.7,117.4 136.5,114.8 C137,113.2 137.8,111.8 138.3,110.2 C139,107.7 139.6,105.2 140.3,102.7 C140.5,102 140.6,101.3 140.8,100.6 C141.2,99.1 141.3,99 142.9,99.5 C145.6,100.4 148.2,101.3 150.9,102.3 C153.6,103.4 156.3,104.6 159.1,105.6 C161.2,106.4 163.4,106.8 165.5,107.4 C168.1,108.1 170.8,108.9 173.4,109.7 C176.7,110.7 179.9,111.7 183.2,112.7 C184,112.9 184.2,113.1 184.1,114 C183.4,118 182.3,121.8 181,125.5 C180.2,127.7 179.6,130.1 178.8,132.3 C178.3,133.6 177.8,134.9 177.2,136.2 C176.1,138.7 175,141.2 173.8,143.7 C172.6,146.3 171.4,148.9 170.2,151.5 C168.7,154.8 167.3,158.2 165.8,161.5 C164.7,164.1 163.6,166.8 162.5,169.4 C161.6,171.5 160.6,173.5 159.6,175.6 C158.5,177.9 157.5,180.2 156.4,182.5 C155.5,184.3 154.5,186 153.6,187.8 C152.6,189.8 151.7,191.9 150.7,193.8 C149.7,195.7 148.6,197.5 147.6,199.4 C145.8,201.7 144.4,204.5 143,207.3 Z M216,89.8 C215.6,91.5 215.2,93.2 214.8,94.9 C214.1,97.8 213.5,100.7 212.7,103.5 C211.8,106.9 210.8,110.2 209.8,113.5 C209.3,115.3 208.9,117 208.5,118.8 C208,120.9 207.6,123 207,125.1 C206.4,127.1 205.6,129.1 204.9,131.1 C204.1,133.3 203.3,135.6 202.5,137.8 C201.8,139.7 200.9,141.6 200.2,143.6 C199.4,145.8 198.8,148.1 198,150.3 C196.5,154.4 194.8,158.5 193.4,162.6 C192,166.6 190.7,170.7 189.4,174.7 C188.7,176.7 188,178.6 187.2,180.6 C186,183.4 184.8,186.2 183.6,189 C182.6,191.2 181.6,193.3 180.6,195.5 C179,198.7 177.4,201.8 175.8,205 C174.9,207 174.2,209.1 173.3,211.1 C172.8,212.3 172.4,213.5 171.3,214.4 C170.6,215 169.8,215.7 169.6,216.9 C169.5,217.9 168.6,218.8 168,219.8 C167.3,221.1 166.5,222.3 165.9,223.6 C165.6,224.2 165.4,224.2 164.9,224.1 C161.7,223.2 158.5,222.3 155.3,221.5 C152.7,220.8 150.2,220 147.5,219.7 C146.8,219.6 146.3,218.5 145.4,219.3 C146.8,216.5 148.2,213.7 149.7,211 C152.3,206.2 155,201.4 157.5,196.5 C159.6,192.4 161.5,188.2 163.5,184 C164.9,181.1 166.4,178.2 167.7,175.3 C169.3,171.7 170.7,168 172.3,164.3 C173.1,162.5 173.9,160.8 174.7,159 C175.7,156.6 176.8,154.2 177.8,151.9 C178.7,149.9 179.6,147.9 180.4,145.9 C181.9,141.4 183.4,136.8 184.7,132.3 C185.8,127.8 186.8,123.3 187.8,118.8 C188.1,115.2 188.3,111.6 188.3,108 C187.4,107.5 186.5,107.1 185.4,106.9 C184,106.8 182.6,105.9 181.2,105.4 C179.4,104.8 177.7,104.1 175.7,103.9 C174.9,103.8 174.2,103.3 173.4,103 C171.1,102.3 168.9,101.7 166.6,100.9 C163.1,99.7 159.6,98.5 156,97.3 C154,96.6 152,95.9 149.9,95.3 C147.4,94.6 144.9,94 142.5,93.3 C142.3,93.2 142.1,92.8 142.1,92.6 C143,87.8 144,83.1 145,78.3 C145.8,74.4 146.8,70.5 147.6,66.7 C147.7,66.2 148,65.7 148,65.2 C148,63.7 149,63.9 149.9,64.1 C153.5,65.1 157.1,66.1 160.6,67.1 C162.6,67.7 164.7,68.1 166.8,68.7 C170.6,69.8 174.5,70.8 178.3,72 C181.2,72.9 184.1,73.9 187.1,74.8 C189.5,75.5 191.8,76.2 194.2,76.9 C197.2,77.8 200.1,78.7 203.1,79.5 C204.2,79.8 205.3,79.9 206.3,80.2 C207.6,80.6 208.9,81.2 210.3,81.6 C211,81.8 211.8,81.8 212.5,82 C213.6,82.3 214.8,82.5 215.8,83.1 C216.3,83.4 216.6,84.6 216.5,85.3 C216.6,87.1 216.3,88.5 216,89.8 Z" id="Shape"></path>
            <path d="M131.6,53.6 C131.3,54.1 131.2,54.5 131.2,54.5 C130.9,54.5 130.4,54.5 130.2,54.3 C129.4,53.2 127.8,52.7 127.6,51.1 C127.6,50.9 127,50.8 126.9,50.5 C125.2,48 123.4,45.5 121.7,42.9 C120.6,41.2 119.4,39.4 118.4,37.7 C117.6,36.4 116.9,35.1 116.2,33.7 C116,33.3 116.2,32.7 116.3,32.1 C116.8,32.2 117.3,32.2 117.7,32.4 C118.7,33 119.8,33.6 120.6,34.4 C121.4,35.2 122,36.3 122.7,37.3 C123.4,38.5 124.1,39.8 124.8,41 C125.4,42 126.1,42.9 126.7,43.9 C127.5,45.2 128.4,46.5 129.1,47.9 C130,49.8 130.8,51.8 131.6,53.6 Z" id="Shape"></path>
            <path d="M65.9,126.5 C66.5,127.6 66.9,128.7 67.6,129.7 C68.5,131.2 69.6,132.5 70.5,134 C71.6,135.8 72.7,137.6 73.7,139.5 C74.6,141.1 75.5,142.8 76.2,144.5 C76.4,145.1 76.1,145.9 76,146.6 C75.3,146.3 74.4,146.2 73.9,145.7 C73.4,145.2 73.3,144.3 73,143.6 C72.3,141.7 71.6,139.8 70.7,137.9 C69.8,136 68.8,134.1 67.8,132.2 C67,130.7 66.1,129.3 65.3,127.8 C65.1,127.5 65.4,127 65.5,126.6 C65.6,126.6 65.7,126.6 65.9,126.5 Z" id="Shape"></path>
            <path d="M133,42.1 C133,43.5 132.8,43.6 131.7,43.1 C129.4,42.1 128,40.2 126.9,38.1 C126.3,37 125.8,35.8 125.2,34.7 C125.1,34.4 124.9,34.1 124.9,33.9 C124.9,33.3 124.9,32.6 125.2,32.2 C125.7,31.6 126.2,32.1 126.8,32.5 C127.9,33.2 129.2,33.6 129.7,35 C130.7,37.3 131.7,39.5 132.8,41.7 C133,41.7 133,42 133,42.1 Z" id="Shape"></path>
            <path d="M58.8,134.2 C58.3,133.9 58.4,132.9 57.3,133.2 C57,133.3 56.4,132.3 56.1,131.7 C55.4,130.2 54.6,128.6 54.1,127 C53.9,126.3 53.8,125.1 54.2,124.8 C54.9,124.2 56.5,125.2 56.9,126.2 C57.5,127.7 58.2,129.2 58.7,130.7 C59.1,131.8 60.1,133 58.8,134.2 Z" id="Shape"></path>
            <path d="M48.9,124.7 C49.9,124.7 51.3,125.9 51.4,126.9 C51.4,127.2 51.2,127.7 51,128 C50.9,128.1 50.4,128 50.2,127.8 C49.4,127.3 48.5,126.8 48,126.1 C47.8,125.6 48,124.7 48.9,124.7 Z" id="Shape"></path>
            <path d="M105.6,214.3 C105.2,213.5 104.7,212.8 104.4,212 C104.1,211.3 104.2,210.6 104,209.8 C103.3,207.2 102.6,204.5 101.9,201.9 C101.7,201.2 101.4,200.6 101.2,199.9 C101.1,199.4 101.2,198.8 101.1,198.3 C101.1,198 101,197.7 100.8,197.6 C99.9,197.2 100.3,196.6 100.4,196 C100.5,195.7 100.8,195.2 100.8,195.2 C101.1,195.3 101.6,195.4 101.8,195.7 C102.9,197.6 103.5,199.6 103.9,201.8 C104.2,203.3 104.9,204.6 105.2,206.1 C105.6,207.5 105.7,209 106.1,210.4 C106.3,211.2 106.7,212 106.9,212.8 C107.1,213.5 107.1,214.3 107.2,215 L107.2,215 C106.8,214.9 106.3,214.7 105.9,214.6 C106,214.5 106,214.4 106.1,214.2 C105.9,214.3 105.7,214.3 105.6,214.3 Z" id="Shape"></path>
            <path d="M116.6,207.5 C116.4,209.4 116.4,209.3 114.5,208.7 C113.1,208.3 112.4,207.3 112,206.1 C111.5,204.6 111.2,203.1 110.7,201.7 C110.6,201.3 110,201.1 110,200.7 C109.9,200.2 110.2,199.6 110.3,199.1 C110.8,199.3 111.4,199.3 111.8,199.6 C113.9,200.9 114.7,203.1 115.5,205.3 C115.8,206 116.3,206.7 116.6,207.5 Z M114.6,203.2 C114.6,203.2 114.5,203.2 114.6,203.2 C114.5,203.2 114.5,203.3 114.5,203.3 C114.5,203.3 114.6,203.3 114.6,203.2 C114.6,203.3 114.6,203.2 114.6,203.2 Z" id="Shape"></path>
            <path d="M107.2,215.1 C107.3,215.2 107.4,215.2 107.4,215.3 C107.3,215.2 107.2,215.2 107.2,215.1 L107.2,215.1 Z" id="Shape"></path>
            <path d="M114.3,248.4 C114.4,248.4 114.4,248.3 114.5,248.3 C114.5,248.4 114.5,248.4 114.3,248.4 C114.4,248.5 114.3,248.4 114.3,248.4 Z" id="Shape"></path>
            <path d="M170.9,208 C170.4,208.2 170.1,208.4 169.9,208.4 C166.7,207.3 164.8,204.9 164.1,201.7 C164,201.1 164.2,200.4 164.2,199.7 C164.7,199.8 165.2,200 165.7,200.1 C166.9,200.2 167.4,200.7 168.1,201.8 C168.9,203 169.1,204.4 169.7,205.6 C170.1,206.2 170.4,207 170.9,208 Z" id="Shape"></path>
            <path d="M165.6,213 C163.8,212.9 162.8,212.1 162.2,210.7 C161.9,209.9 161.6,209.1 161.4,208.3 C161.3,207.8 161.6,207.3 161.7,206.7 C162.1,206.9 162.5,207 162.8,207.2 C164.2,207.9 164.4,209.3 165,210.6 C165.2,211.1 165.6,211.6 165.8,212.1 C166,212.4 165.7,212.8 165.6,213 Z" id="Shape"></path>
            <path d="M172.2,192.4 C171.5,192.4 170.8,192.4 170.3,192.3 C169.9,192.2 169.4,191.8 169.2,191.4 C168.5,190.2 168.8,189 169.4,187.8 C169.5,187.6 170.1,187.5 170.3,187.6 C171.2,188.1 172,188.6 172,189.8 C172,190 172.4,190.3 172.5,190.5 C172.6,190.9 172.5,191.4 172.4,191.8 C172.3,192 172.2,192.3 172.2,192.4 Z" id="Shape"></path>
        </g>
    </g>
</svg>