<?xml version="1.0" encoding="UTF-8" standalone="no"?>
<svg width="245px" height="328px" viewBox="0 0 245 328" version="1.1" xmlns="http://www.w3.org/2000/svg" xmlns:xlink="http://www.w3.org/1999/xlink">
    <!-- Generator: Sketch 43.2 (39069) - http://www.bohemiancoding.com/sketch -->
    <title>artboard</title>
    <desc>Created with Sketch.</desc>
    <defs></defs>
    <g id="Page-1" stroke="none" stroke-width="1" fill="none" fill-rule="evenodd">
        <g id="artboard" transform="translate(122.000000, 164.000000) rotate(-3.000000) translate(-122.000000, -164.000000) translate(-7.000000, -4.000000)" fill-rule="nonzero" fill="#865cd0">
            <path d="M60.3,0.9 C62.2,1.4 64,1.9 65.9,2.3 C68.1,2.7 70.3,3 72.5,3.3 C74.5,3.6 76.5,3.9 78.6,4.2 C79.1,4.3 79.6,4 80,4.1 C81.7,4.4 83.4,4.7 85.1,5 C86.4,5.2 87.7,5.4 89,5.6 C91,6 93,6.6 95.1,7 C97.1,7.4 99.2,7.6 101.2,8 C103,8.4 104.7,8.9 106.4,9.3 C108,9.6 109.6,9.9 111.2,10.2 C112.8,10.5 114.3,11.1 115.9,11.3 C117.7,11.5 119.4,12.5 121.1,12.4 C122.8,12.3 124.2,13 125.8,13.3 C126.7,13.5 127.6,13.6 128.5,13.8 C129.5,14.1 130.4,14.5 131.4,14.7 C131.9,14.8 132.5,14.5 133,14.5 C133.8,14.6 134.6,15 135.4,15.2 C135.7,15.3 136,15.2 136.3,15.2 C136.6,15.2 137.2,14.8 137,15.6 C137.4,15.7 137.8,15.7 138.1,15.8 L140,15.8 C141.8,16 143.5,16.2 145.2,16.5 C146.6,16.8 148,17.3 149.4,17.5 C151.5,17.9 153.6,17.9 155.6,18.5 C156.4,18.7 157.4,18.3 158,19.2 C158.1,19.4 158.9,19.1 159.3,19.2 C161.4,19.5 163.4,19.8 165.5,20.1 C166.6,20.3 167.7,20.4 168.8,20.6 C169.8,20.8 170.8,20.9 171.8,21.1 C172.7,21.2 174,21 174.3,21.4 C174.9,22.4 175.6,21.7 176.2,22 C176.9,22.3 177.8,22.2 178.6,22.3 C179.4,22.4 180.2,22.6 181,22.7 C182.6,22.9 184.2,23 185.7,23.3 C187.5,23.7 189.3,24.3 191.1,24.8 C191.6,24.9 192.2,24.7 192.7,24.8 C194.3,25.4 195.9,25.4 197.5,25.7 C198.9,26 200.2,26.5 201.5,26.8 C202,26.9 202.6,26.7 203.1,26.8 C204.7,27.1 206.5,26.8 207.9,28 C208.4,28.4 209.4,28 210.2,28.2 C211.2,28.4 212.1,28.7 213,29 C213.1,29 213.2,29.1 213.3,29.1 C215.4,28.8 217.3,29.9 219.4,30 C220.8,30.1 222.6,30.1 223.6,30.9 C224.6,31.6 225.5,31.2 226.4,31.5 C227.3,31.9 228.5,31.6 229.6,31.8 C231.4,32.2 233.1,32.8 234.9,33.3 C235.1,33.4 235.4,33.4 235.6,33.4 C236.3,33.4 237,33.2 237.8,33.6 C238.4,33.9 239.2,33.9 239.9,34 C241.5,34.4 243.1,34.8 244.7,35.1 C247.1,35.6 249.6,36.1 252,36.7 C252.8,36.9 253.6,37.4 254.2,38 C254.8,38.6 255.4,39 256.1,39.4 C256.8,39.8 257.1,40.8 257.5,41.5 C257.9,42.4 257.8,43.2 257.5,44.2 C257.2,45.1 257.4,46.2 257.2,47.2 C257.2,47.6 256.9,47.9 256.7,48.4 C257.1,48.5 257.7,48.6 256.9,49.5 C256.6,49.9 256.3,51.2 257.1,51.9 C257.2,52 257.1,52.4 257.1,52.6 C257,52.5 256.9,52.3 256.8,52.2 C256.7,52.1 256.5,52.1 256.3,52 C256.4,52.1 256.5,52.2 256.5,52.4 C256.5,52.5 256.4,52.7 256.4,52.9 L256.3,52.8 L256.3,52.9 L256.5,52.9 C256.5,53.4 256.5,53.8 256.4,54.3 C255.8,54.2 255.9,54.4 256.2,54.8 L256.2,54.8 C256.3,55.7 256.5,56.6 256.4,57.5 C256.4,58 256.1,58.6 256,59.1 C255.9,59.7 255.8,60.3 255.7,60.9 C255.6,61.9 255.4,62.8 255.3,63.8 C255,66.3 254.7,68.9 254.3,71.4 C253.8,74.2 253.2,76.9 252.7,79.7 C252.3,82.3 252,84.8 251.6,87.4 C251.3,89.5 251,91.6 250.7,93.7 C250.4,95.8 250.2,97.9 250,100.1 C249.8,101.7 249.6,103.3 249.3,104.8 C248.7,108.3 248,111.9 247.4,115.4 C246.9,118.8 246.5,122.3 245.9,125.7 C245.6,127.4 245.2,129.2 244.9,130.9 C244.7,131.9 244.6,132.9 244.5,134 C244.1,138.2 243.8,142.5 243.3,146.7 C242.8,150.5 242.1,154.2 241.5,157.9 C241.2,160.2 241,162.6 240.7,164.9 C240.3,167.7 239.8,170.4 239.4,173.1 C239.1,175.3 238.9,177.5 238.6,179.7 C238.4,181.4 238.1,183.1 237.8,184.8 C237.1,189 236.4,193.2 235.7,197.3 C234.9,202.3 234,207.3 233.1,212.2 C232.4,216.2 231.6,220.2 230.9,224.2 C230.3,227.4 229.8,230.7 229.2,234 C228.3,239 227.5,243.9 226.6,248.9 C225.7,253.9 224.7,258.9 223.7,263.9 C222.8,268.7 221.9,273.4 221,278.2 C220.1,282.9 219.3,287.7 218.4,292.4 C217.7,295.8 217,299.1 216.3,302.5 C215.7,305.5 215.2,308.5 214.6,311.5 C213.9,315.2 213.2,318.9 212.3,322.5 C212.1,323.3 211,323.9 210.3,324.5 C208.5,325.8 206.7,327.1 204.8,328.4 C202.7,329.8 200.5,331.1 198.4,332.5 C197.4,333.2 196.5,334.1 195.3,334.6 C194.3,335 193.1,335.1 191.9,335.1 C188.1,335.3 184.4,334.7 180.8,333.7 C177.7,332.9 174.5,332.3 171.3,331.6 C167.4,330.8 163.6,329.9 159.7,329 C157,328.4 154.2,327.8 151.5,327.1 C147.7,326.2 143.8,325.1 140,324.2 C138,323.7 135.9,323.4 133.9,322.9 C131.9,322.4 129.9,321.8 128,321.3 C124.6,320.4 121.1,319.6 117.6,318.7 C116.2,318.3 114.8,317.9 113.3,317.6 C109.4,316.7 105.5,316 101.5,315.1 C99.6,314.7 97.6,314.1 95.7,313.6 C92.2,312.8 88.7,312 85.2,311.2 C82.7,310.6 80.3,310 77.8,309.4 C75.9,309 74,308.7 72.2,308.3 C70.3,307.9 68.4,307.5 66.5,307.1 C65.3,306.8 64,306.7 62.8,306.4 C61.1,306 59.3,305.5 57.6,305.1 C55.4,304.6 53.2,304.2 50.9,303.7 C47.9,303 45,302.3 42,301.5 C38.9,300.7 35.7,299.9 32.6,299.1 C29.4,298.3 26.2,297.4 23,296.6 C19.9,295.8 16.8,295 13.7,294 C11.3,293.3 9,292.3 6.6,291.5 C4.7,290.9 2.8,290.3 0.9,289.7 L0.9,288.5 C1,288.3 1.1,288.1 1.1,287.9 C1.3,285.9 1.4,284 1.6,282 C1.9,278.9 2.2,275.7 2.6,272.6 C2.9,270.2 3.1,267.8 3.4,265.4 C3.7,262.6 4.3,259.9 4.4,257.1 C4.4,255.1 4.8,253.1 5.1,251.2 C5.6,247.6 6.1,244 6.6,240.3 C6.9,238.1 7.1,236 7.3,233.8 C7.6,231.3 7.9,228.8 8.2,226.3 C8.5,223.5 8.8,220.6 9.2,217.8 C10,212.3 11,206.7 11.8,201.2 C12.1,199.1 12.3,197 12.5,194.9 C12.8,192.4 13.3,190 13.6,187.6 C13.9,185.6 13.9,183.5 14.2,181.5 C14.5,179 15,176.6 15.3,174.1 C15.7,171.3 16,168.6 16.3,165.8 C16.6,163.6 16.9,161.4 17.2,159.2 C17.5,157.3 17.8,155.4 18,153.5 C18.3,151.3 18.4,149 18.7,146.8 C18.9,144.7 19.1,142.6 19.5,140.5 C19.8,138.6 20.2,136.8 20.5,135 C21,131.6 21.4,128.2 21.8,124.9 C22.1,122.8 22.5,120.8 22.8,118.7 C23.3,115.4 23.7,112 24.2,108.7 C24.7,104.9 25.3,101.2 25.9,97.4 C26.6,93.4 27.3,89.4 28,85.5 C28.6,82.2 29.2,78.8 29.7,75.5 C30.1,73.2 30.3,70.9 30.6,68.6 C31,66.2 31.5,63.7 31.8,61.3 C32.5,57.2 33.1,53 33.7,48.9 C34.1,46.5 34.4,44.2 34.8,41.8 C35.3,38.7 35.8,35.6 36.3,32.5 C36.5,31.3 36.7,30 36.9,28.8 C37.1,27.1 37.3,25.4 37.6,23.8 C38,21.8 38.4,19.7 38.8,17.7 C39.4,14.9 39.9,12.1 40.5,9.3 C40.7,8.4 41.2,7.6 41.8,6.9 C42.2,6.4 43.1,6.4 43.7,6.1 C44.6,5.6 45.4,4.8 46.4,4.3 C47.8,3.7 49.2,3.1 50.7,2.8 C53.1,2.2 55.6,1.9 58,1.4 C58.6,1.3 59.2,1 59.7,0.9 C59.8,0.9 60.1,0.9 60.3,0.9 Z M48.4,12.9 C47.1,12.9 45.6,14.3 45.5,16 C45.4,16.7 45.2,17.3 45,18 C44.7,18.8 44.3,19.6 44.8,20.5 C45,20.9 45,21.5 45,22 C44.8,23.5 44.6,25 44.3,26.5 C44.2,26.9 43.9,27.3 43.9,27.8 C43.7,29.5 43.7,31.2 43.5,32.9 C43,36.5 42.4,40.2 41.9,43.8 C41.5,47 41.2,50.3 40.7,53.5 C40,58.2 39.1,62.8 38.3,67.5 C37.5,72.5 36.7,77.5 35.8,82.5 C35.3,85.6 34.7,88.7 34.2,91.8 C33.9,93.7 33.5,95.5 33.2,97.4 C32.8,100 32.5,102.7 32.1,105.3 C31.7,108.3 31.3,111.3 30.9,114.3 C30.6,116.4 30.4,118.5 30,120.6 C29.4,124 28.5,127.4 28.1,130.9 C27.9,133.3 27.2,135.7 27.1,138.1 C27,140.9 26.1,143.6 25.9,146.4 C25.8,148.1 25.6,149.8 25.4,151.5 C24.8,155.7 24.1,159.9 23.5,164.1 C23.1,166.7 22.9,169.3 22.6,171.9 C22.1,175.8 21.4,179.7 20.9,183.6 C20.4,187.8 20,192 19.5,196.1 C19.2,198.8 18.7,201.4 18.3,204.1 C17.8,207.9 17.2,211.7 16.7,215.4 C15.9,220.9 15.2,226.4 14.5,231.9 C14.2,234.2 14.1,236.5 13.8,238.9 C13.2,243.2 12.5,247.6 11.8,251.9 C11.3,255.1 10.9,258.4 10.5,261.6 C10,264.8 9.6,268.1 9.1,271.3 C8.7,274 8.3,276.8 7.9,279.5 C7.7,280.9 7.5,282.4 7.2,283.8 C7,284.8 7.4,285.2 8.4,285.3 C9.7,285.5 11.1,285.6 12.4,285.9 C15.9,286.8 19.4,287.8 22.9,288.7 C27.4,289.9 31.9,290.9 36.4,292 C41.1,293.2 45.8,294.4 50.6,295.6 C52.4,296 54.2,296.4 56.1,296.8 C59.2,297.4 62.3,298.1 65.4,298.7 C67.6,299.1 69.8,299.6 72,300 C76.8,301 81.7,301.9 86.5,303 C91.3,304.1 96.1,305.4 100.9,306.5 C105.3,307.5 109.8,308.5 114.2,309.5 C117.6,310.3 121.1,311.1 124.5,311.9 C128.6,312.9 132.7,314 136.8,315 C140.7,316 144.6,316.9 148.6,317.9 C152.2,318.7 155.8,319.5 159.4,320.3 C164.7,321.6 170,322.9 175.4,324.1 C178.7,324.9 182,325.6 185.3,326.3 C187.8,326.8 190.4,327.3 192.9,327.7 C193.1,327.7 193.7,327.3 193.7,327.1 C194.1,324.5 194.5,321.9 194.9,319.3 C195.2,317.2 195.5,315.1 195.8,313 C196.2,310.7 196.8,308.4 197.2,306.1 C198,301.9 198.7,297.7 199.6,293.6 C200.3,290.1 201.2,286.6 201.9,283.1 C202.6,279.5 203.1,276 203.8,272.4 C204.5,268.6 205.3,264.8 206.1,261 C206.6,258.8 207.1,256.6 207.7,254.5 C208.5,251.1 209.4,247.6 210.1,244.2 C210.6,241.9 210.9,239.5 211.3,237.1 C211.8,234 212.4,230.9 213,227.7 C213.4,225.5 213.6,223.3 214,221.2 C214.4,218.7 215,216.2 215.4,213.7 C216.1,209.6 216.7,205.6 217.3,201.5 C217.8,198.2 218.3,194.8 218.8,191.5 C219.5,187.2 220.2,182.8 220.9,178.5 C221.3,176.3 221.6,174.1 221.9,171.9 C222.4,168.5 222.9,165.2 223.5,161.8 C223.7,160.4 224,159 224.2,157.6 C224.5,155.7 224.6,153.8 225,152 C225.4,149.4 226,146.8 226.4,144.2 C226.9,140.8 227.4,137.4 227.9,134.1 C228.7,129.2 229.5,124.4 230.3,119.5 C230.5,118.2 230.8,117 231,115.7 C231.3,113.7 231.4,111.7 231.7,109.8 C232.4,105.8 233.2,101.8 233.8,97.7 C234.4,93.8 234.5,89.9 235.5,86 C236.3,82.7 236.7,79.3 237.2,75.9 C237.6,73.3 238,70.7 238.4,68.1 C238.9,64.4 239.3,60.7 239.9,57 C240,56 240.5,55 240.8,54.1 C240.9,53.7 241.2,53.4 241.5,53 C240.5,52.6 241.5,50.8 239.7,50.7 C238.2,50.6 236.9,49.6 235.4,49.2 C233,48.6 230.5,48.1 228,47.5 C226.5,47.1 225.1,46.4 223.5,46.1 C221.5,45.7 219.5,45.6 217.4,45.3 C216.9,45.2 216.5,44.9 216,44.8 C215.2,44.6 214.3,44.4 213.5,44.2 C211.9,43.8 210.3,43.2 208.6,42.9 C206.3,42.4 204,42.1 201.7,41.7 C199.5,41.3 197.4,40.7 195.2,40.3 C193.1,39.9 191,39.7 188.8,39.3 C185.3,38.7 181.8,38 178.3,37.4 C173.2,36.5 168.2,35.6 163.1,34.8 C160.7,34.4 158.4,34 156,33.5 C153.4,33 150.9,32.6 148.3,32.1 C145.8,31.7 143.2,31.3 140.7,30.9 C138.8,30.6 136.9,30.3 135,29.9 C132.8,29.5 130.6,29 128.4,28.5 C124.9,27.8 121.5,27.2 118,26.5 C114.5,25.8 111.1,24.8 107.5,24.3 C104.3,23.8 101.1,23.5 98,22.6 C94,21.5 90,20.6 85.9,19.6 C82.3,18.8 78.7,18.1 75,17.4 C72.5,16.9 70,16.5 67.5,16.1 C65.6,15.8 63.6,15.4 61.7,15 C59.9,14.6 58,14.2 56.2,13.9 C53.8,13.6 51.2,13.3 48.4,12.9 Z M201.3,322.4 C204.3,320.4 205.7,318.4 206,316 C206.2,314 206.5,311.9 206.9,309.9 C207.4,307.4 208.1,305 208.6,302.5 C209.2,299.7 209.7,296.9 210.3,294.1 C210.8,291.6 211.5,289.2 212,286.7 C212.5,284.4 212.8,282.1 213.2,279.9 C213.7,277.5 214.3,275.2 214.8,272.8 C215.3,270.2 215.7,267.7 216.2,265.1 C216.5,263.3 216.9,261.6 217.2,259.8 C218,255.6 218.8,251.4 219.6,247.1 C220,245.1 220.4,243 220.7,241 C221.1,238.8 221.4,236.6 221.8,234.5 C222.3,231.9 222.8,229.3 223.2,226.7 C223.7,224.1 224.1,221.4 224.6,218.8 C225,216.8 225.5,214.8 225.8,212.8 C226.3,210.4 226.7,207.9 227.1,205.5 C227.4,203.6 227.9,201.8 228.2,199.9 C228.5,198 228.8,196 229.1,194 C229.6,191 230.2,188.1 230.6,185.1 C231.1,181.8 231.4,178.6 231.8,175.3 C232.3,171.4 233,167.6 233.5,163.7 C233.6,162.9 233.8,162 233.9,161.2 C234.1,159.5 234.4,157.7 234.6,156 C234.9,154.1 235.3,152.1 235.5,150.2 C235.8,148 236.1,145.8 236.4,143.7 C236.7,141.7 237,139.6 237.2,137.6 C237.4,135.8 237.4,134 237.6,132.2 C238.1,128.3 238.7,124.5 239.3,120.6 C239.6,118.9 240,117.3 240.3,115.7 C240.6,113.7 240.9,111.7 241.2,109.7 C241.5,107.7 241.9,105.8 242.3,103.8 C242.8,101 243.3,98.1 243.9,95.3 C244.3,93.4 245,91.5 245.4,89.6 C246.1,86.1 246.6,82.7 247.1,79.2 C247.3,77.9 247.3,76.5 247.5,75.2 C248,72.1 248.5,69.1 249,66 C249.4,63.3 249.9,60.7 250.3,58 C250.4,57.2 250.5,56.4 250.6,55.7 C251,53.6 251.4,51.5 251.8,49.3 C251.8,49.1 251.5,48.6 251.5,48.6 C250.8,48.8 250.1,49.1 249.4,49.3 C248,49.6 247.4,50.4 247.4,51.9 C247.4,52.7 247.2,53.6 247,54.4 C246.7,55.8 246.3,57.2 246.1,58.6 C246,59.2 246.3,59.8 246.3,60.3 C246.1,62.3 245.9,64.2 245.7,66.2 C245.6,67.2 245.4,68.2 245.3,69.2 C245,71.2 244.9,73.1 244.5,75.1 C244.1,77.4 243.5,79.7 243.1,82 C242.7,84.2 242.4,86.3 242.1,88.5 C241.5,92.5 240.8,96.5 240.2,100.6 C239.7,103.9 239.2,107.2 238.7,110.5 C238.1,113.9 237.4,117.3 236.9,120.7 C236.4,123.8 236.1,126.8 235.6,129.9 C235,133.5 234.3,137.1 233.7,140.7 C232.9,145.7 232.1,150.6 231.3,155.6 C230.5,160.7 229.7,165.7 228.9,170.8 C228.3,174.8 227.6,178.8 227,182.9 C226.3,187.2 225.7,191.5 225,195.9 C224.1,201.6 223.1,207.3 222.1,213 C221.4,216.9 220.7,220.7 220.1,224.6 C219.8,226.3 219.7,228 219.4,229.7 C218.9,232.7 218.4,235.6 217.9,238.6 C217.3,241.6 216.8,244.7 216.1,247.7 C215.6,250.2 214.8,252.7 214.3,255.3 C213.2,260.3 212.3,265.3 211.3,270.3 C210.4,274.6 209.7,279 208.8,283.3 C208,287.4 207.1,291.5 206.2,295.6 C205.7,298 205.2,300.4 204.7,302.9 C204.2,305.5 203.8,308.1 203.3,310.6 C202.7,314.2 202,318.2 201.3,322.4 Z M50.8,7.9 C51.6,7.9 52.3,7.8 52.9,7.9 C55.8,8.3 58.8,8.8 61.7,9.3 C64.1,9.7 66.5,10.1 68.9,10.5 C70.7,10.8 72.4,11.2 74.2,11.4 C77,11.9 79.8,12.2 82.6,12.8 C86.9,13.7 91.1,14.9 95.4,15.9 C98.9,16.7 102.4,17.5 105.9,18.3 C108.1,18.8 110.4,19.2 112.6,19.7 C114.3,20 116,20.3 117.6,20.6 C121.8,21.4 126.1,22.3 130.3,23.1 C132.7,23.6 135,24 137.4,24.4 C139.8,24.8 142.2,25.2 144.7,25.5 C147.1,25.8 149.5,26.1 151.8,26.5 C154.8,27 157.7,27.6 160.6,28.2 C162.8,28.6 165.1,29 167.3,29.5 C170,30.1 172.6,30.7 175.3,31.3 C177.6,31.8 179.9,32.2 182.1,32.7 C184.4,33.2 186.7,33.7 189,34.2 C192.8,35 196.7,35.7 200.5,36.4 C202.7,36.8 204.9,37.3 207.1,37.8 C208.6,38.1 210.1,38.6 211.6,38.7 C213.6,38.9 215.6,39 217.6,39.6 C219.9,40.3 222.3,40.7 224.7,41.3 C226.3,41.7 227.9,42 229.5,42.3 C230.5,42.5 231.5,42.9 232.5,43.1 C235.1,43.7 237.8,44.3 240.4,44.8 C241.8,45.1 243.2,45.6 244.5,45.4 C246.4,45.1 248.2,44.2 250,43.6 C250.3,43.5 250.6,43.3 250.9,43.2 C250.6,42.7 250.3,42 249.9,41.8 C248.7,41.3 247.4,40.8 245.9,41.1 C245.3,41.2 244.5,41.5 244,40.6 C244,40.5 243.6,40.6 243.4,40.5 C242.4,40.4 241.3,40.4 240.3,40.2 C238.1,39.7 235.9,39 233.7,38.5 C231.6,38 229.4,37.5 227.3,37 C226.4,36.8 225.5,36.4 224.5,36.3 C223.2,36.1 221.7,36.3 220.5,35.7 C219.1,35.1 217.7,35.2 216.3,34.9 C214.4,34.5 212.6,34.1 210.7,33.7 C208.7,33.3 206.7,33.1 204.7,32.7 C202.6,32.3 200.6,31.9 198.5,31.5 C197.5,31.3 196.6,31.2 195.6,31 C193.9,30.6 192.3,30.1 190.6,29.8 C189.4,29.5 188.1,29.4 186.9,29.3 C185.8,29.2 184.9,28.5 183.8,28.8 C183.5,28.9 183.2,28.8 182.9,28.7 C181.8,28.4 180.7,28 179.6,27.6 L179.2,27.6 C177.6,28.2 175.9,27.4 174.6,26.9 C172.1,25.9 169.5,25.7 166.9,25.1 C163.4,24.4 159.9,24.2 156.4,23.7 C154.3,23.4 152.3,22.9 150.2,22.5 C147.1,21.9 144,21.3 140.9,20.6 C138.7,20.1 136.3,20.1 134.1,19.5 C133.6,19.3 132.6,19.8 132.5,19.5 C132,18.6 131.3,19.1 130.7,19 C130.4,19 130.2,19 129.9,18.9 C129.1,18.7 128.4,18.4 127.6,18.2 C126.7,18 125.7,17.9 124.7,17.7 C123.3,17.4 121.9,17 120.4,16.7 C118.8,16.4 117.2,16.2 115.6,15.9 C113.3,15.4 111,14.8 108.7,14.4 C106.5,13.9 104.2,13.6 102,13.1 C100.7,12.8 99.4,12.3 98.1,11.9 C97.2,11.6 96.2,11.4 95.3,11.2 C93.5,10.8 91.6,10.4 89.8,10.1 C86.8,9.6 84,8.1 80.8,8.2 C78.2,8.3 75.7,7.4 73,7.3 C70.5,7.3 68,6.6 65.6,6.2 C63.9,5.9 62.2,5.4 60.4,5.1 C59.6,4.9 58.6,4.6 57.9,4.9 C55.7,5.9 53.4,6.9 50.8,7.9 Z" id="Shape"></path>
            <path d="M256.1,55.1 L256.3,55.1 L256.1,55.1 L256.1,55.1 Z" id="Shape"></path>
            <path d="M145.5,281.3 C143.5,281.2 143.6,281.2 142.4,278.8 C142.2,278.4 141.6,278.1 141.3,277.5 C140.4,275.5 139.4,273.6 138.5,271.6 C137.6,269.6 136.7,267.6 136,265.5 C135.4,263.7 135,261.8 134.5,259.9 C134.3,259 134.1,258 134,257 C134,256.9 134.1,256.7 134.2,256.6 C134.9,256.2 135.6,255.9 136.3,255.6 C136.5,256.4 137.8,256.3 137.8,257.5 C137.8,258 138.6,258.5 138.8,259.1 C140,262.3 141.1,265.6 142.2,268.9 C143.1,271.3 144.2,273.6 144.9,276.1 C145.2,277 146.1,277.9 145.6,279 C145.5,279.3 146,279.8 146.2,280.2 C146.5,281.1 146.3,281.4 145.5,281.3 Z" id="Shape"></path>
            <path d="M156.4,280.4 C155.8,279.6 155,278.8 154.4,277.8 C153.8,276.7 153.5,275.4 153,274.2 C152.4,272.8 151.8,271.3 151.2,269.9 C150.7,268.8 150.2,267.6 149.7,266.5 C149.3,265.6 149.5,264.7 150,263.8 C150,263.7 150.1,263.7 150.1,263.6 C150.4,264.8 151.2,263.1 151.6,263.8 C152,264.4 152.6,265 152.9,265.6 C153.3,266.3 153.4,267.1 153.8,267.8 C155.2,270.1 155.8,272.8 156.9,275.3 C157.4,276.4 157.8,277.5 158.3,278.6 C158.4,278.9 158.8,279.4 157.8,279.4 C157.4,279.3 155.9,279.2 156.4,280.4 Z" id="Shape"></path>
            <path d="M65.9,38.3 C66.4,38.3 66.9,38.2 67.4,38.2 C67.7,38.3 68.2,38.5 68.3,38.8 C70,41.9 71.6,44.9 73.2,48 C73.5,48.6 73.7,49.4 73.9,50.1 C74,50.7 74,51.2 73.1,50.8 C72.9,50.7 72.6,50.6 72.4,50.7 C71.5,51.4 71.6,50.9 71.7,50.2 C71.6,50.2 71.4,50.1 71.3,50.1 C71.1,50.1 70.8,50.1 70.6,50 C70.2,49.7 69.8,49.3 69.6,48.9 C68.1,45.9 66.6,42.9 65.2,39.9 C65,39.5 65,39 65,38.6 C65,38.3 65.3,38.1 65.5,37.9 C65.7,38.1 65.8,38.2 65.9,38.3 Z" id="Shape"></path>
            <path d="M77.3,38.1 C78.6,37.9 79.1,39 79.6,39.8 C80.4,40.9 80.9,42.1 81.4,43.4 C81.8,44.4 81.9,45.6 82.1,46.7 C82.1,46.8 81.9,47 81.7,46.9 C80,46.6 78.6,46 77.8,44.4 C77,42.9 76.3,41.3 75.6,39.7 C75.2,38.7 75.9,38.1 77.3,38.1 Z" id="Shape"></path>
            <path d="M101.1,47.3 L100,47.3 C99.9,47.3 99.8,47.2 99.7,47.2 C100.4,45.7 98.6,46.9 98.6,46.1 C97.7,46.2 97.5,45.6 97.1,44.9 C96.6,44 95.9,43.2 95.3,42.4 C95,42 94.5,41.4 95.1,41.1 C95.6,40.9 96.3,40.1 97.1,41 C98,42.1 99,43 99.8,44.1 C100.3,44.8 100.5,45.8 100.8,46.6 C100.8,46.9 100.9,47.1 101.1,47.3 Z" id="Shape"></path>
            <path d="M132.3,19.6 C132.2,19.6 132.1,19.7 132,19.6 C131.9,19.6 131.9,19.5 131.8,19.4 C131.9,19.4 132.1,19.3 132.2,19.3 C132.2,19.4 132.2,19.5 132.3,19.6 Z" id="Shape"></path>
        </g>
    </g>
</svg>