<?xml version="1.0" encoding="UTF-8" standalone="no"?>
<svg width="289px" height="312px" viewBox="0 0 289 312" version="1.1" xmlns="http://www.w3.org/2000/svg" xmlns:xlink="http://www.w3.org/1999/xlink">
    <!-- Generator: Sketch 43.2 (39069) - http://www.bohemiancoding.com/sketch -->
    <title>poster</title>
    <desc>Created with Sketch.</desc>
    <defs></defs>
    <g id="Page-1" stroke="none" stroke-width="1" fill="none" fill-rule="evenodd">
        <g id="poster" transform="translate(146.500000, 156.500000) rotate(-5.000000) translate(-146.500000, -156.500000) translate(-7.000000, -2.000000)" fill-rule="nonzero" fill="#865cd0">
            <path d="M304.8,38.7 C304.6,38.5 304.6,38 304.4,37.9 C303.2,37.3 302,36.7 300.7,36.3 C296.5,34.8 292.2,33.3 287.9,31.9 C283,30.3 278,29.2 273,28.5 C267.6,27.7 262.3,26.8 257,25.8 C252,24.9 247,24 241.9,23.1 C239,22.6 236,22.2 233.1,21.7 C230.6,21.3 228,21 225.5,20.6 C223.5,20.3 221.5,19.9 219.5,19.5 C217.1,19.1 214.7,18.7 212.3,18.1 C206.7,16.8 201.1,15.3 195.5,14 C192.2,13.2 188.9,12.5 185.6,11.7 C180.9,10.6 176.2,9.5 171.5,8.4 C168.1,7.6 164.6,6.8 161.2,6 C157,5 152.8,4 148.6,2.9 C146.8,2.5 145.1,1.9 143.4,1.5 C141.7,1.1 139.9,0.9 138.1,0.6 C137.3,0.5 136.5,0.3 135.8,0.3 C135.4,0.3 135,1 134.6,1.1 C132.4,1.6 130.7,3 129,4.4 C127.5,5.6 126.1,7 124.7,8.3 C123.7,9.3 122.8,10.3 121.9,11.4 C120.7,12.9 119.5,14.4 118.3,15.9 C117.5,16.9 116.8,17.9 116,18.9 C115.7,19.3 115.6,20 114.9,20.1 C114.8,20.1 114.7,20.3 114.6,20.4 C113.4,22.1 112.2,23.7 111.1,25.5 C110,27.3 108.9,29.1 107.9,30.9 C106.8,32.8 105.7,34.8 104.7,36.7 C103.8,38.4 102.9,40.2 102.1,42 C101,44.6 99.9,47.3 98.8,50 C98.3,51.3 97.7,52.7 97.3,54 C96.4,56.5 95.5,59 94.9,61.6 C93.9,65.7 93,69.8 92.2,73.9 C91.4,77.9 90.8,81.9 90.1,85.9 C89.7,88.3 89.2,90.8 89,93.2 C88.6,97.7 88.2,102.3 88.1,106.8 C87.9,114.6 87.9,122.3 87.8,130.1 C87.8,133.5 87.9,136.9 87.9,140.3 L87.9,144.9 C88,146.6 88.2,148.3 88.2,150 C88.1,153.4 88,156.9 87.8,160.3 C87.6,163.4 87.4,166.6 87.1,169.7 C86.9,171.8 86.8,173.9 86.5,176 C86.2,178.1 85.9,180.2 85.5,182.2 C85,184.3 84.3,186.4 83.7,188.5 C83.1,190.5 82.4,192.5 81.6,194.5 C80.7,196.7 79.5,198.7 78.5,200.8 C77.6,202.5 76.8,204.2 75.9,205.8 C75.7,206.1 75.5,206.4 75.3,206.7 C74.5,208 73.8,209.5 72.8,210.7 C71.3,212.6 69.6,214.3 68.1,216.1 C66.8,217.6 66.3,217.8 64.6,216.8 C64.5,216.7 64.4,216.6 64.2,216.5 C61.1,215.3 58.1,214.1 55,212.9 C51.6,211.6 48.3,210.3 44.9,209.1 C42.4,208.2 39.8,207.5 37.2,206.7 C35.5,206.2 33.9,205.5 32.2,205 C31.2,204.7 30.2,204.5 29.2,204.3 C28,204.3 26.7,204.4 25.5,204.5 C24.5,205.5 23.3,205.8 22.1,206.2 C21.2,206.5 20.2,206.9 19.3,207.4 C17.7,208.3 16.1,209.3 14.5,210.3 C13.7,210.9 12.8,211.5 12.1,212.2 C10.9,213.5 9.8,215 8.6,216.3 C6.6,218.3 5.6,220.8 4.5,223.3 C3.8,225 3.3,226.7 2.7,228.5 C2.1,230.6 1.5,232.7 0.9,234.8 C0.7,235.5 0.5,236.3 0.3,237 L0.3,243.2 C0.4,243.4 0.5,243.6 0.5,243.8 C0.7,245.1 0.7,246.4 1,247.7 C1.7,250.1 2.5,252.4 3.3,254.8 C4.3,257.6 6,260.1 7.8,262.4 C9.2,264.3 10.4,266.5 12.6,267.7 C14.6,268.8 16.5,270.3 18.6,271.3 C20.9,272.4 23.4,273.3 25.9,274 C28.7,274.8 31.5,275.4 34.3,276 C36.4,276.5 38.5,276.6 40.6,277.2 C44.7,278.3 48.8,279.7 52.9,280.9 C58,282.4 63,283.7 68.1,285.2 C70.1,285.8 72.1,286.5 74.1,287.1 C76.3,287.7 78.4,288.2 80.6,288.9 C82.6,289.5 84.6,290.3 86.6,291 C88.7,291.7 90.9,292.1 93,292.8 C96.2,293.9 99.2,295.2 102.4,296.3 C105.1,297.3 107.9,298.1 110.7,299 C111.9,299.4 113,299.8 114.2,300.2 C116.1,300.9 118,301.5 119.9,302.1 C123.3,303.2 126.8,304.3 130.2,305.4 C132.8,306.2 135.4,307 137.9,307.8 C139.8,308.4 141.6,309.1 143.5,309.6 C145.7,310.3 147.9,310.8 150.1,311.5 C152.4,312.2 154.6,313 156.9,313.6 C159.4,314.3 161.9,314.8 164.4,315.2 C166.2,315.5 168,315.9 169.8,315.8 C171.3,315.7 172.7,315.7 174.2,316.1 C175.1,316.3 176,316.2 176.9,316.2 C177.7,316.2 178.4,316.1 179.2,316.1 C180.5,316.1 181.9,316.2 183.2,316.1 C184.2,316 185.2,315.7 186.2,315.6 C188,315.3 189.7,315.1 191.5,314.6 C193.6,314 195.7,313.2 197.8,312.4 C199.1,311.9 200.4,311.1 201.7,310.5 C203.8,309.5 206.1,308.6 208.1,307.4 C210.1,306.2 211.9,304.7 213.7,303.2 C215.1,302.1 216.5,301 217.7,299.8 C219.6,298 221.2,295.8 223.1,294.2 C225.9,291.8 227.3,288.5 229.5,285.6 C230.8,283.9 231.6,281.9 232.8,280.1 C233.5,278.9 234.5,277.9 235,276.7 C236.3,273.9 237.4,271 238.5,268.2 C238.7,267.8 238.5,267.2 238.5,266.7 L239.1,266.6 C239,265.3 239.7,264.3 240.1,263.1 C240.8,260.9 241.2,258.6 242,256.4 C242.7,254.2 242.9,251.9 243.7,249.7 C244.3,248.2 244.7,246.7 244.9,245.1 C245.2,242.9 246,240.8 246.4,238.7 C246.9,236.4 247.3,234 247.6,231.7 C248,229.2 248.4,226.7 248.6,224.2 C248.9,220.7 249.1,217.3 249.3,213.8 C249.4,211.2 249.5,208.5 249.6,205.9 C249.6,205 249.5,204.1 249.5,203.1 C249.6,201.1 249.9,199.2 250,197.2 C250.1,195.5 249.9,193.7 249.9,192 C250,189.2 250.3,186.5 250.5,183.7 C250.7,181 251,178.2 251.1,175.5 C251.2,173.4 251.2,171.2 251.4,169.1 C251.6,167.7 251.4,166.3 251.8,164.9 C252.1,163.8 252,162.5 252.1,161.3 C252.2,159.2 252.3,157.1 252.5,155 C252.9,151.9 253.4,148.8 253.8,145.6 C254.2,141.9 254.5,138.2 255.1,134.6 C255.8,129.7 256.8,124.8 257.7,119.9 C258.2,117.1 259,114.3 259.6,111.5 C260.1,108.9 260.5,106.3 261.2,103.7 C261.8,101.4 262.6,99.1 263.3,96.8 C264,94.6 264.7,92.3 265.7,90.1 C266.8,87.6 268.1,85.1 269.5,82.7 C271.6,79 273.7,75.2 276.1,71.6 C277.7,69.1 279.8,66.9 281.5,64.4 C283.1,62.1 284.6,59.8 286.5,57.7 C288.3,55.8 290,53.8 292,52.1 C294.5,49.9 297.1,47.7 299.7,45.7 C301,44.7 302.3,43.5 303.8,43.2 C305,42.9 305.7,42.4 306.4,41.6 L306.4,39.7 C305.4,39.1 305,38.9 304.8,38.7 Z M150.1,303.9 L149.7,303.9 C148.7,303.6 147.8,303.2 146.8,303 C145.7,302.7 144.6,302.6 143.5,302.3 C143.1,302.2 142.9,301.8 142.5,301.7 C139.8,300.9 137,300.1 134.2,299.2 C129.5,297.8 124.7,296.3 120,294.8 C117,293.9 114.1,292.8 111.2,291.8 C109,291.1 106.7,290.4 104.5,289.7 C101.3,288.6 98.1,287.3 94.8,286.2 C90.5,284.8 86.2,283.4 81.9,282.1 C77.2,280.7 72.5,279.3 67.8,278 C64.7,277.1 61.5,276.4 58.3,275.6 C56.5,275.1 54.8,274.4 53,273.9 C48.4,272.6 43.7,271.2 39,270.1 C35.5,269.3 31.8,268.9 28.2,268.1 C25.9,267.6 23.7,266.8 21.6,265.8 C19.2,264.8 16.8,263.6 14.5,262.3 C13.3,261.7 12.1,261.1 11.2,260.2 C9.9,259 9,257.5 8.5,255.6 C7.9,253.6 7.5,251.6 7.2,249.6 C6.9,247.9 6.9,246.1 7,244.4 C7.1,242.2 7.1,240 7.4,237.9 C7.9,234.2 9.2,230.6 10.6,227.1 C11.3,225.3 11.9,223.5 12.9,221.9 C14.1,220 15.6,218.2 17.1,216.4 C17.8,215.6 18.8,215 19.4,214.1 C20.3,212.8 21.6,212.4 22.9,211.8 C23.9,211.3 25,210.8 25.8,210 C26.9,208.9 27.6,209.6 28.5,210.1 C31.7,212.1 35.1,213.7 38.8,214.7 C42,215.7 45.1,216.9 48.2,218.1 C51.2,219.2 54.2,220.2 57.2,221.3 C60.9,222.6 64.5,223.9 68.2,225.2 C70.5,226 72.8,227 75.2,227.6 C77.8,228.3 80.6,228.7 83.2,229.4 C85.9,230.1 88.5,231 91.1,231.8 C93.5,232.5 95.9,233.2 98.4,233.9 C100.8,234.5 103.3,235.3 105.7,235.6 C108.4,235.9 110.9,237 113.8,236.7 C114.9,236.6 116.1,237.4 117.3,237.5 C119.5,237.6 121.5,238 123.7,238.3 C125.9,238.6 128.2,239.1 130.4,239.4 C132.6,239.8 134.8,240.5 136.9,240.5 C138.2,240.5 139.1,241.2 140.2,241.3 C141.5,241.3 142.7,241.8 143.9,242 C145.4,242.3 146.9,242.4 148.4,242.7 C149.4,242.9 150.5,243 151.4,243.4 C154.3,244.6 157.4,244.7 160.5,245.2 C161.7,245.4 163,245.5 164.3,245.7 C164.6,245.7 164.8,246 165.2,246.2 C162.6,247.1 159.8,247.8 157.5,249.1 C154.9,250.6 152.4,252.5 150.7,255.1 C149.2,257.4 147.4,259.5 146.1,261.9 C145.2,263.4 144.8,265.1 144.4,266.8 C143.8,269.5 143.5,272.3 143,275 C142.4,277.8 142.3,280.6 142.8,283.5 C143.2,285.7 143.2,287.9 143.6,290.1 C144.1,292.8 144.7,295.5 146.3,297.8 C147.6,299.7 148.9,301.5 150.2,303.4 C150.2,303.5 150.1,303.7 150.1,303.9 Z M167,250 C167.6,249.8 168.1,249.2 168.7,249 C170.4,248.5 171.9,247.6 173.8,248 C175.5,248.4 177.3,248.7 178.9,249.3 C180.8,250.1 182.1,251.4 183.1,253 C184.6,255.1 185.9,257.4 187,259.8 C188.1,262.1 189,264.5 189.2,267.2 L189.2,270.1 C189.1,271.6 188.9,273.1 189,274.6 C189,275.7 187.9,275.6 187.6,275.6 C186.1,275.6 184.5,275.3 183,275 C182.6,274.9 182.2,274.6 181.8,274.4 C180.3,274 178.7,273.8 177.4,273.1 C174.8,271.7 171.9,271.7 169.2,271.2 C167.5,270.9 165.8,270.5 164.1,270.3 C163.2,270.2 162.4,269.7 161.6,269.4 C160.5,269 159.3,268.7 158.1,268.4 C156.4,267.9 154.7,267.4 153,266.9 C152.8,266.8 152.5,266.6 152.9,266.1 C153.6,265.2 154.4,264.2 154.7,263.1 C155.3,261 156.6,259.3 157.6,257.4 C157.7,257.1 157.9,256.9 158.1,256.7 C159,255.7 160,254.6 160.9,253.6 C162.8,251.9 164.9,250.9 167,250 Z M296.2,40.7 C294,42 291.8,43.1 289.7,44.5 C288.3,45.4 287.1,46.4 285.9,47.5 C284.4,48.8 282.9,50 281.5,51.5 C280,53 278.7,54.7 277.4,56.4 C275.9,58.3 274.5,60.2 273.1,62.2 C271.8,64 270.4,65.7 269.2,67.6 C267.8,69.7 266.5,72 265.2,74.2 C264.2,75.9 263.1,77.6 262.2,79.4 C260.8,82.2 259.5,84.9 258.3,87.8 C257.2,90.5 256.1,93.2 255.3,95.9 C254.3,99.2 253.6,102.7 252.8,106.1 C252.1,108.9 251.4,111.6 250.9,114.4 C250.4,117 250.1,119.7 249.7,122.4 C249.3,124.7 248.6,126.9 248.3,129.2 C247.9,132.2 247.7,135.3 247.3,138.3 C247,140.5 246.7,142.7 246.4,144.9 C246.1,147.5 245.9,150.2 245.7,152.8 C245.6,154.1 245.5,155.3 245.4,156.6 C245.2,158.6 245.1,160.7 244.9,162.7 C244.6,167.4 244.2,172 243.9,176.7 C243.8,179 243.8,181.3 243.7,183.6 C243.6,187.1 243.4,190.5 243.2,194 C243,197.9 242.9,201.9 242.7,205.8 C242.5,210.2 242.3,214.5 242,218.9 C241.8,221.9 241.3,224.9 241,227.8 C240.8,229.5 240.7,231.3 240.5,233 C240.1,235.5 239.5,237.9 239.3,240.4 C239.1,243.6 237.9,246.7 237.8,250 C237.8,252 237.1,254 236.4,255.8 C234.9,259.8 233,263.6 231.6,267.6 C230.6,270.5 229.2,273.2 227.7,275.8 C226.7,277.5 225.5,279 224.5,280.6 C223.4,282.3 222.4,284 221.3,285.7 C220,287.8 218.3,289.5 216.4,291 C215.3,291.9 214.4,293 213.4,294 C212,295.3 210.4,296.4 209.1,297.8 C207.1,300 204.5,301.3 202.1,302.8 C200.6,303.7 198.9,304.3 197.3,305 C195.9,305.6 194.6,306.4 193.2,307 C191,307.9 188.7,308.8 186.4,309.4 C183.9,310.1 181.3,310.6 178.7,310.8 C176.4,311 174.1,310.8 171.8,310.6 C170.1,310.4 168.5,310 166.9,309.6 C164.9,309 162.9,308.3 161,307.4 C160.3,307.1 159.9,306.3 159.4,305.6 C157.6,302.8 155.9,300 154.2,297.2 C152.7,294.8 152.3,292.1 151.8,289.4 C151.3,286.1 151,282.7 150.7,279.4 C150.6,278.4 150.9,277.3 151,276.3 C151.1,274.9 151.1,273.5 151.2,272 C152.9,272.5 154.5,273.2 156.1,273.3 C157.4,273.4 158.3,274.1 159.4,274.3 C160.9,274.5 162.4,274.8 163.9,275.1 C166.8,275.8 169.7,276.5 172.6,277.2 C175.5,277.9 178.4,278.5 181.3,279.2 C184,279.8 186.7,280.5 189.4,281.1 C189.6,281.1 189.7,281.5 189.9,281.8 C190.8,282.3 190.9,281.5 191.2,281 C191.6,280.5 192.1,280 192.6,279.5 C192.7,279.4 193,279.3 192.9,279.2 C192.6,277.8 194,277.2 194.3,276.1 C194.7,274.9 195.1,273.7 195.2,272.5 C195.3,271.5 195,270.4 195,269.3 C195,268.4 195.2,267.4 195.2,266.5 C195.2,265.8 194.8,265.1 194.7,264.4 C194.6,264.2 194.9,263.9 194.8,263.7 C194.4,262.1 194,260.4 193.5,258.8 C193,257.3 192.5,255.8 191.8,254.4 C190.8,252.7 189.7,251 188.5,249.4 C188.1,248.9 187.9,248.1 186.9,248.2 C186.7,248.2 186.5,247.6 186.3,247.4 C186.1,247.1 185.8,246.9 185.5,246.7 C184.6,246.3 183.4,246.1 182.8,245.4 C182.1,244.6 181.3,244.3 180.5,244.3 C178.8,244.3 177.5,243.1 175.8,243 C174.1,242.9 172.4,242 170.7,241.5 C169.2,241.1 167.7,240.9 166.1,240.6 C165,240.4 163.8,239.8 162.7,239.8 C160,240 157.7,238.4 155,238.5 C153.5,238.5 152.1,237.6 150.6,237.3 C148,236.7 145.3,236.3 142.7,235.7 C138.7,234.9 134.7,234.1 130.7,233.3 C128.9,233 127.2,232.4 125.4,232.3 C123.4,232.2 121.6,231.1 119.7,231.5 C118.6,231.7 117.6,231.2 116.6,231.3 L116.6,231.3 C115.6,231.2 114.7,231 113.7,230.9 C113.2,230.8 112.7,230.7 112.2,230.6 C112.1,230.6 112.1,230.5 112,230.5 C109.9,230.3 107.9,229.3 105.8,228.9 C103.6,228.5 101.3,227.9 99.1,227.2 C97,226.6 94.9,225.7 92.8,225.1 C89.8,224.2 86.7,223.5 83.7,222.7 C82,222.3 80.2,222 78.4,221.5 C77.6,221.3 76.9,220.9 76.2,220.6 C75.6,220.4 75.8,220.2 76.1,219.8 C77.6,218 79.2,216.2 80.5,214.2 C82.3,211.5 83.8,208.6 85.4,205.8 C86.8,203.2 88.2,200.5 89.3,197.7 C90.6,194.4 91.7,191 92.6,187.5 C93.5,183.9 94.2,180.2 94.7,176.6 C95.1,173.5 95.1,170.4 95.3,167.2 C95.5,164.4 95.7,161.7 95.7,158.9 C95.8,154.1 95.8,149.3 95.7,144.5 C95.6,140.7 95.4,136.9 95.4,133 C95.4,130 95.5,127.1 95.5,124.1 C95.5,120.1 95.3,116 95.4,112 C95.6,106.2 95.8,100.3 96.3,94.5 C96.7,90.1 97.4,85.8 98.2,81.5 C98.9,77.5 99.8,73.6 100.7,69.7 C101.6,65.7 102.5,61.7 103.7,57.9 C105,53.6 106.6,49.5 108.3,45.3 C109.4,42.6 110.8,40.1 112.1,37.5 C112.5,36.7 112.8,35.9 113.3,35.1 C113.5,34.8 113.4,34.1 114,33.8 C113.3,33.2 114.3,33 114.4,32.8 C115.4,30.8 116.4,28.9 117.7,27.1 C118.3,26.3 118.3,24.9 119.6,24.8 C119.4,23.7 120.5,23.6 121,23 C122.1,21.6 123.3,20.3 124.3,18.9 C125.3,17.6 126.1,16.1 127,14.7 C127.2,14.3 127.6,14 127.9,13.7 C129.2,12.2 130.5,10.8 131.8,9.3 C132.6,8.5 133.3,7.5 134.3,7 C135.5,6.4 136.3,4.9 138.4,5.8 C141.8,7.3 145.5,8.1 149,9.2 C151.9,10.1 154.9,10.8 157.9,11.6 C159.9,12.1 162,12.4 164,12.9 C166.4,13.5 168.8,14.2 171.1,14.9 C175.3,16 179.4,17.2 183.6,18.3 C186.3,19 189,19.4 191.6,20.1 C195.4,21.1 199.2,22.3 203,23.3 C205.6,24 208.2,24.6 210.8,25.1 C213.9,25.8 217,26.5 220.1,27 C223.4,27.6 226.8,28 230.2,28.5 C232.4,28.8 234.6,29.1 236.8,29.5 C240.6,30.1 244.5,30.9 248.3,31.5 C250.4,31.9 252.5,32.3 254.6,32.6 C258.6,33.2 262.7,33.8 266.7,34.5 C271.2,35.3 275.7,36.2 280.2,37.1 C281.9,37.4 283.6,37.7 285.3,38.1 C287.1,38.5 289,39 290.8,39.4 C292.6,39.7 294.4,39.9 296.2,40.2 C296.4,40.2 296.5,40.4 296.7,40.4 C296.4,40.5 296.3,40.6 296.2,40.7 Z" id="Shape"></path>
            <path d="M246.7,233.1 C246.6,233 246.6,233 246.7,233.1 C246.6,233 246.6,233.1 246.5,233.1 L246.7,233.1 C246.6,233.1 246.6,233.1 246.7,233.1 Z" id="Shape"></path>
            <path d="M157.6,257.1 C157.6,257 157.6,257 157.6,257.1 C157.5,257 157.5,257.1 157.4,257.1 L157.6,257.1 L157.6,257.1 Z" id="Shape"></path>
            <path d="M118.8,97.5 C118.1,96.5 118.1,96.5 117,97.5 C116.9,97.6 116.5,97.3 116.2,97.3 C115.8,97.2 115.5,97.2 115.1,97.1 C115.4,96.8 116,96.4 116,96.3 C115.5,95.2 116.8,94.9 116.8,94.1 C116.8,93.5 116.6,93 116.5,92.4 C116.5,92.1 116.4,91.8 116.4,91.5 C116.7,91.8 117,92.1 117.3,92.3 C117.5,91.9 117.9,91.5 117.9,91.1 C118,90 118.1,88.8 118.8,87.9 C119.7,86.8 119.3,85.5 119.9,84.5 C120.5,83.4 120.6,82 121.5,81.3 C122.7,80.4 122.6,78.9 123.5,77.9 C123.7,77.6 123.9,77.3 124.1,77 C124.2,76.9 124.2,76.8 124.3,76.7 C124.9,76.1 127,76.2 127.6,76.8 C127.7,76.9 127.8,77 127.8,77.1 C127.1,79 126.4,80.9 125.7,82.8 C125.2,84.1 124.9,85.4 124.4,86.6 C124,87.6 123.5,88.5 123.1,89.5 C123,89.8 122.9,90.2 122.8,90.5 C122.2,92 121.6,93.4 121,94.9 C120.9,95.2 120.9,95.7 120.3,95.3 C120.3,95.3 120.1,95.3 120.1,95.4 C119.5,96.2 119.1,96.9 118.8,97.5 Z M115.6,96.8 C115.6,96.8 115.5,96.7 115.5,96.6 L115.4,96.7 C115.5,96.8 115.5,96.8 115.6,96.8 C115.5,96.9 115.6,96.8 115.6,96.8 Z" id="Shape"></path>
            <path d="M110.4,84.9 C110.7,84.8 111.2,84.5 111.2,84.5 C111.4,84.8 111.8,85.3 111.7,85.5 C110.8,88.7 109.9,91.9 108.9,95 C108.3,97 107.7,99.1 106.9,101 C106.4,102.2 105.7,103.2 104.9,104.2 C104.3,104.9 102.7,104.4 102.5,103.5 C101.9,101.4 102.4,99.4 103.1,97.4 C103.9,94.9 104.7,92.4 105.7,90 C106.4,88.4 107.2,86.8 108.1,85.3 C108.5,84.6 108.7,84.6 109.3,85.2 C109.5,85.4 110,85.1 110.3,85.1 C110.4,85.2 110.5,85.3 110.6,85.4 C110.5,85.2 110.4,85 110.4,84.9 Z" id="Shape"></path>
            <path d="M260.8,47.2 C261.2,48.7 259.9,49.4 259.3,50.3 C258.3,51.7 257.3,53.2 255.5,54 C254.8,54.3 254.4,55.4 253.8,56.1 C252.7,57.3 251.4,58.3 249.9,59 C249.5,59.2 248.9,59 248.5,58.7 C248.3,58.6 248.1,57.9 248.3,57.6 C248.8,56.6 249.3,55.5 250.1,54.7 C251.8,52.9 253.8,51.2 255.6,49.4 C257.1,47.9 258.8,47.1 260.8,47.2 L260.8,47.2 Z" id="Shape"></path>
            <path d="M246.9,45.1 C245.7,47.1 244.5,49.1 243.3,51 C242.6,52.1 241.3,52.3 240.2,52.6 C240.2,52.6 239.8,52 239.9,51.8 C240.2,51.1 240.7,50.5 241.1,49.8 C241.9,48.7 242.6,47.4 243.6,46.4 C244.4,45.6 245.6,45.1 246.5,44.5 C246.6,44.8 246.7,44.9 246.9,45.1 Z" id="Shape"></path>
            <path d="M261.1,46.9 C261.3,46.8 261.5,46.8 261.7,46.7 C261.6,46.8 261.4,47 261.3,47.1 C261.2,47.1 261.1,47 261.1,46.9 Z" id="Shape"></path>
            <path d="M116.4,231.6 L116.4,231.4 L116.5,231.4 C116.5,231.4 116.4,231.5 116.4,231.6 C116.4,231.5 116.4,231.6 116.4,231.6 Z" id="Shape"></path>
            <path d="M189.5,281.7 C189.5,281.7 189.5,281.8 189.4,281.8 C189.5,281.8 189.5,281.7 189.5,281.7 L189.5,281.7 L189.5,281.7 Z" id="Shape"></path>
            <path d="M260.9,47.2 C261,47.1 261,47 261.1,46.9 C261.2,46.9 261.2,47 261.2,47.1 C261.1,47.1 261,47.2 260.9,47.2 C260.8,47.2 260.9,47.2 260.9,47.2 Z" id="Shape"></path>
            <path d="M84.3,273.9 C84.1,274.3 84,274.7 83.9,274.7 C83.4,274.8 82.7,274.9 82.5,274.7 C81.8,274.1 81.2,273.3 80.7,272.5 C79.9,271.2 79.2,269.8 78.6,268.4 C78.1,267.3 77.9,266 77.6,264.8 C77.4,264 77,263.1 76.9,262.3 C76.8,261 76.6,259.6 76.8,258.2 C76.9,257.7 77.7,257.3 78.2,256.8 C78.5,257.2 78.9,257.5 79.1,258 C79.6,259.7 80,261.5 80.6,263.3 C81.3,265.6 82.2,267.9 83,270.2 C83.5,271.4 83.9,272.6 84.3,273.9 Z" id="Shape"></path>
            <path d="M87.2,264.4 C87.5,264.1 87.7,263.5 88.1,263.5 C89.7,263.3 90.2,263.6 90.5,264.6 C91.3,267.5 92.1,270.4 93.1,273.2 C93.7,275 94.7,276.6 95.4,278.4 C95.7,279 95.8,279.7 95.9,280.4 C95.9,280.6 95.7,280.9 95.6,281.2 C95.4,281.1 95.2,281 95,281 C93.3,280.8 93,279.4 92.2,278.3 C90.2,275.6 89.2,272.5 88.3,269.3 C87.9,267.7 87.6,266.2 87.2,264.4 Z" id="Shape"></path>
            <path d="M71.8,268.2 C70.7,268 70,267.5 69.5,266.4 C68.5,264.1 68,261.8 68,259.4 C68,258 68.3,257.9 69.5,258.4 C69.7,258.5 70.1,258.3 70.2,258.1 C70.6,257.3 71,257.9 71.2,258.1 C71.6,258.7 72.1,259.3 72.3,260 C73.1,262.1 73.8,264.3 74.4,266.4 C74.7,267.5 74.3,267.9 73.1,267.9 C72.6,267.9 72.2,268.1 71.8,268.2 L71.8,268.2 Z" id="Shape"></path>
            <path d="M71.8,268.2 C71.8,268.3 71.9,268.3 71.9,268.4 L71.8,268.4 L71.8,268.2 L71.8,268.2 Z" id="Shape"></path>
        </g>
    </g>
</svg>