<?xml version="1.0" encoding="UTF-8" standalone="no"?>
<svg width="255px" height="325px" viewBox="0 0 255 325" version="1.1" xmlns="http://www.w3.org/2000/svg" xmlns:xlink="http://www.w3.org/1999/xlink">
    <!-- Generator: Sketch 43.2 (39069) - http://www.bohemiancoding.com/sketch -->
    <title>canvas</title>
    <desc>Created with Sketch.</desc>
    <defs></defs>
    <g id="Page-1" stroke="none" stroke-width="1" fill="none" fill-rule="evenodd">
        <g id="canvas" transform="translate(128.000000, 162.000000) rotate(-6.000000) translate(-128.000000, -162.000000) translate(-13.000000, -7.000000)" fill-rule="nonzero" fill="#865cd0">
            <path d="M0.5,290.4 C0.7,290.2 0.9,289.9 1,289.6 C1.9,285.6 2.9,281.7 3.7,277.7 C4.3,274.9 4.8,272.1 5.3,269.3 C6,265.4 6.7,261.4 7.4,257.4 C7.9,254.4 8.5,251.5 9,248.5 C9.6,244.8 10.1,241 10.6,237.3 C11,234.6 11.4,231.9 11.9,229.2 C12.4,225.8 13,222.4 13.5,219 C14.1,214.8 14.7,210.5 15.3,206.3 C15.5,205 15.9,203.7 16.2,202.3 C16.7,199.1 17.2,195.9 17.7,192.7 C18.4,188.1 19.1,183.5 19.8,178.9 C20.3,176 20.7,173.1 21.2,170.2 C21.6,167.9 22.1,165.7 22.5,163.4 C22.9,161.2 23.2,158.9 23.6,156.7 C24,154.1 24.5,151.5 25,148.9 C25.1,148.3 25.2,147.7 25.3,147.2 C25.6,145.1 26,142.9 26.3,140.8 C26.9,137 27.6,133.3 28.2,129.5 C28.7,126.3 29.2,123.2 29.7,120 C30.2,116.2 30.7,112.4 31.2,108.5 C31.4,106.9 31.6,105.2 31.8,103.6 C32.2,101.3 32.6,99.1 33,96.8 C33.4,94.4 33.6,92 33.9,89.6 C34.6,84.5 35.3,79.4 36.1,74.3 C36.5,71.5 37.2,68.8 37.7,66.1 C38.2,63.2 38.7,60.3 39.2,57.4 C39.7,54.7 40.3,52 40.8,49.4 C41.5,45.8 42.1,42.2 42.8,38.5 C43.3,35.5 43.8,32.5 44.4,29.6 C45,26.8 45.8,24 46.6,21.2 C47.1,19.6 47.4,17.8 48.2,16.3 C48.7,15.3 50,14.7 51.1,14.1 C53.9,12.6 56.7,11.2 59.6,9.8 C61.4,8.9 63.1,8.1 65,7.4 C68.2,6.1 71.5,4.9 74.7,3.7 C75.9,3.3 77.1,3.1 78.2,2.6 C79.7,1.9 81.2,1.3 82.7,0.9 C83.9,0.6 85.3,1.1 86.6,1.3 C87.5,1.4 88.5,1.7 89.4,1.8 C91.3,2 93.3,2.3 95.2,2.5 C97.7,2.7 100.1,2.8 102.6,3.1 C103.6,3.2 104.6,3.6 105.6,3.8 C106.7,3.9 107.9,3.9 109,3.9 C110.1,4 111.2,4.1 112.4,4.2 C115.3,4.5 118.2,4.8 121.1,5.2 C124.2,5.6 127.2,6.2 130.3,6.6 C131.9,6.9 133.6,7.1 135.2,7.3 C139.4,7.9 143.7,8.6 147.9,9.2 C150.4,9.6 152.9,10 155.5,10.4 C158.3,10.9 161.1,11.4 163.9,12 C166,12.4 168.1,12.8 170.2,13.2 C172.2,13.6 174.2,14 176.2,14.3 C177.6,14.6 179,14.7 180.4,15 C183.1,15.4 185.7,15.8 188.4,16.3 C190.7,16.7 192.9,17 195.2,17.5 C198,18.1 200.7,18.8 203.5,19.3 C207.1,20 210.8,20.6 214.4,21.3 C217.5,21.9 220.6,22.5 223.8,23.2 C225.6,23.6 227.5,24 229.3,24.4 C230.8,24.7 232.4,24.9 233.9,25.2 C235.1,25.4 236.2,25.6 237.4,25.9 C239.2,26.3 241,26.6 242.7,27 C243.6,27.2 244.5,27.5 245.4,27.7 C246.8,28 248.3,28.3 249.7,28.6 C251.3,28.9 252.9,29.2 254.5,29.6 C256.6,30.1 258.8,30.8 260.9,30.9 C262.9,31 264.6,31.6 266.5,32 C267.9,32.3 269.3,32.9 270.7,33.4 C272.2,33.9 273.8,34.4 275.3,34.9 C276.2,35.2 277.2,35.5 278.1,36 C280,36.9 280.9,38.3 281.1,40.5 C281.6,45 280.6,49.3 279.8,53.6 C279.3,56.4 279,59.3 278.5,62.1 C277.7,67 276.9,71.8 276.2,76.7 C275.9,78.6 275.9,80.6 275.7,82.5 C275.4,85.5 275,88.4 274.6,91.4 C274,95.8 273.2,100.2 272.6,104.6 C272.1,107.6 271.7,110.7 271.2,113.7 C270.5,117.6 269.8,121.5 269.1,125.3 C268.4,129.1 267.8,133 267.1,136.8 C266.4,140.8 265.6,144.7 265,148.7 C264.3,152.8 263.7,157 263.1,161.1 C262.5,164.7 261.9,168.3 261.3,171.9 C260.7,175.5 260.2,179 259.5,182.6 C258.8,186.7 258,190.7 257.3,194.8 C256.7,198.2 256.2,201.7 255.6,205.1 C255.1,208.1 254.4,211.1 253.8,214.1 C253.2,217.1 252.6,220 252,223 C251.5,225.6 251,228.1 250.4,230.7 C249.7,234.1 249,237.4 248.4,240.8 C247.7,244.3 247,247.9 246.2,251.4 C245.4,255.3 244.6,259.3 243.8,263.2 C242.8,268 241.7,272.8 240.7,277.7 C239.9,281.8 239.2,285.8 238.3,289.9 C237.7,292.7 236.9,295.5 236.2,298.3 C235.7,300.6 235.3,302.9 234.7,305.2 C234,308.1 233.3,311 232.4,313.8 C231.7,315.9 231,318.1 229.8,320 C229.1,321.2 227.7,322.1 226.5,323.1 C224.9,324.4 223.3,325.5 221.4,326.4 C219.9,327.1 218.7,328.3 217.3,329.2 C214.5,330.9 211.7,332.6 208.8,334.2 C208.6,334.3 208.1,334.1 208,334.2 C207.3,335.3 205.9,335.1 205,335.7 C204.3,336.2 203.4,335.7 203.3,335.9 C202.9,336.9 201.9,336.5 201.3,336.8 C197.3,338.7 193.2,337.8 189.1,337.3 C187.3,337.1 185.5,337 183.8,336.7 C182.8,336.5 181.8,336.1 180.9,335.8 C180.6,335.7 180.4,335.5 180.2,335.5 C176.3,335.6 172.6,334.5 168.8,333.8 C164.3,332.9 159.7,332.2 155.1,331.4 C152.8,331 150.5,330.7 148.3,330.3 C144.7,329.6 141.2,328.9 137.7,328.2 C135.4,327.7 133.2,327.3 130.9,326.8 C127.6,326.1 124.3,325.5 121,324.9 C117.8,324.3 114.6,323.7 111.3,323 C106.5,322.1 101.7,321.2 96.9,320.3 C94.6,319.8 92.3,319.3 90,318.8 C85,317.7 79.9,316.7 74.9,315.5 C71.1,314.6 67.4,313.4 63.6,312.4 C60.4,311.6 57.3,310.7 54.1,310 C51.1,309.4 48.1,309.1 45.1,308.5 C42.1,307.9 39.2,307.1 36.3,306.3 C32.4,305.2 28.4,304.4 24.6,303 C21.1,301.8 17.5,301.4 14,300.5 C12.3,300.1 10.6,299.7 9,299.3 C7.7,298.9 6.4,298.3 5,297.9 C3.1,297.4 2,296 1,294.5 C0.8,294.2 0.8,293.7 0.6,293.3 C0.5,292.1 0.5,291.2 0.5,290.4 Z M197.8,64.5 C197.2,64.1 196.5,63.7 195.9,63.3 C193.6,62 192.5,59.7 191.1,57.6 C190,55.9 189,54.2 188.1,52.4 C187.1,50.4 186.3,48.2 185.6,46.1 C185.3,45.3 185.1,44.8 184.1,44.8 C183,44.8 181.9,44.5 180.7,44.3 C177.7,43.8 174.7,43.3 171.7,42.9 C168.8,42.5 165.8,42.1 162.9,41.6 C160.2,41.2 157.5,40.7 154.7,40.3 C151.9,39.9 149.1,39.4 146.2,39 C143.5,38.6 140.7,38.1 138,37.7 C135.5,37.3 132.9,36.9 130.4,36.5 C128.5,36.2 126.7,35.8 124.8,35.6 C122.2,35.2 119.5,35 116.9,34.6 C115.3,34.4 113.8,34 112.2,33.7 C108.6,33.1 105.1,32.5 101.5,31.8 C98.7,31.3 95.8,30.7 93,30.2 C89.8,29.6 86.5,29.1 83.3,28.4 C80,27.7 76.6,26.9 73.3,26.3 C71.4,25.9 69.5,25.7 67.5,25.3 C65.1,24.9 62.8,24.4 60.4,24 C58.1,23.6 55.7,23.3 53.4,22.8 C52.6,22.6 52.4,22.7 52.3,23.5 C52,25.6 51.7,27.6 51.3,29.7 C50.3,35.1 49.3,40.5 48.2,45.9 C47.4,50 46.3,54.1 45.4,58.2 C44.9,60.7 44.5,63.3 44.1,65.8 C43.6,70.2 43.2,74.5 42.6,78.9 C42.1,82.6 41.6,86.3 41,90 L39.5,100.5 C39,104.1 38.5,107.8 38,111.4 C37.5,115 37,118.6 36.5,122.2 C36.2,124.7 35.9,127.3 35.5,129.8 C35,132.6 34.4,135.4 33.9,138.3 C33.5,140.7 33.1,143 32.7,145.4 C32.3,147.9 31.9,150.4 31.5,152.9 C31,155.9 30.6,158.9 30.1,162 C29.7,164.5 29.2,167 28.8,169.6 C28.3,172.5 27.8,175.5 27.3,178.4 C26.7,182.2 26.1,186.1 25.4,189.9 C25,192.4 24.6,194.8 24.2,197.3 C23.7,200 23.2,202.6 22.8,205.3 C22.3,208.3 21.9,211.3 21.5,214.3 C21.1,216.8 20.8,219.3 20.4,221.8 C20,224.9 19.6,228 19.2,231.1 C18.8,233.6 18.2,236.1 17.8,238.5 C17.4,241 17.2,243.6 16.8,246.2 C16.2,250.1 15.6,254 14.9,257.8 C14.3,261.2 13.6,264.6 13,268 C12.4,271.6 11.9,275.2 11.2,278.7 C10.3,282.9 9.3,287.1 8.3,291.3 C8.3,291.5 8.5,291.9 8.8,292 C12.7,293 16.7,294 20.6,294.9 C25.8,296.1 31,297.3 36.2,298.5 C40.4,299.4 44.5,300.3 48.7,301.2 C52,301.9 55.3,302.5 58.6,303.3 C63.4,304.4 68.1,305.6 72.9,306.8 C76.8,307.8 80.8,308.8 84.7,309.7 C86.9,310.2 89.1,310.6 91.3,311.1 C93.3,311.5 95.3,312.1 97.3,312.4 C99.4,312.7 101.5,313.3 103.6,313.8 C105.6,314.3 107.7,314.7 109.7,315.1 C112.8,315.7 115.8,316.2 118.9,316.8 C121.2,317.2 123.6,317.6 125.9,318.1 C128,318.5 130,319 132.1,319.4 C135.3,320 138.5,320.5 141.7,321.1 C144.4,321.6 147.1,322.5 149.8,322.7 C153.5,323 157,324.6 160.9,324.3 C162.9,324.2 165,325.1 167.1,325.5 C169.8,326.1 172.5,326.9 175.2,327.4 C177.6,327.9 180,328.2 182.5,328.5 C185.8,329 189,329.4 192.3,329.9 C193.7,330.1 195.1,330.3 196.5,330.2 C197,330.2 197.9,330.9 198.2,329.9 C199.1,326.6 200,323.2 200.9,319.9 L202.4,313.9 C202.7,312.6 203.1,311.3 203.3,310 C203.7,307.5 203.9,305.1 204.4,302.6 C204.9,299.9 205.6,297.2 206.2,294.4 C206.5,292.9 206.7,291.4 207,289.8 C207.7,286.5 208.4,283.2 209.1,279.9 C209.6,277.8 210.2,275.6 210.7,273.5 C211.4,270.7 212,267.8 212.5,265 C213,262.2 213.4,259.4 213.8,256.6 C214.1,254.6 214.4,252.6 214.9,250.7 C215.3,248.7 216,246.8 216.4,244.9 C217,242.1 217.4,239.2 218,236.3 C218.3,234.7 218.9,233.2 219.2,231.7 C219.7,229.2 220,226.6 220.5,224.1 C221.4,219.7 222.5,215.4 223.4,211 C224.2,207.1 224.9,203.2 225.8,199.3 C226.1,197.7 226.6,196.2 227,194.7 C227.4,193.1 227.6,191.6 228,190 C228.3,188.8 228.6,187.6 228.9,186.4 C229.4,184.1 229.8,181.8 230.3,179.5 C230.9,176.6 231.6,173.8 232.1,170.9 C232.7,167.4 233.2,163.9 233.8,160.5 C234.3,157.6 235,154.8 235.5,151.9 C236.1,148.3 236.6,144.7 237.2,141 C237.4,139.9 237.7,138.9 237.9,137.8 C238.5,134.2 239.1,130.6 239.6,126.9 C240.1,123.4 240.4,119.9 240.8,116.4 C241.1,113.6 241.5,110.9 241.9,108.1 C242.3,105.4 242.6,102.7 243,100 C243.2,98 243.2,96 243.6,94.1 C244.2,91.4 244.2,88.6 244.5,85.9 C244.8,82.7 245.2,79.5 245.6,76.2 C245.8,74.4 246.1,72.5 246.3,70.7 C246.7,67.8 247.1,64.9 247.4,62.1 C247.6,60.7 247.6,59.3 247.7,57.9 C247.7,57.8 247.6,57.6 247.4,57.5 C246.2,57.2 245,57 243.7,56.8 C241.4,56.4 239.2,56 236.9,55.5 C234.6,55 232.3,54.2 230,53.7 C226.5,52.9 223,52.2 219.6,51.5 C217,51 214.4,50.4 211.8,49.9 C207.7,49.2 203.5,48.6 199.4,48 C195.9,47.4 192.4,46.7 189,46.1 L188.4,46.1 C188.4,46.3 188.4,46.5 188.5,46.7 C190.5,50.3 192.5,54 194.5,57.6 C194.9,58.3 195.3,59 195.6,59.7 C196.5,61.1 197.1,62.8 197.8,64.5 L197.8,64.5 Z M206.3,328.6 C207,328.1 207.7,327.6 208.3,327.2 C211.2,325.2 214.2,323.3 217.1,321.3 C219.1,319.9 221.1,318.6 223.1,317.1 C223.6,316.7 224.2,316.3 224.5,315.7 C224.9,314.9 225,314 225.2,313.1 C225.9,309.7 226.4,306.2 227.4,302.8 C229,297.3 229.9,291.7 231,286.1 C231.5,283.5 232.1,280.9 232.7,278.3 C233.1,276.3 233.5,274.3 234,272.4 C234.3,270.8 234.6,269.3 235,267.7 C235.5,265.5 236.1,263.4 236.6,261.2 C237.3,258.2 237.9,255.2 238.5,252.2 C239,249.6 239.5,247 240,244.4 C240.7,241 241.3,237.6 242,234.3 C242.6,231.5 243.5,228.8 244.1,226.1 C244.8,222.9 245.3,219.6 245.9,216.4 C246.4,213.9 247,211.4 247.5,209 C247.8,207.8 248,206.5 248.2,205.3 C248.4,204 248.5,202.7 248.7,201.5 C249.2,199 249.8,196.5 250.3,194 C250.9,190.3 251.4,186.6 252.1,183 C252.4,181 252.9,179 253.3,177 C253.8,174.3 254.2,171.5 254.7,168.8 C255.1,166.2 255.6,163.6 256,161 C256.3,159.1 256.6,157.1 256.9,155.2 C257.4,152.1 258.1,149 258.6,146 C259.2,142.4 259.8,138.7 260.4,135.1 C260.9,132.5 261.5,129.9 261.9,127.3 C262.5,123.9 262.9,120.5 263.5,117.1 C263.8,115.3 264.2,113.5 264.5,111.7 C265.1,108.3 265.5,104.8 266.1,101.4 C266.4,99.3 266.9,97.2 267.2,95.1 C267.7,91.5 268.1,87.9 268.6,84.2 C268.8,82.3 269.2,80.4 269.4,78.5 C270,74.4 270.5,70.2 271.1,66.1 C271.4,63.8 271.9,61.6 272.3,59.3 C272.6,57.4 272.8,55.5 273.2,53.6 C273.5,51.9 274,50.3 274.4,48.6 C274.4,48.4 274.3,48.2 274.2,48 C273.5,48.3 272.8,48.6 272.2,49 C270.3,49.9 268.4,50.9 266.5,51.8 C265,52.5 263.3,52.9 261.9,53.8 C260,55 258,55.5 256,55.9 C255.4,56 254.5,56.1 254.5,57.2 C254.5,60.3 254.4,63.4 254.3,66.5 C254.3,66.7 254.2,67 254.2,67.2 C253.8,69.9 253.4,72.6 253.1,75.4 C252.8,77.5 252.6,79.5 252.4,81.6 C252.1,84.2 251.8,86.7 251.5,89.3 C251.3,91.1 251.1,92.8 250.9,94.6 C250.5,97.6 250.2,100.6 249.8,103.6 C249.5,105.8 249.2,108 248.9,110.2 C248.5,112.8 248.1,115.4 247.8,118 C247.6,119.9 247.7,121.9 247.4,123.8 C246.9,127.1 246.3,130.4 245.8,133.7 C245.1,138 244.4,142.3 243.6,146.6 C243.1,149.5 242.5,152.3 242,155.2 C241.6,157.4 241.5,159.6 241.1,161.8 C240.2,166.9 239.2,172 238.2,177.1 C237.4,181.2 236.6,185.3 235.8,189.5 C235.5,190.9 235.1,192.3 234.8,193.7 C234.1,196.9 233.6,200.1 232.9,203.2 C232.4,205.4 231.9,207.5 231.4,209.7 C230.8,212.5 230.3,215.3 229.7,218 C229.1,220.7 228.4,223.5 227.8,226.2 C227.3,228.4 227,230.6 226.5,232.8 C225.7,236.6 224.9,240.4 224.1,244.3 C223,249.6 221.9,254.9 220.8,260.3 C220.2,263.3 219.6,266.4 219,269.4 C218.3,273.2 217.5,277 216.7,280.8 C215.9,284.6 215,288.4 214.2,292.1 C213.5,295.3 212.9,298.6 212.3,301.9 C212,303.3 211.7,304.7 211.5,306 C211.1,308.8 210.8,311.6 210.2,314.4 C209.3,318.5 208,322.6 206.9,326.7 C206.7,327.3 206.6,327.8 206.4,328.4 C206.1,328.1 206.2,328.3 206.3,328.6 Z M60.6,16.9 C63.5,17.4 66.1,18 68.8,18.5 C72.8,19.3 76.8,20 80.9,20.8 C86.2,21.8 91.5,22.8 96.8,23.8 C101.7,24.7 106.5,25.6 111.4,26.5 C114.9,27.1 118.4,27.7 121.9,28.3 C125.8,29 129.7,29.6 133.5,30.2 C137.6,30.9 141.7,31.6 145.8,32.3 C147.6,32.6 149.4,32.9 151.2,33.2 C154.6,33.7 158.1,34.3 161.5,34.8 C165.1,35.4 168.8,36 172.4,36.7 C175.7,37.3 179,37.9 182.3,38.6 C184.2,39 186.1,39.6 188,39.9 C189.5,40.2 191,40.3 192.5,40.6 C195,41.1 197.5,41.6 200,42.1 C201.6,42.4 203.2,42.9 204.8,43.2 C207.4,43.6 210,43.9 212.4,45 C212.6,45.1 212.8,45.1 213,45.2 C213.6,45.2 214.2,45.1 214.8,45.3 C215.8,45.5 216.7,45.9 217.6,46.1 C220.2,46.6 222.7,47 225.3,47.6 C227.2,48 229,48.6 230.9,48.9 C234,49.4 237,49.9 240.1,50.3 C242.5,50.7 244.9,51.1 247.3,51.5 C247.4,51.5 247.6,51.5 247.6,51.4 C248.7,50 250.4,49.8 251.9,49.1 C254.3,48 256.8,47.2 259.3,46.2 C262.5,44.9 265.8,43.6 269,42.3 C269.4,42.1 269.8,42.1 270.2,41.9 C270.7,41.7 271.2,41.4 271.8,41.2 C271.3,40.9 270.8,40.6 270.3,40.3 C270.1,40.2 269.8,40.1 269.5,40 C267.3,39.4 265,38.8 262.8,38.2 C261.5,37.9 260.3,37.4 259,37.1 C256.2,36.5 253.5,36 250.7,35.4 C250.2,35.3 249.8,35.2 249.3,35.1 C248.2,34.9 247.1,34.8 246.1,34.6 C244.2,34.1 242.3,33.5 240.4,33 C239.5,32.8 238.6,32.6 237.7,32.4 C235.8,31.9 233.8,31.4 231.9,31 C229.9,30.6 227.8,30.2 225.8,29.8 C225.2,29.7 224.6,29.5 224,29.4 C222.2,29.1 220.4,29 218.6,28.6 C217.9,28.5 217.3,28 216.6,27.9 C214.4,27.5 212.1,27.2 209.8,26.8 C208.8,26.6 207.7,26.2 206.7,26 C205.2,25.7 203.7,25.6 202.2,25.3 C200.7,25 199.1,24.7 197.6,24.4 C196.3,24.1 195,23.8 193.8,23.5 C193,23.3 192.2,23 191.4,22.9 C189.2,22.5 187,22.2 184.7,21.8 C181.4,21.2 178.2,20.5 174.9,19.9 C173.5,19.6 172.1,19.6 170.7,19.4 C168,19 165.3,18.5 162.5,18 C160.7,17.7 159,17.3 157.2,16.9 C155.4,16.5 153.6,16.1 151.8,15.8 C150.5,15.6 149.2,15.5 148,15.3 C146.7,15.1 145.4,14.8 144.1,14.6 C142.1,14.3 140,14 138,13.7 C136.2,13.4 134.4,12.8 132.5,12.6 C130.6,12.3 128.6,12.2 126.6,11.9 C124.2,11.5 121.8,11 119.4,10.7 C115,10.1 110.6,9.6 106.2,9.1 C103.9,8.8 101.5,8.6 99.2,8.3 C96.8,8 94.3,7.8 91.9,7.3 C90.2,7 88.5,6.8 87,7.8 C86.8,7.9 86.6,8 86.4,8 C83.5,8 80.8,9 78,9.8 C75.2,10.6 72.5,11.9 69.8,13 C67.6,13.9 65.3,14.7 63.1,15.7 C62.4,15.7 61.6,16.3 60.6,16.9 Z" id="Shape"></path>
            <path d="M49.3,274.9 C48.7,274.7 48,274.6 47.5,274.3 C46.8,273.7 46,272.9 45.6,272.1 C44.8,270.4 44.2,268.6 43.6,266.8 C42.9,264.3 42.2,261.9 41.6,259.4 C41.1,257.4 40.8,255.4 40.3,253.4 C39.7,250.8 39.1,248.3 38.6,245.7 C38.4,244.8 38.4,243.9 38.3,243 C37.6,239.7 36.8,236.4 36.3,233 C36,231.3 36.1,229.5 36,227.8 C36,226.7 36.7,226 37.6,225.6 C38.7,225.2 39.4,226.2 39.7,226.8 C40.5,228.7 41.2,230.7 41.7,232.7 C42.4,235.5 42.8,238.3 43.4,241 C43.4,241.2 43.7,241.3 43.9,241.5 C44,241.6 44.1,241.7 44.2,241.7 C44.1,241.7 44,241.8 43.9,241.8 C43.8,241.8 43.6,241.9 43.5,241.9 C43.6,242.2 43.8,242.4 43.9,242.7 L44,242.7 C44,242.9 43.8,243.1 43.9,243.3 C44.4,246 45,248.7 45.6,251.4 C45.6,251.6 45.7,251.8 45.8,251.9 C47.5,253.5 47,255.9 47.7,257.8 C48.1,259 48.2,260.2 48.5,261.4 C48.6,261.7 48.5,262.1 48.4,262.5 C48.4,262.6 48.3,262.7 48.3,262.8 C49.5,263.3 49,264.4 49.2,265.2 C49.6,267 50,268.7 50.4,270.4 C50.6,271.3 51.2,272.3 50.5,273.2 C50.2,273.6 49.8,274.1 49.5,274.5 C49.4,274.8 49.3,274.9 49.3,274.9 Z" id="Shape"></path>
            <path d="M77.8,272.4 C78,273 78.2,273.5 78.3,274.1 C78.7,276.6 79.2,279.1 79.6,281.6 C79.8,282.7 80.1,283.7 80.1,284.8 C80.1,285.1 79.5,285.5 79.1,285.7 C79,285.7 78.7,285.5 78.5,285.3 C78.4,285.2 78.3,285.2 78.2,285.2 C76.6,285.3 75.9,284.2 75.4,282.9 C74.2,280.2 73.8,277.3 73.3,274.5 C73,272.8 72.7,271.1 72.5,269.4 C72.4,268.4 72.6,267.5 72.6,266.5 L72.6,265.9 C72.6,265.8 72.5,265.6 72.6,265.5 C72.7,265.2 74.7,264.6 74.8,264.9 C75.7,266.2 77.3,267.2 77.3,269.1 C77.3,270.1 77.8,271.2 78.1,272.2 C77.9,272.3 77.9,272.3 77.8,272.4 Z" id="Shape"></path>
            <path d="M63.9,270.6 C64.2,270.9 63.6,271.6 64.4,271.7 C64.4,271.7 64.5,272 64.4,272 C64.1,272.1 63.8,272.2 63.4,272.3 C63.3,272.3 63.1,272.2 63.1,272.1 C62.9,270.8 62,269.8 61.4,268.7 C61.3,268.5 61.5,268 61.7,267.6 C61.9,267.2 61.8,266.9 61.4,266.8 C61.2,266.7 61,266.4 61,266.1 C60.6,263.7 60.2,261.3 59.9,259 C59.7,257.1 59.6,255.2 59.7,253.3 C59.7,252.3 60.1,251.2 60.4,250.2 C60.4,250.1 60.8,250 61,250.1 C61.3,250.2 61.7,250.4 61.8,250.7 C63.4,255.1 64.1,259.6 64.5,264.2 C64.6,265.3 65.1,266.4 65.3,267.6 C65.4,268.4 65.3,269.2 65.4,270 C65.4,270.3 65.7,270.6 65.8,270.9 C65.4,270.9 64.9,270.7 64.8,270.9 C64,272.1 64.5,270 63.9,270.6 Z" id="Shape"></path>
            <path d="M178.7,49.5 C178.7,49.6 178.8,49.7 178.8,49.8 C180,52.2 181.2,54.6 182.3,57.1 C182.8,58.2 183.1,59.3 183.4,60.5 C183.5,60.8 183.4,61.1 183.4,61.4 C183.2,61.3 182.9,61.1 182.7,61 C182.2,60.7 181.6,60.6 181.2,60.2 C180.6,59.6 180,58.9 179.7,58.1 C178.7,56.1 177.8,54.1 176.9,52.1 C176.4,50.8 177.4,49.4 178.7,49.5 Z" id="Shape"></path>
            <path d="M49.5,274.7 C49.6,274.8 49.6,275 49.7,275.1 C49.6,275 49.5,275 49.4,274.9 C49.3,274.9 49.4,274.8 49.5,274.7 Z" id="Shape"></path>
            <path d="M197.7,64.5 L197.9,64.5 L197.9,64.7 L197.7,64.5 L197.7,64.5 Z" id="Shape"></path>
            <path d="M258.5,125.7 C258.2,125.5 258,125.4 257.8,125.4 C255.3,124.9 253.8,123.4 253.4,120.9 C253,118.7 252.6,116.5 252.3,114.3 C252.2,113.8 252.5,113.1 252.9,112.8 C254.1,112 256.3,113 256.6,114.4 C257.3,117.4 258.1,120.3 258.7,123.3 C258.8,124 258.5,124.8 258.5,125.7 Z" id="Shape"></path>
            <path d="M250.4,126 C250.7,125.6 250.9,124.9 251.3,124.8 C252,124.6 253,124.5 253.4,125.4 C253.9,126.5 254.4,127.5 254.8,128.6 C255.7,131.3 256.6,134 257.5,136.6 C257.6,137 257.8,137.5 257.7,138 C257.6,138.6 257.4,139 256.4,138.8 C254,138.3 253.5,136.3 252.8,134.5 C252.2,133.1 251.8,131.6 251.4,130.1 C251,128.9 250.8,127.5 250.4,126 Z" id="Shape"></path>
            <path d="M258.8,106.6 C258.7,107 258.6,107.3 258.6,107.6 C258.5,108.6 257.3,109.2 256.4,108.8 C254.7,108 254,106.5 253.5,104.8 C253.1,103.5 253,102.2 252.9,100.8 C252.7,99.2 253,98.9 254.7,99.1 C255.1,99.1 255.5,98.7 255.8,98.7 C256.8,98.9 257.4,99.6 257.6,100.7 C257.9,102.7 258.4,104.6 258.8,106.6 Z" id="Shape"></path>
        </g>
    </g>
</svg>