<?xml version="1.0" encoding="UTF-8" standalone="no"?>
<svg width="199px" height="262px" viewBox="0 0 199 262" version="1.1" xmlns="http://www.w3.org/2000/svg" xmlns:xlink="http://www.w3.org/1999/xlink">
    <!-- Generator: Sketch 43.2 (39069) - http://www.bohemiancoding.com/sketch -->
    <title>art print</title>
    <desc>Created with Sketch.</desc>
    <defs></defs>
    <g id="Page-1" stroke="none" stroke-width="1" fill="none" fill-rule="evenodd">
        <g id="art-print" transform="translate(99.000000, 130.000000) rotate(-5.000000) translate(-99.000000, -130.000000) translate(-9.000000, -7.000000)" fill-rule="nonzero" fill="#865cd0">
            <path d="M215.2,38 C215,37.7 214.8,37.4 214.6,37.3 C213.6,36.9 212.5,36.5 211.4,36.3 C209.7,36 208,35.9 206.3,35.6 C202.2,34.9 198.1,34.1 194,33.3 C188.8,32.2 183.7,31 178.6,29.9 C174.1,28.9 169.7,27.8 165.2,26.8 C162.8,26.3 160.3,25.9 157.9,25.3 C155,24.6 152,23.8 149.1,23.1 C145.6,22.2 142.1,21.4 138.6,20.5 C136.9,20.1 135.1,19.5 133.4,19.1 C130.7,18.4 127.9,17.8 125.2,17.2 C120.2,16.1 115.2,15.2 110.2,14 C105.6,13 101.1,11.8 96.5,10.7 C92.1,9.7 87.7,8.6 83.2,7.8 C78.1,6.9 72.9,6.4 67.8,5.5 C62.9,4.7 58.1,3.7 53.2,2.8 C50.2,2.2 47.2,1.6 44.2,0.9 C42.3,1.1 40.5,1.4 39.2,2.3 C38.5,6.3 37.4,10.2 36.2,14.1 C36.1,16.3 35.9,18.5 35.7,20.6 C35.1,25.6 34.2,30.5 33.5,35.4 C33,38.6 32.6,41.8 32,45 C31.2,49 30.2,53 29.5,57.1 C28.8,60.9 28.3,64.8 27.7,68.7 C27.2,72.3 26.8,76 26.2,79.6 C25.8,82.3 25.3,84.9 24.8,87.6 C24.3,90.5 24,93.5 23.6,96.5 C23.4,97.8 23.1,99 22.9,100.3 C22.5,103.5 22.3,106.8 21.9,110 C21.5,112.9 20.9,115.7 20.5,118.6 C20,122 19.6,125.4 19,128.8 C18.4,132.3 17.7,135.7 17.1,139.2 C16.5,142.8 16,146.3 15.4,149.9 C14.8,153.3 14.1,156.7 13.5,160.2 C13,163.3 12.6,166.3 12,169.4 C11.4,173 10.6,176.5 9.9,180.1 C9.3,183.3 8.7,186.4 8.1,189.6 C7.4,193.1 6.7,196.6 6,200.2 C5.6,202.6 5.3,205 4.9,207.4 C4.6,209.6 4.3,211.7 4,213.9 C3.5,217.6 3,221.3 2.6,224.9 C2.4,226.7 2.2,227.8 1.5,228.6 L1.5,228.8 C1.4,229.2 1.3,229.6 1.1,229.9 C0.7,230.3 0.7,230.5 1.3,230.6 C1.5,230.6 1.6,230.8 1.7,230.9 C1.5,231 1.3,231 1.1,231.1 C1,231.1 1,231.1 0.9,231.2 C1.2,232 1.5,232.8 2,233.5 C3.1,234 4.3,234.2 5.6,234.4 C7.6,234.7 9.6,235.4 11.6,235.9 C13.8,236.4 16,236.8 18.1,237.2 C20.7,237.7 23.3,238.1 25.9,238.8 C28.4,239.4 30.8,240.3 33.3,241 C35.2,241.5 37.2,241.9 39.2,242.4 C41.6,243 43.9,243.6 46.2,244.2 C48.6,244.9 51,245.6 53.4,246.3 C55.6,246.9 57.8,247.4 60,248 C62.7,248.8 65.4,249.6 68.1,250.4 C70.4,251.1 72.8,251.7 75.2,252.3 C77.3,252.9 79.4,253.4 81.4,254 C84,254.8 86.6,255.6 89.2,256.4 C91.3,257 93.4,257.5 95.6,258.1 C97.9,258.7 100.1,259.2 102.4,259.7 C105.2,260.4 108.1,261.1 110.9,261.8 C113.5,262.4 116.2,262.9 118.8,263.5 C120.2,263.8 121.6,264.3 123,264.6 C124.5,265 126.1,265.2 127.7,265.6 C130.3,266.3 133,267 135.6,267.7 C140.1,268.7 144.6,269.7 149.1,270.6 C152.8,271.4 156.6,272.1 160.3,272.8 C162,273.1 163.7,273.4 165.4,273.7 L167.3,273.7 C167.6,273 168,272.2 168.3,271.5 C168.8,270.1 169.3,268.8 169.7,267.4 C172.1,251 176.1,234.8 181,218.9 C181.3,217 181.6,215.1 181.9,213.3 C182.5,209.7 182.9,206.1 183.4,202.6 C184,198.4 184.6,194.3 185.3,190.1 C185.7,187.7 186.3,185.2 186.7,182.8 C187.3,179.2 187.8,175.6 188.4,172.1 C189,168.6 189.7,165.2 190.4,161.7 C191,158.6 191.6,155.6 192.2,152.5 C193.2,147.6 194.3,142.7 195.4,137.8 C196,135.2 196.4,132.6 197,130 C197.6,127.4 198.3,124.8 198.9,122.2 C199.7,118.8 200.3,115.4 201.1,112 C201.7,109.4 202.2,106.7 202.7,104.1 C203.1,102.1 203.4,100.2 203.7,98.2 C204,96.5 204.4,94.9 204.8,93.2 C205.4,90.3 205.9,87.3 206.5,84.4 C206.9,82.4 207.4,80.4 207.8,78.4 C208.2,76.6 208.4,74.9 208.7,73.1 C209.2,70.7 209.7,68.2 210.1,65.8 C210.5,63.6 210.8,61.4 211.3,59.3 C211.9,56.8 212.6,54.4 213.3,52 C214,49.5 214.6,46.9 215.2,44.4 C215.4,43.6 215.4,42.9 215.5,42.1 C215.5,41.9 215.8,41.6 215.9,41.4 L215.9,40 C215.9,39 215.6,38.5 215.2,38 Z M208.4,45.2 C207.6,48.3 206.8,51.5 206.1,54.6 C205.8,56.1 205.7,57.6 205.3,59.1 C204.8,61.7 204.1,64.3 203.6,66.9 C203,69.7 202.5,72.6 201.9,75.4 C201.5,77.4 200.9,79.3 200.5,81.2 C200.1,83 199.9,84.9 199.5,86.7 C199.3,87.7 198.9,88.7 198.7,89.7 C198.1,92.2 197.5,94.7 197,97.2 C196.3,100.7 195.7,104.3 194.9,107.9 C194.4,110.3 193.8,112.6 193.2,115 C192.7,117.1 192.3,119.3 191.8,121.4 C191.2,123.9 190.7,126.4 190.1,128.9 C189.5,131.6 188.8,134.2 188.1,136.9 C187.3,140.4 186.4,143.9 185.6,147.5 C184.8,151.4 184,155.3 183.2,159.2 C182.6,162.2 182.2,165.2 181.6,168.3 C181.4,169.5 181,170.6 180.8,171.8 C180.1,175.6 179.4,179.5 178.8,183.4 C178.2,186.8 177.8,190.2 177.3,193.6 C177.1,195.1 176.6,196.5 176.4,197.9 C176.1,200.1 175.8,202.4 175.5,204.7 C175.3,206.2 174.9,207.6 174.7,209.1 C174.2,212.4 173.9,215.7 173.4,219 C173.1,221.2 172.5,223.3 172.1,225.5 C171.4,228.8 170.8,232 170.2,235.3 C169.5,238.7 168.7,242.1 168,245.5 C167.6,247.4 167.4,249.3 167.1,251.2 C166.7,253.6 166.2,256.1 165.8,258.5 C165.5,260.6 165.2,262.6 164.9,264.7 C164.9,264.9 164.4,265.3 164.2,265.2 C159.7,264.3 155.2,263.4 150.7,262.4 C145.7,261.3 140.7,260.3 135.7,259.2 C131.7,258.3 127.7,257.2 123.7,256.3 C119.6,255.3 115.5,254.4 111.3,253.5 C109.3,253 107.4,252.5 105.4,252.1 C103,251.5 100.6,251 98.2,250.4 C95.6,249.7 93.1,249 90.6,248.2 C87,247.2 83.4,246.1 79.8,245.1 C77,244.3 74.3,243.7 71.5,242.9 C70,242.5 68.5,241.9 66.9,241.5 C65.1,241 63.3,240.6 61.5,240.1 C59.4,239.5 57.2,238.9 55.1,238.3 C50.3,237 45.6,235.7 40.8,234.5 C35.6,233.2 30.4,231.9 25.2,230.7 C23.2,230.2 21.2,230.1 19.2,229.7 C16.7,229.2 14.3,228.6 11.9,228.2 C10.4,227.9 8.8,227.7 7.3,227.4 C7.1,227.4 6.8,227.1 6.8,227 C7.2,225.1 7.6,223.3 8,221.4 C8.4,219.5 8.7,217.6 9.1,215.7 C9.6,213 10,210.3 10.5,207.6 C11,204.9 11.7,202.2 12.2,199.5 C13,195.3 13.8,191.1 14.7,187 C15.4,183.7 16.2,180.4 16.9,177.1 C17.4,174.9 17.7,172.7 18.1,170.5 L18.1,170.5 C18.4,168.9 18.6,167.3 18.9,165.7 C19.6,161.8 20.3,157.8 21,153.9 C21.8,149.1 22.6,144.4 23.4,139.6 C24.2,134.8 24.9,129.9 25.6,125.1 C26,122.3 26.5,119.6 26.9,116.9 C27.3,114.2 27.6,111.5 28,108.8 C28.4,105.7 28.9,102.6 29.3,99.6 C29.7,96.6 30.1,93.5 30.4,90.5 C30.7,88 31.1,85.4 31.4,82.9 C31.8,79.8 32.2,76.7 32.6,73.6 C33,70.4 33.5,67.2 33.9,64.1 C34.1,62.3 34.4,60.6 34.6,58.8 C34.7,58.3 34.9,57.8 34.9,57.3 C35.1,55.5 35,53.5 35.6,51.8 C36.3,50 36.4,48.1 36.7,46.2 C37.4,41.8 37.9,37.3 38.4,32.9 C38.8,29.9 38.9,26.8 39.3,23.8 C39.6,21.8 40.4,19.9 40.8,17.9 C41.4,14.9 41.8,11.9 42.3,8.9 C42.4,8.2 42.7,8.1 43.3,8.3 C45.5,8.9 47.8,9.6 50,10.1 C52.5,10.7 55.1,11.3 57.7,11.7 C60.3,12.1 62.9,12.4 65.5,12.8 C69.1,13.4 72.6,13.9 76.2,14.6 C78.3,15 80.4,15.6 82.5,16.1 C84.8,16.6 87.1,16.9 89.3,17.4 C91.2,17.8 93,18.4 94.8,18.9 C96.7,19.4 98.6,19.8 100.5,20.3 C102,20.7 103.4,21 104.9,21.4 C107.9,22.1 111,22.7 114,23.3 C116.5,23.9 118.9,24.5 121.4,25.1 C124.9,26 128.5,26.9 132,27.8 C133.5,28.2 135,28.7 136.6,29.1 C138.3,29.5 140,29.7 141.7,30.2 C144,30.8 146.2,31.5 148.4,32.1 C150.1,32.5 151.7,32.9 153.4,33.3 C155.1,33.7 156.7,34.3 158.4,34.7 C160.5,35.2 162.7,35.6 164.8,36.1 C167.2,36.7 169.5,37.3 171.9,37.9 C174.6,38.5 177.2,39 179.9,39.6 C181.9,40 183.8,40.6 185.8,41 C188.1,41.5 190.4,41.9 192.8,42.4 C195.1,42.9 197.5,43.4 199.8,43.8 C202.4,44.2 204.9,44.5 207.5,44.8 C208.5,44.4 208.6,44.6 208.4,45.2 Z" id="Shape"></path>
            <path d="M175.8,113.9 C176.4,110.4 177,107 177.6,103.5 L177.6,103.5 C177.7,103.4 177.7,103.3 177.8,103.2 C179.8,92.3 182.3,81.5 184.8,70.7 C184.7,70 184.9,69.6 185.1,69.2 C185.7,66.7 186.2,64.2 186.7,61.7 C186.8,61.1 186.9,60.6 187,60 C187,59.4 186.9,58.9 186.9,58.3 C186.9,56.9 184.7,54.8 183.7,55.3 C182.5,55.9 181.5,55.3 180.6,55.2 C178.6,55 176.7,54.2 174.7,53.6 C171.9,52.7 169.2,51.7 166.4,51 C164.1,50.4 161.8,50.1 159.4,49.7 C156.8,49.2 154.1,48.7 151.5,48.2 C149.1,47.8 146.6,47.5 144.2,47.1 C141.9,46.7 139.5,46 137.2,45.5 C133.4,44.6 129.5,43.8 125.7,43 C122.1,42.2 118.4,41.4 114.8,40.6 C111.9,40 109,39.4 106.1,38.9 C102.5,38.3 99.1,37 95.3,36.8 C93,36.7 90.9,35.4 88.6,34.9 C85.9,34.3 83.1,33.9 80.3,33.4 C77.1,32.8 73.9,32.1 70.8,31.5 C67,30.7 63.2,29.9 59.4,29.1 C58.5,28.9 57.4,29 57,29.9 C56.7,30.6 56.4,30.6 55.8,30.5 C55,30.3 54.6,30.6 54.7,31.5 C54.8,32.9 54.8,34.3 54.7,35.7 C54.3,40.1 53.5,44.4 53.4,48.8 C53.3,51.8 52.3,54.7 51.9,57.6 C51.4,60.5 50.8,63.3 50.3,66.2 C49.6,70.1 49,74 48.3,78 C48,79.6 47.8,81.3 47.6,82.9 C47.3,84.8 47,86.8 46.7,88.7 C46.4,90.6 46,92.6 45.7,94.5 C45.2,97.4 44.8,100.3 44.4,103.1 C44.1,105.4 43.7,107.6 43.4,109.9 C43.1,112.3 42.8,114.7 42.5,117 C42.2,119.3 41.8,121.5 41.4,123.8 C40.9,127 40.4,130.2 39.8,133.4 C39.4,135.8 38.9,138.2 38.5,140.5 C38,143.3 37.6,146.1 37.1,148.8 C36.7,151.2 36.3,153.6 35.8,156 C35.3,159 34.8,161.9 34.3,164.9 C33.8,168.1 33.2,171.3 32.6,174.5 C32.3,176.4 32,178.4 31.6,180.3 C30.9,183.5 30.1,186.7 29.4,189.9 C29,191.6 28.6,193.3 28.3,195 C27.9,197.2 27.5,199.4 27.1,201.6 C26.9,202.9 26.5,204.2 26.2,205.4 C25.8,207.4 25.3,209.4 24.9,211.4 C24.7,212.4 24.2,214 24.6,214.2 C25.9,215.1 24.8,216.1 25,217 L25,217.4 C26.1,217.7 27.3,218 28.4,218.1 C30.8,218.4 33.2,218.4 35.6,219 C39,219.9 42.3,221.2 45.7,222.1 C48.3,222.9 51,223.5 53.7,224.1 C55.7,224.6 57.7,225 59.6,225.4 C61.7,225.9 63.9,226.3 66,226.7 C68.7,227.2 71.4,227.4 74,228 C78.2,229.1 82.4,230.1 86.7,230.8 C89.8,231.3 92.9,232 96,232.8 C100.2,234 104.6,234.7 108.9,235.8 C112.1,236.6 115.2,237.5 118.3,238.5 C120.4,239.2 122.5,240.1 124.6,240.8 C125.9,241.2 127.5,240.9 128.6,242 L128.9,241.7 L129.2,241.7 C131.1,242.3 133,243 134.9,243.5 C135.6,243.7 136.4,243.8 137.2,244 C138.9,244.5 140.5,245 142.2,245.5 C142.5,245.6 142.8,245.7 143.1,245.8 C143.9,246 144.7,246.2 145.5,246.5 C146,246.7 146.2,247.4 146.7,247.5 C147.7,247.9 149,247 149.4,245.7 C150,243.7 150.6,241.8 151.1,239.8 C152,236.2 152.8,232.6 153.5,228.9 C154,226.4 154.4,223.9 154.7,221.4 C155.2,218.3 155.6,215.1 156.1,212 C156.5,209.4 157,206.9 157.5,204.4 C158,202.1 158.5,199.7 158.9,197.4 C159.2,195.6 159.4,193.8 159.8,192 C160.5,188.7 161.3,185.4 161.9,182 C162.5,178.9 163,175.8 163.6,172.7 C164.1,169.7 164.8,166.8 165.3,163.8 C166,159.7 166.5,155.5 167.5,151.4 C168.6,146.7 169.4,142 170.7,137.3 C171.7,133.6 172.4,129.8 173.2,126.1 C173.4,125.1 173.9,124.1 174.1,123.1 C174.8,120.6 175.2,117.2 175.8,113.9 Z M176.1,98.8 L176.5,98.8 L176.2,99 C176.2,99 176.2,98.9 176.1,98.8 Z M177.7,99.6 C177.3,99.3 177,99.1 176.6,98.8 C176.8,98.7 177,98.6 177.2,98.5 C177.3,98.5 177.4,98.5 177.5,98.4 C177.4,98.5 177.4,98.5 177.3,98.6 C178.4,98.7 177.8,99.3 177.7,99.6 Z M140.7,243.5 C140.6,243.5 140.6,243.3 140.5,243.2 C140.8,243.1 141.1,243.1 141.4,243 C141.4,243.1 141.4,243.2 141.5,243.2 C141.2,243.3 140.9,243.4 140.7,243.5 Z M171.6,113.2 C171,115.9 170.5,118.6 169.9,121.3 C169.4,123.4 168.8,125.4 168.3,127.4 C167.5,130.5 166.8,133.7 166.1,136.9 C165.2,140.7 164.3,144.4 163.4,148.2 C162.5,151.9 161.7,155.5 160.9,159.2 C160.6,160.9 160.6,162.6 160.4,164.3 C160.2,165.8 159.7,167.4 159.4,168.9 C159.1,170.2 158.8,171.5 158.5,172.7 C158.1,174.9 157.8,177.2 157.3,179.4 C156.8,182 156,184.5 155.5,187 C155,189.6 154.8,192.3 154.2,194.9 C153.8,197.1 153,199.2 152.5,201.4 C151.5,205.6 150.7,209.8 149.8,214 C148.8,218.7 147.6,223.4 146.8,228.1 C146,232.5 144.8,236.8 143.8,241.1 C143.4,242.8 142.8,243 141.2,242.2 C140.5,241.8 139.8,241.7 139.1,241.4 C137.8,240.9 136.5,240.2 135.2,239.8 C133.7,239.3 132,239.2 130.5,238.8 C129.3,238.5 128.1,238 126.9,237.5 C125.9,237.1 125,236.7 124.1,236.4 C122.8,236 121.5,235.8 120.3,235.4 C119.2,235 118.1,234.4 117,234 C115.2,233.4 113.4,232.8 111.6,232.3 C107.4,231.3 103.2,230.4 99.1,229.3 C93.5,227.8 87.9,226.2 82.3,224.7 C80.9,224.3 79.5,223.8 78.1,223.7 C77.2,223.7 76.5,223.3 75.7,223.1 C74.8,222.9 73.9,222.7 73,222.5 C70.3,221.9 67.5,221.4 64.8,220.8 C60.6,219.9 56.5,218.9 52.3,217.9 C50.2,217.4 48.1,217 46.1,216.4 C43.8,215.7 41.5,214.7 39.2,214.1 C37.2,213.5 35.1,213.3 33,212.9 C32.5,212.8 32.1,213 32.3,212.1 C32.9,209.4 33.3,206.7 33.8,204 C34.7,198.9 35.6,193.9 36.5,188.8 C37.3,184.5 38.1,180.1 38.9,175.8 C39.5,172.8 40,169.7 40.6,166.7 C41.3,162.4 42,158.2 42.6,153.9 C42.9,152.3 43.2,150.6 43.5,149 C44,146.3 44.4,143.6 44.9,140.9 C45.6,137 46.2,133.1 46.9,129.2 C47.5,125.7 48.2,122.2 48.7,118.7 C49.2,115.3 49.5,111.8 50,108.3 C50.6,104.3 51.3,100.4 51.9,96.5 C52.4,93.1 52.9,89.7 53.4,86.2 C53.9,82.9 54.4,79.6 54.9,76.3 C55.4,73 55.9,69.6 56.5,66.3 C57,63.4 57.6,60.6 58.1,57.7 C58.6,55.1 59,52.4 59.4,49.7 C59.8,46.7 60.2,43.8 60.7,40.8 C60.9,39.3 61.4,37.9 61.5,36.4 C61.6,35.6 61.9,35.6 62.4,35.7 C65.1,36.4 67.8,37 70.4,37.8 C74.3,39 78.3,39.5 82.2,40.3 C86,41 89.9,41.4 93.8,41.9 C95.7,42.2 97.7,42.5 99.6,42.9 C101.4,43.2 103.2,43.7 105,43.9 C106.9,44.2 108.9,44.1 110.8,44.5 C113.8,45.1 116.8,46 119.8,46.7 C121.9,47.2 124.1,47.5 126.3,48 C128,48.4 129.7,49 131.5,49.4 C132.8,49.7 134,49.9 135.3,50.2 C137.4,50.6 139.5,51.1 141.6,51.5 C143.6,51.9 145.6,52.1 147.7,52.5 C149,52.7 150.3,52.9 151.6,53.1 C154.2,53.6 156.8,53.9 159.4,54.5 C162.5,55.2 165.8,55.8 168.7,57 C171.1,58 173.6,58.2 176,58.9 C178.2,59.6 180.5,60.1 182.7,60.7 C182.9,60.7 183.1,61.1 183,61.2 C182.2,64.7 181.4,68.3 180.7,71.8 C180.1,75.1 179.5,78.5 179,81.8 C178.7,84.2 178.5,86.6 178.2,89 C178,91 177.8,93.1 177.6,95.1 C177.6,95.5 177.2,95.9 177,96.2 L177,96.2 C176.7,96.9 176.5,97.7 176.2,98.4 C176.1,98.8 175.9,99.3 175.9,99.6 C176.1,100.6 175.7,101.2 175,102 C174.4,102.7 174.3,103.9 174,104.9 C172.9,107.8 172.2,110.5 171.6,113.2 Z" id="Shape"></path>
            <path d="M177.3,103.5 L177.3,103.4 L177.4,103.5 C177.5,103.6 177.4,103.5 177.3,103.5 Z" id="Shape"></path>
            <path d="M158.3,69.5 C158.8,70.4 159.8,71.2 158.9,72.5 C158.8,72.6 159,73 159.1,73 C160.8,73.5 160.8,75.2 161.4,76.5 C161.9,77.7 162.4,79 162.8,80.3 C163.2,81.5 163.8,82.6 164.1,83.8 C164.2,84 163.4,84.5 163,84.7 C162.8,84.8 162.4,84.7 162.3,84.5 C161.5,83.1 160.1,82.1 159.7,80.4 C159.2,78.6 158.2,76.9 157.5,75.1 C157.1,73.9 156.9,72.7 156.6,71.5 C156.5,71.3 157.2,70.8 157.4,70.7 C157.6,70.3 157.9,69.9 158.3,69.5 Z" id="Shape"></path>
            <path d="M151.8,74.3 C152,73.7 152.1,73.4 152.2,73 C152.3,73 152.4,72.9 152.5,72.9 C153.4,75.2 154.3,77.5 155.2,79.8 C155.8,81.3 156.3,82.8 156.9,84.4 C157.1,85 157.3,85.7 157.5,86.3 C157.5,86.5 157.4,86.8 157.3,87 C157.1,86.9 156.8,86.8 156.6,86.6 C156.5,86.5 156.4,86.2 156.4,86 C156.2,86.3 156,86.6 155.9,86.9 C155.8,87.1 155.9,87.5 156.1,87.6 C156.6,88 157.2,88.2 157.8,88.5 L157.8,88.5 C157.7,88.8 157.5,89.2 157.4,89.5 C157.3,89.6 157.1,89.7 157,89.8 C157,89.7 157.1,89.4 157.1,89.4 C155.8,88.5 155.6,86.9 154.9,85.6 C154.4,84.8 154.4,83.7 154.1,82.8 C154,82.5 153.6,82.3 153.7,82 C153.8,80.9 152.7,80.2 152.6,79.2 C152.5,78.5 152.6,78 152.1,77.4 C151.5,76.6 151.5,75.2 151.3,74.1 C151.3,73.9 151.7,73.6 151.9,73.4 C151.6,73.6 151.7,73.8 151.8,74.3 Z" id="Shape"></path>
            <path d="M176.6,96.4 C176.5,96.4 176.5,96.4 176.4,96.3 L176.5,96.2 C176.5,96.3 176.6,96.3 176.6,96.4 L176.6,96.4 Z" id="Shape"></path>
        </g>
    </g>
</svg>